<?xml version="1.0" standalone="no"?>
<!DOCTYPE svg PUBLIC "-//W3C//DTD SVG 20010904//EN"
 "http://www.w3.org/TR/2001/REC-SVG-20010904/DTD/svg10.dtd">
<svg version="1.0" xmlns="http://www.w3.org/2000/svg"
 width="450.000000pt" height="269.000000pt" viewBox="0 0 450.000000 269.000000"
 preserveAspectRatio="xMidYMid meet">
<metadata>
Created by potrace 1.10, written by Peter Selinger 2001-2011
</metadata>
<g transform="translate(0.000000,269.000000) scale(0.050000,-0.050000)"
fill="#000000" stroke="none">
<path d="M412 5337 c5 -8 -3 -18 -17 -24 -14 -5 -5 -11 20 -11 25 -1 45 -15
45 -30 0 -16 31 -39 70 -52 38 -13 77 -35 85 -49 8 -14 36 -32 63 -41 30 -9
43 -7 34 6 -7 12 -1 25 13 30 14 4 6 5 -18 1 -23 -4 -53 6 -65 21 -19 22 -6
26 72 21 85 -6 125 -18 228 -70 20 -10 43 -7 58 7 20 19 23 18 12 -1 -10 -16
0 -25 27 -25 22 0 41 9 41 20 0 33 86 23 165 -20 41 -22 75 -34 75 -28 0 7 15
1 33 -14 43 -36 147 -41 147 -8 0 14 14 31 30 37 19 7 30 0 30 -19 0 -17 8
-25 19 -19 10 6 24 3 31 -9 7 -11 30 -20 51 -20 22 0 37 -11 34 -25 -3 -13 18
-27 45 -31 28 -3 64 -11 80 -18 17 -7 44 -10 62 -8 59 7 143 -37 131 -68 -7
-17 -1 -31 13 -33 13 -1 51 -4 84 -7 105 -8 110 -9 110 -39 0 -22 17 -26 72
-17 47 8 77 3 87 -13 9 -14 44 -27 79 -30 34 -3 79 -20 100 -39 28 -25 40 -28
46 -10 10 30 56 6 56 -28 0 -14 -8 -12 -20 6 -17 26 -19 25 -20 -5 0 -55 75
-119 122 -104 37 11 178 -39 178 -63 0 -6 -9 -5 -20 2 -11 7 -20 3 -20 -8 0
-11 57 -19 130 -19 157 0 156 -4 20 79 -61 38 -144 97 -184 132 -40 35 -93 68
-117 74 -23 6 -96 43 -161 82 -65 40 -140 77 -168 83 -27 6 -104 27 -170 48
-66 20 -177 51 -247 68 -70 17 -201 66 -290 109 -90 43 -208 83 -263 90 -55 7
-154 21 -220 32 -344 54 -817 88 -798 57z"/>
<path d="M46 5323 c-34 -10 -40 -20 -26 -43 11 -16 20 -20 20 -7 0 12 14 28
31 35 24 9 29 2 19 -28 -10 -31 -4 -40 27 -40 64 0 101 21 90 52 -6 15 -19 23
-28 18 -9 -6 -22 -2 -29 10 -14 22 -37 23 -104 3z"/>
<path d="M340 5210 c0 -16 9 -30 20 -30 11 0 20 -14 20 -32 0 -20 11 -28 29
-21 17 6 35 2 42 -9 7 -12 25 -16 40 -11 45 18 77 -40 35 -65 -34 -19 -34 -21
-1 -21 19 -1 35 8 35 19 0 11 13 20 29 20 19 0 25 12 18 32 -10 25 -16 26 -29
5 -18 -28 -25 -11 -19 48 3 27 -12 35 -68 35 -39 0 -71 10 -71 21 0 12 -9 16
-20 9 -11 -7 -20 -3 -20 9 0 11 -9 21 -20 21 -11 0 -20 -13 -20 -30z"/>
<path d="M250 5116 c-22 -12 -44 -29 -50 -36 -5 -8 -21 -18 -35 -22 -18 -6
-14 -19 15 -43 39 -33 40 -33 40 15 0 28 9 50 20 50 11 0 20 -8 20 -18 0 -10
32 -17 70 -16 86 2 91 26 10 44 -33 7 -55 22 -49 32 14 23 8 22 -41 -6z"/>
<path d="M240 4989 c0 -29 121 -109 165 -109 14 0 -6 19 -45 42 -38 24 -73 51
-77 60 -7 20 -43 25 -43 7z"/>
<path d="M529 4765 c5 -51 13 -56 72 -48 22 3 -40 101 -65 102 -7 1 -11 -24
-7 -54z"/>
<path d="M1500 4771 c0 -11 121 -71 143 -71 10 0 6 18 -8 40 -21 34 -135 60
-135 31z"/>
<path d="M5478 4732 c-4 -5 -138 -23 -298 -40 -159 -18 -384 -50 -500 -71
-115 -21 -349 -49 -520 -61 -682 -50 -1339 -220 -2050 -530 -33 -15 -96 -38
-140 -51 -44 -13 -147 -55 -230 -93 -142 -64 -195 -91 -525 -264 -92 -48 -132
-80 -125 -99 6 -17 0 -24 -16 -17 -31 11 -44 -78 -14 -96 11 -7 20 -1 20 12 0
14 6 19 13 11 8 -7 30 2 50 20 21 18 37 27 37 19 0 -7 33 9 72 36 40 27 85 44
99 39 18 -7 23 4 16 36 -8 35 -5 40 9 19 26 -36 85 -13 98 38 12 43 36 52 56
20 7 -11 3 -20 -9 -20 -11 0 -21 -9 -21 -19 0 -38 58 3 64 46 4 24 19 40 35
37 15 -3 34 5 43 19 17 28 78 41 78 17 0 -9 -27 -29 -60 -43 -67 -30 -82 -66
-20 -48 101 28 129 33 106 17 -15 -11 14 -19 76 -21 72 -3 96 3 87 21 -6 13 2
7 20 -15 30 -38 31 -38 31 4 0 23 5 56 12 73 7 18 2 32 -11 32 -13 0 -18 -8
-12 -18 6 -10 -4 -23 -22 -30 -24 -10 -29 -3 -21 28 8 30 1 40 -29 40 -26 0
-34 -9 -25 -25 11 -20 8 -20 -13 0 -21 19 -22 30 -3 49 13 13 24 17 24 8 0 -9
13 -6 29 7 31 26 79 10 61 -19 -6 -10 14 -10 45 -1 88 26 165 66 165 85 0 10
10 12 23 4 14 -9 18 -5 9 8 -9 16 -33 12 -78 -13 -105 -58 -129 -63 -158 -28
-23 28 -21 31 18 21 24 -7 47 -4 50 6 3 10 25 22 49 27 24 4 69 21 100 37 84
42 193 60 175 29 -8 -14 6 -5 30 20 50 51 71 58 55 17 -18 -48 43 -53 117 -9
107 63 221 74 186 19 -14 -24 -38 -38 -52 -32 -14 5 -21 1 -14 -10 7 -11 28
-21 46 -22 21 -1 24 -5 9 -11 -35 -14 -31 -40 5 -40 17 0 30 16 30 36 0 40 30
50 50 17 7 -11 3 -20 -9 -20 -11 0 -21 -11 -21 -23 0 -13 6 -18 13 -11 7 7 29
4 49 -7 42 -23 15 63 -37 117 -14 15 -25 44 -25 64 0 40 -171 7 -235 -44 -18
-15 -25 -12 -25 13 0 19 28 44 65 59 75 30 131 50 145 52 5 1 47 15 92 31 108
38 113 37 58 -11 -25 -22 -54 -40 -63 -40 -9 0 -17 -9 -17 -20 0 -11 20 -10
50 4 28 12 50 30 50 39 0 9 10 17 21 17 12 0 16 -9 9 -20 -7 -11 -2 -20 11
-20 13 0 19 12 13 27 -6 15 -2 39 8 55 13 22 17 22 18 2 0 -20 8 -19 31 5 34
33 69 41 69 16 0 -9 -22 -32 -49 -53 -48 -35 -48 -39 -19 -96 17 -33 36 -55
42 -48 7 6 0 25 -15 43 -21 26 -21 35 -1 48 14 8 25 21 24 28 -1 7 2 13 8 14
5 0 31 21 59 46 52 48 112 61 134 27 17 -26 57 1 57 38 0 17 9 25 20 18 13 -8
13 -25 0 -49 -16 -31 -13 -35 21 -26 34 8 39 21 28 73 -8 35 -6 55 4 45 9 -9
17 -25 17 -36 0 -11 47 -23 105 -26 93 -5 105 -1 105 34 0 33 5 36 30 15 22
-19 30 -19 30 -1 0 13 9 18 20 11 11 -7 20 -32 21 -56 0 -40 2 -41 21 -8 15
26 14 44 -3 65 -28 34 -14 37 107 30 41 -3 89 7 106 20 24 20 34 20 54 -1 19
-21 18 -23 -6 -10 -23 12 -25 10 -7 -9 26 -28 75 -10 56 20 -13 22 -8 23 186
30 80 3 145 -1 145 -10 0 -9 15 -22 33 -29 28 -11 29 -9 5 21 -26 31 -21 33
64 21 51 -7 99 -7 106 0 7 7 50 17 96 21 46 4 101 17 122 28 27 14 45 14 60
-1 48 -48 160 -27 149 28 -8 42 -2 50 38 50 26 0 47 8 47 18 0 10 45 17 100
15 55 -2 100 -9 100 -17 0 -7 20 -10 45 -5 25 5 90 8 145 8 297 -4 330 -7 305
-24 -15 -11 12 -15 72 -9 54 5 104 19 111 31 8 12 24 14 40 4 35 -21 10 -63
-29 -48 -39 15 -95 -8 -79 -33 7 -11 23 -14 36 -6 13 8 39 12 58 9 23 -3 39
12 48 47 9 38 22 49 45 40 18 -7 89 -18 157 -24 72 -7 120 -20 113 -31 -6 -10
7 -9 31 4 23 12 40 14 37 4 -3 -11 4 -19 15 -19 11 0 17 10 14 21 -4 15 2 15
20 1 33 -27 156 -44 156 -23 0 10 15 17 32 17 28 0 29 -5 5 -34 -18 -23 -19
-29 -2 -19 14 9 25 6 25 -6 0 -14 -20 -17 -53 -8 -37 9 -49 6 -39 -10 8 -13
36 -23 63 -23 27 0 49 -8 49 -18 0 -26 -52 -64 -67 -48 -7 7 -13 6 -13 -2 0
-8 13 -28 29 -44 30 -30 64 -4 41 32 -7 11 8 20 34 20 34 1 39 5 19 18 -32 20
-51 142 -23 142 11 0 20 -14 20 -31 0 -16 13 -35 29 -41 15 -6 25 -28 21 -48
-5 -27 2 -34 23 -26 17 6 24 24 17 43 -7 17 -6 25 2 18 8 -8 26 -5 40 7 26 21
94 -1 90 -29 -5 -35 0 -41 16 -16 12 20 27 22 55 7 28 -15 57 -11 114 17 63
31 75 32 65 7 -7 -18 -3 -25 9 -17 11 7 33 2 49 -11 16 -13 39 -17 53 -8 17
11 13 19 -14 30 -33 13 -33 15 -5 17 19 0 41 -12 50 -28 11 -19 64 -32 156
-39 77 -5 147 -10 155 -11 8 0 15 -11 15 -22 0 -13 -17 -16 -40 -9 -22 7 -40
4 -40 -6 0 -11 31 -23 69 -28 55 -6 65 -3 47 19 -37 45 -1 52 52 10 28 -22 46
-44 40 -50 -6 -6 23 -11 64 -11 52 0 66 5 46 18 -33 22 129 8 165 -14 16 -10
20 -1 12 29 -9 36 -6 39 26 23 20 -11 59 -20 87 -20 27 0 55 -9 61 -19 7 -11
25 -14 42 -8 18 7 29 -1 29 -22 0 -18 9 -28 20 -21 10 6 40 1 65 -13 25 -14
63 -28 85 -32 46 -7 91 -45 54 -45 -13 0 -24 -8 -24 -19 0 -10 18 -17 40 -16
52 4 51 30 -5 77 -33 28 -35 35 -10 26 19 -7 35 -3 35 9 0 30 142 13 218 -26
152 -78 162 -78 162 6 l0 76 -155 23 c-85 12 -209 28 -275 34 -173 18 -315 54
-285 73 18 12 16 16 -8 17 -46 0 -60 49 -26 93 18 24 28 28 28 11 1 -42 41 -6
41 37 0 26 -14 39 -40 39 -26 0 -40 -13 -40 -38 0 -21 -12 -42 -28 -48 -17 -7
-23 -30 -17 -62 11 -61 -2 -64 -156 -24 -60 16 -267 53 -459 82 -193 29 -444
69 -560 90 -380 68 -1503 150 -1542 112z m-1791 -332 c-28 -26 -107 -44 -107
-25 0 30 19 40 72 40 28 0 44 -7 35 -15z"/>
<path d="M5110 4520 c7 -12 21 -15 31 -9 11 6 19 -12 19 -40 0 -67 89 -74 106
-9 10 36 4 41 -36 33 -29 -5 -52 2 -58 18 -6 15 -25 27 -43 27 -17 0 -26 -9
-19 -20z"/>
<path d="M5300 4512 c0 -16 -5 -43 -12 -60 -8 -21 -1 -32 21 -32 18 0 29 -7
24 -16 -6 -9 7 -17 28 -19 22 -1 39 6 39 16 0 11 9 19 19 19 11 0 15 -13 9
-29 -8 -20 1 -28 30 -26 41 3 61 35 22 35 -10 0 -25 24 -32 53 -11 44 -17 47
-32 20 -10 -18 -32 -33 -48 -33 -27 0 -27 4 1 31 17 18 31 41 31 52 0 11 -15
5 -32 -13 -18 -17 -38 -26 -45 -20 -6 7 1 21 18 31 24 15 23 18 -6 19 -19 0
-35 -13 -35 -28z"/>
<path d="M620 4503 c0 -30 72 -83 112 -82 37 0 37 1 -2 23 -22 12 -47 35 -56
49 -18 30 -54 37 -54 10z"/>
<path d="M840 4503 c0 -10 34 -40 75 -66 102 -63 105 -64 105 -33 0 22 -49 55
-165 111 -8 4 -15 -1 -15 -12z"/>
<path d="M1152 4503 c-7 -10 44 -67 113 -126 167 -141 234 -211 220 -225 -6
-7 4 -12 24 -12 19 0 71 -28 114 -62 43 -35 82 -59 86 -55 17 18 -31 97 -60
97 -17 0 -54 26 -81 58 -27 32 -98 91 -159 131 -60 41 -140 105 -177 143 -38
39 -74 62 -80 51z"/>
<path d="M561 4439 c24 -46 73 -72 95 -50 13 14 -72 90 -102 91 -8 0 -6 -19 7
-41z"/>
<path d="M5530 4460 c-7 -11 7 -20 30 -20 23 0 37 -8 31 -18 -6 -10 3 -23 19
-29 36 -14 38 6 4 47 -30 37 -68 46 -84 20z"/>
<path d="M6254 4466 c16 -11 18 -27 5 -47 -11 -18 -19 -20 -19 -5 0 13 -18 20
-43 15 -59 -11 -72 -29 -22 -29 44 0 105 -48 105 -83 0 -10 -7 -15 -16 -9 -9
5 -29 1 -45 -9 -23 -15 -21 -18 11 -18 59 0 93 28 79 66 -8 18 -21 33 -31 33
-9 0 -11 14 -5 31 11 27 17 26 54 -5 24 -20 36 -27 28 -18 -8 10 -5 30 8 45
16 20 15 27 -6 27 -15 0 -49 6 -77 12 -31 7 -41 5 -26 -6z"/>
<path d="M5676 4426 c-13 -47 35 -98 52 -55 15 40 52 36 53 -6 2 -30 4 -29 19
5 32 76 25 91 -31 66 -41 -19 -55 -18 -68 2 -11 19 -18 16 -25 -12z"/>
<path d="M6560 4421 c0 -11 -20 -22 -45 -22 l-45 -2 45 -21 c25 -12 45 -30 45
-39 0 -29 35 -19 48 14 6 18 -2 45 -18 62 -17 16 -30 20 -30 8z"/>
<path d="M5840 4410 c0 -60 141 -117 170 -69 8 13 -9 16 -48 9 -48 -8 -62 -3
-62 21 0 19 9 26 23 17 14 -9 18 -5 9 9 -14 22 -92 33 -92 13z"/>
<path d="M1040 4363 c0 -27 72 -85 87 -70 7 8 13 0 13 -16 0 -33 59 -91 150
-146 l60 -37 -60 66 c-179 197 -250 255 -250 203z"/>
<path d="M5034 4347 c-8 -7 -3 -26 9 -41 19 -22 15 -30 -20 -39 -45 -12 -56
-37 -25 -56 10 -6 33 14 53 43 24 37 28 56 12 62 -13 4 -18 16 -12 26 13 21 2
24 -17 5z"/>
<path d="M6093 4341 c-25 -9 -25 -15 -1 -37 23 -21 28 -20 28 6 0 18 9 27 20
20 12 -7 14 -23 6 -36 -8 -14 1 -12 20 3 59 48 13 75 -73 44z"/>
<path d="M7260 4320 c-93 -14 -85 -20 47 -29 43 -3 84 -17 93 -31 9 -14 32
-19 58 -11 23 8 42 6 42 -3 0 -9 27 -16 60 -16 54 0 57 3 26 25 -19 14 -46 21
-60 16 -14 -5 -26 3 -26 20 0 17 -19 29 -48 29 -27 0 -61 3 -75 7 -15 4 -67 1
-117 -7z"/>
<path d="M5580 4304 c0 -10 20 -28 45 -40 40 -19 36 -21 -30 -14 l-75 8 0 -89
c0 -49 -9 -89 -20 -89 -12 0 -8 -20 9 -45 l29 -45 -128 -1 c-127 -1 -150 11
-159 81 -2 11 -14 18 -28 15 -14 -4 -21 3 -14 13 6 11 -9 26 -34 33 -25 8 -56
31 -71 51 -23 33 -95 33 -75 -1 5 -8 -3 -14 -19 -14 -16 0 -33 12 -39 28 -7
17 -21 21 -36 11 -14 -8 -43 -17 -65 -18 -22 -1 -57 -10 -78 -19 -30 -12 -35
-9 -22 11 12 19 8 23 -15 15 -18 -7 -37 -2 -42 11 -8 19 -10 19 -11 0 -1 -13
32 -49 73 -80 102 -76 135 -126 84 -126 -12 0 -15 10 -8 21 8 13 -2 19 -24 15
-21 -3 -35 5 -32 18 2 13 -26 39 -63 57 -54 25 -67 42 -63 81 3 27 -3 55 -15
61 -12 8 -16 -7 -10 -41 6 -29 3 -58 -7 -64 -9 -6 -17 -26 -17 -46 0 -19 -12
-35 -27 -35 -14 0 -26 11 -26 25 0 15 7 22 16 16 10 -6 18 1 19 16 0 14 4 40
7 58 5 22 -7 31 -36 29 -24 -2 -53 4 -66 13 -14 11 -27 5 -34 -14 -7 -19 -2
-30 12 -28 62 8 116 -4 105 -22 -7 -12 -21 -15 -31 -9 -11 6 -19 2 -19 -10 0
-11 -13 -21 -30 -21 -16 0 -30 9 -30 19 0 11 -13 15 -30 8 -23 -9 -30 5 -31
56 l0 67 -29 -50 c-16 -27 -29 -37 -29 -22 -1 16 -8 22 -16 14 -8 -9 2 -28 24
-43 56 -42 23 -58 -37 -18 -29 18 -52 26 -52 17 0 -9 -11 -5 -24 8 -35 35 -67
29 -67 -12 0 -21 15 -37 38 -39 48 -4 68 -23 41 -41 -12 -8 -32 -32 -46 -54
-23 -38 -23 -38 -12 5 9 32 4 45 -17 45 -16 0 -34 11 -40 25 -6 15 -10 11 -11
-10 -1 -19 7 -35 18 -35 11 0 20 -13 20 -28 0 -18 -14 -25 -40 -18 -22 6 -40
21 -40 33 0 13 -9 10 -20 -7 -16 -25 -23 -25 -37 -3 -10 14 -23 26 -30 25 -40
-6 -54 0 -43 18 7 11 2 20 -11 20 -16 0 -20 20 -12 58 8 42 3 62 -19 70 -51
20 -60 12 -22 -17 43 -32 13 -60 -45 -41 -72 23 -122 28 -112 12 6 -9 38 -22
72 -29 66 -13 119 -55 119 -95 0 -16 -12 -13 -37 9 -47 43 -54 42 -58 -12 -2
-34 1 -38 15 -15 10 16 25 22 33 13 25 -25 -38 -53 -66 -30 -14 11 -35 15 -46
8 -12 -8 -21 4 -21 28 0 25 13 42 35 42 30 2 29 4 -5 19 -64 27 -70 23 -57
-38 9 -46 3 -60 -26 -68 -20 -5 -4 -10 37 -12 40 -1 79 -10 85 -20 16 -26 71
-14 92 19 23 37 63 38 91 1 12 -15 50 -27 85 -26 34 1 67 -6 72 -15 6 -9 -109
-17 -254 -17 -274 0 -371 -13 -405 -55 -34 -42 -124 -53 -138 -17 -17 44 -15
52 8 38 25 -16 25 31 0 70 -19 30 -31 6 -22 -46 1 -8 -11 -20 -28 -27 -27 -10
-26 -15 4 -39 22 -16 26 -27 11 -27 -14 -1 -25 -19 -25 -41 0 -22 -7 -39 -15
-38 -36 6 -62 -4 -105 -42 -25 -22 -36 -40 -23 -40 13 0 24 -16 25 -35 1 -22
7 -16 16 15 10 38 34 55 99 71 47 11 85 29 86 40 0 10 6 24 12 29 6 6 5 -1 -3
-15 -9 -15 -3 -25 16 -25 18 0 26 12 20 27 -13 35 116 113 186 113 78 0 33
-29 -59 -38 -8 -1 -15 -9 -15 -18 0 -9 34 -13 75 -9 57 6 68 2 45 -13 -16 -12
-50 -22 -75 -22 -25 0 -45 -9 -45 -20 0 -11 -10 -20 -21 -20 -12 0 -15 10 -7
23 9 15 5 18 -9 9 -13 -8 -18 -24 -11 -35 6 -11 -7 -25 -30 -31 -23 -6 -42
-21 -42 -33 -1 -15 -6 -14 -17 3 -13 20 -27 17 -65 -12 -26 -21 -61 -34 -76
-28 -20 6 -24 -1 -16 -23 9 -23 -2 -36 -37 -45 -27 -7 -45 -19 -40 -27 5 -8
-17 -14 -50 -14 -32 0 -75 -15 -95 -34 -21 -18 -49 -33 -64 -33 -14 0 -54 -21
-89 -48 -34 -26 -77 -51 -95 -55 -25 -5 -16 -24 43 -82 l77 -75 87 85 c48 47
93 83 100 81 25 -9 515 330 501 345 -8 9 -4 10 8 3 12 -7 87 15 166 48 241
101 407 122 1072 132 590 9 648 6 1240 -66 90 -11 244 -56 350 -102 113 -50
420 -228 420 -244 0 -26 147 -97 230 -111 74 -13 315 -79 386 -106 20 -8 26
-4 16 12 -9 14 1 24 27 26 89 5 161 12 166 16 3 3 53 7 113 11 59 3 113 14
120 25 7 12 55 14 118 6 58 -8 110 -8 114 0 5 7 63 24 130 37 66 13 120 34
120 45 0 12 -16 16 -35 9 -29 -10 -29 -7 4 18 39 30 31 38 -34 31 -19 -2 -62
16 -95 39 -71 50 -82 22 -12 -30 35 -27 42 -43 26 -59 -32 -35 -117 9 -103 52
6 19 2 39 -8 45 -10 6 -23 -7 -29 -30 -6 -23 -21 -36 -33 -29 -11 7 -21 5 -21
-5 0 -11 27 -30 60 -44 33 -14 54 -33 48 -43 -12 -19 -106 30 -169 88 -20 19
-46 35 -56 35 -11 0 -24 11 -30 25 -6 14 -11 10 -11 -11 -2 -35 -4 -35 -36 -3
-22 22 -37 26 -42 12 -4 -13 -22 -23 -41 -23 -29 1 -29 3 -3 20 21 14 11 16
-35 7 -40 -7 -76 -2 -95 13 -40 33 -42 -11 -1 -51 33 -34 59 -38 40 -7 -10 16
-3 16 26 1 22 -12 45 -16 52 -9 7 7 36 -8 63 -34 45 -42 60 -41 52 5 -4 27 19
16 74 -38 30 -28 42 -45 27 -37 -15 8 -63 14 -107 14 -44 -1 -75 4 -68 10 16
17 -88 68 -111 54 -30 -18 -121 51 -109 83 6 16 3 29 -7 29 -10 0 -21 -10 -25
-23 -5 -14 -20 -10 -42 11 -25 26 -42 29 -69 14 -27 -16 -29 -21 -5 -22 26 0
26 -3 1 -19 -18 -12 -38 -12 -52 0 -13 10 -30 12 -39 4 -9 -8 -11 1 -4 20 8
22 3 35 -14 35 -15 0 -33 14 -39 30 -7 17 -23 30 -37 30 -20 -1 -20 -4 1 -18
21 -13 19 -19 -8 -30 -19 -7 -46 -2 -61 10 -27 22 -58 19 -133 -12 -25 -10
-35 -5 -35 19 0 18 -9 28 -20 21 -11 -7 -20 -2 -20 10 0 12 -10 16 -23 8 -14
-8 -18 -5 -10 7 7 12 33 16 58 11 44 -11 44 -11 5 20 -22 17 -43 23 -47 13 -3
-11 -20 -19 -37 -19 -18 0 -44 -16 -60 -35 -16 -19 -24 -25 -18 -12 15 30 -33
69 -63 50 -31 -19 -185 -4 -185 19 0 10 -20 19 -45 19 -43 2 -43 3 -5 18 22 8
50 12 63 7 13 -5 30 2 38 16 11 17 6 21 -18 12 -18 -7 -33 -4 -33 7 0 28 -75
23 -86 -6 -5 -14 -15 -1 -23 28 -9 34 -33 58 -63 66 -46 11 -103 103 -79 127
6 6 11 0 11 -13 0 -13 14 -23 30 -23 42 0 38 39 -5 42 -19 2 -41 2 -49 1 -7
-1 -59 -4 -115 -6 -57 -2 -101 -13 -101 -25 0 -12 -9 -8 -20 8 -17 26 -27 26
-81 -5 -33 -19 -55 -24 -48 -13 10 16 2 15 -27 0 -60 -32 -124 -27 -124 9 0
17 8 26 19 20 10 -6 24 -3 31 9 7 11 2 20 -10 20 -12 0 -17 8 -11 18 6 10 -14
16 -44 12 -30 -3 -60 2 -66 11 -6 10 -21 1 -33 -19 -20 -31 -16 -35 26 -27 27
6 48 0 48 -13 0 -12 -27 -22 -60 -22 -64 0 -75 17 -35 57 27 27 -16 71 -49 50
-29 -17 -89 13 -89 45 0 23 15 29 55 23 31 -4 51 0 44 11 -6 10 7 13 30 5 23
-7 47 -2 56 12 10 16 4 20 -19 11 -18 -7 -33 -5 -33 4 0 10 -22 32 -50 50 -27
18 -50 25 -50 16z m-1215 -235 c5 -27 2 -49 -8 -49 -9 0 -18 16 -19 35 -2 31
-4 31 -11 2 -9 -32 -64 -66 -81 -50 -4 5 6 22 23 39 17 17 31 45 31 62 0 48
55 15 65 -39z m617 18 c37 -32 67 -12 36 25 -17 21 -12 24 24 18 25 -5 54 -23
64 -41 9 -17 37 -40 61 -49 28 -12 -1 -15 -87 -8 -71 5 -133 17 -136 28 -4 10
-18 14 -31 8 -14 -5 -24 7 -24 29 0 42 37 38 93 -10z m1331 -147 c1 -44 -6
-80 -16 -80 -9 0 -17 14 -17 30 0 17 -9 30 -20 30 -11 0 -20 10 -20 21 0 12 9
16 20 9 11 -7 20 -3 20 8 0 11 -16 29 -35 40 -30 18 -28 21 15 21 45 1 51 -7
53 -79z m1267 -430 c0 -12 -14 -40 -31 -61 -30 -38 -31 -38 -19 6 10 35 4 45
-24 45 -26 1 -29 5 -10 17 37 24 84 20 84 -7z m-195 -49 c8 -1 28 -1 43 -1 15
0 33 -13 39 -29 8 -20 1 -26 -23 -18 -66 21 -164 76 -164 92 0 9 20 3 45 -14
25 -16 52 -29 60 -30z"/>
<path d="M888 4274 c-22 -26 9 -74 47 -74 10 0 37 -18 61 -41 25 -23 55 -35
69 -27 14 8 18 7 10 -2 -30 -33 175 -158 355 -218 68 -22 -89 95 -170 128 -42
17 -74 36 -73 43 7 30 -77 97 -121 97 -28 0 -43 9 -36 20 7 12 22 15 33 8 11
-7 8 7 -6 30 -15 23 -36 42 -47 42 -11 0 -38 5 -60 10 -22 5 -50 -2 -62 -16z"/>
<path d="M8137 4264 c-31 -32 -28 -34 46 -40 51 -3 75 2 67 15 -7 12 -26 21
-42 21 -17 0 -25 9 -18 20 20 32 -17 21 -53 -16z"/>
<path d="M5204 4248 c-15 -16 -35 -24 -45 -17 -11 6 -19 -1 -19 -15 0 -44 74
-81 88 -44 8 20 3 25 -13 15 -17 -10 -17 -4 2 18 34 42 22 81 -13 43z"/>
<path d="M5769 4249 c30 -23 28 -29 -27 -61 -69 -41 -66 -67 7 -53 28 5 46 17
41 25 -12 19 38 40 93 40 23 0 34 9 26 22 -7 12 -31 17 -52 11 -22 -5 -44 1
-49 15 -5 14 -24 25 -42 25 -27 0 -27 -3 3 -24z"/>
<path d="M6174 4248 c-7 -7 -54 -12 -104 -11 -85 1 -91 -2 -79 -41 10 -32 7
-39 -16 -31 -19 8 -38 -6 -52 -37 -14 -29 -15 -48 -3 -48 11 0 20 14 20 30 0
17 15 30 33 30 18 0 45 16 59 35 25 33 27 33 27 -2 1 -34 5 -33 38 8 21 26 47
39 60 31 29 -18 30 -52 2 -52 -12 0 -15 11 -6 25 10 17 4 16 -19 -2 -43 -35
-43 -34 15 -38 27 -3 54 4 61 15 7 11 23 20 36 20 15 0 13 -9 -6 -22 -24 -17
-22 -20 14 -12 24 5 48 -1 52 -13 5 -13 16 -16 26 -6 10 9 1 29 -22 46 -45 33
32 34 85 0 14 -8 25 -7 25 3 0 11 -11 28 -25 39 -34 27 -118 45 -104 23 14
-22 -76 -15 -92 7 -7 9 -18 10 -25 3z"/>
<path d="M5280 4205 c0 -24 16 -53 35 -65 29 -18 24 -20 -24 -10 -58 13 -59
12 -25 -25 19 -21 29 -43 23 -49 -6 -6 12 -15 41 -21 62 -12 83 15 47 61 -24
30 -23 31 6 8 42 -33 68 2 27 36 -17 14 -30 33 -30 42 0 26 68 22 96 -6 13
-13 24 -18 24 -10 0 35 -98 76 -136 56 -27 -14 -45 -13 -61 3 -17 17 -23 12
-23 -20z"/>
<path d="M3382 4205 c7 -39 -4 -52 -21 -26 -10 17 -26 23 -35 14 -9 -9 1 -29
21 -44 42 -30 108 10 83 51 -14 23 -51 27 -48 5z"/>
<path d="M8273 4197 c-20 -11 -67 -17 -105 -13 -37 4 -68 2 -68 -6 0 -21 126
-35 159 -18 16 9 50 3 80 -14 47 -28 48 -28 12 2 -44 37 -28 40 64 13 84 -24
85 8 2 37 -77 27 -97 27 -144 -1z"/>
<path d="M7000 4179 c0 -12 9 -16 20 -9 12 7 20 6 18 -4 -7 -41 4 -62 31 -58
44 6 63 32 25 32 -21 0 -29 11 -21 30 8 21 -2 30 -31 30 -23 0 -42 -10 -42
-21z"/>
<path d="M6444 4148 c-21 -23 -19 -28 14 -28 21 0 43 -11 49 -25 5 -14 10 2
11 35 1 41 -4 51 -16 33 -10 -16 -20 -19 -25 -7 -4 12 -18 8 -33 -8z"/>
<path d="M7806 4145 c25 -28 28 -52 14 -114 -18 -81 -12 -111 22 -111 11 0 15
8 9 19 -6 10 13 22 44 27 l55 8 -55 3 c-51 3 -82 43 -33 43 12 0 17 14 11 30
-7 17 -3 30 8 30 40 0 18 76 -26 87 -73 20 -83 15 -49 -22z"/>
<path d="M885 4128 c19 -19 143 -88 180 -101 19 -6 35 -20 35 -29 0 -10 16
-18 36 -18 20 0 45 -8 55 -18 32 -30 173 -105 182 -96 5 5 -99 69 -231 141
-216 120 -290 155 -257 121z"/>
<path d="M3440 4098 c0 -36 -5 -39 -30 -18 -19 15 -30 17 -30 4 0 -12 16 -26
35 -31 19 -5 55 -16 80 -23 58 -17 59 23 2 73 -54 47 -57 46 -57 -5z"/>
<path d="M8110 4104 c24 -25 261 -66 460 -79 77 -5 147 -19 155 -32 10 -16 14
-15 15 5 0 20 18 24 71 16 79 -13 135 0 118 28 -6 10 -31 18 -55 19 -24 0 -61
13 -83 30 -41 31 -141 41 -123 12 6 -10 -48 -18 -120 -18 -82 0 -122 7 -105
17 21 14 19 17 -8 18 -19 0 -35 -9 -35 -20 0 -21 -204 -13 -270 11 -28 11 -34
8 -20 -7z"/>
<path d="M3139 4045 c-22 -61 -42 -76 -89 -65 -11 2 -42 4 -70 4 -27 0 -61 10
-75 21 -18 15 -25 9 -25 -20 0 -33 11 -39 65 -34 36 3 79 -7 97 -23 28 -25 36
-25 57 1 14 17 34 25 44 19 54 -33 156 -27 177 11 18 34 16 38 -13 27 -26 -10
-31 -5 -21 21 8 22 3 33 -17 33 -21 0 -27 -15 -20 -53 7 -41 4 -48 -14 -30
-13 13 -41 24 -64 25 -34 2 -35 4 -6 12 39 10 44 40 15 86 -15 24 -23 17 -41
-35z"/>
<path d="M7719 4069 c-19 -23 -17 -29 14 -30 35 -2 35 -3 -2 -17 -24 -10 -30
-20 -16 -29 22 -13 85 35 85 66 0 32 -57 38 -81 10z"/>
<path d="M1444 4066 c-20 -7 -17 -17 10 -37 45 -35 92 -37 81 -4 -5 14 -25 22
-44 19 -21 -4 -30 2 -22 15 14 23 14 23 -25 7z"/>
<path d="M7471 4054 c6 -16 -2 -27 -19 -27 -17 0 -26 7 -20 16 18 29 -26 18
-51 -12 -33 -40 -7 -81 31 -50 15 13 47 19 69 13 31 -8 39 -3 31 17 -17 46 17
49 85 8 82 -50 92 -49 55 4 -36 52 -200 80 -181 31z"/>
<path d="M6443 4014 c-75 -53 -79 -74 -16 -74 25 0 53 -7 61 -15 16 -16 27
-18 91 -22 21 -2 42 -19 47 -38 8 -31 10 -31 12 -1 1 18 18 37 37 42 19 5 -3
10 -49 12 -75 2 -116 62 -43 62 11 0 14 -9 7 -20 -7 -11 6 -20 27 -20 23 0 46
18 53 40 13 41 50 56 50 20 0 -11 83 -18 209 -16 115 1 205 9 201 16 -5 8 13
10 41 5 27 -5 49 -1 49 10 0 11 -114 18 -280 17 -172 -1 -280 -10 -280 -22 0
-11 -9 -6 -20 10 -13 20 -19 22 -20 5 0 -14 -9 -25 -20 -25 -11 0 -20 12 -20
26 0 41 -69 35 -137 -12z"/>
<path d="M8047 4029 c99 -36 333 -61 333 -35 0 19 -268 68 -360 65 -42 -2 -38
-6 27 -30z"/>
<path d="M853 4027 c-7 -7 26 -32 73 -56 46 -23 98 -51 114 -62 80 -51 200
-79 200 -48 0 12 -8 17 -17 11 -19 -12 -203 80 -233 117 -24 29 -119 56 -137
38z"/>
<path d="M1 3985 c0 -8 74 -51 165 -95 90 -44 169 -85 174 -91 18 -22 80 -38
80 -21 0 9 -38 33 -85 53 -47 21 -89 44 -95 51 -27 34 -240 126 -239 103z"/>
<path d="M3441 3959 c26 -22 59 -36 74 -30 16 6 41 11 57 11 15 0 28 14 28 30
0 17 -9 30 -20 30 -11 0 -20 -9 -20 -20 0 -11 -14 -20 -31 -20 -17 0 -27 7
-22 15 5 8 -18 17 -51 19 l-61 5 46 -40z"/>
<path d="M8414 3987 c-24 -24 -15 -47 17 -47 17 0 26 -8 20 -18 -6 -10 11 -8
39 5 49 23 49 23 5 30 -25 4 -50 15 -56 25 -7 10 -18 12 -25 5z"/>
<path d="M2420 3927 c0 -17 10 -23 23 -15 16 10 20 4 12 -16 -9 -22 0 -28 35
-21 26 5 63 -1 83 -13 31 -19 29 -21 -18 -10 -45 10 -55 5 -55 -25 1 -29 5
-31 18 -10 14 23 22 21 39 -10 12 -20 22 -26 22 -12 1 14 27 25 60 25 48 0 57
7 47 34 -8 21 -16 25 -21 10 -15 -43 -46 -25 -38 21 4 25 3 34 -1 20 -5 -14
-18 -25 -29 -25 -10 0 -14 9 -7 20 7 11 -1 15 -18 8 -17 -6 -58 2 -91 19 -54
26 -61 26 -61 0z"/>
<path d="M8664 3938 c6 -15 25 -25 43 -22 18 3 67 -3 108 -15 43 -11 102 -13
135 -4 l60 16 -50 12 c-136 34 -305 41 -296 13z"/>
<path d="M2278 3875 c-17 -47 -14 -135 4 -147 18 -10 21 -4 11 21 -8 20 -3 48
9 64 17 20 17 27 -1 27 -13 0 -18 9 -11 20 7 11 7 20 1 20 -6 0 -12 -2 -13 -5z"/>
<path d="M2980 3851 c0 -17 11 -31 23 -31 13 0 18 -6 11 -13 -7 -7 -27 -1 -44
13 -16 14 -30 17 -30 7 0 -9 -50 -15 -111 -12 -71 3 -107 -2 -99 -15 7 -12 22
-15 34 -8 11 7 28 1 38 -14 13 -20 17 -21 18 -3 0 14 14 25 31 25 17 0 27 -7
21 -17 -15 -23 234 16 258 41 14 14 2 18 -36 11 -34 -6 -68 1 -85 19 -25 25
-29 25 -29 -3z"/>
<path d="M550 3820 c40 -44 244 -127 278 -112 12 5 0 16 -28 24 -27 8 -98 41
-157 72 -127 66 -141 69 -93 16z"/>
<path d="M8220 3830 c0 -22 13 -27 48 -19 26 7 54 3 61 -9 7 -12 23 -22 35
-22 12 0 6 18 -14 40 -43 48 -130 54 -130 10z"/>
<path d="M4120 3802 l90 -14 -100 -15 c-199 -31 -446 -137 -600 -257 -11 -8
-48 -38 -83 -66 -34 -27 -68 -50 -74 -50 -6 0 -45 -23 -87 -52 -42 -28 -114
-69 -160 -90 -46 -21 -89 -47 -96 -58 -18 -28 -131 -25 -125 3 3 13 -14 34
-38 46 -137 72 -145 175 -19 233 45 20 71 37 57 38 -17 0 -23 23 -16 72 4 40
3 67 -3 60 -7 -6 -24 -2 -39 11 -21 17 -27 14 -27 -12 0 -18 -9 -28 -20 -21
-30 19 -24 -9 10 -43 17 -16 30 -40 30 -53 0 -14 -9 -12 -20 6 -11 17 -20 21
-20 10 -1 -11 -13 -4 -28 15 -24 32 -28 31 -51 -14 -24 -44 -66 -65 -170 -85
-43 -8 -117 -67 -102 -82 6 -5 25 3 43 18 40 32 173 80 186 66 6 -5 -10 -15
-34 -21 -24 -6 -44 -20 -44 -29 0 -10 -20 -18 -43 -18 -24 0 -60 -15 -80 -33
-20 -18 -64 -34 -98 -35 -33 -2 -69 -16 -80 -32 -10 -17 -19 -23 -19 -14 0 8
-20 5 -45 -7 -25 -13 -4 15 45 60 71 66 80 82 45 74 -26 -5 -45 0 -45 14 1 50
38 77 112 81 75 4 168 46 168 76 0 8 -31 1 -69 -15 -38 -16 -83 -23 -100 -17
-17 7 -31 4 -31 -6 0 -10 -45 -34 -100 -54 -54 -20 -139 -66 -188 -104 -49
-37 -104 -68 -122 -68 -44 0 -21 32 75 101 45 33 72 59 62 59 -31 0 -127 -49
-127 -65 0 -8 -11 -15 -25 -15 -14 0 -56 -20 -95 -44 -79 -49 -160 -68 -160
-37 0 12 11 21 25 21 19 1 18 5 -2 18 -21 13 -19 19 9 30 19 7 41 3 49 -9 14
-23 49 34 42 68 -2 9 13 10 35 4 21 -7 44 -3 51 8 21 33 -82 25 -116 -9 -17
-16 -38 -30 -47 -30 -10 0 -53 -18 -96 -40 -43 -22 -90 -40 -104 -40 -14 0
-27 -20 -28 -45 -2 -33 -5 -36 -12 -10 -8 30 -14 31 -52 7 -28 -17 -88 -25
-164 -22 -154 7 -150 7 -150 30 0 11 10 18 23 15 12 -3 26 9 31 25 7 24 5 24
-10 3 -10 -14 -22 -25 -26 -23 -23 10 -116 -27 -107 -42 6 -10 -21 -18 -60
-18 -39 0 -71 10 -71 21 0 24 -77 7 -110 -25 -11 -10 4 -9 35 2 30 12 55 14
55 6 0 -8 -31 -24 -69 -36 -45 -14 -65 -14 -57 -1 7 11 0 15 -19 8 -40 -16
-34 30 10 79 18 20 33 45 35 56 1 11 20 18 41 15 22 -2 39 3 39 13 0 9 17 22
39 27 39 11 71 -32 50 -67 -6 -9 3 -12 20 -6 37 15 40 51 6 85 -19 19 -15 27
20 36 25 6 40 19 34 28 -6 10 -53 -1 -105 -24 -52 -22 -112 -45 -134 -50 -75
-19 -140 -30 -174 -30 -21 0 -30 -10 -23 -28 14 -35 17 -35 67 -5 41 26 104
-7 73 -38 -9 -8 -23 -2 -33 14 -15 24 -20 23 -31 -6 -9 -23 -26 -31 -51 -23
-21 6 -38 4 -38 -5 0 -19 -96 -66 -134 -66 -14 0 -26 -10 -26 -22 0 -12 -12
-18 -28 -12 -15 6 -37 1 -50 -12 -16 -16 -22 -14 -22 9 0 45 69 101 129 104
28 2 51 13 51 25 0 14 -51 8 -145 -17 -80 -22 -176 -44 -215 -49 -102 -16
-191 -166 -98 -166 12 0 17 13 11 29 -6 17 -1 36 11 43 14 9 16 5 6 -12 -12
-19 -1 -23 46 -16 40 6 58 1 51 -13 -5 -11 4 -4 22 18 17 21 31 28 31 15 0
-14 29 -24 70 -24 43 0 70 -10 70 -25 1 -20 4 -20 16 0 12 18 167 30 565 44
677 24 1928 43 1915 30 -6 -6 -95 -18 -198 -27 l-188 -16 295 -3 c212 -2 295
4 295 20 0 25 507 16 1330 -24 231 -12 584 -27 784 -35 308 -12 370 -19 400
-49 28 -28 29 -35 5 -35 -19 0 -30 -24 -33 -70 -4 -86 108 -102 201 -29 64 51
69 99 10 99 -38 0 -95 49 -96 82 -1 7 87 23 194 36 107 13 231 29 275 35 44 6
168 18 276 26 119 8 205 24 220 40 19 22 18 25 -9 15 -41 -14 -137 83 -137
139 0 22 -18 93 -40 157 -49 141 -47 144 67 93 118 -52 162 -133 143 -261
l-14 -92 63 59 c86 82 98 141 38 192 -160 137 -490 232 -773 221 -38 -2 -203
-149 -204 -182 0 -5 23 -20 50 -33 28 -13 50 -15 50 -5 0 10 14 18 31 18 24 0
28 -11 17 -45 -12 -40 -10 -42 19 -18 18 16 59 24 93 19 43 -7 60 -1 60 20 0
16 -12 24 -28 18 -15 -6 -45 2 -65 19 -35 29 -35 30 8 20 57 -12 79 19 23 33
-100 26 -11 59 134 50 81 -6 142 -2 136 7 -17 27 45 20 67 -8 34 -44 89 -236
79 -276 -6 -22 -2 -44 7 -50 24 -14 -22 -109 -53 -109 -13 0 -40 -6 -58 -13
-30 -11 -31 -8 -9 27 33 54 11 106 -45 108 -25 0 -64 4 -86 8 -195 35 -208 34
-303 -30 -66 -45 -97 -56 -108 -39 -21 34 -53 8 -64 -53 -10 -50 -7 -52 62
-41 51 8 64 6 43 -7 -40 -26 -280 -26 -280 0 0 11 14 20 30 20 17 0 30 14 30
30 0 17 23 67 51 112 29 45 47 87 41 92 -5 6 -35 -32 -66 -83 -31 -52 -65
-106 -76 -120 -28 -36 -130 -58 -130 -29 0 40 201 410 254 466 63 68 70 63
-144 92 -188 26 -1547 47 -1390 22z m1284 -115 l155 -13 -33 -55 c-23 -40 -41
-51 -64 -39 -215 108 -422 108 -422 1 0 -11 -26 -15 -60 -8 -48 10 -60 5 -60
-23 0 -35 74 -170 93 -170 5 0 4 8 -2 18 -26 42 59 68 245 75 107 3 183 1 169
-5 -14 -6 -20 -20 -14 -30 6 -10 2 -18 -10 -18 -11 0 -21 -18 -21 -41 0 -56
-36 -64 -145 -31 -118 35 -123 14 -10 -37 l85 -38 -138 -18 c-102 -14 -142
-12 -153 6 -8 14 -25 17 -41 8 -42 -26 -339 -43 -332 -19 9 27 130 67 207 69
67 1 119 45 97 81 -8 13 -29 17 -47 9 -68 -28 -139 -28 -150 1 -9 24 -20 23
-73 -3 -34 -17 -75 -25 -92 -19 -16 6 -26 5 -21 -3 5 -9 -3 -33 -19 -54 -20
-28 -28 -31 -28 -9 0 46 -95 44 -120 -2 -12 -22 -31 -40 -42 -40 -11 0 -15 9
-8 20 21 34 -90 22 -125 -13 -31 -30 -30 -31 11 -18 24 7 59 4 79 -7 29 -17
23 -21 -35 -23 -38 -1 -124 -5 -191 -9 -67 -4 -134 1 -150 11 -21 13 -11 18
36 19 36 0 65 7 65 15 0 8 -83 9 -185 2 -102 -7 -261 -12 -355 -11 -128 1
-143 3 -60 10 63 5 96 14 76 21 -19 7 44 12 140 12 269 -2 364 10 364 46 0 17
16 43 35 57 33 25 33 27 -1 27 -23 1 -31 10 -22 26 11 20 8 20 -13 0 -37 -34
-60 -31 -46 5 14 38 -14 38 -64 1 -27 -20 -30 -30 -11 -30 37 -1 -54 -71 -118
-90 -34 -11 -44 -9 -30 5 11 11 38 24 60 30 31 7 28 10 -14 12 -29 1 -67 -12
-85 -29 -17 -18 -31 -26 -31 -18 0 8 -15 2 -34 -14 -29 -23 -31 -23 -17 1 13
22 3 25 -47 18 -35 -5 -69 -1 -75 9 -7 11 -18 9 -27 -5 -8 -13 -32 -20 -52
-16 -55 11 220 208 279 200 32 -4 36 -1 15 13 -47 32 213 143 335 143 73 0 99
-7 93 -25 -19 -51 19 -75 86 -56 77 22 81 4 14 -59 -27 -26 -50 -55 -50 -66 0
-10 -22 -45 -50 -78 -27 -32 -50 -71 -50 -86 0 -15 -11 -31 -25 -37 -14 -5 0
-11 30 -11 32 -1 53 8 50 21 -3 13 18 36 45 50 44 23 45 26 10 27 -22 0 -31 7
-20 15 11 8 55 67 97 130 84 124 103 136 118 77 10 -39 187 -71 208 -37 5 8
-5 15 -22 15 -17 0 -31 9 -31 20 0 11 18 20 40 20 22 0 40 -13 40 -30 0 -16
10 -30 21 -30 12 0 16 9 9 20 -7 11 3 20 23 20 31 0 31 3 -4 29 -35 27 -36 30
-4 30 19 1 35 -8 35 -19 0 -11 18 -20 40 -20 22 0 40 10 40 22 0 13 18 18 42
12 23 -6 106 6 185 27 79 21 161 34 183 29 22 -5 110 -15 194 -23z"/>
<path d="M7147 3790 c20 -15 50 -22 65 -16 49 18 30 40 -37 42 -59 1 -62 -1
-28 -26z"/>
<path d="M7729 3801 c6 -10 -13 -22 -44 -27 -45 -6 -41 -9 20 -11 41 -2 75
-12 75 -23 0 -11 14 -20 30 -20 41 0 38 25 -10 66 -43 36 -90 47 -71 15z"/>
<path d="M7905 3806 c47 -12 44 -39 -5 -52 -47 -12 -53 -65 -10 -81 36 -14 39
10 6 43 -34 34 -3 30 55 -8 27 -18 49 -26 49 -18 0 8 32 -10 71 -40 40 -30 78
-48 85 -41 8 8 -2 23 -21 33 -19 11 -35 31 -35 44 1 16 6 17 15 3 18 -26 154
-129 170 -129 6 0 7 18 1 40 -6 22 -2 40 9 40 12 0 19 -16 18 -35 -4 -46 180
-49 208 -4 15 23 18 22 19 -8 0 -27 11 -35 39 -27 22 5 42 0 46 -11 5 -14 26
-14 66 2 l59 23 -58 -11 c-46 -9 -55 -5 -45 20 9 23 -2 31 -43 31 -42 1 -47 5
-24 20 50 32 156 24 178 -15 20 -33 21 -33 21 0 1 27 19 36 81 38 102 3 114 4
129 19 15 16 -287 41 -311 27 -10 -6 -18 -2 -18 10 0 32 -29 25 -80 -19 -53
-46 -80 -51 -81 -15 0 14 -12 -2 -26 -34 -21 -49 -28 -53 -39 -25 -7 19 -25
34 -40 34 -15 0 -54 13 -86 28 -101 48 -155 60 -136 29 12 -19 3 -18 -33 5
-65 41 -136 59 -150 36 -10 -16 33 -27 76 -20 8 1 15 -7 15 -18 0 -25 0 -25
-77 2 -50 17 -59 28 -44 56 15 27 8 34 -36 36 -29 1 -37 -3 -18 -8z"/>
<path d="M2065 3776 c3 -14 -7 -24 -21 -21 -37 8 -55 -56 -22 -77 20 -12 21
-17 3 -18 -14 0 -25 -9 -25 -20 0 -32 55 -23 68 11 7 18 -2 36 -23 44 -43 16
25 39 135 45 39 2 59 8 45 13 -14 6 -20 19 -14 29 6 10 2 18 -10 18 -11 0 -21
-9 -21 -20 0 -22 -56 -18 -95 7 -17 10 -24 6 -20 -11z"/>
<path d="M5706 3711 c-71 -71 -87 -98 -76 -135 9 -32 7 -38 -6 -19 -12 18 -24
20 -32 7 -39 -63 43 -40 102 28 37 43 94 107 127 143 100 108 -5 86 -115 -24z"/>
<path d="M5 3755 c4 -14 41 -28 81 -31 54 -5 71 1 64 20 -14 35 -157 46 -145
11z"/>
<path d="M2721 3741 c-16 -10 -36 -14 -45 -8 -9 5 -16 0 -16 -10 0 -11 -20
-24 -45 -29 -40 -8 -39 -9 8 -11 29 -2 74 15 100 36 49 41 48 54 -2 22z"/>
<path d="M200 3727 c0 -19 107 -107 130 -107 11 0 46 -23 78 -50 73 -63 79
-63 64 5 -10 41 -8 47 7 25 18 -26 20 -25 21 5 0 19 -13 35 -29 35 -15 0 -40
11 -55 25 -56 54 -216 100 -216 62z"/>
<path d="M7580 3723 c0 -19 139 -110 151 -99 3 3 -10 25 -29 48 -38 47 -122
82 -122 51z"/>
<path d="M7360 3691 c0 -14 18 -31 40 -37 22 -6 35 -3 30 6 -19 31 40 34 85 4
41 -26 44 -26 33 4 -19 50 -188 71 -188 23z"/>
<path d="M115 3647 c14 -6 25 -19 25 -30 0 -39 110 -115 150 -105 29 8 32 5
13 -8 -26 -18 23 -56 62 -47 8 2 15 -5 15 -16 0 -10 18 -17 40 -16 44 4 48 12
22 53 -10 16 -32 22 -52 15 -21 -8 -30 -4 -25 12 7 21 -224 158 -261 153 -8 0
-3 -6 11 -11z"/>
<path d="M2980 3635 c0 -19 -13 -35 -30 -35 -16 0 -30 -10 -30 -21 0 -12 -9
-16 -20 -9 -11 7 -20 4 -20 -7 0 -40 69 -45 99 -7 17 21 47 44 67 51 20 7 30
23 23 35 -10 16 -19 14 -31 -5 -15 -22 -21 -22 -38 3 -17 26 -19 25 -20 -5z"/>
<path d="M517 3590 c-2 -27 -4 -61 -5 -73 -1 -13 18 -25 43 -27 54 -4 54 -2
13 61 -34 51 -15 68 28 25 19 -19 24 -17 24 8 0 29 -39 56 -82 56 -10 0 -19
-22 -21 -50z"/>
<path d="M2620 3594 l-50 -21 47 -8 c26 -5 56 0 67 11 30 30 -9 42 -64 18z"/>
<path d="M8867 3606 c-35 -5 -79 -26 -98 -47 -35 -39 -35 -39 43 -12 43 15 89
23 103 18 13 -4 39 6 56 23 35 35 36 35 -104 18z"/>
<path d="M8560 3510 c-14 -17 -53 -38 -88 -48 -62 -18 -62 -18 -7 -20 59 -2
183 63 162 85 -21 20 -40 16 -67 -17z"/>
<path d="M8903 3520 c-70 -17 -135 -61 -76 -53 17 3 38 11 46 19 7 8 39 14 70
14 32 0 57 9 57 20 0 22 -3 22 -97 0z"/>
<path d="M10 3445 c4 -19 9 -39 11 -45 2 -5 3 -17 1 -25 -3 -22 27 -18 52 7
12 12 17 39 11 60 -13 49 -84 52 -75 3z"/>
<path d="M8757 3391 c-8 -9 -205 -23 -617 -43 -148 -8 -292 -21 -320 -30 -35
-12 -12 -15 75 -12 69 2 125 -3 125 -11 0 -8 -14 -15 -31 -15 -17 0 -26 -9
-19 -20 8 -13 25 -13 46 -2 19 10 75 14 124 8 90 -10 597 -8 710 3 33 3 81 7
106 8 36 2 45 13 40 48 -8 61 -96 76 -96 16 0 -22 -8 -41 -18 -41 -10 0 -13
19 -7 43 8 31 3 40 -17 32 -15 -5 -43 -2 -60 7 -18 9 -36 13 -41 9z m-447 -72
c-55 -8 -140 -15 -190 -14 -90 2 -89 2 20 15 168 21 304 20 170 -1z"/>
<path d="M1280 3339 c0 -9 -16 -20 -35 -25 -26 -7 -24 -10 10 -12 25 -1 45 7
45 19 0 14 12 14 37 0 21 -11 43 -14 50 -7 25 25 12 36 -47 38 -33 1 -60 -5
-60 -13z"/>
<path d="M6725 3250 c-76 -33 -79 -47 -26 -114 27 -34 33 -56 19 -70 -14 -14
-9 -32 14 -56 32 -31 37 -32 59 -2 13 18 30 32 39 32 9 0 26 15 39 33 25 33
19 34 318 -27 69 -14 153 28 153 76 0 74 -23 98 -97 98 -40 0 -127 10 -193 22
-197 36 -257 37 -325 8z"/>
<path d="M7537 3187 c7 -61 14 -69 50 -58 24 6 84 21 133 31 50 11 122 27 160
36 l70 16 -58 15 c-40 11 -63 7 -75 -11 -9 -14 -17 -17 -17 -5 0 13 -43 18
-112 14 -62 -4 -107 0 -101 10 5 9 -5 18 -24 19 -28 2 -33 -10 -26 -67z"/>
<path d="M8838 3131 c-2 -12 -2 -28 0 -36 1 -8 -7 -15 -18 -15 -11 0 -20 -10
-20 -22 0 -13 14 -16 35 -8 19 9 51 17 70 19 50 5 68 31 23 33 -29 2 -26 5 12
17 46 13 44 15 -25 24 -44 5 -76 0 -77 -12z"/>
<path d="M7585 3105 c-14 -4 -25 -29 -25 -55 0 -80 18 -105 71 -95 28 6 49 0
49 -13 0 -48 209 -19 229 33 20 52 -64 64 -244 34 -69 -12 -85 -9 -85 16 0 31
54 65 90 57 11 -3 13 2 4 10 -19 20 -56 25 -89 13z"/>
<path d="M8594 3093 c-3 -10 -55 -21 -115 -25 -60 -4 -129 -12 -154 -18 -25
-6 -45 -2 -45 10 0 11 -10 20 -21 20 -12 0 -16 -9 -9 -20 7 -11 -4 -21 -24
-22 -56 -4 -170 -11 -236 -15 -37 -2 -51 -10 -36 -19 28 -18 322 -15 421 4 45
9 65 5 66 -13 0 -14 9 -10 21 10 32 55 153 48 164 -10 l9 -45 15 47 c13 39 26
45 78 36 34 -6 51 -6 37 0 -18 8 -16 19 8 43 25 25 27 34 6 41 -15 5 -30 -1
-35 -14 -4 -13 -17 -17 -30 -9 -33 20 -113 20 -120 -1z"/>
<path d="M2270 3086 c-139 -31 -250 -70 -250 -89 0 -23 5 -22 250 52 138 42
138 68 0 37z"/>
<path d="M1958 3072 c-4 -4 -66 -12 -138 -18 -71 -6 -152 -17 -180 -25 -27 -7
-68 -14 -90 -15 -22 -1 -52 -16 -66 -33 -23 -26 -25 -26 -14 -1 7 17 -6 5 -30
-25 -29 -37 -70 -59 -122 -68 -97 -15 -104 -45 -8 -37 39 4 70 -1 70 -10 0
-24 -114 -46 -145 -29 -20 12 -20 10 0 -12 14 -15 25 -35 25 -45 0 -11 -11
-10 -25 1 -29 23 -110 14 -148 -18 -15 -12 -41 -16 -58 -9 -17 6 -26 3 -19 -7
6 -11 43 -25 81 -32 38 -8 69 -21 69 -29 0 -9 18 -12 40 -6 22 6 40 1 40 -11
0 -12 -18 -31 -40 -43 -22 -12 -40 -15 -40 -8 0 7 -14 2 -30 -12 -26 -22 -29
-20 -18 7 7 18 2 33 -10 33 -20 0 -30 -27 -24 -65 6 -42 -59 -8 -70 37 -8 33
-19 43 -28 28 -21 -34 -206 -4 -192 31 15 39 -63 27 -102 -15 -30 -34 -29 -36
20 -36 39 0 50 -8 41 -30 -6 -16 -1 -30 11 -30 12 0 22 9 22 20 0 26 194 26
210 0 7 -12 6 -20 -4 -18 -45 8 -87 -4 -76 -22 7 -12 -8 -11 -37 2 -55 25
-123 10 -103 -22 17 -27 -76 -26 -104 2 -15 15 -25 15 -35 0 -7 -12 -22 -22
-33 -22 -11 0 -14 10 -6 23 9 15 5 18 -12 7 -16 -10 -36 -2 -54 22 -39 52
-183 52 -231 0 -46 -50 -44 -67 10 -78 39 -7 37 -9 -10 -11 -53 -3 -65 13 -56
76 4 22 -2 23 -22 7 -19 -15 -54 -14 -121 3 l-95 25 4 -87 c3 -77 54 -134 55
-62 1 18 5 18 18 -2 11 -17 51 -27 104 -27 64 1 79 -4 57 -19 -20 -14 1 -16
71 -6 55 8 163 16 240 18 145 4 290 52 290 96 1 16 7 15 20 -5 14 -22 19 -23
20 -4 0 15 16 25 35 22 34 -4 87 10 144 40 30 16 121 -17 121 -44 0 -9 -8 -11
-17 -6 -10 6 -42 -11 -72 -38 -29 -28 -69 -50 -89 -50 -20 0 -60 -18 -89 -41
-41 -32 -60 -36 -91 -20 -22 12 -65 20 -96 19 -31 0 -45 -6 -32 -11 13 -5 19
-21 14 -36 -7 -16 10 -30 46 -38 111 -22 317 -68 369 -82 60 -16 65 -7 87 155
l13 95 -55 -13 c-38 -10 -50 -7 -40 9 8 13 36 23 63 23 54 0 61 21 27 84 -19
36 -18 40 10 29 20 -7 38 -1 45 17 6 16 19 25 29 19 10 -6 13 1 8 15 -5 14 40
80 100 146 61 66 110 111 110 101 0 -11 13 -1 30 23 32 46 123 84 334 137 74
19 130 42 124 52 -11 18 -36 22 -50 9z"/>
<path d="M4393 3049 c-407 -64 -1108 -322 -1293 -477 -39 -33 -222 -118 -255
-118 -13 0 -30 -17 -36 -37 -6 -20 -20 -37 -30 -37 -11 0 -19 -9 -19 -20 0
-36 40 -21 156 57 244 165 295 173 159 25 -70 -76 -79 -93 -48 -99 21 -4 32
-18 25 -35 -6 -15 -2 -28 9 -28 10 0 19 10 19 21 0 12 11 15 23 7 16 -10 20
-4 12 16 -8 20 6 40 37 57 26 14 48 36 48 49 0 133 791 486 1370 611 203 44
88 49 -177 8z"/>
<path d="M2670 2984 c-217 -97 -357 -195 -515 -358 -56 -58 -111 -99 -123 -92
-12 7 -5 -7 16 -31 21 -23 48 -43 60 -43 12 0 9 9 -8 20 -32 20 4 29 85 21 52
-5 43 55 -10 65 l-45 9 46 2 c30 2 51 -12 63 -42 10 -25 19 -32 20 -17 0 16 7
23 14 16 7 -7 30 -3 52 9 29 15 36 15 26 -1 -14 -23 42 -9 81 21 12 9 26 12
32 6 6 -6 26 13 44 40 38 59 37 60 -63 23 -174 -65 -288 -60 -228 11 35 41
409 297 437 298 9 0 52 22 96 50 105 64 70 61 -80 -7z"/>
<path d="M4680 3000 c-38 -9 -124 -27 -190 -41 -66 -14 -111 -28 -100 -31 11
-4 124 15 250 41 127 27 203 48 170 48 -33 -1 -91 -8 -130 -17z"/>
<path d="M5960 3000 c0 -11 -16 -21 -35 -21 -25 -1 -21 -7 14 -21 32 -13 68
-12 108 1 32 12 90 21 127 21 41 0 63 8 56 20 -13 21 -140 8 -230 -23 -47 -16
-48 -16 -11 13 34 26 34 30 5 30 -19 0 -34 -9 -34 -20z"/>
<path d="M7300 2967 c-103 -87 -222 -365 -280 -657 -9 -44 -26 -111 -39 -150
-13 -38 -27 -92 -31 -120 -23 -151 -125 -264 -141 -156 -5 33 46 92 69 80 6
-4 14 3 18 15 9 27 -28 27 -154 -2 -55 -13 -96 -31 -90 -40 5 -9 -3 -12 -19
-5 -36 13 -513 -112 -513 -135 0 -24 35 -21 50 3 7 11 21 20 32 20 11 0 14
-10 6 -23 -8 -13 11 -10 44 8 112 58 211 82 228 54 12 -18 19 -14 26 13 8 33
10 33 12 3 2 -29 21 -35 110 -35 97 0 132 -18 132 -67 0 -3 -79 3 -175 12
-131 12 -219 8 -351 -16 -131 -23 -184 -26 -204 -9 -29 24 -259 -30 -606 -143
-213 -70 -218 -69 -170 34 27 57 30 78 11 84 -17 6 -26 59 -28 162 l-3 153
-15 -200 c-9 -110 -26 -231 -38 -270 -27 -89 -27 -90 8 -61 25 21 26 15 8 -42
-11 -37 -25 -83 -31 -102 -6 -19 -24 -35 -40 -35 -17 0 -57 -22 -90 -50 -75
-64 -137 -63 -214 2 -64 53 -75 44 -63 -47 1 -14 -7 -25 -18 -25 -12 0 -20 27
-17 60 2 33 11 60 20 60 8 0 9 14 3 32 -9 23 -17 25 -28 7 -22 -35 -64 -1 -53
43 12 43 -7 49 -41 15 -18 -18 -14 -36 13 -75 105 -149 35 -221 -218 -222 -49
0 -135 -14 -190 -31 -55 -17 -121 -25 -146 -19 -25 6 -57 4 -70 -4 -31 -19
-181 -21 -195 -2 -15 20 -126 22 -281 5 -274 -30 -1318 42 -1335 92 -3 10 -15
14 -25 8 -10 -6 -18 -2 -18 10 0 26 257 25 364 -2 45 -11 140 -10 250 3 299
35 1406 92 1603 82 26 -1 62 7 80 17 19 12 23 20 8 20 -31 1 -33 74 -2 93 14
9 18 5 9 -9 -8 -13 -9 -23 -3 -23 7 0 21 23 31 50 19 50 71 68 84 29 4 -12 22
-9 46 10 37 27 37 30 4 30 -20 1 -31 9 -25 19 6 9 -2 59 -17 110 -16 52 -19
86 -8 79 13 -7 15 4 7 30 -10 31 -5 43 18 43 20 0 31 18 31 50 0 29 -10 48
-25 45 -29 -6 -44 105 -25 182 10 40 17 45 31 22 16 -25 18 -25 19 1 0 49 116
280 140 280 12 0 16 10 8 23 -9 14 -5 18 9 9 14 -9 23 -1 23 18 0 17 27 47 60
66 68 39 79 65 20 50 -55 -15 -50 22 7 53 162 86 358 -250 362 -623 2 -212 34
-81 38 154 3 225 -23 339 -99 429 l-52 61 61 0 c118 0 265 44 319 95 l54 51
-50 -13 c-121 -31 -384 -75 -394 -66 -28 28 27 50 159 62 172 17 381 68 285
70 -96 2 -428 -56 -577 -100 -156 -47 -283 -156 -384 -330 -32 -54 -71 -110
-88 -123 -27 -22 -27 -25 -1 -26 25 -1 25 -4 -2 -20 -22 -13 -29 -36 -22 -72
6 -33 2 -49 -10 -42 -12 7 -21 -11 -22 -42 0 -30 -15 -126 -31 -214 -17 -88
-31 -216 -32 -284 -1 -68 -11 -130 -23 -137 -41 -26 -1324 -30 -1848 -6 -286
13 -583 25 -660 25 -77 1 -144 7 -150 13 -5 6 -94 22 -197 36 -103 13 -213 37
-244 53 -48 25 -73 26 -182 2 -70 -16 -116 -29 -103 -30 14 -1 20 -16 13 -32
-13 -34 62 -44 83 -10 7 11 21 20 32 20 11 0 14 -10 6 -23 -9 -15 8 -19 58
-14 39 5 67 2 62 -7 -6 -8 17 0 50 19 59 34 61 34 116 -19 31 -29 79 -63 106
-75 28 -12 78 -43 112 -68 37 -27 148 -65 270 -93 213 -49 218 -70 18 -78 -53
-2 -63 -7 -40 -22 17 -11 21 -20 11 -20 -36 0 26 -45 73 -52 25 -4 127 -24
226 -45 99 -21 205 -35 235 -32 30 4 55 -1 55 -12 0 -10 29 -18 65 -18 52 2
57 5 26 17 -36 14 -35 17 13 29 66 16 176 -5 176 -34 1 -16 5 -16 15 0 11 16
159 27 485 34 482 10 816 25 940 42 39 5 129 15 200 21 559 50 807 109 786
188 -11 43 50 73 129 64 25 -3 45 4 45 14 0 10 19 18 43 16 24 -1 47 9 52 22
9 28 -73 28 -110 0 -17 -13 -25 -9 -25 14 0 23 19 32 68 32 38 0 72 8 75 18
12 31 197 35 197 4 0 -10 -43 -14 -95 -10 -68 6 -86 3 -65 -12 17 -10 21 -21
10 -22 -11 -1 16 -10 60 -18 92 -18 170 5 170 50 0 41 35 38 46 -5 9 -33 9
-33 12 0 2 40 35 47 47 11 6 -18 22 -18 70 2 34 14 80 20 103 13 32 -11 43 -3
53 37 11 44 21 49 76 38 80 -15 89 -24 52 -47 -22 -14 -18 -18 21 -18 28 0 67
13 89 30 34 25 34 29 5 29 -19 0 -34 -10 -34 -21 0 -12 -10 -15 -22 -8 -39 25
11 46 132 55 226 18 360 37 383 57 15 12 28 11 37 -2 7 -12 23 -15 36 -7 13 8
37 16 54 18 16 3 53 10 80 16 206 49 691 73 930 46 62 -7 82 -19 90 -54 11
-47 43 -28 63 38 5 17 39 29 83 30 78 2 74 -8 -26 -69 -27 -16 -27 -20 0 -38
39 -26 126 -27 110 -1 -7 11 0 15 15 9 14 -5 127 17 251 49 252 66 233 62 274
62 17 0 30 11 30 23 0 13 -6 18 -13 11 -7 -7 -30 -3 -52 9 -30 16 -36 15 -25
-3 11 -18 -1 -21 -42 -12 -32 6 -139 16 -238 22 -99 5 -225 14 -280 19 -225
19 -506 35 -593 33 l-93 -3 51 126 c35 85 57 189 69 325 9 110 22 246 28 302
l11 102 74 -2 c40 -1 83 -8 95 -16 12 -8 80 -6 150 5 169 27 201 38 186 63 -9
13 13 16 64 7 104 -17 716 25 725 50 4 11 19 32 35 48 15 15 28 60 28 99 l0
71 -145 -9 c-80 -6 -199 -14 -265 -20 -66 -6 -184 -15 -263 -22 -119 -9 -277
-65 -192 -67 14 -1 25 -14 25 -31 0 -36 -81 -41 -116 -6 -16 16 -24 17 -24 2
0 -12 -18 -18 -40 -12 -22 6 -40 19 -40 30 0 10 -9 13 -20 6 -12 -7 -16 -20
-10 -30 6 -9 -1 -21 -15 -27 -15 -6 -11 -10 10 -11 19 -1 35 -14 35 -29 0 -18
19 -23 63 -17 42 6 58 2 49 -12 -7 -12 -27 -17 -43 -11 -16 6 -45 -1 -63 -16
-20 -16 -28 -17 -19 -3 8 13 -5 42 -30 65 -49 45 -77 52 -77 20 0 -12 -13 -8
-30 8 -40 40 -38 58 5 45 19 -6 61 2 92 18 31 16 67 24 80 16 17 -10 17 -6 0
15 -19 24 -14 29 30 31 164 8 263 33 228 59 -19 15 -38 18 -42 8 -3 -11 -16
-19 -27 -19 -11 0 -15 14 -9 30 14 35 -41 41 -87 8 -23 -16 -18 -17 20 -7 41
11 45 9 25 -13 -14 -14 -60 -25 -103 -24 -59 1 -81 -7 -88 -34 -5 -21 -34 -38
-70 -44 -34 -5 -57 -1 -52 8 12 19 -38 17 -122 -4 l-60 -15 54 -3 c74 -3 80
-23 25 -87 l-47 -55 -21 75 c-11 41 -21 84 -21 96 0 12 -30 54 -68 95 -81 89
-144 95 -232 21z m145 -106 c65 -52 135 -217 146 -347 l9 -104 -27 100 c-61
224 -103 278 -191 248 -54 -19 -56 -24 -40 -94 24 -103 23 -229 -2 -214 -11 7
-20 55 -20 106 -1 204 -109 83 -122 -136 -9 -159 -67 -219 -82 -86 -9 78 35
266 62 266 9 0 32 40 53 89 20 49 41 87 48 85 6 -2 33 12 60 31 l50 35 -47 0
c-39 0 -43 5 -22 30 33 40 65 38 125 -9z m855 -20 c0 -10 16 -22 35 -26 19 -5
-10 -7 -65 -4 -125 5 -127 5 -90 29 38 25 120 26 120 1z m-760 -249 c0 -26
-80 -190 -98 -201 -32 -20 -27 4 23 111 37 80 75 125 75 90z m-200 -282 c0
-25 -11 -52 -25 -58 -16 -7 -15 -10 5 -8 52 5 176 -68 190 -112 13 -40 14 -40
30 8 15 48 16 47 18 -14 2 -80 -67 -270 -113 -311 -32 -27 -161 -64 -136 -39
16 16 -71 104 -102 104 -15 0 -27 9 -27 20 0 11 -9 20 -20 20 -50 0 -16 -60
35 -62 30 -2 40 -7 22 -11 -18 -5 -38 -30 -45 -56 -12 -48 -62 -70 -161 -71
-32 0 -88 -11 -124 -24 -36 -13 -72 -18 -79 -11 -16 17 8 116 27 112 30 -6 84
28 74 45 -6 10 2 18 19 18 19 0 26 11 19 30 -8 23 -2 27 24 17 25 -10 31 -7
20 11 -10 16 0 29 27 36 40 10 60 46 26 46 -8 0 -18 28 -20 61 -3 38 3 57 15
49 12 -7 16 0 9 17 -11 31 26 66 47 44 7 -7 11 -42 9 -77 -3 -36 10 -83 27
-105 18 -21 25 -26 17 -10 -58 111 -10 301 76 301 20 0 47 22 59 49 27 59 57
48 57 -19z m237 -35 c-3 -68 -5 -72 -11 -24 -7 56 -13 61 -70 53 -40 -6 -57
-2 -49 11 7 12 30 17 51 11 21 -5 44 0 51 12 24 39 31 23 28 -63z m-1716 -579
c-222 -49 -250 -36 -38 17 92 23 176 37 186 31 11 -7 -56 -28 -148 -48z
m-1290 -118 c8 -27 3 -49 -14 -60 -36 -23 -57 -22 -57 2 0 11 10 20 22 20 17
0 17 7 1 27 -13 15 -17 33 -9 40 23 24 43 14 57 -29z m-1871 -210 c291 -21
208 -54 -100 -40 -343 16 -460 30 -460 56 0 17 159 13 560 -16z"/>
<path d="M7186 2151 c34 -145 35 -145 75 -71 20 39 38 58 38 43 1 -15 -14 -52
-32 -83 -29 -48 -30 -65 -8 -118 38 -90 56 -77 72 53 21 182 21 195 -6 190
-14 -3 -25 9 -25 25 0 17 -11 31 -25 32 -14 1 -44 3 -66 6 -39 4 -40 -1 -23
-77z"/>
<path d="M7340 2208 c0 -6 18 -35 40 -63 22 -28 40 -60 39 -73 0 -12 -13 -6
-28 14 -24 32 -27 25 -28 -65 0 -56 -6 -120 -13 -142 -31 -97 111 -6 152 97
20 51 -9 123 -81 199 -40 43 -81 59 -81 33z"/>
<path d="M6508 2985 c-47 -31 -1 -77 62 -63 l60 13 -60 3 -60 3 50 29 c44 25
45 29 10 29 -22 0 -50 -6 -62 -14z"/>
<path d="M93 2937 c-31 -17 -33 -25 -10 -39 45 -29 77 -20 77 22 0 45 -13 48
-67 17z"/>
<path d="M1894 2939 c-90 -15 -328 -220 -303 -260 5 -9 1 -22 -11 -29 -24 -15
-27 -90 -3 -90 9 0 70 52 135 115 65 64 158 148 206 188 96 78 91 97 -24 76z"/>
<path d="M4972 2908 c-132 -27 -294 -71 -360 -97 -67 -26 -164 -53 -216 -60
-52 -7 -165 -39 -250 -70 -86 -31 -207 -67 -269 -80 -230 -47 -633 -264 -611
-329 30 -89 579 -23 824 99 180 90 410 259 410 302 0 30 4 30 40 -3 21 -19 34
-43 28 -53 -44 -71 165 24 265 120 78 76 215 135 351 151 79 9 156 36 156 54
0 29 -115 19 -368 -34z m-623 -338 c-5 -85 -424 -262 -709 -300 -180 -24 -104
6 131 51 212 41 367 104 489 199 l50 39 -70 0 c-38 0 -164 -13 -280 -29 -224
-31 -334 -37 -315 -19 42 43 706 98 704 59z"/>
<path d="M3140 2919 c0 -12 -9 -16 -19 -9 -11 6 -54 -7 -95 -30 -42 -23 -58
-37 -36 -32 22 5 69 15 105 22 51 10 98 70 55 70 -5 0 -10 -10 -10 -21z"/>
<path d="M2781 2861 c-17 -10 -22 -26 -13 -35 10 -9 22 -5 26 9 5 14 18 20 28
14 10 -6 34 -2 53 9 31 18 29 21 -15 21 -27 0 -63 -8 -79 -18z"/>
<path d="M263 2837 c-77 -22 -76 -23 11 -53 49 -16 69 -15 86 6 18 22 10 25
-44 20 -64 -8 -63 -7 14 20 91 31 36 37 -67 7z"/>
<path d="M6500 2808 c-82 -15 -312 -46 -510 -70 -299 -36 -370 -51 -420 -88
-33 -25 -73 -40 -88 -35 -20 7 -25 0 -16 -22 9 -23 2 -33 -24 -33 -43 0 -73
-57 -45 -85 26 -26 114 -9 108 20 -3 14 4 25 15 25 26 0 25 -27 -3 -89 -13
-28 -35 -51 -49 -51 -14 0 -31 -8 -37 -19 -7 -10 11 -14 42 -9 75 14 87 24 88
74 2 41 3 42 17 5 16 -41 38 45 45 179 1 33 9 6 16 -60 7 -66 6 -123 -3 -127
-9 -3 -16 -15 -16 -25 0 -11 20 -8 45 6 25 13 52 26 60 28 41 9 42 12 5 28
-32 14 -26 17 34 19 40 0 80 11 88 24 10 16 -12 19 -79 8 -56 -8 -93 -6 -93 6
0 25 218 53 370 48 90 -3 110 1 80 16 -33 16 -29 18 25 13 36 -4 65 -2 65 5 0
7 18 12 40 12 22 0 40 -5 40 -12 0 -6 54 -5 121 3 121 14 199 6 199 -21 0 -8
-11 -15 -25 -16 -14 0 -81 -3 -150 -6 -77 -3 -134 -16 -148 -33 -20 -23 -14
-26 35 -17 86 16 192 -8 138 -32 -30 -13 -24 -15 24 -8 47 7 70 0 83 -23 21
-37 123 251 123 345 0 55 5 55 -200 17z"/>
<path d="M6713 2735 c-7 -60 -26 -148 -43 -195 -37 -104 -25 -160 30 -146 36
10 37 13 4 62 -33 50 -32 51 11 39 25 -6 46 -3 48 7 1 10 3 26 5 36 5 44 32
44 33 0 l2 -48 18 46 c10 26 28 41 39 34 11 -7 20 2 20 20 0 18 -9 27 -20 20
-11 -7 -20 6 -20 28 0 28 9 37 30 29 19 -7 30 1 30 21 0 18 9 32 20 32 11 0
20 -16 20 -35 1 -26 7 -22 27 15 39 71 -10 118 -140 133 l-101 12 -13 -110z"/>
<path d="M3000 2805 c0 -16 -32 -26 -85 -27 l-85 -2 80 -27 c53 -17 65 -26 36
-27 -24 -1 -68 7 -97 19 -42 15 -62 13 -87 -8 -18 -16 -50 -34 -72 -41 -57
-18 -182 -126 -166 -143 8 -7 29 1 47 19 18 18 40 28 49 22 32 -20 220 33 220
62 0 15 9 29 20 31 11 1 27 4 35 6 8 2 59 11 112 20 66 11 88 22 70 33 -22 14
-22 17 -1 18 15 0 21 9 14 20 -7 12 -22 15 -34 8 -11 -7 -28 -1 -38 14 -13 20
-17 21 -18 3z"/>
<path d="M0 2750 c0 -16 10 -30 21 -30 12 0 16 9 9 20 -7 11 -5 20 4 20 27 -1
58 -28 72 -65 7 -19 25 -30 41 -24 15 6 33 -2 39 -17 10 -28 -82 -30 -161 -4
-14 5 -25 -4 -25 -20 0 -21 21 -29 76 -27 41 2 96 -8 121 -21 38 -21 54 -19
96 8 28 18 63 28 79 22 15 -6 28 -1 28 11 0 14 30 17 88 8 50 -7 94 -5 100 6
7 11 30 15 52 9 29 -8 40 -1 40 24 0 23 -10 30 -33 22 -17 -7 -47 -1 -65 13
-28 22 -29 21 -5 -10 36 -45 -2 -62 -87 -38 -41 12 -83 8 -134 -12 -66 -25
-79 -25 -120 3 -38 27 -39 32 -9 32 19 0 30 8 24 18 -6 10 0 23 14 29 15 6 11
10 -10 11 -19 1 -35 -6 -35 -16 0 -9 -23 -22 -51 -27 -38 -7 -49 -3 -41 17 11
29 -44 68 -97 68 -17 0 -31 -13 -31 -30z"/>
<path d="M3873 2724 c-188 -66 -237 -118 -101 -107 48 4 88 16 88 26 0 11 7
15 16 9 25 -15 253 75 259 103 8 40 -92 29 -262 -31z"/>
<path d="M1381 2622 c-15 -36 -19 -93 -10 -150 21 -141 -58 -165 -92 -28 l-17
66 4 -68 c8 -148 108 -133 199 30 65 118 66 108 -4 163 l-56 44 -24 -57z"/>
<path d="M1760 2601 c0 -11 -12 -21 -28 -21 -15 0 -43 -24 -62 -52 -24 -37
-26 -49 -7 -40 15 6 43 18 62 24 19 7 35 24 35 39 0 14 11 29 24 34 19 6 19
11 0 23 -13 8 -24 5 -24 -7z"/>
<path d="M6016 2497 c36 -10 60 -27 54 -38 -7 -11 23 -18 74 -17 47 0 74 6 59
12 -23 9 -23 14 -1 27 15 9 20 24 11 33 -9 9 -28 0 -42 -19 -31 -43 -80 -47
-64 -5 9 24 -5 30 -73 28 l-84 -2 66 -19z"/>
<path d="M2220 2460 l-90 -14 90 -3 c50 -1 104 6 120 17 35 23 26 23 -120 0z"/>
<path d="M4950 2445 c64 -9 141 -69 173 -135 11 -22 -3 -11 -32 24 -35 43 -63
60 -85 52 -22 -9 -28 -5 -18 11 9 15 -2 23 -32 23 -87 -1 -93 -19 -59 -185 25
-121 26 -160 7 -179 -19 -19 -24 -13 -24 27 0 125 -45 278 -74 254 -18 -15
-24 -42 -17 -71 14 -55 -19 -126 -58 -126 -28 0 -38 -34 -61 -208 l-13 -98 64
13 c35 7 72 13 82 13 9 0 17 23 17 51 0 44 7 50 43 38 32 -10 38 -7 26 14 -8
15 -8 20 1 12 72 -65 3 -148 -154 -183 -29 -7 -59 -30 -66 -52 -14 -46 4 -86
31 -69 11 6 19 3 19 -8 0 -11 -11 -23 -24 -28 -18 -6 -18 -23 3 -72 l26 -64
59 116 c33 63 54 93 46 65 -7 -27 -12 -80 -11 -118 1 -37 -12 -83 -30 -103
-26 -29 -28 -44 -9 -79 49 -91 93 -8 98 185 1 57 11 95 25 95 23 0 13 -195
-15 -295 -14 -51 44 -65 88 -21 13 13 24 16 24 6 0 -10 32 30 70 90 86 134 88
116 -22 238 -95 106 -135 124 -156 70 -17 -45 -14 -63 6 -31 12 20 28 8 62
-46 24 -40 40 -78 34 -84 -6 -6 -25 17 -43 50 -20 41 -42 58 -61 50 -19 -7
-30 1 -30 21 0 18 -9 32 -20 32 -11 0 -20 13 -20 28 0 38 92 58 142 31 35 -19
43 -15 52 20 15 59 53 51 41 -9 -6 -34 6 -68 38 -105 26 -30 48 -64 49 -75 3
-29 40 108 52 192 l10 72 -98 -9 -97 -9 1 77 c1 47 19 103 45 140 24 34 54 88
66 119 20 52 24 55 42 22 15 -27 13 -46 -9 -70 -107 -123 -123 -249 -29 -240
202 19 38 542 -167 533 -68 -3 -68 -3 -8 -12z"/>
<path d="M6501 2421 c-21 -13 -16 -20 21 -26 48 -10 48 -10 2 -12 -26 -2 -41
-11 -35 -21 13 -21 91 -5 91 18 0 31 -52 57 -79 41z"/>
<path d="M8740 2385 c0 -19 13 -24 40 -15 24 8 40 4 40 -10 0 -14 12 -11 30 7
42 42 39 46 -40 46 -47 0 -70 -9 -70 -28z"/>
<path d="M1490 2300 c-66 -33 -131 -60 -144 -60 -44 0 -86 -88 -86 -179 0 -50
7 -80 16 -67 20 32 106 61 150 51 35 -8 35 -10 1 -35 -32 -23 -27 -28 54 -49
49 -13 103 -27 119 -31 266 -70 1813 -104 1876 -41 23 23 -118 195 -169 204
-292 57 -373 80 -478 138 -152 83 -316 107 -839 120 l-380 9 -120 -60z m560
-89 c88 -6 286 -16 440 -23 299 -13 383 -28 163 -28 -105 0 -133 -6 -133 -30
0 -25 38 -30 223 -30 123 0 219 -5 213 -11 -16 -15 -658 -16 -696 -1 -16 7
-113 10 -215 7 -102 -3 -185 3 -185 12 0 10 -49 14 -110 9 -60 -5 -110 -2
-110 7 0 10 -20 18 -45 18 -25 1 -63 10 -85 21 -35 16 -34 18 10 10 129 -23
540 -35 540 -16 0 12 -61 26 -135 33 -74 7 -175 21 -225 30 -96 19 -56 18 350
-8z m-245 -143 c179 -17 577 -38 885 -47 308 -8 488 -17 400 -20 -558 -19
-1466 27 -1600 80 -56 23 -48 23 315 -13z m75 -90 c116 -12 471 -29 790 -38
l580 -16 -630 7 c-583 7 -1103 44 -1137 81 -7 7 32 8 87 1 55 -7 195 -23 310
-35z"/>
<path d="M2085 2156 c5 -15 47 -29 104 -32 71 -5 93 0 86 20 -5 15 -47 29
-104 32 -71 5 -93 0 -86 -20z"/>
<path d="M2300 2152 c0 -22 18 -32 55 -32 30 0 75 -6 100 -13 33 -8 45 -3 45
21 0 22 -18 32 -55 32 -30 0 -75 6 -100 13 -33 8 -45 3 -45 -21z"/>
<path d="M6576 2287 c-19 -39 -44 -55 -94 -60 -38 -4 -78 -15 -90 -24 -12 -9
-163 -70 -336 -134 -172 -65 -310 -121 -307 -125 20 -19 682 199 724 239 26
24 47 35 47 24 0 -28 -82 -99 -130 -112 -22 -6 -237 -66 -478 -133 -241 -68
-442 -119 -447 -114 -15 16 115 87 208 115 48 14 87 34 87 44 0 9 13 12 28 7
15 -6 43 0 62 13 29 22 24 25 -38 27 -39 1 -69 -7 -66 -18 2 -12 -9 -26 -24
-31 -15 -6 -22 -1 -15 10 7 11 -7 19 -32 17 -42 -2 -81 -25 -146 -87 -21 -20
-28 -18 -35 10 -9 33 -9 33 -12 0 -2 -32 -54 -46 -134 -37 -11 1 -21 -27 -21
-63 1 -36 -6 -90 -15 -121 -16 -52 -14 -54 31 -35 42 19 525 137 821 202 63
14 110 33 104 42 -5 9 2 12 16 7 31 -11 508 75 528 96 8 8 -5 14 -28 14 -31 0
-39 9 -30 32 12 32 -97 33 -148 2 -10 -6 -31 -2 -47 9 -24 17 -23 19 4 10 21
-7 37 3 43 28 9 35 -8 49 -52 41 -10 -2 -11 6 -4 18 7 11 20 16 29 11 8 -6 51
7 93 27 43 20 92 42 108 49 17 7 -4 8 -45 2 -59 -8 -75 -4 -75 20 0 50 -56 35
-84 -22z"/>
<path d="M441 2297 c-27 -10 -73 -13 -103 -6 -54 11 -116 -46 -84 -78 24 -24
45 -13 33 17 -8 21 2 30 30 30 29 0 38 -9 30 -30 -7 -19 1 -30 21 -30 21 0 32
-17 32 -50 0 -27 -10 -50 -23 -50 -44 0 -6 -18 79 -37 81 -18 84 -17 84 29 0
40 -10 48 -60 48 -33 0 -60 9 -60 20 0 18 14 23 100 29 17 1 39 8 50 15 27 17
130 -4 130 -26 0 -10 -14 -18 -31 -18 -42 0 -84 -44 -74 -75 5 -14 -3 -25 -16
-25 -16 0 -11 -16 13 -43 21 -24 28 -38 16 -31 -12 7 -51 5 -85 -5 -35 -10
-63 -11 -63 -1 0 19 -274 13 -380 -9 -66 -13 -68 -12 -31 18 21 17 30 32 20
34 -11 1 13 8 51 15 63 12 65 14 24 26 -33 9 -59 1 -85 -25 -39 -39 -39 -38
-39 1 0 22 9 40 20 40 11 0 20 10 20 22 0 16 -9 15 -30 -2 -72 -59 -38 -180
50 -180 44 0 80 -10 80 -21 0 -12 8 -17 17 -11 34 21 146 -36 137 -70 -13 -48
158 -72 326 -46 50 8 110 27 135 43 42 28 55 21 46 -25 -3 -11 3 -13 11 -5 24
24 24 95 0 98 -93 11 -111 8 -121 -16 -12 -32 -261 -17 -306 18 -59 47 -20 58
147 44 171 -14 172 -14 159 29 -28 86 80 129 136 54 11 -16 19 -15 26 3 6 14
18 20 28 15 39 -25 66 76 28 103 -45 33 -76 35 -57 4 10 -16 -2 -20 -39 -13
-54 11 -74 -12 -28 -31 14 -5 -4 -11 -40 -11 -36 -1 -65 -11 -65 -22 0 -11
-18 -20 -40 -20 -22 0 -40 10 -40 21 0 34 57 83 80 69 11 -7 20 -2 20 10 0 12
9 17 20 10 11 -7 20 -3 20 8 0 11 14 16 30 9 17 -6 30 -1 30 11 0 12 -22 22
-50 22 -27 0 -50 10 -50 21 0 12 -9 16 -20 9 -11 -7 -20 -3 -20 9 0 11 -23 21
-51 21 -28 0 -70 13 -95 28 -31 20 -58 23 -93 9z"/>
<path d="M8924 2269 c-22 -25 -18 -29 25 -29 32 0 51 11 51 30 0 38 -42 38
-76 -1z"/>
<path d="M11 2262 c-6 -10 4 -23 24 -28 33 -9 33 -9 0 -12 -21 -1 -35 -18 -35
-42 0 -25 13 -40 35 -40 30 1 31 3 5 20 -27 18 -27 22 0 40 37 25 112 17 104
-10 -4 -11 14 -25 38 -31 25 -5 49 -23 55 -40 8 -24 4 -25 -21 -3 -26 20 -33
20 -43 -5 -9 -24 3 -31 48 -31 39 0 59 -10 59 -30 0 -16 13 -30 28 -30 24 0
24 12 -3 80 -20 52 -44 80 -67 80 -25 0 -33 12 -28 40 4 22 -3 41 -16 41 -13
1 -57 6 -98 11 -40 5 -78 0 -85 -10z"/>
<path d="M8614 2253 c-8 -20 -23 -30 -34 -23 -11 7 -20 2 -20 -10 0 -13 16
-18 35 -12 19 6 88 15 153 21 160 14 173 37 17 28 -69 -4 -128 2 -131 12 -4
10 -13 3 -20 -16z"/>
<path d="M4100 2197 c0 -6 -83 -23 -185 -36 -102 -13 -243 -37 -315 -52 l-130
-28 140 8 c77 4 124 3 105 -2 -19 -6 -35 -23 -35 -38 0 -34 32 -38 51 -8 7 12
61 19 129 15 92 -6 113 -2 105 21 -9 22 -3 23 31 5 46 -25 139 -30 116 -7 -9
8 -48 26 -89 39 l-73 24 70 -4 c40 -2 81 -19 96 -39 27 -35 96 -51 75 -16 -6
10 -3 24 7 30 11 6 25 3 32 -9 15 -25 70 -27 70 -2 0 10 -25 27 -55 37 -51 18
-47 21 65 43 179 36 177 39 -25 36 -101 -2 -185 -10 -185 -17z"/>
<path d="M8145 2206 c-25 -5 -45 -17 -45 -27 0 -21 47 -15 120 17 54 23 19 28
-75 10z"/>
<path d="M975 2146 c-8 -16 -3 -133 9 -186 3 -16 -3 -32 -14 -35 -11 -3 -21 4
-22 15 -6 42 -9 44 -34 23 -19 -16 -33 -16 -48 -1 -31 31 -150 37 -125 7 10
-12 13 -29 5 -36 -7 -7 -2 -13 11 -13 13 0 23 10 23 22 0 16 8 17 25 3 26 -21
154 -56 180 -49 44 11 6 -35 -46 -56 -38 -16 -57 -36 -51 -53 7 -18 -5 -27
-34 -27 -32 -1 -37 -5 -17 -18 33 -21 187 16 171 41 -6 10 -29 13 -50 6 -21
-6 -38 -2 -38 10 0 11 13 21 28 21 16 0 44 6 64 13 22 9 30 6 21 -8 -18 -29
24 -41 114 -30 74 9 76 13 65 70 -7 33 -12 76 -12 95 0 39 -66 66 -94 38 -10
-10 -37 -4 -62 13 -50 35 -60 74 -14 56 17 -6 30 0 30 14 0 16 18 9 46 -18 59
-54 79 -55 70 0 -4 32 -22 44 -71 47 -36 3 -78 16 -93 29 -16 12 -32 16 -37 7z
m65 -200 c0 -15 7 -25 15 -20 8 5 42 -4 75 -19 l60 -28 -65 12 c-45 8 -65 5
-65 -13 0 -13 -5 -19 -12 -13 -6 6 -10 17 -9 24 1 6 -13 41 -32 76 -31 60 -31
63 0 38 18 -16 33 -41 33 -57z"/>
<path d="M1280 1951 c0 -7 10 -32 22 -54 16 -30 16 -47 0 -63 -12 -12 -22 -52
-22 -90 0 -45 -8 -64 -25 -58 -14 5 -23 19 -20 32 6 27 5 27 -68 1 -32 -11
-140 -29 -238 -40 -298 -34 -349 -42 -349 -58 0 -9 25 -11 55 -7 43 7 48 4 25
-12 -44 -31 -3 -27 104 11 73 27 104 29 140 12 42 -20 38 -22 -40 -24 -48 0
-106 -12 -130 -25 -61 -34 -89 -38 -214 -35 -190 6 -228 4 -315 -11 -53 -10
-80 -23 -72 -38 9 -14 4 -14 -13 1 -13 13 -36 19 -50 14 -14 -5 -32 0 -39 12
-12 19 14 30 55 23 10 -2 12 5 5 16 -12 19 -91 6 -91 -15 0 -7 9 -26 19 -42
12 -20 11 -35 -4 -44 -32 -20 -17 -31 55 -46 42 -8 48 -7 21 5 -36 16 -36 18
9 30 28 7 55 3 63 -10 10 -17 22 -17 40 -2 15 11 59 20 97 20 39 0 144 11 235
25 90 14 170 24 178 22 7 -3 21 10 31 27 10 18 38 32 62 32 36 -1 39 -4 14
-21 -31 -21 5 -17 135 14 30 7 73 11 95 8 22 -3 33 2 25 10 -8 9 -31 17 -50
18 -19 2 -37 11 -39 22 -5 28 81 12 105 -19 29 -39 123 -18 135 30 13 50 75
49 177 -3 184 -95 1121 -162 1997 -144 325 7 628 10 675 8 105 -4 107 16 10
83 -148 103 -201 114 -538 114 -306 0 -407 12 -187 22 61 2 148 16 194 29 46
13 88 20 93 15 5 -5 29 1 54 14 29 16 39 17 30 2 -8 -13 3 -22 29 -22 23 0 37
9 30 20 -7 11 2 20 19 20 17 0 31 -8 31 -18 0 -10 31 -16 69 -13 39 3 66 -1
60 -10 -5 -8 27 -14 71 -12 44 2 80 10 80 18 0 8 19 15 41 15 23 0 36 8 30 19
-7 10 4 27 23 38 87 49 -15 59 -324 33 -110 -10 -208 -15 -218 -13 -10 3 -95
-11 -190 -31 -506 -106 -1995 -13 -2175 136 -15 13 -27 17 -27 9z m280 -161
c39 -7 97 -18 130 -23 89 -16 87 -27 -6 -27 -108 0 -284 38 -284 62 0 10 20
15 45 10 25 -5 77 -15 115 -22z"/>
<path d="M44 1826 c-102 -20 -51 -137 56 -129 101 7 121 18 83 41 -19 12 -12
20 25 27 29 5 52 3 52 -5 0 -9 18 -20 40 -26 22 -6 40 -8 40 -6 0 14 -119 89
-160 100 -38 11 -43 10 -20 -6 18 -13 21 -22 6 -22 -13 0 -29 9 -36 20 -7 11
-19 19 -26 17 -8 -1 -35 -6 -60 -11z"/>
<path d="M740 1764 c-58 -9 -103 -43 -59 -46 16 0 45 -4 65 -8 20 -4 42 6 48
22 14 38 7 41 -54 32z"/>
<path d="M340 1700 c-42 -14 -37 -16 35 -18 47 -1 85 7 85 18 0 23 -48 23
-120 0z"/>
<path d="M8830 1634 c-77 -23 -143 -49 -147 -58 -3 -9 -14 -12 -23 -6 -9 6
-137 -21 -283 -60 -147 -39 -406 -107 -577 -152 -170 -46 -335 -87 -365 -93
-30 -5 -50 -17 -44 -26 6 -10 24 -12 40 -6 16 6 43 0 60 -14 23 -19 36 -20 54
-2 13 13 48 23 79 23 31 0 56 11 56 25 1 17 7 15 19 -5 29 -44 0 -60 -131 -73
-65 -6 -149 -24 -187 -40 -61 -25 -72 -25 -100 5 -28 30 -27 32 15 22 30 -7
50 -1 58 18 15 41 -7 58 -40 31 -15 -12 -33 -17 -39 -11 -7 6 -42 -1 -78 -17
-37 -16 -143 -48 -237 -71 -93 -24 -237 -62 -320 -85 -82 -24 -172 -47 -200
-53 -101 -19 -112 -26 -79 -48 21 -14 14 -16 -24 -7 -47 11 -210 -25 -327 -72
-22 -9 -62 -21 -90 -26 -98 -20 -231 -56 -260 -71 -16 -9 -77 -27 -135 -41
-65 -15 -100 -33 -92 -46 8 -13 2 -17 -16 -10 -27 10 -163 -17 -327 -65 -33
-10 -127 -38 -210 -61 -223 -65 -243 -75 -140 -70 99 5 254 46 299 80 22 16
25 15 12 -7 -14 -22 -8 -25 26 -15 133 40 135 41 102 5 -17 -18 -68 -34 -115
-37 -46 -3 -84 -13 -84 -22 0 -10 -11 -13 -25 -8 -37 14 -120 -21 -105 -45 7
-11 -1 -20 -18 -20 -20 0 -26 11 -18 33 9 23 5 29 -11 19 -12 -8 -23 -27 -23
-43 0 -35 -24 -37 -56 -5 -19 19 -24 17 -24 -9 0 -23 -11 -30 -32 -21 -18 6
-38 2 -46 -11 -8 -12 -36 -24 -63 -28 -61 -6 -84 -35 -55 -69 16 -20 10 -26
-27 -24 -26 0 -36 6 -22 11 19 8 19 20 3 51 -28 51 2 74 76 60 36 -7 48 -3 38
13 -9 14 1 23 27 23 23 0 41 13 41 30 0 39 -29 38 -172 -9 -105 -34 -286 -88
-488 -144 -38 -11 -91 -23 -116 -27 -25 -3 -58 -16 -72 -28 -14 -12 -32 -16
-39 -9 -7 7 -46 -1 -88 -18 -114 -47 -236 -80 -302 -83 -32 -1 -55 -8 -50 -16
14 -23 -208 -80 -258 -66 -35 10 -38 8 -15 -8 39 -28 525 -26 508 2 -7 11 -30
15 -50 10 -21 -6 -33 -2 -27 8 6 10 38 18 70 18 37 0 68 15 84 40 13 22 45 40
71 40 25 0 42 7 37 16 -6 9 21 12 58 8 38 -5 69 -1 69 9 0 21 128 22 136 1 9
-23 -23 -64 -51 -64 -14 0 -25 -9 -25 -20 0 -11 9 -19 20 -18 11 1 39 3 61 5
23 2 36 11 30 22 -6 10 -3 24 9 31 11 7 20 -1 20 -17 0 -16 14 -34 30 -40 17
-7 30 -2 30 9 0 11 9 15 20 8 11 -7 20 2 20 19 0 43 40 39 41 -4 1 -51 48
-105 91 -104 36 0 36 2 -2 36 -41 36 -98 123 -86 132 22 18 136 46 136 34 0
-9 -18 -34 -39 -57 -34 -37 -35 -44 -8 -54 43 -17 44 -16 33 28 -6 22 -1 40
12 40 12 0 22 14 22 31 0 17 8 26 18 20 10 -6 23 0 29 14 6 16 10 13 11 -8 1
-17 -11 -43 -28 -57 -16 -14 -30 -38 -30 -53 0 -21 11 -19 42 10 47 44 118 69
118 41 0 -10 32 -18 70 -18 39 0 70 7 70 15 0 9 19 27 43 42 37 24 41 23 31
-5 -8 -19 2 -39 25 -52 52 -27 61 -25 61 12 0 28 5 29 34 5 23 -18 29 -19 19
-2 -9 14 -6 25 6 25 12 0 27 -12 32 -26 12 -30 109 -43 109 -14 0 10 -18 28
-41 40 -22 12 -34 32 -26 44 9 15 2 18 -19 10 -21 -8 -32 -3 -29 12 3 13 -6
22 -20 19 -14 -3 -23 6 -20 20 3 15 -20 28 -55 32 -89 9 -112 43 -29 43 47 0
77 -13 94 -39 14 -24 37 -35 55 -28 16 6 30 1 30 -12 0 -16 11 -17 38 -2 21
11 66 22 100 25 34 2 62 15 62 28 0 13 23 29 51 36 28 7 46 20 41 29 -14 22
446 66 675 65 177 -1 245 19 158 46 -19 6 6 6 55 -1 50 -6 115 -10 146 -10 30
1 51 -6 46 -14 -13 -20 62 -16 83 5 8 8 6 14 -5 11 -51 -10 -51 4 -2 43 30 24
60 37 67 29 8 -7 1 -21 -15 -31 -16 -10 -23 -23 -17 -30 7 -6 26 2 43 19 20
20 68 31 133 31 59 0 101 9 101 22 0 12 11 17 25 12 14 -5 23 -21 20 -36 -3
-16 8 -11 25 11 16 21 30 30 30 19 0 -11 32 -16 70 -12 39 5 83 -2 98 -15 20
-16 33 -16 41 -2 8 12 36 21 63 21 29 0 45 9 38 20 -7 11 12 20 44 20 43 1 49
5 26 19 -16 11 -51 14 -78 7 -39 -10 -46 -6 -36 21 15 39 6 41 -46 9 -30 -19
-44 -20 -63 -1 -16 16 -34 17 -62 2 -21 -11 -43 -16 -49 -10 -20 20 15 50 74
63 33 7 60 16 60 20 0 27 -28 70 -45 70 -12 0 -16 -6 -9 -12 11 -12 -32 -68
-53 -68 -5 0 -38 -28 -71 -61 -38 -38 -71 -56 -86 -46 -17 10 -6 22 32 38 80
33 37 47 -48 16 -38 -13 -57 -25 -41 -26 39 -1 -55 -68 -106 -76 -33 -5 -35
-1 -12 26 23 28 19 30 -30 17 -41 -10 -53 -7 -43 9 8 13 27 23 43 23 16 0 29
9 29 20 0 26 -34 26 -50 0 -7 -12 -21 -16 -31 -10 -10 7 -24 -11 -31 -39 -13
-55 -81 -70 -122 -29 -24 24 -66 9 -66 -23 0 -10 15 -12 33 -5 23 9 29 5 19
-11 -31 -50 -84 -20 -74 42 1 8 -8 15 -20 15 -12 0 -17 -14 -11 -30 7 -19 0
-30 -19 -30 -17 0 -25 9 -18 20 14 22 8 24 -80 31 -33 2 -69 -3 -80 -11 -11
-9 -58 -13 -105 -11 -74 5 -85 0 -86 -37 -2 -41 -2 -41 -19 -2 -9 22 -18 29
-19 16 0 -14 -15 -19 -32 -13 -26 10 -25 15 5 38 20 14 41 22 49 17 7 -4 24 6
37 22 19 23 19 30 1 30 -13 0 -18 8 -12 18 6 10 0 23 -14 28 -14 4 -19 15 -11
23 7 8 29 -4 49 -27 20 -23 50 -42 66 -42 25 1 26 4 4 18 -21 13 -22 21 -3 32
39 24 205 14 223 -14 13 -21 16 -20 17 1 0 19 15 24 50 15 39 -10 50 -5 50 23
-1 30 -3 31 -20 5 -13 -21 -19 -22 -20 -5 0 29 94 71 121 55 27 -18 -3 -73
-34 -62 -15 6 -27 -2 -27 -19 0 -16 10 -29 21 -29 12 0 15 -11 7 -25 -8 -14
-7 -19 1 -11 9 8 33 6 52 -5 24 -12 41 -12 49 1 7 11 -8 21 -34 21 l-46 2 45
18 c57 22 59 39 3 24 -39 -10 -40 -7 -18 35 15 28 30 37 38 24 8 -13 63 -19
143 -14 189 11 217 18 250 66 24 33 43 40 90 31 44 -9 59 -4 59 17 0 24 34 29
180 26 148 -3 176 1 157 23 -14 18 -49 23 -101 17 -49 -6 -74 -3 -66 10 7 11
30 20 52 20 22 0 35 9 28 20 -7 11 2 20 20 20 18 0 27 8 21 18 -6 10 -1 22 12
26 77 26 -4 48 -93 25 -55 -14 -112 -29 -128 -32 -15 -4 -31 4 -36 18 -6 15 8
25 34 25 23 0 56 14 73 30 33 34 76 41 57 10 -7 -11 -3 -20 9 -20 11 0 21 10
21 22 0 16 9 15 30 -2 36 -30 40 1 5 40 -14 15 8 1 49 -31 80 -65 93 -89 44
-89 -41 0 -25 -48 19 -56 20 -4 33 6 33 27 0 25 12 30 49 21 27 -7 55 -2 62
10 7 12 30 17 51 12 21 -6 43 -2 49 8 6 10 29 18 50 18 22 0 55 8 74 19 39 21
147 49 169 45 8 -2 9 11 2 29 -8 22 -4 29 16 23 15 -6 49 -3 74 7 35 13 43 11
32 -8 -8 -14 7 -4 31 22 28 28 60 43 83 37 21 -6 38 -1 38 10 0 12 15 9 34 -7
29 -23 31 -23 16 3 -15 25 -12 26 12 6 17 -14 51 -19 78 -12 44 12 45 14 9 27
-59 22 44 57 209 72 73 6 135 20 139 29 9 25 98 23 113 -2 7 -11 23 -20 36
-20 19 1 18 4 0 16 -35 22 -3 57 54 57 113 2 160 45 160 150 0 53 -7 96 -15
95 -8 -1 -78 -21 -155 -44z m-101 -132 c11 -19 -33 -42 -81 -42 -24 0 -25 5
-4 29 30 34 68 39 85 13z m-1113 -390 c-3 -2 -23 -17 -45 -33 -24 -18 -33 -20
-24 -4 11 18 -3 25 -51 26 -50 1 -57 5 -28 17 30 11 170 6 148 -6z m-935 -181
c-13 -16 -17 -41 -9 -55 12 -20 9 -21 -13 -4 -58 44 -119 47 -119 6 0 -21 -9
-38 -20 -38 -11 0 -20 10 -20 22 0 14 -20 17 -55 9 -85 -21 -103 -51 -30 -51
34 0 68 -9 75 -20 13 -21 -67 -14 -190 18 -59 15 -62 18 -19 20 29 1 81 31
119 67 37 36 60 52 50 37 -13 -23 -8 -25 22 -12 41 17 213 45 226 36 4 -3 -3
-18 -17 -35z m128 -49 c6 -9 -14 -22 -44 -28 -62 -12 -75 -6 -56 25 16 25 84
28 100 3z m-619 -22 c-7 -11 -3 -20 9 -20 11 0 21 -9 21 -20 0 -11 -22 -20
-49 -20 -26 0 -51 -12 -55 -26 -4 -18 -16 -15 -41 10 -36 37 -10 49 80 37 14
-1 24 4 23 13 -4 26 1 46 13 46 6 0 6 -9 -1 -20z m396 -13 c-7 -19 -5 -28 7
-22 10 7 32 4 48 -5 39 -25 -2 -66 -48 -49 -33 13 -45 70 -20 96 22 22 26 15
13 -20z m-866 -147 c-27 -17 -15 -29 25 -22 8 1 15 -7 15 -18 0 -11 -24 -20
-53 -20 -30 0 -48 6 -41 13 8 7 4 25 -9 40 -17 22 -10 27 36 27 44 -1 50 -5
27 -20z m-274 -102 c6 -23 6 -37 0 -30 -7 6 -24 -4 -38 -23 -20 -26 -27 -28
-27 -7 -1 15 -17 40 -36 55 -31 24 -28 25 20 8 44 -16 55 -14 55 9 0 43 14 37
26 -12z m-168 -61 c-43 -82 -118 -125 -118 -69 0 15 15 26 34 25 19 -2 46 22
62 54 15 31 32 52 37 46 6 -5 -1 -30 -15 -56z m287 -6 c29 -43 14 -51 -35 -19
-27 18 -50 40 -50 50 0 21 65 -2 85 -31z m-428 -128 c-22 -3 -44 -19 -51 -35
-8 -22 -17 -24 -38 -6 -22 18 -28 16 -28 -10 0 -33 -44 -40 -107 -15 -43 17
35 64 126 75 26 3 56 21 66 38 17 30 21 29 45 -4 24 -31 22 -37 -13 -43z
m-837 -142 c-65 -26 -94 -30 -104 -14 -10 16 -26 11 -50 -15 -20 -21 -25 -31
-11 -24 16 9 21 4 13 -17 -7 -17 -19 -26 -28 -21 -9 6 -20 1 -23 -9 -5 -13
-18 -12 -37 1 -23 16 -24 24 -5 31 14 6 25 28 25 49 0 34 12 39 79 35 44 -3
86 1 94 9 7 8 41 13 75 13 60 -1 58 -3 -28 -38z m469 -14 c-43 -14 -95 -35
-114 -47 -22 -13 -35 -13 -35 -1 0 11 -13 15 -30 8 -16 -6 -30 -3 -30 6 0 25
202 81 249 70 30 -7 20 -16 -40 -36z"/>
<path d="M660 1458 c-115 -20 -260 -45 -321 -57 -61 -12 -139 -21 -174 -21
-34 0 -77 -15 -95 -33 -28 -28 -36 -29 -52 -5 -15 24 -17 24 -18 0 0 -29 56
-81 90 -81 11 0 7 8 -10 19 -26 17 -25 19 3 20 19 0 38 -11 44 -25 5 -14 11
-9 11 12 1 25 12 33 32 26 17 -7 30 -4 30 6 0 10 68 16 150 14 83 -2 155 6
160 17 6 11 7 0 2 -25 -4 -25 0 -45 10 -45 10 0 18 8 18 18 0 10 20 13 45 7
40 -11 42 -8 18 22 -24 28 -23 33 5 33 17 0 32 -10 32 -22 0 -16 9 -15 30 2
16 13 24 35 17 47 -8 14 -2 13 14 -2 30 -28 131 -34 147 -9 5 9 -18 13 -52 8
-46 -7 -59 -2 -52 18 6 19 48 30 124 34 78 4 112 14 107 30 -12 34 -75 32
-315 -8z"/>
<path d="M7900 1481 c21 -14 4 -19 -60 -17 -115 3 -200 -21 -200 -55 0 -15
-16 -25 -35 -24 -72 4 -178 -26 -178 -52 0 -32 231 24 287 69 20 17 28 18 19
4 -16 -27 179 23 219 56 12 10 27 12 33 6 7 -6 27 -3 45 7 24 13 8 19 -63 22
-68 2 -88 -3 -67 -16z"/>
<path d="M1241 1351 c-27 -14 -61 -22 -75 -17 -14 6 -26 0 -26 -13 0 -13 -9
-18 -20 -11 -11 7 -20 4 -20 -7 0 -31 53 -42 82 -16 21 19 22 17 2 -9 -13 -17
-17 -39 -9 -48 8 -9 -15 1 -51 22 -41 23 -71 30 -80 18 -8 -11 -45 -23 -84
-26 -38 -4 -90 -8 -115 -10 -25 -2 -45 -16 -45 -31 0 -19 -16 -25 -51 -18 -32
6 -48 2 -43 -13 8 -22 163 -24 289 -4 36 6 65 3 65 -8 0 -11 -7 -20 -17 -20
-9 0 -16 -12 -16 -26 0 -17 21 -23 66 -17 37 4 67 16 67 27 0 11 -21 15 -48 8
-39 -10 -46 -5 -39 24 6 23 31 37 72 40 34 3 75 15 90 28 20 17 33 16 50 -1
17 -17 15 -23 -10 -23 -18 0 -37 -7 -43 -16 -5 -9 19 -14 54 -10 35 3 53 1 39
-6 -38 -18 -30 -48 10 -35 29 9 30 7 5 -10 -19 -14 -37 -14 -49 -2 -25 25 -57
25 -41 -1 7 -11 -1 -20 -18 -20 -16 0 -34 -7 -40 -16 -5 -10 86 -17 204 -18
118 0 239 -6 270 -12 31 -6 76 -5 100 4 l43 16 -44 15 c-25 7 -45 22 -45 32 0
33 -37 20 -46 -16 -8 -30 -10 -30 -12 -2 -2 37 -82 66 -82 30 0 -14 -7 -13
-18 4 -12 19 -21 21 -31 5 -7 -12 -33 -22 -57 -22 -37 1 -39 4 -14 22 23 16
18 19 -25 12 -30 -4 -55 -1 -55 9 0 9 17 17 39 17 21 0 44 9 51 20 7 11 -1 14
-19 8 -47 -18 -131 9 -131 42 0 22 25 30 95 32 52 0 82 6 65 13 -16 6 -37 21
-45 33 -8 13 -15 14 -15 2 0 -11 -22 -20 -50 -20 -34 0 -50 11 -50 35 0 42
-14 43 -79 6z"/>
<path d="M8970 1360 c-7 -11 -5 -21 4 -21 9 -1 -2 -9 -24 -17 -25 -10 -56 -6
-80 10 -27 17 -50 20 -70 7 -39 -24 -106 -24 -91 0 7 11 -12 7 -41 -8 -29 -15
-64 -24 -78 -18 -14 5 -31 -6 -38 -24 -11 -29 -17 -30 -46 -6 -29 24 -32 23
-20 -8 7 -19 4 -35 -7 -35 -10 0 -19 -9 -19 -20 0 -12 17 -10 41 5 31 19 44
20 55 1 10 -16 25 -18 45 -5 25 16 25 18 0 19 -22 0 -24 5 -5 24 28 28 45 15
49 -40 3 -34 14 -40 64 -32 57 8 58 8 14 -12 -31 -13 -71 -14 -116 -2 -42 12
-93 12 -132 0 -78 -22 -76 -22 -73 -3 7 39 -5 48 -32 25 -16 -14 -30 -17 -30
-7 0 9 -7 7 -15 -6 -8 -13 -51 -29 -95 -36 -78 -13 -79 -12 -30 17 28 17 39
31 27 31 -46 2 -87 -24 -87 -53 0 -22 -13 -27 -49 -18 -28 7 -55 2 -63 -11 -8
-14 -5 -18 8 -10 11 8 27 5 34 -6 14 -24 190 -20 190 4 0 9 19 6 43 -6 33 -18
46 -17 59 4 10 15 18 17 18 6 0 -22 107 -21 230 0 38 7 50 5 33 -7 -23 -14
-23 -19 0 -29 15 -6 1 -6 -31 1 -33 7 -53 4 -47 -6 6 -10 -20 -17 -58 -15 -44
2 -66 -5 -61 -20 5 -13 21 -21 36 -20 190 23 221 31 210 58 -6 16 -1 29 10 29
11 0 15 8 9 18 -6 10 2 23 17 28 20 8 25 -1 17 -32 l-10 -44 43 45 c25 25 68
45 99 45 30 0 73 14 94 32 32 26 33 29 5 21 -19 -6 -41 -1 -48 10 -9 15 -20
11 -32 -11 -10 -18 -28 -27 -39 -20 -14 9 -12 19 6 32 18 12 0 16 -55 12 -50
-4 -92 4 -107 20 -39 41 -13 49 75 23 118 -36 224 -11 224 52 0 52 -10 62 -30
29z"/>
<path d="M7182 1333 c-2 -31 -7 -33 -31 -14 -16 13 -45 20 -65 15 -28 -7 -25
-10 10 -12 27 -1 41 -11 33 -23 -7 -11 -30 -15 -51 -8 -22 7 -38 2 -38 -12 0
-16 -47 -20 -165 -12 -93 6 -147 4 -125 -5 40 -17 40 -17 0 -28 -22 -6 -8 -8
30 -5 39 4 88 0 110 -9 28 -12 1 -18 -86 -19 -80 0 -122 6 -114 19 19 30 -29
24 -61 -8 -22 -22 -23 -31 -4 -39 14 -5 0 -11 -30 -11 -34 -1 -55 -13 -55 -31
0 -17 -11 -26 -25 -22 -95 29 -156 27 -188 -5 -20 -20 -68 -35 -116 -36 -144
-3 -156 -6 -144 -37 8 -21 -8 -33 -58 -42 -38 -8 -69 -21 -69 -31 0 -10 -10
-18 -21 -18 -12 0 -16 9 -9 20 16 25 6 25 -64 -2 -31 -12 -83 -22 -116 -21
-32 0 -67 -10 -76 -23 -13 -18 -19 -18 -27 1 -6 14 -19 25 -30 25 -11 0 -14
-8 -8 -18 16 -26 -44 -68 -79 -55 -18 7 -30 0 -30 -18 0 -16 -9 -29 -20 -29
-11 0 -20 11 -20 25 -1 17 -7 15 -20 -5 -15 -24 -19 -24 -20 -3 0 21 -7 22
-27 6 -15 -13 -33 -17 -40 -9 -7 7 -13 7 -13 1 0 -7 16 -28 35 -47 33 -34 33
-35 0 -22 -50 19 -155 -6 -155 -37 0 -26 -116 2 -140 34 -15 20 -86 -37 -73
-59 6 -10 -25 -18 -69 -18 -64 0 -78 6 -69 32 8 22 1 20 -19 -7 -22 -28 -36
-33 -52 -17 -16 16 -36 14 -74 -5 -35 -19 -60 -21 -76 -7 -17 13 -29 13 -37
-1 -17 -27 -91 -28 -91 -1 0 11 -22 18 -49 16 -38 -4 -44 -10 -27 -31 12 -14
16 -32 9 -39 -7 -7 -13 -2 -13 11 0 12 -13 23 -30 23 -16 0 -30 -14 -30 -31 0
-68 -39 -111 -80 -89 -32 17 -37 15 -27 -10 13 -34 -43 -43 -63 -10 -7 11 -37
15 -66 8 -30 -6 -70 -11 -89 -11 -19 0 -35 -8 -35 -19 0 -11 9 -15 20 -8 11 7
20 4 20 -6 0 -10 -50 -17 -110 -15 -80 3 -120 -5 -147 -30 -20 -19 -65 -41
-100 -48 -57 -13 -86 -58 -47 -74 9 -4 0 -23 -20 -42 -20 -19 -36 -25 -36 -14
0 12 -11 15 -23 7 -16 -10 -20 -4 -12 17 9 22 -2 35 -36 44 -57 14 -64 44 -14
57 19 5 8 9 -25 7 -33 -1 -72 -13 -86 -27 -15 -14 -51 -26 -80 -26 -42 -1 -47
-5 -24 -20 17 -11 23 -20 14 -20 -9 0 -2 -15 16 -33 24 -24 38 -27 55 -10 17
17 14 23 -11 23 -19 0 -34 7 -34 15 0 25 95 60 120 45 15 -9 17 -18 4 -23 -11
-4 -6 -20 12 -36 28 -26 30 -26 18 6 -9 24 -6 34 9 29 33 -11 39 -76 6 -76
-14 0 -33 10 -40 22 -9 14 -30 4 -59 -30 -44 -51 -90 -69 -90 -35 0 10 -36 11
-79 3 -44 -8 -75 -7 -69 2 5 10 -20 12 -56 5 -64 -13 -101 -42 -86 -68 5 -6
-27 -11 -69 -11 -42 1 -74 -4 -69 -11 12 -20 -48 -62 -70 -48 -10 6 -25 3 -32
-9 -7 -11 4 -21 24 -22 26 -1 22 -7 -14 -20 -96 -33 104 3 237 43 70 22 153
39 183 39 31 0 60 8 63 19 4 10 79 38 167 62 88 24 190 56 226 71 36 16 83 28
104 28 21 0 59 8 84 19 25 10 96 32 156 50 61 17 191 54 290 83 99 29 246 69
326 90 81 20 155 42 164 48 10 6 56 16 104 23 47 6 92 21 98 31 7 11 45 21 85
22 40 1 73 8 73 16 0 7 34 20 75 28 41 7 84 19 94 26 11 7 34 15 51 18 124 22
160 33 160 49 0 10 11 17 25 15 14 -2 39 0 55 6 63 23 634 176 654 176 12 0
56 15 99 33 42 18 97 36 122 39 24 3 74 15 110 26 163 53 574 160 660 173 52
7 90 21 84 30 -5 9 11 20 36 25 25 5 -1 10 -58 11 -62 2 -108 13 -114 28 -5
14 -11 9 -11 -12z"/>
<path d="M5322 1258 c-103 -20 -105 -21 -82 -57 13 -22 23 -23 45 -6 15 13 47
18 71 12 29 -8 48 -1 56 21 7 17 21 32 31 32 11 0 14 -9 7 -20 -7 -11 -3 -20
9 -20 11 0 21 14 21 30 0 33 -26 34 -158 8z"/>
<path d="M637 1200 c-35 -38 -29 -60 16 -60 15 0 27 17 27 39 0 27 17 41 55
47 55 8 55 8 -5 9 -34 1 -74 -14 -93 -35z"/>
<path d="M3812 1144 c-5 -9 21 -18 58 -21 37 -2 73 5 80 16 7 13 -15 21 -58
21 -38 0 -74 -7 -80 -16z"/>
<path d="M8750 1061 c-37 -15 -35 -18 16 -31 79 -21 49 -38 -62 -35 l-94 2
108 -20 c81 -16 111 -15 122 4 9 14 44 21 88 15 57 -6 72 -1 72 25 0 28 -17
32 -103 23 -74 -7 -99 -3 -89 13 16 26 -1 27 -58 4z"/>
<path d="M270 1027 c-22 -5 -53 -15 -70 -21 -16 -7 -43 -11 -60 -8 -25 3 -25
1 -2 -15 24 -16 24 -20 0 -28 -15 -5 -10 -5 12 0 22 5 78 10 124 12 97 5 125
23 87 58 -21 20 -24 20 -13 0 9 -16 2 -25 -18 -25 -18 0 -27 9 -20 20 7 11 10
19 6 18 -3 -2 -24 -7 -46 -11z"/>
<path d="M7490 975 c17 -10 26 -25 20 -34 -5 -10 12 -7 40 6 70 32 62 49 -20
47 -51 -1 -62 -7 -40 -19z"/>
<path d="M7753 954 c-14 -54 -14 -54 84 -60 73 -5 112 -27 68 -38 -32 -8 -60
-47 -50 -71 16 -43 -14 -28 -85 44 -40 40 -65 81 -58 98 8 21 -3 28 -39 26
-27 -2 -45 -9 -41 -16 5 -8 -3 -19 -17 -25 -14 -6 -5 -7 20 0 52 12 57 -2 16
-44 -16 -16 -24 -44 -17 -62 9 -22 5 -28 -11 -18 -14 9 -19 33 -12 54 14 46
10 46 -62 9 -57 -29 -99 -24 -78 11 22 35 -51 42 -100 10 -27 -18 -65 -32 -83
-32 -27 0 -29 -5 -8 -30 14 -17 21 -35 16 -41 -17 -16 -77 14 -65 33 20 33
-82 39 -161 10 -44 -16 -69 -30 -56 -31 14 0 20 -14 13 -31 -8 -23 4 -30 51
-30 44 0 62 9 62 32 0 24 12 29 45 21 25 -7 53 -13 62 -13 10 0 12 -14 6 -30
-9 -23 -1 -28 33 -19 24 6 64 12 88 14 24 2 39 10 34 18 -5 9 -21 11 -36 5
-15 -6 -32 3 -38 20 -8 20 -3 26 17 19 16 -6 45 1 63 16 29 23 31 23 17 -1
-13 -22 -9 -26 18 -15 25 10 38 1 47 -32 l12 -45 11 49 c7 26 25 52 42 57 22
7 24 3 6 -16 -13 -14 -19 -37 -13 -52 12 -33 60 -37 70 -6 9 27 116 42 116 16
0 -10 18 -18 39 -18 22 0 71 -15 109 -33 86 -41 144 -25 109 30 -14 23 -38 34
-61 28 -35 -9 -35 -5 7 65 24 42 61 80 81 85 63 17 39 42 -53 56 -89 13 -140
0 -121 -31 6 -9 2 -23 -10 -30 -11 -7 -20 5 -20 27 0 56 -54 70 -67 17z"/>
<path d="M8556 977 c-7 -21 -29 -28 -131 -41 -39 -4 -11 -22 46 -28 29 -3 72
2 96 12 23 10 31 18 16 19 -23 1 -23 7 -3 31 15 18 17 30 4 30 -11 0 -24 -11
-28 -23z"/>
<path d="M8320 931 c0 -24 -10 -26 -51 -11 -74 28 -105 23 -62 -9 20 -16 51
-23 68 -16 23 9 27 4 14 -17 -13 -22 -11 -23 12 -6 16 13 39 26 52 30 16 6 15
16 -5 34 -23 21 -28 20 -28 -5z"/>
<path d="M8865 927 c-14 -6 -25 -19 -25 -30 0 -11 8 -15 17 -9 10 6 46 3 80
-7 50 -14 63 -12 63 10 0 16 -13 29 -28 29 -16 0 -41 4 -55 8 -15 5 -38 4 -52
-1z"/>
<path d="M490 900 c33 -8 92 -15 130 -15 l70 0 -80 16 c-108 22 -208 21 -120
-1z"/>
<path d="M8009 845 c3 -30 11 -53 18 -50 7 3 37 5 65 5 42 0 48 5 30 27 -18
22 -13 26 28 18 27 -5 50 -1 50 10 0 20 -91 45 -161 45 -28 0 -35 -13 -30 -55z"/>
<path d="M8328 851 c-6 -16 -26 -24 -45 -18 -20 6 -13 -5 16 -29 27 -22 62
-35 78 -29 24 10 24 15 -3 35 -25 18 -27 29 -9 47 17 17 17 23 -2 23 -13 0
-29 -13 -35 -29z"/>
<path d="M8648 863 c10 -16 -5 -23 -47 -23 -33 0 -61 -10 -61 -22 0 -16 -7
-17 -26 -2 -19 17 -25 12 -25 -17 0 -21 11 -39 24 -39 13 0 36 -11 51 -25 27
-26 176 -38 176 -14 0 8 -19 19 -42 25 -58 15 -37 64 27 65 29 0 48 -6 42 -15
-5 -9 -25 -16 -43 -17 -30 0 -29 -3 3 -22 28 -16 42 -15 53 3 9 14 25 19 36
12 12 -7 27 -4 34 8 7 11 1 20 -12 20 -14 0 -19 6 -12 13 7 7 27 1 44 -13 25
-20 30 -19 30 7 0 29 -77 53 -160 50 -16 -1 -47 5 -68 14 -27 11 -34 9 -24 -8z"/>
<path d="M1420 839 c-27 -8 -42 -16 -33 -17 10 -1 6 -18 -10 -37 -24 -31 -23
-32 5 -10 17 13 50 27 74 31 24 3 48 11 54 18 21 20 -39 30 -90 15z"/>
<path d="M200 800 c0 -13 -20 -21 -45 -19 -85 7 -115 -1 -115 -29 0 -23 14
-25 70 -9 39 10 78 14 88 8 10 -6 23 2 29 18 6 17 3 35 -8 42 -10 6 -19 1 -19
-11z"/>
<path d="M329 799 c-7 -12 -26 -17 -41 -11 -15 6 -28 2 -28 -9 0 -10 34 -18
75 -17 41 2 58 7 37 12 -30 8 -32 14 -10 28 18 11 20 17 4 18 -13 0 -30 -10
-37 -21z"/>
<path d="M3783 779 c-24 -23 -38 -51 -31 -63 9 -13 21 -7 34 16 12 21 35 49
53 62 17 14 21 25 10 25 -12 1 -41 -18 -66 -40z"/>
<path d="M2191 742 c-21 -34 37 -60 75 -33 32 24 32 28 3 39 -44 17 -65 15
-78 -6z"/>
<path d="M8100 714 c0 -29 10 -36 42 -28 23 6 64 3 92 -7 44 -17 48 -14 42 26
-8 62 -176 71 -176 9z"/>
<path d="M8806 715 c3 -35 94 -53 94 -18 0 10 23 13 50 8 34 -7 50 -1 50 18 0
19 -29 27 -98 27 -82 0 -98 -6 -96 -35z"/>
<path d="M4237 730 c-6 -6 -50 -11 -99 -13 -48 -1 -99 -11 -113 -22 -16 -12
-25 -13 -25 -1 0 11 -13 19 -30 19 -16 0 -30 -7 -30 -16 0 -9 -29 -18 -65 -19
-52 -2 -45 -6 33 -19 60 -10 113 -9 135 3 21 11 37 13 37 6 0 -7 12 -3 26 8
31 26 85 -2 65 -34 -8 -14 4 -21 33 -20 25 0 35 6 21 11 -35 14 -31 48 10 79
19 15 30 27 23 27 -6 1 -16 -4 -21 -9z"/>
<path d="M8300 721 c0 -12 41 -21 93 -21 111 0 102 22 -13 34 -48 5 -80 0 -80
-13z"/>
<path d="M1180 705 c-31 -12 -59 -44 -60 -70 0 -22 56 -18 70 5 7 11 -1 14
-19 8 -52 -20 -35 9 24 41 54 29 45 39 -15 16z"/>
<path d="M1005 679 c-47 -9 -96 -23 -108 -31 -14 -9 -18 -5 -9 9 8 13 5 23 -7
23 -11 0 -21 -10 -21 -21 0 -12 -8 -16 -19 -10 -10 6 -24 3 -31 -9 -7 -11 -37
-21 -66 -22 -34 -2 -41 -6 -19 -12 20 -5 30 -17 24 -28 -6 -10 -2 -18 9 -18
11 0 29 16 41 35 18 31 23 31 41 5 18 -27 22 -27 40 0 11 17 20 22 20 12 0
-10 17 -3 38 16 34 31 39 31 45 4 6 -26 17 -23 67 17 33 27 56 49 50 48 -5 -1
-48 -9 -95 -18z"/>
<path d="M1927 675 c-32 -13 -31 -15 6 -8 23 5 55 0 70 -9 21 -14 19 -17 -8
-18 -19 0 -35 -9 -35 -21 0 -15 103 23 136 51 17 15 -138 19 -169 5z"/>
<path d="M2702 645 c-38 -7 -42 -13 -20 -27 26 -16 -73 -28 -165 -19 -17 1
-37 -11 -44 -28 -7 -20 -1 -31 19 -31 17 0 25 9 18 20 -7 11 -3 20 9 20 11 0
21 -11 21 -25 1 -17 7 -15 20 5 16 25 20 23 21 -10 1 -33 4 -34 15 -8 9 21 37
32 79 30 48 -1 63 5 55 25 -7 18 0 24 20 16 18 -7 30 0 30 18 0 16 -7 28 -15
26 -8 -1 -37 -7 -63 -12z"/>
<path d="M7886 647 c-13 -5 -18 -23 -12 -40 10 -27 3 -27 -53 2 -50 26 -70 28
-92 10 -16 -13 -29 -15 -29 -4 0 11 -22 15 -49 10 l-49 -9 52 -48 c29 -26 42
-48 29 -48 -13 0 -23 -13 -23 -30 0 -16 -9 -30 -20 -30 -11 0 -18 11 -15 25 7
37 -113 43 -143 7 -22 -26 -17 -32 26 -43 29 -7 52 -21 52 -31 0 -10 26 -18
57 -18 31 0 63 -6 70 -14 16 -16 173 -27 173 -12 0 19 -56 64 -66 53 -6 -6
-23 -4 -38 6 -18 11 -8 20 34 31 48 12 43 13 -25 7 -91 -8 -99 -1 -57 54 31
41 89 45 163 11 44 -20 56 -19 71 8 11 20 33 28 59 22 25 -7 50 2 65 22 27 36
189 50 237 20 15 -9 43 -14 62 -11 19 3 41 -9 48 -27 10 -26 16 -27 28 -8 13
20 27 21 69 2 61 -28 134 -31 161 -7 30 28 176 44 209 23 25 -16 24 -19 -7
-20 -47 0 -33 -44 23 -70 24 -11 44 -33 44 -50 0 -37 -76 -48 -114 -17 -19 16
-26 14 -26 -9 0 -21 27 -32 95 -38 107 -10 114 -8 100 28 -5 14 -12 35 -14 46
-2 11 -23 31 -47 44 -43 24 -43 25 11 25 41 1 55 11 55 41 0 22 -13 40 -30 40
-16 0 -30 10 -30 23 0 14 -22 18 -60 10 -33 -7 -60 -4 -60 5 0 10 -22 16 -48
15 -27 -2 -45 -9 -40 -16 4 -7 -6 -18 -22 -24 -17 -7 -30 -3 -30 7 0 11 -20
19 -45 18 -25 0 -158 4 -296 10 -232 11 -255 8 -294 -28 -24 -22 -48 -32 -54
-22 -6 10 -31 13 -54 7 -35 -9 -41 -5 -31 22 7 18 11 32 8 31 -2 0 -15 -6 -28
-11z"/>
<path d="M7236 593 c-27 -34 -38 -37 -53 -16 -14 21 -20 20 -30 -6 -9 -25 0
-31 47 -27 32 2 54 8 49 13 -5 5 2 22 14 37 12 15 19 30 15 34 -4 4 -23 -12
-42 -35z"/>
<path d="M1810 599 c-77 -14 -76 -15 25 -12 58 2 105 10 105 18 0 17 -14 16
-130 -6z"/>
<path d="M7314 559 c-40 -46 4 -82 52 -42 14 12 47 16 72 9 46 -12 46 -11 10
31 -46 54 -89 55 -134 2z"/>
<path d="M3380 527 c0 -44 -60 -85 -60 -41 0 15 -8 13 -20 -6 -11 -16 -20 -21
-22 -10 -1 11 -8 -2 -16 -30 -12 -42 -26 -50 -83 -47 -63 2 -65 1 -24 -18 49
-23 154 15 133 48 -6 9 13 17 41 17 29 0 57 14 64 30 6 17 26 31 44 32 28 1
28 3 3 13 -16 6 -37 21 -45 33 -8 13 -15 4 -15 -21z"/>
<path d="M6865 547 c-14 -6 -21 -17 -17 -24 5 -8 -65 -16 -155 -18 -90 -1
-186 -12 -213 -23 -44 -18 -39 -20 40 -18 50 1 109 -4 133 -12 24 -7 49 -5 56
6 7 11 26 15 43 8 25 -9 26 -15 5 -28 -18 -12 -19 -17 -3 -18 13 0 37 14 53
30 17 17 38 30 47 30 9 0 43 18 76 40 61 40 15 59 -65 27z"/>
<path d="M8200 542 c0 -27 35 -35 117 -25 60 7 66 12 33 24 -56 23 -150 23
-150 1z"/>
<path d="M2875 525 c50 -16 1 -45 -75 -45 -43 0 -84 -10 -91 -22 -9 -15 0 -18
27 -9 23 7 96 14 163 16 66 2 121 11 121 20 0 10 8 12 19 6 10 -6 24 -3 30 8
7 11 -11 18 -43 16 -31 -1 -83 2 -116 8 -33 6 -49 7 -35 2z"/>
<path d="M8149 502 c50 -19 13 -43 -51 -32 -176 30 -218 27 -218 -13 0 -29 12
-39 45 -36 107 8 129 0 75 -30 -48 -27 -47 -28 37 -23 55 3 97 17 113 38 15
21 52 34 98 34 48 0 70 8 61 21 -7 12 -25 17 -39 12 -14 -6 -43 2 -63 18 -20
15 -50 27 -67 27 -20 -1 -17 -6 9 -16z"/>
<path d="M7135 484 c42 -27 -141 -65 -213 -45 -99 29 -72 -12 32 -47 124 -43
153 -41 141 7 -9 32 -4 36 33 22 77 -30 218 -33 227 -6 7 21 -72 34 -148 23
-7 -1 -21 13 -31 30 -10 18 -29 32 -42 32 -18 -1 -18 -4 1 -16z"/>
<path d="M270 460 c11 -18 -87 -30 -170 -22 -21 3 -23 -1 -7 -12 20 -14 81
-17 175 -8 39 3 59 62 20 62 -17 0 -25 -9 -18 -20z"/>
<path d="M2053 455 c5 -8 -5 -15 -22 -15 -59 0 -31 -30 31 -32 40 -2 52 3 35
14 -21 14 -20 17 6 18 50 0 97 -21 97 -44 0 -11 -13 -15 -29 -9 -17 6 -36 1
-43 -11 -9 -13 -5 -17 9 -8 13 8 23 6 23 -5 0 -11 -11 -23 -25 -28 -14 -5 7
-8 45 -8 39 0 59 3 45 8 -18 6 -19 19 -4 47 14 27 14 38 -1 38 -13 0 -16 11
-8 23 10 16 4 20 -19 11 -18 -7 -33 -6 -33 2 0 8 -26 14 -58 14 -32 0 -54 -7
-49 -15z"/>
<path d="M8417 447 c-12 -15 -62 -27 -114 -27 -51 0 -102 -7 -113 -15 -37 -27
-30 -65 11 -65 23 0 57 -8 75 -17 19 -10 52 -11 74 -2 22 9 30 17 17 18 -12 0
-28 16 -35 34 -11 28 1 31 86 23 96 -10 98 -9 56 25 -41 33 -36 33 97 7 157
-30 253 -35 169 -8 -27 9 -36 17 -20 19 18 2 10 12 -19 23 -68 27 -257 17
-284 -15z"/>
<path d="M440 440 c-16 -10 -21 -25 -12 -34 10 -9 21 -6 25 6 5 12 33 18 63
12 30 -5 47 -2 38 7 -23 25 -81 30 -114 9z"/>
<path d="M1624 375 c-1 -68 3 -78 19 -49 11 20 15 51 8 69 -7 17 -1 39 13 48
20 12 18 16 -7 17 -25 0 -33 -20 -33 -85z"/>
<path d="M6484 397 c3 -24 20 -48 36 -52 27 -7 27 -6 0 13 -25 18 -22 21 15
22 45 0 61 28 27 49 -10 6 -23 0 -29 -14 -8 -20 -10 -20 -11 0 -1 14 -12 25
-23 25 -12 0 -19 -20 -15 -43z"/>
<path d="M7380 382 c0 -42 12 -61 45 -70 l45 -12 -50 -26 c-27 -15 -54 -21
-60 -15 -23 25 -150 11 -144 -16 4 -18 -6 -24 -27 -15 -18 6 -43 12 -56 12
-14 0 -13 7 5 18 18 12 -3 20 -65 25 -51 4 -93 0 -93 -8 0 -8 26 -15 57 -15
34 0 80 -21 112 -51 56 -51 171 -55 171 -6 0 11 9 14 20 7 29 -18 173 26 212
65 19 19 44 35 56 37 12 1 34 3 49 5 46 5 12 52 -38 52 -27 1 -60 8 -74 17
-18 12 -25 0 -25 -40 -1 -38 -6 -48 -18 -29 -9 14 -24 25 -34 23 -9 -2 -21 8
-25 22 -6 16 3 20 27 11 31 -12 32 -9 10 17 -15 18 -39 27 -54 21 -16 -6 -23
-2 -16 9 7 11 3 20 -9 20 -11 0 -21 -26 -21 -58z"/>
<path d="M6618 399 c-12 -8 8 -19 45 -26 96 -18 105 -18 112 3 8 23 -126 42
-157 23z"/>
<path d="M6829 382 c6 -10 0 -24 -14 -31 -14 -6 -4 -8 21 -3 38 7 42 4 23 -20
-19 -23 -16 -28 17 -28 23 0 47 9 53 19 7 11 27 14 45 7 23 -9 28 -5 17 12 -8
14 -26 21 -39 16 -13 -5 -41 3 -62 18 -43 32 -78 37 -61 10z"/>
<path d="M900 365 c-76 -30 -112 -126 -45 -123 21 1 25 5 10 11 -14 6 -25 19
-25 30 0 11 10 13 23 5 15 -9 18 -5 8 10 -10 16 0 29 27 36 23 6 42 19 42 28
0 10 -2 17 -5 16 -3 0 -18 -6 -35 -13z"/>
<path d="M5820 365 c0 -13 -36 -19 -93 -15 -84 5 -94 1 -112 -48 -17 -44 -32
-53 -96 -53 -42 0 -71 8 -64 19 6 10 1 12 -11 5 -12 -8 -31 2 -42 22 -12 19
-21 26 -21 14 -1 -12 9 -31 21 -43 15 -15 15 -25 0 -35 -12 -7 -22 -3 -22 10
0 17 -23 20 -72 13 -42 -7 -88 -2 -110 12 -27 16 -44 17 -54 3 -8 -11 -36 -22
-62 -24 -26 -2 -58 -13 -70 -25 -13 -13 -14 -21 -2 -19 54 10 81 -1 50 -21
-18 -12 -20 -20 -6 -20 13 0 29 9 36 20 21 34 90 23 91 -15 1 -27 6 -25 20 10
10 27 29 40 46 33 16 -6 35 -1 42 11 17 27 51 27 51 0 0 -12 -9 -16 -20 -9
-11 7 -20 3 -20 -9 0 -11 -20 -21 -45 -21 -33 -1 -38 -5 -18 -18 17 -10 48 -7
79 9 40 21 63 22 112 3 34 -13 91 -24 126 -23 35 0 58 -8 51 -19 -7 -11 3 -13
23 -5 20 7 43 13 53 13 10 0 12 14 6 31 -8 20 -26 26 -54 18 -39 -12 -40 -11
-8 14 19 15 48 45 66 67 18 22 26 29 19 15 -8 -16 4 -26 34 -27 31 -2 35 -6
13 -11 -19 -5 -38 -21 -43 -35 -13 -33 19 -86 39 -65 9 8 3 24 -14 34 -16 10
-20 20 -9 22 11 2 29 5 40 8 11 2 36 5 56 7 20 1 31 11 24 22 -7 12 15 20 53
20 l66 0 -48 -34 c-26 -18 -66 -35 -88 -36 -23 -2 -44 -14 -49 -27 -7 -21 108
-37 166 -23 11 3 61 4 112 2 62 -3 100 6 117 27 28 34 121 43 121 12 0 -10 25
-16 55 -12 30 4 66 7 80 9 14 1 26 22 27 47 2 34 5 36 12 10 9 -36 49 -34 164
9 l49 18 -44 30 c-24 17 -54 23 -68 15 -22 -14 -63 -19 -255 -32 -38 -3 -76
-14 -84 -25 -8 -11 -26 -20 -40 -21 -14 0 -24 -12 -21 -25 6 -26 -128 -30
-215 -6 -42 12 -44 16 -15 27 42 16 27 68 -21 68 -134 0 -153 6 -113 35 21 16
32 35 24 44 -8 8 -15 5 -15 -7z"/>
<path d="M6100 343 c0 -9 -43 -14 -95 -10 l-95 6 70 -27 c39 -15 78 -22 88
-16 10 5 12 0 4 -13 -8 -13 -28 -23 -46 -23 -24 0 -26 -6 -8 -28 37 -45 100
-17 90 39 -7 37 -1 45 22 36 16 -6 30 -2 30 9 0 11 -13 25 -30 31 -16 7 -30 5
-30 -4z"/>
<path d="M6193 335 c-23 -14 -1 -19 87 -19 93 0 120 5 120 25 0 23 -169 18
-207 -6z"/>
<path d="M8920 340 c0 -11 -27 -20 -59 -20 -44 0 -57 -8 -49 -29 6 -15 28 -25
48 -21 26 5 34 -2 27 -21 -6 -16 -1 -29 11 -29 12 0 22 15 22 32 0 28 5 29 34
5 18 -15 27 -17 20 -4 -8 13 -3 27 11 32 20 7 19 16 -2 42 -31 37 -63 44 -63
13z"/>
<path d="M3033 299 c-18 -27 -34 -34 -42 -20 -8 12 -22 16 -32 10 -35 -21 -19
-44 31 -44 30 0 50 11 50 28 0 16 20 36 45 46 33 14 36 19 11 20 -18 0 -47
-18 -63 -40z"/>
<path d="M8049 322 c6 -10 -23 -16 -64 -13 -41 3 -55 2 -30 -3 25 -5 45 -18
45 -29 0 -10 -9 -14 -20 -7 -11 7 -20 -2 -20 -19 0 -33 -50 -43 -68 -14 -6 10
-47 11 -91 3 -44 -8 -76 -7 -70 1 5 9 1 22 -11 29 -11 7 -20 -7 -20 -31 0 -27
-10 -40 -26 -33 -15 5 -27 -6 -29 -28 -3 -47 69 -41 106 10 24 33 27 33 48 -6
22 -40 22 -40 113 8 50 27 102 47 115 44 13 -2 20 8 17 23 -4 18 6 24 27 15
18 -6 50 -12 71 -12 68 0 40 -53 -46 -87 -100 -39 -94 -57 12 -33 42 9 94 14
115 9 21 -4 33 1 27 11 -6 9 -2 22 8 29 10 6 23 -4 30 -22 13 -32 42 -22 42
14 0 9 18 31 40 47 43 33 8 34 -70 3 -17 -6 -82 16 -146 49 -64 33 -111 52
-105 42z"/>
<path d="M8420 295 c0 -19 10 -35 21 -35 12 0 17 7 11 16 -18 30 225 22 250
-8 27 -33 70 -36 89 -6 28 45 -35 67 -201 67 -149 1 -170 -3 -170 -34z"/>
<path d="M1225 306 c20 -5 30 -17 24 -28 -6 -10 -2 -18 10 -18 11 0 21 9 21
20 0 12 22 15 53 7 37 -9 49 -6 39 10 -8 13 -52 22 -98 21 -46 -2 -68 -7 -49
-12z"/>
<path d="M2667 267 c-52 -22 -45 -24 73 -22 137 1 180 10 180 34 0 23 -190 14
-253 -12z"/>
<path d="M3120 278 c0 -13 -15 -17 -35 -9 -23 9 -28 7 -15 -6 21 -21 88 -31
164 -26 44 3 46 63 3 63 -11 0 -14 -9 -7 -20 7 -11 3 -20 -8 -20 -11 0 -25 9
-32 20 -17 27 -70 25 -70 -2z"/>
<path d="M99 241 c15 -10 30 -33 33 -51 3 -19 12 -40 20 -47 8 -7 9 2 3 20
-10 27 1 32 68 29 43 -3 83 2 88 9 4 7 51 9 103 4 78 -7 91 -4 71 17 -30 31
-205 30 -263 -1 -23 -12 -44 -14 -51 -3 -6 10 0 23 14 29 14 5 -6 10 -45 11
-49 1 -61 -4 -41 -17z"/>
<path d="M8611 231 c22 -17 62 -30 89 -30 46 1 44 3 -17 30 -87 37 -122 37
-72 0z"/>
<path d="M1420 219 c0 -11 -21 -14 -48 -8 -26 7 -53 4 -59 -6 -6 -9 50 -17
124 -16 102 0 130 6 114 24 -11 13 -24 15 -27 6 -4 -9 -29 -9 -55 2 -32 11
-49 11 -49 -2z"/>
<path d="M2105 194 c-36 -11 -65 -27 -65 -36 0 -9 16 -11 35 -3 19 7 64 12
100 11 38 0 64 8 60 20 -10 28 -53 31 -130 8z"/>
<path d="M6650 179 c-44 -21 -91 -38 -105 -38 -14 -1 -25 -10 -25 -20 0 -11
14 -15 30 -8 17 6 30 2 30 -9 0 -12 -16 -25 -35 -30 -25 -7 -21 -10 13 -12 26
-1 58 11 70 26 17 21 48 24 132 13 82 -11 121 -8 154 13 38 25 81 34 225 44
32 2 -33 60 -69 61 -11 0 -6 -8 10 -19 22 -14 8 -19 -54 -20 -46 0 -89 -9 -96
-20 -20 -32 -46 -23 -43 14 2 19 -14 38 -34 42 -27 6 -33 0 -22 -19 14 -22 11
-22 -15 -1 -26 21 -34 19 -46 -10 -13 -33 -15 -33 -27 -2 -12 31 -19 30 -93
-5z"/>
<path d="M8405 189 c-28 -21 -20 -26 52 -39 47 -8 90 -26 96 -41 9 -22 25 -22
92 5 70 28 84 29 103 4 24 -32 139 -22 141 12 1 22 23 22 78 0 28 -12 35 -7
30 22 -10 54 -34 66 -100 47 -33 -9 -57 -9 -57 2 0 11 -9 19 -19 19 -11 0 -15
-13 -8 -30 9 -24 -1 -28 -46 -19 -176 33 -331 41 -362 18z"/>
<path d="M1954 186 c-46 -12 -32 -58 16 -49 25 4 32 -3 23 -25 -7 -21 -1 -32
18 -32 22 0 26 9 12 35 -9 19 -14 46 -9 60 10 26 2 27 -60 11z"/>
<path d="M2305 158 c-5 -20 -24 -40 -42 -45 -18 -5 -9 -8 20 -7 34 2 49 11 43
28 -6 15 4 26 22 26 18 0 32 8 32 17 0 32 -66 16 -75 -19z"/>
<path d="M1830 160 c7 -11 -4 -20 -25 -20 -68 0 -116 -49 -51 -53 55 -3 155
57 132 80 -21 21 -69 15 -56 -7z"/>
<path d="M7525 159 c-25 -10 -45 -23 -45 -30 0 -6 8 -6 19 0 10 6 24 2 31 -10
9 -13 -17 -20 -73 -19 -160 4 -287 -10 -284 -30 2 -11 -31 -21 -74 -22 -49 -1
-73 7 -67 20 6 12 -2 6 -17 -13 -16 -19 -35 -29 -42 -21 -7 7 -13 2 -13 -12 0
-42 349 -18 480 33 61 24 108 53 105 64 -3 12 14 21 36 21 23 0 36 9 29 20
-15 24 -25 23 -85 -1z"/>
<path d="M1643 122 c-15 -9 -44 -13 -65 -7 -21 5 -38 1 -38 -9 0 -10 25 -17
55 -16 30 0 62 -8 70 -19 8 -12 15 -1 15 24 0 51 0 51 -37 27z"/>
<path d="M3809 111 c-21 -16 -57 -30 -79 -31 -41 -1 -110 -44 -110 -67 0 -34
140 -12 142 22 0 19 6 24 11 11 7 -17 24 -18 59 -5 31 11 46 12 39 0 -6 -10
-2 -24 10 -32 14 -9 19 9 14 53 -9 77 -32 90 -86 49z"/>
<path d="M6380 120 c0 -11 16 -21 35 -22 22 -1 26 -5 9 -12 -20 -7 -20 -16 -2
-38 30 -36 -22 -40 -58 -4 -19 19 -24 19 -24 0 0 -15 -30 -23 -80 -21 -44 2
-87 -3 -94 -11 -8 -8 53 -11 135 -8 154 6 187 34 132 111 -21 30 -53 33 -53 5z"/>
<path d="M822 105 c7 -41 -6 -61 -46 -72 -24 -6 -39 -17 -32 -24 7 -6 39 2 72
19 32 17 65 25 71 18 7 -7 13 -1 13 13 0 14 -13 20 -29 14 -19 -7 -25 -1 -18
18 6 16 1 29 -11 29 -12 0 -21 -7 -20 -15z"/>
<path d="M914 86 c6 -15 24 -23 40 -17 16 6 47 11 68 11 74 0 37 31 -40 33
-61 1 -76 -5 -68 -27z"/>
<path d="M4695 107 c14 -6 25 -20 25 -31 0 -11 -15 -15 -33 -8 -18 7 -42 -1
-55 -19 -22 -30 -102 -21 -83 9 5 8 -20 16 -55 18 -66 3 -152 -44 -126 -70 8
-8 22 -3 31 12 11 18 20 19 29 5 19 -30 233 -22 281 10 55 37 58 87 4 85 -24
0 -32 -6 -18 -11z"/>
<path d="M6115 97 c-25 -16 28 -28 75 -17 11 3 49 4 85 3 36 -1 65 6 65 16 0
22 -190 20 -225 -2z"/>
<path d="M8470 91 c5 -12 15 -36 22 -55 10 -29 35 -34 139 -31 118 3 125 6 97
38 -31 33 -66 30 -176 -14 -32 -13 -37 -8 -29 33 8 38 1 49 -27 49 -20 0 -32
-9 -26 -20z"/>
<path d="M5733 86 c-16 -15 -28 -19 -143 -41 -101 -20 -71 -39 60 -39 55 1 84
4 65 9 -19 4 -35 15 -35 25 0 20 39 16 77 -8 46 -29 371 -42 354 -14 -10 16
-43 20 -106 10 -61 -9 -87 -7 -78 8 9 13 -16 18 -71 14 -95 -8 -134 6 -93 32
15 10 17 18 5 18 -12 0 -28 -6 -35 -14z"/>
<path d="M500 59 c0 -10 14 -13 30 -6 20 7 30 -1 30 -26 0 -22 7 -28 15 -15 8
12 32 31 53 42 32 18 24 21 -45 22 -46 1 -83 -7 -83 -17z"/>
<path d="M5262 65 c-1 -14 -28 -25 -63 -25 -36 0 -56 -8 -49 -20 17 -27 350
-26 350 1 0 29 -66 50 -75 24 -5 -16 -23 -17 -58 -4 -28 11 -58 15 -67 9 -9
-6 -21 1 -27 15 -8 20 -10 20 -11 0z"/>
<path d="M7920 55 c0 -10 -7 -13 -16 -7 -9 5 -65 -2 -125 -17 -104 -25 -95
-26 205 -25 173 0 310 8 304 17 -6 10 18 17 52 17 40 0 57 -8 49 -22 -9 -13 3
-19 32 -15 62 9 75 57 16 57 -26 1 -153 3 -282 6 -129 3 -235 -2 -235 -11z"/>
<path d="M8815 68 c14 -6 25 -24 25 -40 0 -15 18 -28 40 -28 69 0 25 66 -50
74 -22 3 -29 0 -15 -6z"/>
</g>
</svg>
