<?xml version="1.0" standalone="no"?>
<!DOCTYPE svg PUBLIC "-//W3C//DTD SVG 20010904//EN"
 "http://www.w3.org/TR/2001/REC-SVG-20010904/DTD/svg10.dtd">
<svg version="1.0" xmlns="http://www.w3.org/2000/svg"
 width="300.000000pt" height="300.000000pt" viewBox="0 0 300.000000 300.000000"
 preserveAspectRatio="xMidYMid meet">
<metadata>
Created by potrace 1.10, written by Peter Selinger 2001-2011
</metadata>
<g transform="translate(0.000000,300.000000) scale(0.100000,-0.100000)"
fill="#000000" stroke="none">
<path d="M84 2989 c-2 -4 5 -9 16 -12 11 -3 20 -11 20 -19 0 -9 13 -13 40 -13
25 0 40 4 40 12 0 14 -39 14 -59 -1 -12 -9 -13 -7 -8 7 4 10 2 17 -6 17 -8 0
-7 3 2 9 10 7 6 9 -13 8 -16 -1 -30 -5 -32 -8z"/>
<path d="M499 2986 c13 -15 5 -46 -13 -46 -6 0 -3 -5 7 -11 21 -12 23 -31 2
-23 -13 5 -13 3 0 -22 19 -36 19 -50 1 -35 -11 9 -12 6 -8 -14 2 -14 8 -25 13
-25 15 0 10 -19 -11 -40 -17 -17 -19 -24 -8 -43 12 -22 18 -247 18 -662 -1
-172 -4 -189 -40 -197 -25 -5 -63 -45 -55 -58 5 -8 11 -5 22 9 10 15 25 21 54
21 24 0 39 5 39 13 1 6 3 267 5 580 l5 567 -21 0 c-17 0 -19 -3 -10 -14z"/>
<path d="M1088 2517 c-2 -267 -5 -488 -9 -491 -3 -3 -19 -6 -37 -8 -18 -1 -32
-6 -32 -10 0 -4 -3 -7 -7 -6 -13 4 -53 -26 -53 -39 0 -7 -9 -18 -20 -25 -11
-7 -20 -19 -20 -26 0 -7 -4 -11 -9 -8 -15 10 -52 -39 -45 -59 5 -12 4 -16 -3
-12 -6 4 -36 -20 -66 -52 -30 -33 -58 -57 -61 -54 -3 3 -1 12 4 18 8 10 -4 14
-47 17 -32 3 -60 4 -63 1 -9 -9 26 -23 58 -23 26 0 35 -5 39 -20 7 -26 36 -22
41 4 5 25 44 57 56 46 10 -10 -2 -33 -13 -25 -5 2 -13 -7 -19 -20 -11 -23 -10
-24 23 -23 28 1 35 5 35 22 0 17 -2 18 -10 6 -7 -11 -9 -6 -7 20 2 41 24 71
45 62 11 -4 13 -2 7 8 -5 9 -4 11 4 6 15 -9 -4 -37 -22 -33 -8 1 -11 -10 -9
-28 1 -16 2 -38 3 -47 1 -26 14 -22 27 7 17 36 14 55 -3 25 -8 -14 -14 -20
-15 -13 0 6 -3 19 -6 28 -4 9 -3 15 2 14 21 -3 32 2 38 19 3 9 9 23 12 31 4 8
3 11 -2 8 -5 -3 -9 10 -10 29 0 19 2 30 6 24 4 -6 23 6 47 30 27 26 36 40 26
40 -29 0 -7 10 78 35 71 21 106 25 229 25 91 1 137 5 125 10 -19 8 -19 9 -1 9
11 1 16 4 13 8 -4 3 -38 5 -76 4 -38 -1 -80 1 -94 4 l-25 7 -1 466 c-1 256 -4
468 -6 471 -3 2 -5 -207 -5 -465 0 -258 -4 -473 -8 -479 -4 -5 -25 -10 -47
-10 -22 0 -43 5 -47 10 -4 6 -8 219 -8 474 0 256 -2 467 -5 469 -2 3 -6 -214
-7 -481z"/>
<path d="M1925 2655 c0 -192 1 -270 2 -172 2 98 2 256 0 350 -1 95 -3 15 -2
-178z"/>
<path d="M2480 2953 c-5 -730 -6 -1081 -2 -1094 2 -10 14 -15 37 -15 l34 1
-25 20 -25 20 2 200 c0 110 1 209 1 220 0 11 -1 103 -1 204 -1 136 2 187 11
199 10 12 10 14 1 8 -10 -5 -13 3 -14 31 -1 21 0 43 1 48 8 38 8 45 -1 50 -5
4 -9 13 -9 21 0 10 5 12 13 8 9 -6 8 -3 -1 8 -10 13 -11 22 -2 38 8 16 9 25 1
33 -7 7 -7 16 0 29 7 14 6 18 -6 18 -11 0 -15 -12 -15 -47z"/>
<path d="M2748 2988 c12 -12 71 -14 71 -3 1 6 -17 10 -39 10 -21 0 -36 -3 -32
-7z"/>
<path d="M2845 2991 c9 -15 63 -23 82 -12 17 10 17 10 -2 11 -11 1 -35 3 -53
6 -19 2 -31 0 -27 -5z"/>
<path d="M2760 2955 c-7 -8 -24 -15 -38 -15 -14 0 -22 -3 -19 -7 4 -3 -1 -16
-10 -27 -16 -18 -15 -18 11 2 35 27 43 27 50 4 4 -12 18 -19 42 -20 22 -2 33
1 29 7 -3 6 -12 8 -20 4 -8 -3 -15 0 -15 6 0 6 7 11 15 11 9 0 12 6 9 15 -8
19 -24 20 -24 1 0 -19 -27 -28 -34 -11 -3 8 2 19 12 24 9 5 14 12 11 15 -3 4
-12 0 -19 -9z"/>
<path d="M2872 2943 c6 -8 17 -12 25 -9 8 3 16 -1 19 -9 4 -8 12 -15 20 -15
23 0 -20 36 -50 42 -22 4 -24 3 -14 -9z"/>
<path d="M2943 2953 c9 -2 17 -9 17 -14 0 -5 7 -9 16 -9 8 0 12 -4 9 -10 -3
-5 -1 -10 4 -10 6 0 11 7 11 15 0 17 -31 35 -57 34 -17 -1 -17 -2 0 -6z"/>
<path d="M28 2934 c-16 -8 -28 -20 -28 -26 0 -8 7 -6 17 4 15 16 17 16 32 0 9
-9 23 -18 31 -18 8 -1 30 -5 48 -8 22 -4 40 -1 57 10 15 10 25 12 25 5 0 -6 7
-11 15 -11 9 0 12 6 8 15 -3 9 -8 13 -11 10 -3 -3 -16 2 -29 11 -18 11 -28 12
-37 5 -7 -6 -16 -8 -19 -4 -4 3 -7 1 -7 -5 0 -16 27 -15 32 0 2 6 10 8 16 4
22 -13 2 -26 -39 -26 -24 0 -38 4 -34 10 3 6 1 10 -5 10 -6 0 -8 6 -4 13 4 6
-2 4 -13 -6 -15 -13 -23 -15 -28 -7 -4 7 -1 16 6 21 23 15 -4 9 -33 -7z"/>
<path d="M260 2899 c0 -13 29 -18 34 -6 3 9 5 9 5 0 1 -18 28 -16 28 2 0 11
-10 14 -34 12 -18 -1 -33 -5 -33 -8z"/>
<path d="M2650 2881 c0 -6 -6 -11 -14 -11 -7 0 -19 -7 -26 -15 -9 -11 -10 -15
-1 -15 8 0 10 -8 6 -22 -5 -19 -4 -20 5 -6 6 9 18 15 28 13 11 -2 19 3 19 11
0 8 -4 14 -9 14 -4 0 -8 -4 -8 -10 0 -5 -7 -7 -15 -4 -22 9 -18 19 13 30 18 7
23 12 15 17 -8 5 -13 4 -13 -2z"/>
<path d="M195 2870 c-17 -8 -17 -9 8 -9 15 -1 27 -5 27 -11 0 -5 9 -10 20 -10
11 0 20 -4 20 -10 0 -5 12 -10 26 -10 14 0 23 4 19 10 -3 5 -12 7 -20 3 -8 -3
-15 0 -15 6 0 6 5 11 11 11 5 0 7 4 4 10 -4 6 -13 5 -25 -2 -15 -10 -22 -9
-37 4 -12 10 -25 13 -38 8z"/>
<path d="M2760 2855 c7 -8 17 -12 23 -8 6 3 7 1 3 -5 -9 -15 -36 -16 -36 -2 0
6 -8 2 -18 -7 -13 -13 -16 -22 -9 -31 10 -13 18 -11 19 5 0 4 19 13 41 18 30
7 43 16 45 30 3 15 1 17 -8 8 -8 -7 -22 -8 -42 -2 -25 7 -28 6 -18 -6z"/>
<path d="M1922 2061 c-2 -50 -3 -53 -24 -47 -13 4 -88 9 -168 11 l-145 4 139
-10 c76 -5 164 -15 195 -23 31 -8 58 -13 60 -11 2 2 -8 7 -22 10 -24 6 -26 12
-30 63 l-3 57 -2 -54z"/>
<path d="M1455 2045 c-28 -13 -29 -13 -6 -14 13 -1 29 -8 36 -18 12 -16 40 -9
30 8 -4 5 11 9 32 10 l38 1 -35 13 c-45 17 -58 17 -95 0z"/>
<path d="M1628 2043 c23 -2 59 -2 80 0 20 2 1 4 -43 4 -44 0 -61 -2 -37 -4z"/>
<path d="M25 1982 c17 -19 48 -48 70 -64 l40 -31 -35 33 c-19 18 -51 47 -70
64 l-35 31 30 -33z"/>
<path d="M1238 1983 c45 -2 119 -2 165 0 45 1 8 3 -83 3 -91 0 -128 -2 -82 -3z"/>
<path d="M1598 1983 c45 -2 119 -2 165 0 45 1 8 3 -83 3 -91 0 -128 -2 -82 -3z"/>
<path d="M1847 1930 c-40 -40 -47 -53 -38 -64 9 -11 7 -18 -12 -32 -22 -18
-36 -41 -33 -56 0 -3 -10 -18 -23 -32 -14 -14 -21 -26 -16 -26 5 0 4 -5 -2
-11 -6 -6 -9 -17 -7 -23 3 -9 -22 -13 -93 -15 -54 -1 -95 0 -92 3 3 4 35 7 70
7 l64 1 32 57 c18 31 42 72 55 91 15 23 17 31 6 22 -9 -7 -35 -44 -58 -83 -40
-66 -44 -69 -80 -69 -71 0 -71 -1 -64 121 3 64 2 109 -4 109 -5 0 -14 10 -20
23 -8 17 -11 -9 -11 -116 -1 -79 -5 -136 -10 -133 -12 8 -17 -54 -11 -139 6
-81 18 -67 27 33 l6 63 211 -2 c302 -2 348 11 373 111 3 14 10 27 14 30 5 3
-1 19 -11 35 -16 24 -20 26 -20 11 0 -37 -91 -166 -118 -166 -14 0 -14 1 0 13
21 17 76 100 94 143 14 32 13 39 -1 62 -15 25 -14 25 11 -3 15 -16 31 -30 36
-30 5 0 13 -7 18 -15 5 -8 10 -10 10 -4 0 17 -28 46 -88 93 -50 38 -100 61
-56 25 18 -15 18 -15 -8 -10 -23 5 -35 -4 -97 -71 -39 -42 -71 -81 -71 -86 0
-6 17 10 39 34 85 97 111 123 105 107 -4 -12 1 -18 18 -21 l23 -4 -23 -8 c-18
-6 -20 -10 -11 -21 9 -11 8 -15 -5 -20 -9 -3 -14 -9 -11 -14 2 -4 -9 -20 -25
-36 -16 -16 -30 -33 -30 -37 0 -4 -6 -15 -12 -23 -34 -41 -49 -54 -64 -54 -26
0 -7 38 55 112 43 50 61 65 76 62 14 -4 16 -3 7 4 -7 5 -10 17 -6 28 6 20 -75
-63 -134 -136 -51 -63 -56 -68 -43 -40 11 22 9 22 -13 -5 -14 -16 -26 -33 -26
-37 0 -5 -4 -8 -10 -8 -5 0 -10 4 -10 9 0 14 128 182 177 232 36 38 42 47 28
53 -29 11 -37 7 -88 -44z m200 8 c5 -7 9 -17 8 -23 -2 -17 -32 -68 -74 -124
-22 -30 -38 -58 -35 -63 3 -5 1 -7 -4 -6 -5 2 -21 -9 -35 -24 -22 -24 -34 -28
-81 -28 -73 0 -79 14 -8 18 31 2 60 6 64 8 10 7 113 145 138 186 18 31 17 64
-3 51 -6 -3 -7 -1 -3 5 9 15 21 15 33 0z"/>
<path d="M1465 1950 c-5 -8 -13 -63 -16 -122 -3 -59 -8 -111 -12 -115 -6 -6
-328 -5 -457 1 -51 2 -95 -8 -70 -17 81 -28 161 -37 352 -39 l207 -3 6 50 c10
79 2 263 -10 245z m-40 -273 c22 -2 -56 -4 -173 -5 -117 -1 -211 1 -209 6 5 6
288 6 382 -1z"/>
<path d="M557 1914 c-16 -9 -27 -18 -24 -21 3 -2 14 0 25 6 12 6 32 11 46 11
14 0 28 5 31 10 10 16 -46 11 -78 -6z"/>
<path d="M141 1896 c-1 -10 10 -31 24 -48 24 -29 25 -34 25 -181 0 -84 5 -159
10 -167 5 -8 10 -11 10 -6 0 17 30 -17 30 -34 0 -24 -17 -29 -60 -19 -26 6
-39 4 -50 -6 -12 -13 -4 -15 70 -16 47 -1 77 -3 68 -6 -10 -2 -18 -11 -18 -19
0 -11 -22 -14 -112 -15 -62 -1 -119 -1 -125 0 -7 1 -13 -2 -13 -6 0 -4 63 -8
140 -8 108 -1 140 2 140 12 0 25 19 13 22 -14 2 -23 8 -29 36 -31 18 -2 30 -7
28 -11 -3 -4 2 -8 10 -8 9 0 -6 20 -35 47 l-51 47 0 114 c0 63 3 124 6 137 5
15 26 33 65 53 33 16 59 28 60 27 1 -2 3 -29 5 -60 3 -57 17 -96 38 -110 23
-16 23 -6 0 57 -13 36 -24 79 -24 95 0 28 3 30 38 30 31 0 41 5 52 24 17 33 7
56 -26 56 -19 0 -25 -4 -20 -15 4 -10 -1 -15 -15 -15 -16 0 -20 -5 -16 -20 6
-24 -20 -28 -29 -5 -5 12 -12 10 -37 -9 -18 -13 -41 -27 -53 -30 -11 -3 -32
-18 -45 -32 -22 -23 -24 -34 -24 -120 0 -52 -3 -94 -7 -94 -5 0 -8 4 -8 10 0
5 -6 7 -13 4 -11 -4 -15 23 -20 133 -8 178 -14 207 -40 219 -12 5 -24 20 -28
34 -5 18 -7 20 -8 6z"/>
<path d="M650 1901 c0 -5 9 -7 20 -4 11 3 43 -2 71 -11 28 -10 54 -15 57 -12
2 3 -1 7 -9 10 -8 2 -29 9 -48 15 -41 13 -91 14 -91 2z"/>
<path d="M2255 1900 c-11 -5 -29 -11 -39 -14 -10 -4 -17 -9 -14 -11 3 -3 25 2
49 10 24 9 56 14 72 11 15 -3 27 -1 27 4 0 12 -67 12 -95 0z"/>
<path d="M2162 1859 c6 -17 86 -15 102 2 8 9 5 10 -14 5 -34 -10 -42 -10 -69
-2 -17 6 -22 5 -19 -5z"/>
<path d="M710 1850 c-14 -3 6 -6 47 -6 39 1 74 4 78 7 8 8 -93 8 -125 -1z"/>
<path d="M2120 1857 c0 -4 7 -18 15 -30 16 -26 9 -70 -21 -115 l-16 -25 58 7
c33 4 76 9 97 12 l37 6 -25 20 c-30 23 -24 38 14 38 54 0 92 12 87 27 -5 11 2
12 30 7 34 -6 53 4 54 29 0 14 -78 7 -84 -8 -3 -9 -20 -15 -43 -16 -59 -2
-100 -13 -85 -23 10 -6 10 -11 1 -22 -9 -11 -8 -18 2 -31 10 -12 10 -14 1 -9
-15 9 -43 62 -36 69 3 2 -9 15 -25 27 -17 12 -31 18 -31 13 0 -4 -7 1 -15 11
-8 11 -15 17 -15 13z m73 -92 c14 -25 22 -47 17 -50 -5 -3 -14 11 -20 30 -6
19 -16 38 -22 42 -8 4 -9 0 -5 -11 4 -10 9 -30 12 -44 l5 -27 -11 25 c-13 30
-19 91 -8 85 4 -3 19 -25 32 -50z"/>
<path d="M566 1825 c-3 -9 1 -18 9 -21 23 -9 65 5 65 21 0 21 -66 20 -74 0z"/>
<path d="M2483 1823 c-7 -2 -13 -11 -13 -19 0 -8 -4 -14 -10 -14 -5 0 -7 -6
-5 -12 3 -8 -5 -14 -21 -15 -14 0 -30 -5 -35 -10 -5 -5 23 -7 64 -5 65 3 79 0
148 -31 56 -26 78 -41 82 -59 4 -12 7 -76 7 -140 0 -96 -3 -120 -17 -133 -18
-19 -152 -84 -174 -86 -8 -1 -3 -4 11 -8 26 -7 95 -1 73 6 -21 7 -15 22 6 16
10 -3 22 0 25 6 4 5 13 8 21 5 23 -9 55 15 55 41 0 14 5 25 11 25 6 0 9 -7 5
-15 -4 -12 0 -14 22 -9 33 8 41 14 19 14 -10 0 -17 7 -17 15 0 8 -8 15 -17 15
-13 0 -14 3 -6 8 9 6 10 17 4 39 -5 17 -7 34 -4 37 3 3 5 43 4 88 -2 86 -16
124 -49 135 -9 3 -37 15 -62 26 -24 12 -52 20 -62 20 -10 -1 -21 3 -24 9 -4 6
-3 8 3 5 5 -3 16 2 25 12 14 16 13 19 -3 29 -19 12 -45 14 -66 5z"/>
<path d="M632 1797 c-10 -12 -9 -16 10 -21 37 -10 116 -7 123 5 10 16 4 18
-61 25 -46 5 -62 3 -72 -9z"/>
<path d="M2869 1733 c-1 -43 -3 -103 -4 -133 -3 -62 6 -88 16 -50 11 40 10
260 -1 260 -6 0 -11 -33 -11 -77z"/>
<path d="M2406 1783 c-4 -5 -11 -8 -14 -9 -39 -4 -88 -19 -94 -28 -8 -13 9
-36 28 -36 23 0 16 18 -8 23 -16 3 -13 5 10 6 20 0 31 -3 27 -9 -3 -6 1 -7 9
-4 9 3 13 10 10 15 -3 5 -2 9 3 9 13 1 59 40 47 40 -6 0 -14 -3 -18 -7z"/>
<path d="M540 1761 c0 -5 14 -14 31 -20 44 -15 48 -14 19 9 -27 21 -50 26 -50
11z"/>
<path d="M616 1722 c-2 -4 40 -58 95 -119 101 -114 117 -124 203 -137 45 -6
38 10 -7 18 -16 3 -35 10 -42 16 -8 7 -23 9 -34 5 -16 -5 -20 -3 -15 9 5 13 2
15 -12 9 -17 -6 -17 -5 -5 10 12 15 11 17 -3 17 -9 0 -16 4 -16 8 0 8 -19 34
-49 67 -5 6 -32 28 -60 50 -42 33 -48 41 -34 47 16 6 16 7 1 7 -9 1 -19 -2
-22 -7z"/>
<path d="M2542 1644 c-13 -42 -21 -79 -18 -81 2 -3 13 4 24 15 22 22 36 90 24
122 -6 17 -12 6 -30 -56z"/>
<path d="M2290 1692 c0 -5 -12 -15 -27 -22 -16 -7 -23 -15 -16 -17 6 -2 23 3
37 13 26 17 34 34 16 34 -5 0 -10 -4 -10 -8z"/>
<path d="M484 1675 c3 -9 6 -19 6 -21 0 -2 7 -4 16 -4 22 0 13 34 -10 38 -14
3 -17 0 -12 -13z"/>
<path d="M2415 1673 c-21 -3 -56 -30 -120 -93 -87 -86 -93 -90 -177 -116 -49
-16 -88 -32 -88 -36 0 -4 21 -8 48 -7 33 0 41 3 27 8 -16 7 -11 10 25 16 25 4
50 12 57 17 8 6 18 3 32 -11 21 -21 88 -31 76 -11 -10 16 5 50 21 50 17 0 19
-46 2 -54 -7 -3 12 -3 42 0 33 3 60 12 68 22 6 9 12 11 12 5 0 -6 9 -9 20 -6
11 3 17 10 14 15 -10 15 5 58 21 58 10 0 12 -9 8 -36 l-6 -36 27 17 c28 18 46
45 46 66 0 15 -60 8 -190 -21 -52 -11 -108 -24 -125 -27 l-30 -6 39 32 c52 42
100 92 115 119 7 13 21 22 36 22 13 0 27 5 30 10 3 6 5 9 3 9 -2 -1 -16 -4
-33 -6z m1 -179 c-3 -9 -6 -22 -6 -30 0 -8 -7 -14 -15 -14 -15 0 -21 40 -8 53
13 14 35 7 29 -9z"/>
<path d="M807 1656 c-3 -7 18 -39 48 -71 30 -32 53 -62 52 -67 -1 -5 21 -17
49 -27 55 -20 144 -36 144 -26 0 3 -35 22 -77 42 -81 37 -167 98 -158 113 3 5
-8 18 -24 29 -23 16 -30 18 -34 7z"/>
<path d="M2169 1662 c-1 -4 -1 -10 0 -14 0 -3 -16 -21 -37 -39 -20 -18 -36
-37 -34 -41 1 -4 -1 -7 -5 -6 -9 3 -193 -90 -193 -97 0 -15 170 32 193 53 11
9 25 17 33 17 8 0 27 28 43 62 24 49 27 63 15 67 -8 3 -15 2 -15 -2z"/>
<path d="M1191 1621 c65 -26 111 -63 155 -127 20 -29 39 -54 41 -54 3 0 12 8
21 17 16 16 16 16 0 10 -12 -4 -18 -2 -18 8 0 8 -4 15 -10 15 -5 0 -10 7 -10
15 0 19 -75 90 -114 108 -17 8 -49 17 -71 21 l-40 6 46 -19z"/>
<path d="M1779 1629 c-39 -9 -109 -46 -109 -58 0 -3 -13 -21 -29 -38 -57 -63
-60 -92 -11 -148 22 -25 40 -43 40 -38 0 8 24 -30 36 -57 3 -8 10 -24 14 -35
15 -35 15 -59 -3 -92 -9 -18 -17 -39 -17 -48 0 -9 -11 -28 -25 -43 -30 -33
-31 -39 -4 -47 27 -9 21 -14 -32 -24 l-44 -9 48 -1 c31 -1 47 3 48 12 2 20 5
31 12 47 22 49 47 138 47 170 0 49 -43 131 -91 174 -21 20 -39 39 -39 42 0 10
86 128 104 143 8 7 41 24 73 37 58 24 50 30 -18 13z"/>
<path d="M2611 1631 c-8 -6 -1 -14 22 -25 42 -20 48 -20 41 -2 -7 18 -48 36
-63 27z"/>
<path d="M2592 1580 c-6 -11 -12 -32 -12 -47 0 -15 -8 -36 -19 -47 -29 -33
-78 -124 -58 -107 16 13 17 12 7 -13 -10 -27 -10 -27 28 -20 58 11 85 25 40
21 -42 -3 -49 5 -40 49 l6 29 8 -25 c6 -21 7 -20 3 7 -3 24 1 36 16 46 11 8
21 26 23 40 1 14 8 33 15 41 8 9 9 21 4 30 -7 13 -10 13 -21 -4z"/>
<path d="M1736 1559 c-26 -21 -99 -120 -92 -126 4 -5 45 11 44 17 0 10 37 73
60 101 28 34 24 37 -12 8z"/>
<path d="M1286 1550 c19 -37 75 -120 80 -120 8 0 -35 72 -63 105 -14 17 -22
23 -17 15z"/>
<path d="M435 1540 c-8 -14 11 -47 38 -64 12 -8 41 -17 64 -20 l42 -5 -6 29
c-4 23 -2 30 11 30 20 0 34 -49 16 -60 -8 -5 19 -11 63 -15 60 -6 82 -4 100 7
13 10 36 13 57 10 27 -3 32 -2 24 8 -10 10 -39 19 -114 35 -8 2 -63 15 -122
29 -114 28 -163 32 -173 16z m83 -44 c3 -20 0 -27 -10 -24 -7 3 -14 17 -16 32
-3 20 0 27 10 24 7 -3 14 -17 16 -32z m174 -12 c9 -9 -4 -45 -15 -41 -5 1 -14
13 -18 25 -7 18 -5 22 10 22 10 0 20 -3 23 -6z"/>
<path d="M2645 1483 c-19 -20 -35 -43 -35 -52 0 -13 4 -12 18 5 9 12 25 24 35
27 10 4 15 12 12 17 -4 6 -1 17 5 25 24 29 0 14 -35 -22z"/>
<path d="M1080 1505 c0 -2 22 -16 49 -30 30 -17 69 -52 101 -92 48 -60 51 -66
41 -95 -20 -57 -8 -138 36 -238 8 -20 10 -27 12 -45 1 -11 12 -15 44 -14 l42
1 -33 8 c-41 9 -62 27 -41 34 41 13 43 14 22 15 -16 1 -23 7 -23 20 0 11 -4
21 -9 23 -6 2 -12 14 -15 28 -3 14 -11 43 -17 66 -11 36 -10 45 11 87 13 26
43 68 67 93 24 25 41 49 38 54 -10 15 -59 -15 -92 -56 l-30 -37 -46 61 c-26
33 -60 70 -76 81 -29 21 -81 44 -81 36z"/>
<path d="M460 1412 c0 -12 5 -24 10 -27 6 -4 8 -10 5 -15 -7 -12 40 -43 59
-38 10 2 1 18 -30 51 -35 39 -44 45 -44 29z"/>
<path d="M995 1365 c-16 -8 -45 -14 -62 -15 -18 0 -33 -3 -33 -8 0 -4 -19 -6
-42 -4 -24 2 -74 -1 -113 -6 -69 -9 -69 -9 53 -11 68 0 121 2 119 7 -3 4 13 7
35 8 23 0 43 6 49 15 8 12 10 12 19 -1 7 -11 12 -12 21 -3 11 11 5 34 -9 32
-4 0 -20 -7 -37 -14z"/>
<path d="M1070 1354 c0 -11 6 -15 19 -11 11 2 39 1 63 -3 29 -6 45 -5 50 3 6
9 8 9 8 0 0 -7 -7 -16 -16 -21 -11 -6 -13 -11 -5 -16 16 -10 31 2 31 25 0 25
-36 39 -101 39 -38 0 -49 -3 -49 -16z"/>
<path d="M228 1343 c6 -2 12 -9 12 -14 0 -6 -50 -8 -120 -7 -66 2 -120 0 -120
-4 0 -5 56 -8 124 -8 68 0 131 -3 140 -6 12 -5 16 0 16 20 0 23 -4 26 -32 25
-18 0 -27 -3 -20 -6z"/>
<path d="M2720 1334 c0 -9 -9 -31 -19 -48 -20 -33 -36 -89 -46 -167 -6 -44 -8
-47 -41 -54 -20 -3 -34 -9 -31 -11 3 -3 24 0 47 6 32 8 45 8 56 -1 8 -6 13
-13 11 -15 -2 -2 -50 -9 -108 -14 -57 -6 -127 -18 -155 -27 -46 -14 -58 -14
-119 -1 -64 15 -70 15 -109 -3 -39 -18 -75 -18 -701 -16 -606 2 -663 3 -692
19 -17 10 -38 16 -45 13 -7 -2 -32 -9 -56 -15 -23 -6 -40 -15 -37 -20 4 -6 -6
-10 -22 -9 -24 0 -25 2 -8 8 30 12 -66 36 -207 51 -113 13 -140 22 -100 34 17
6 18 13 10 74 -5 37 -19 87 -31 112 l-21 45 -4 -30 c-8 -58 4 -250 18 -277 13
-27 16 -28 94 -28 45 0 122 -7 171 -15 178 -30 1691 -30 2195 -1 36 3 97 5
135 7 76 2 95 6 95 20 0 8 -243 6 -287 -2 -20 -3 -21 3 -7 36 8 20 14 67 14
114 0 66 -3 82 -17 90 -10 6 -12 11 -5 11 6 0 11 3 11 8 -7 44 -1 48 78 51
102 3 108 11 10 11 -45 0 -77 4 -77 10 0 6 12 11 28 11 16 1 20 3 10 6 -40 10
-14 22 55 26 l72 3 -82 2 c-71 2 -83 0 -83 -14z m-30 -321 c0 -5 -4 -15 -10
-23 -9 -15 -27 -18 -125 -19 -43 -1 -56 -4 -45 -11 8 -5 10 -10 5 -10 -6 0
-17 6 -24 13 -11 10 -13 10 -7 0 8 -15 -10 -18 -19 -3 -3 6 -15 10 -26 10 -31
0 -22 17 14 25 17 4 75 11 127 15 52 4 98 7 103 8 4 1 7 -1 7 -5z m-1879 -30
c12 -15 12 -16 -3 -10 -10 3 -19 3 -22 -1 -6 -10 -86 -2 -86 8 0 23 93 25 111
3z m1557 0 c59 -8 52 -17 -15 -22 -104 -8 -146 -6 -151 7 -6 18 38 32 83 26
22 -3 59 -8 83 -11z"/>
<path d="M430 1310 c11 -7 -4 -10 -49 -10 -66 0 -77 -7 -25 -15 16 -3 42 -8
57 -11 15 -4 48 -1 74 6 l46 13 -49 13 c-59 16 -74 17 -54 4z"/>
<path d="M564 1291 c-54 -33 -98 -116 -118 -219 l-6 -34 73 5 c39 3 84 8 99
12 15 4 35 4 45 1 15 -6 15 -8 3 -16 -8 -6 -28 -10 -45 -10 -27 -1 -28 -2 -11
-12 21 -12 134 -4 149 11 14 14 -84 66 -120 63 -40 -3 -44 15 -5 21 15 2 -1 5
-35 6 -53 1 -66 -3 -92 -25 -34 -28 -43 -16 -11 16 16 16 33 20 89 20 65 0 81
7 81 36 0 9 -79 3 -82 -6 -3 -11 -57 -21 -70 -13 -8 4 6 32 35 73 33 44 104
80 91 46 -4 -11 5 -17 33 -21 58 -10 66 -14 59 -30 -4 -12 0 -12 21 2 23 15
54 18 218 19 110 1 173 -1 150 -6 -33 -6 -26 -7 43 -9 45 0 82 3 82 7 0 9 -87
21 -418 62 -201 25 -219 25 -258 1z m21 -211 c0 -10 -13 -16 -42 -18 -33 -2
-43 0 -43 12 0 18 17 25 55 23 19 -1 30 -7 30 -17z"/>
<path d="M2260 1299 c-92 -16 -441 -59 -472 -59 -17 0 -27 -4 -23 -10 3 -5 41
-9 83 -9 61 1 70 3 42 9 -20 5 43 8 154 8 122 0 198 -4 214 -11 20 -9 26 -9
30 1 2 6 15 12 28 12 17 0 24 -6 24 -20 0 -22 -15 -27 -23 -7 -4 7 -6 6 -6 -4
-1 -9 12 -22 29 -29 16 -7 32 -21 36 -32 5 -18 13 -20 74 -16 38 2 67 1 64 -3
-2 -4 3 -12 11 -19 8 -7 15 -20 15 -29 0 -14 -2 -14 -10 -1 -8 12 -10 11 -10
-7 0 -20 -5 -23 -37 -23 -21 0 -33 -4 -26 -8 6 -4 33 -5 61 -4 l49 4 -14 60
c-17 75 -43 126 -82 165 -43 43 -94 51 -211 32z m187 -46 c16 -16 38 -43 49
-61 16 -29 17 -34 4 -42 -23 -14 -74 -9 -96 10 -10 9 -31 39 -45 68 l-27 52
42 0 c32 0 50 -7 73 -27z"/>
<path d="M0 1267 c0 -23 3 -23 80 -23 44 1 80 4 80 9 0 4 -7 7 -15 7 -30 0
-14 17 16 18 50 1 47 12 -4 12 -37 0 -45 -3 -41 -15 4 -8 1 -15 -5 -15 -6 0
-11 5 -11 11 0 8 -4 8 -13 1 -14 -12 -77 -13 -77 -1 0 4 17 10 38 12 l37 4
-42 1 c-39 2 -43 0 -43 -21z"/>
<path d="M214 1281 c3 -4 17 -7 30 -6 18 2 23 -1 19 -12 -3 -9 -12 -11 -22 -7
-27 12 -64 10 -68 -3 -3 -10 11 -13 51 -13 53 0 56 1 56 25 0 22 -4 25 -36 25
-19 0 -33 -4 -30 -9z"/>
<path d="M1021 1286 c3 -3 57 -9 120 -12 63 -4 112 -4 109 -2 -3 3 -57 9 -120
13 -63 4 -112 4 -109 1z"/>
<path d="M2908 1283 c17 -2 47 -2 65 0 17 2 3 4 -33 4 -36 0 -50 -2 -32 -4z"/>
<path d="M2878 1253 c17 -2 47 -2 65 0 17 2 3 4 -33 4 -36 0 -50 -2 -32 -4z"/>
<path d="M642 1235 c4 -4 3 -18 -2 -31 -9 -22 -7 -24 18 -24 15 0 34 5 42 10
11 8 8 9 -13 4 -24 -5 -27 -4 -25 16 2 13 -3 25 -12 28 -8 3 -12 1 -8 -3z"/>
<path d="M50 1217 c0 -5 -7 -7 -15 -3 -8 3 -15 0 -15 -7 0 -8 -4 -6 -10 3 -8
12 -10 11 -10 -7 0 -23 1 -23 140 -23 l140 0 0 26 c0 14 -4 23 -8 20 -17 -10
-102 -15 -102 -6 0 6 -5 10 -11 10 -5 0 -8 -4 -4 -9 3 -5 1 -12 -5 -16 -5 -3
-10 2 -11 12 0 16 -1 16 -8 -1 -6 -17 -8 -17 -14 -3 -6 17 -67 21 -67 4z"/>
<path d="M2730 1205 l0 -25 135 0 135 0 0 25 c0 21 -5 25 -31 25 -17 0 -28 -4
-24 -10 3 -6 -4 -10 -17 -10 -18 0 -20 2 -8 10 10 7 -18 10 -87 10 l-103 0 0
-25z"/>
<path d="M762 1205 c-53 -23 -92 -55 -92 -75 0 -16 58 -62 83 -66 4 -1 12 -2
18 -3 5 0 7 -5 4 -11 -6 -10 7 -14 33 -11 7 1 11 -3 10 -10 -2 -6 4 -14 12
-16 13 -4 13 -3 0 6 -11 8 -11 11 -2 11 7 0 15 -7 18 -15 7 -16 70 -19 114 -5
20 6 15 8 -27 10 -29 1 -56 3 -60 4 -12 3 -77 38 -83 45 -3 3 -21 15 -41 25
-45 23 -42 44 9 80 39 26 146 44 158 25 3 -5 10 -7 15 -4 5 4 37 10 72 14 53
7 43 9 -73 9 -97 1 -144 -3 -168 -13z"/>
<path d="M2090 1211 c133 -7 164 -16 209 -65 23 -24 23 -27 8 -43 -20 -22
-129 -78 -177 -91 l-35 -10 37 -1 c38 -1 108 26 108 41 0 5 4 7 10 3 5 -3 18
3 29 14 11 11 21 18 23 16 2 -2 17 6 32 19 41 32 29 58 -46 95 -60 30 -64 31
-192 29 l-131 -2 125 -5z"/>
<path d="M977 1194 c-3 -4 0 -19 8 -35 13 -24 32 -33 122 -63 60 -19 125 -38
147 -41 37 -7 38 -7 26 14 -9 18 -19 22 -53 20 -62 -3 -79 0 -72 11 3 6 3 10
-2 11 -92 6 -162 37 -163 70 0 4 23 7 52 8 72 1 74 11 1 11 -33 0 -62 -3 -66
-6z"/>
<path d="M1228 1184 c10 -18 5 -51 -11 -71 -7 -10 -2 -13 22 -13 17 0 31 1 31
3 0 17 -34 97 -41 97 -6 0 -7 -6 -1 -16z"/>
<path d="M1762 1160 c-7 -25 -17 -58 -22 -74 -13 -37 -13 -36 6 -36 30 0 273
82 285 96 17 20 3 30 -15 11 -14 -13 -161 -66 -223 -80 -24 -5 -38 14 -22 30
6 6 9 30 7 54 l-3 44 -13 -45z"/>
<path d="M2030 1126 c-19 -18 -240 -86 -281 -86 -16 0 -29 -4 -29 -9 0 -5 -3
-16 -6 -25 -5 -14 13 -16 167 -15 103 1 164 4 149 9 -14 4 -79 8 -145 9 -74 1
-115 5 -110 10 6 6 59 24 119 41 129 38 156 49 156 67 0 16 -2 16 -20 -1z"/>
<path d="M990 1112 c0 -10 29 -24 41 -19 3 1 12 -3 20 -9 8 -7 50 -22 94 -34
44 -12 85 -25 92 -29 6 -3 -42 -7 -107 -9 -193 -4 -191 -21 3 -21 131 -1 167
2 167 12 0 18 -21 37 -41 37 -17 0 -215 59 -251 75 -11 4 -18 3 -18 -3z"/>
<path d="M2399 1111 c12 -8 81 -4 90 5 2 2 -20 4 -50 4 -34 0 -49 -3 -40 -9z"/>
<path d="M2364 1099 c-3 -6 -26 -24 -50 -39 -50 -31 -46 -36 41 -46 29 -4 60
-2 70 3 14 8 9 10 -24 10 -50 0 -63 10 -38 28 13 9 28 11 50 4 29 -8 30 -7 13
6 -10 8 -24 12 -29 8 -6 -4 -8 0 -4 10 7 18 -19 32 -29 16z"/>
<path d="M2753 1044 c11 -11 247 -15 247 -4 0 6 -46 10 -127 10 -69 0 -124 -3
-120 -6z"/>
<path d="M1453 1013 c37 -2 97 -2 135 0 37 2 6 3 -68 3 -74 0 -105 -1 -67 -3z"/>
<path d="M1468 993 c23 -2 61 -2 85 0 23 2 4 4 -43 4 -47 0 -66 -2 -42 -4z"/>
</g>
</svg>
