<?xml version="1.0" standalone="no"?>
<!DOCTYPE svg PUBLIC "-//W3C//DTD SVG 20010904//EN"
 "http://www.w3.org/TR/2001/REC-SVG-20010904/DTD/svg10.dtd">
<svg version="1.0" xmlns="http://www.w3.org/2000/svg"
 width="300.000000pt" height="168.000000pt" viewBox="0 0 300.000000 168.000000"
 preserveAspectRatio="xMidYMid meet">
<metadata>
Created by potrace 1.10, written by Peter Selinger 2001-2011
</metadata>
<g transform="translate(0.000000,168.000000) scale(0.050000,-0.050000)"
fill="#000000" stroke="none">
<path d="M13 3347 c-29 -29 -9 -45 82 -64 110 -24 117 -21 82 35 -26 41 -133
60 -164 29z"/>
<path d="M220 3139 c-121 -121 -220 -236 -220 -255 1 -29 3 -30 20 -4 11 17
20 23 20 13 0 -16 118 50 180 101 118 96 189 146 208 146 12 0 33 18 47 39 14
23 37 35 54 29 16 -7 40 7 55 30 14 23 37 42 51 42 14 0 25 10 25 21 0 12 -8
16 -18 10 -10 -6 -23 3 -29 19 -39 100 -164 39 -393 -191z"/>
<path d="M724 3339 c4 -12 14 -21 22 -20 7 0 57 1 109 1 69 1 87 6 65 20 -42
27 -205 26 -196 -1z"/>
<path d="M1670 3223 c-143 -74 -296 -159 -340 -189 -43 -29 -91 -54 -104 -54
-14 0 -71 -28 -127 -62 -56 -35 -124 -63 -152 -63 -28 0 -55 -12 -60 -26 -6
-15 -46 -45 -89 -68 -89 -46 -106 -50 -88 -21 18 29 0 25 -80 -20 -39 -22 -81
-40 -93 -40 -39 0 -397 -147 -397 -163 0 -8 -32 -21 -70 -28 -60 -12 -70 -21
-70 -69 0 -55 2 -55 75 -36 41 10 102 24 135 31 33 6 81 24 106 41 34 22 52
24 69 7 16 -16 7 -29 -37 -47 -57 -26 -77 -116 -24 -116 11 0 16 17 11 38 -11
41 128 82 142 42 3 -11 30 -20 60 -20 36 -1 45 -6 26 -17 -18 -12 1 -22 58
-31 61 -10 97 -5 132 18 43 28 47 28 47 -2 0 -26 17 -31 91 -25 87 7 90 5 85
-43 -5 -43 1 -49 44 -45 35 4 42 0 23 -13 -23 -14 -23 -19 0 -26 15 -5 -12
-16 -60 -23 -62 -10 -84 -22 -76 -41 7 -19 -2 -24 -29 -17 -21 5 -52 -1 -68
-15 -16 -14 -48 -20 -71 -14 -96 25 -559 -135 -606 -210 -52 -82 195 -177 687
-265 230 -41 220 -42 220 26 0 62 -25 83 -50 43 -22 -35 -85 -22 -96 20 -6 22
-25 40 -43 40 -18 0 -28 -8 -22 -19 6 -10 3 -24 -9 -31 -11 -7 -20 -1 -20 14
-1 21 -4 21 -17 1 -16 -26 -123 -3 -175 38 -13 10 -38 12 -55 5 -20 -7 -33 -2
-33 12 0 16 -16 20 -44 13 -44 -11 -96 16 -96 49 0 10 14 18 30 18 17 0 30 10
30 21 0 31 -105 14 -116 -19 -6 -18 -1 -22 16 -12 17 11 21 8 12 -7 -22 -36
-46 -27 -59 22 -14 54 3 73 78 87 32 6 68 19 80 29 35 29 50 -1 25 -48 -16
-30 -16 -43 1 -49 13 -4 18 -16 12 -25 -6 -10 3 -13 20 -7 17 7 31 19 31 28 0
43 237 57 263 15 7 -12 40 -15 75 -8 39 7 62 4 62 -10 0 -12 15 -16 33 -8 19
7 41 1 50 -13 12 -18 16 -14 17 16 0 23 7 48 15 56 8 9 15 21 15 29 1 51 75
111 135 108 53 -2 58 0 25 15 -31 13 -32 18 -8 19 34 1 152 161 120 161 -11 0
-42 -9 -71 -20 -42 -15 -51 -13 -51 13 0 41 58 86 110 86 39 0 39 -1 3 -29
-36 -26 -35 -27 10 -22 26 3 90 48 142 99 171 166 410 216 1025 213 198 -1
401 7 450 18 104 23 253 29 233 8 -15 -14 -27 -16 -201 -22 -137 -5 -110 -18
109 -52 207 -31 299 -60 299 -92 0 -12 16 -19 35 -16 19 3 34 -3 35 -14 1 -31
30 -70 52 -70 11 0 14 10 6 23 -18 30 19 8 118 -69 41 -32 104 -65 140 -74 35
-8 78 -18 94 -23 18 -4 30 7 30 27 0 18 9 41 18 50 11 9 12 5 4 -9 -9 -16 -1
-25 25 -25 21 0 44 14 50 30 9 24 -6 30 -78 30 -49 0 -89 -9 -89 -20 0 -11
-29 -20 -65 -19 l-65 1 67 29 c37 16 84 29 105 29 21 0 49 18 63 40 13 22 38
39 55 38 20 -1 22 -4 5 -11 -31 -13 -33 -47 -4 -47 12 0 35 14 52 30 16 17 52
30 79 30 27 0 55 14 61 31 7 19 26 26 49 18 52 -16 140 64 91 83 -18 7 -47 1
-63 -12 -18 -15 -30 -17 -30 -4 0 13 -17 12 -48 -3 -34 -16 -42 -28 -25 -40
15 -11 10 -13 -12 -6 -19 7 -35 3 -35 -8 0 -10 -9 -19 -20 -19 -58 0 52 100
127 116 l83 18 -70 20 c-54 16 -75 15 -92 -6 -12 -14 -59 -33 -106 -40 -47 -7
-96 -25 -111 -39 -14 -15 -42 -23 -63 -19 -21 4 -45 8 -54 8 -9 1 -11 11 -4
22 14 23 -10 26 -42 5 -12 -8 -20 -30 -17 -48 5 -33 -161 -93 -187 -68 -6 6 0
11 14 11 14 0 18 11 10 25 -8 14 -7 18 2 10 19 -17 70 20 70 50 0 13 -9 13
-25 1 -39 -31 -95 -47 -95 -27 0 9 37 36 81 59 45 24 76 34 69 22 -7 -11 1
-20 18 -20 39 0 59 34 27 47 -14 5 0 11 30 11 35 1 55 13 55 32 0 33 60 37
140 8 38 -13 30 -15 -35 -7 -49 5 -85 1 -85 -10 0 -11 15 -14 33 -7 24 9 29 6
17 -14 -12 -20 -5 -23 32 -13 26 7 65 13 85 13 29 0 33 6 16 26 -24 30 22 80
95 103 23 8 39 20 34 27 -25 42 125 79 151 38 10 -15 23 -14 44 3 17 15 34 17
41 6 21 -35 115 -38 268 -10 85 16 190 33 234 39 44 6 102 25 128 42 26 17 98
33 160 35 62 3 166 16 232 30 140 28 204 71 80 52 l-80 -12 80 27 c44 15 131
60 194 101 63 40 139 74 170 75 31 1 79 9 106 18 33 11 7 14 -76 9 -69 -5
-143 -18 -164 -29 -24 -13 -55 -13 -89 0 -50 19 -76 -7 -26 -27 14 -5 3 -12
-25 -14 -48 -4 -47 -5 10 -21 51 -14 46 -15 -29 -9 -50 5 -77 1 -63 -8 19 -11
8 -25 -40 -49 -44 -22 -70 -26 -78 -11 -14 22 -103 12 -192 -22 -29 -11 -72
-15 -96 -8 -33 9 -36 7 -12 -9 17 -12 21 -23 10 -24 -11 -1 -43 -5 -72 -9 -28
-3 -108 -29 -177 -57 -69 -28 -158 -57 -198 -64 -40 -7 -82 -19 -93 -26 -20
-12 -150 -18 -150 -6 0 3 20 13 45 23 30 12 -1 15 -95 9 -202 -13 -241 -20
-235 -45 3 -13 -5 -23 -16 -23 -12 0 -16 -9 -9 -20 16 -25 6 -25 -63 1 -31 12
-50 15 -42 7 8 -8 -1 -26 -20 -40 -33 -25 -33 -27 0 -27 19 -1 35 -11 35 -23
0 -14 -17 -17 -45 -9 -25 8 -57 15 -73 16 -19 1 -17 9 9 28 31 23 32 27 4 27
-17 0 -61 -25 -97 -55 -54 -46 -83 -54 -167 -52 -95 3 -98 2 -51 -24 47 -26
48 -28 7 -28 -25 -1 -47 -17 -53 -41 -12 -48 -45 -52 -62 -9 -6 17 -3 26 7 20
10 -7 24 -3 30 7 6 11 2 25 -10 33 -29 18 -139 25 -128 8 13 -22 -120 -11
-136 11 -26 35 -16 47 34 41 27 -3 53 6 58 19 5 13 28 29 51 35 23 6 37 3 31
-7 -6 -10 -2 -18 10 -18 12 0 28 14 34 31 8 20 26 26 54 18 31 -8 35 -6 15 8
-22 15 -20 21 10 29 69 19 237 41 305 40 39 -1 57 5 43 14 -17 10 -4 20 37 29
34 8 68 23 74 33 8 12 -9 14 -44 5 -31 -8 -82 -14 -112 -13 -30 1 -55 -5 -55
-12 0 -7 -20 -15 -43 -17 -24 -2 -69 -14 -100 -26 -31 -13 -77 -18 -102 -12
-25 6 -59 3 -75 -8 -27 -16 -27 -19 0 -20 65 -5 -96 -45 -200 -50 -60 -3 -123
-10 -140 -16 -37 -12 -214 -53 -229 -53 -6 0 -11 9 -11 20 0 11 18 20 40 20
23 0 40 13 40 32 0 21 -11 28 -32 20 -17 -7 -56 -17 -85 -23 -151 -32 -306
-77 -315 -92 -18 -29 -61 -19 -61 14 0 36 67 75 183 107 108 30 148 57 115 78
-17 11 0 30 57 60 63 34 80 37 71 14 -7 -16 -1 -30 13 -31 13 0 6 -11 -16 -23
-79 -46 -129 -103 -65 -74 30 13 55 33 55 43 0 10 11 15 25 10 13 -4 41 13 61
38 23 30 58 47 94 47 31 0 72 15 90 32 36 37 25 64 -15 34 -14 -11 -43 -25
-65 -31 -22 -6 -56 -17 -75 -25 -25 -10 -35 -5 -35 18 0 18 8 32 18 32 10 0
13 19 7 43 -10 37 -4 42 38 33 69 -13 111 35 56 64 -84 45 -182 -16 -230 -144
-7 -19 -39 -46 -71 -60 -32 -14 -58 -33 -58 -42 0 -9 -9 -11 -21 -3 -14 8 -12
23 5 46 22 28 22 30 -4 11 -16 -12 -55 -28 -86 -36 -51 -12 -60 -52 -12 -52
11 0 15 9 8 20 -7 11 6 20 29 20 103 0 -24 -84 -138 -92 -110 -7 -113 -7 -85
-25 35 -22 -21 -83 -76 -83 -20 0 -52 -6 -70 -13 -24 -9 -31 -3 -27 25 7 40 5
41 -101 18 -43 -9 -63 -7 -55 6 21 32 -70 44 -101 13 -16 -16 -39 -29 -52 -28
-22 0 -4 16 114 105 21 15 30 33 20 39 -11 7 -67 -28 -126 -77 -101 -84 -162
-110 -162 -70 0 10 11 23 25 28 14 5 19 15 12 22 -7 8 -25 2 -40 -13 -15 -15
-81 -39 -147 -54 -66 -15 -140 -45 -164 -66 -23 -22 -53 -33 -65 -26 -11 7
-21 3 -21 -9 0 -12 -9 -17 -20 -10 -11 7 -33 -1 -50 -17 -25 -25 -23 -31 22
-42 59 -14 94 2 74 35 -10 18 -5 17 16 0 18 -14 64 -21 109 -16 44 5 61 4 39
-2 -49 -12 -91 -29 -217 -86 -54 -24 -103 -39 -109 -33 -6 6 2 12 18 14 15 1
-8 9 -52 16 -44 7 -89 6 -100 -1 -22 -16 -93 -24 -170 -20 -41 2 -45 6 -20 24
22 15 12 17 -40 7 -38 -8 -79 -21 -90 -29 -23 -18 -127 -28 -230 -22 l-70 5
84 26 c46 14 142 37 215 51 72 13 131 33 131 42 0 10 34 18 76 18 46 0 92 14
115 36 47 43 109 69 109 45 0 -14 77 17 243 100 18 9 52 11 76 5 29 -8 41 -3
37 16 -6 27 317 205 343 189 7 -5 26 0 41 9 24 15 24 20 -4 31 -31 11 -118
-18 -239 -83 -88 -46 -93 -31 -7 21 44 28 69 50 56 50 -13 1 -64 -26 -113 -59
-49 -33 -151 -83 -226 -111 -75 -27 -180 -69 -233 -93 -73 -33 -100 -38 -112
-20 -11 19 -34 15 -93 -14 -250 -122 -332 -131 -97 -10 137 70 225 134 140
102 -20 -8 -29 -6 -22 6 7 11 -1 20 -18 20 -39 0 -59 -34 -27 -46 14 -5 0 -16
-30 -24 -30 -8 -55 -22 -55 -32 0 -10 -27 -18 -60 -18 -33 0 -60 -9 -60 -20 0
-11 -17 -20 -39 -20 -21 0 -71 -19 -110 -42 -39 -23 -71 -37 -71 -31 0 6 -23
-2 -52 -16 -29 -15 -76 -23 -105 -17 -29 6 -83 11 -120 11 -103 -2 -45 36 69
45 129 10 266 66 226 93 -21 14 -16 18 22 14 71 -7 309 88 360 143 30 32 149
70 131 42 -6 -10 11 -16 37 -15 27 2 43 11 37 21 -6 11 4 13 23 6 19 -8 29 -5
22 5 -6 11 16 33 49 50 55 29 59 29 47 -1 -11 -30 -8 -30 37 -1 26 18 68 35
92 39 24 3 61 22 83 42 22 20 62 37 89 39 27 2 46 9 41 16 -4 7 6 24 22 37 16
13 25 31 20 39 -5 8 13 25 41 38 27 12 49 31 49 43 0 11 10 20 21 20 12 0 51
22 87 50 49 37 65 42 65 20 0 -28 -19 -38 -58 -32 -8 1 -15 -7 -15 -18 0 -38
39 -20 109 50 l70 70 -55 -1 c-30 -1 -171 -62 -314 -136z m-30 -117 c0 -5
-214 -126 -224 -126 -5 0 -9 14 -9 30 0 29 18 38 68 31 14 -1 25 11 25 27 0
20 11 26 33 18 19 -7 28 -5 22 6 -6 10 10 18 37 18 26 0 48 -2 48 -4z m2211
-685 c-7 -10 3 -27 21 -37 28 -15 23 -22 -28 -40 -60 -20 -70 1 -45 91 0 3 15
5 32 5 17 0 26 -8 20 -19z m-2860 -62 c5 -9 -22 -11 -61 -5 -51 8 -70 4 -70
-15 0 -22 -5 -22 -25 -2 -20 20 -20 28 1 40 29 19 140 6 155 -18z m109 -30 c0
-20 9 -26 25 -16 20 12 20 8 0 -16 -13 -17 -19 -37 -11 -44 7 -7 2 -13 -11
-13 -12 0 -23 13 -23 28 0 16 -5 43 -12 60 -7 18 -2 32 10 32 12 0 22 -14 22
-31z m168 -187 c11 -17 -78 -42 -150 -42 -70 0 -39 37 37 45 41 5 81 10 89 12
7 1 19 -5 24 -15z m-588 -112 c0 -11 -48 -32 -135 -59 -64 -20 -56 17 10 43
61 24 125 32 125 16z"/>
<path d="M2055 3329 c-30 -17 -55 -34 -55 -40 0 -22 80 -6 108 22 17 17 36 29
42 28 6 -1 22 2 36 8 13 5 2 10 -26 11 -27 0 -75 -13 -105 -29z"/>
<path d="M2180 3300 c-49 -32 -126 -74 -170 -94 -44 -19 -84 -41 -90 -48 -20
-25 -182 -99 -197 -90 -8 5 -28 1 -44 -9 -22 -14 -22 -18 -3 -19 15 0 21 -9
13 -21 -20 -32 103 25 301 141 99 58 189 106 200 107 25 2 123 93 98 92 -10
-1 -58 -28 -108 -59z"/>
<path d="M2344 3342 c-10 -7 -16 -28 -13 -49 4 -22 -4 -32 -19 -26 -38 14 -77
-17 -69 -56 6 -32 12 -31 59 6 29 23 96 64 150 92 l98 50 -94 -3 c-52 -1 -102
-8 -112 -14z"/>
<path d="M2634 3333 c6 -9 -7 -11 -30 -4 -23 7 -47 2 -56 -12 -10 -16 -4 -20
20 -11 20 8 29 6 22 -6 -7 -11 -28 -21 -46 -22 -19 0 -23 -5 -10 -11 12 -5 62
10 109 35 76 38 83 39 57 7 -28 -33 -27 -35 10 -20 22 9 55 17 74 18 18 1 29
8 24 16 -5 8 12 18 37 22 25 4 -15 7 -88 7 -74 -1 -129 -9 -123 -19z"/>
<path d="M2999 3329 c-12 -15 -33 -22 -47 -17 -13 5 -41 -9 -61 -31 -37 -41
-84 -58 -62 -23 6 10 -7 14 -29 8 -22 -6 -46 -20 -53 -31 -7 -12 5 -14 33 -5
31 10 41 7 31 -8 -21 -35 5 -27 149 47 75 38 141 63 148 57 7 -7 12 -3 12 8 0
30 -95 26 -121 -5z"/>
<path d="M3421 3338 c-28 -11 -55 -26 -60 -34 -6 -8 -51 -34 -101 -59 -98 -49
-160 -92 -160 -112 0 -35 135 12 266 94 81 51 170 101 196 111 44 18 43 19
-22 19 -38 0 -92 -8 -119 -19z"/>
<path d="M3765 3311 c-26 -26 -80 -53 -121 -60 -97 -17 -155 -50 -87 -51 43 0
45 -4 20 -34 -18 -24 -7 -21 36 10 35 24 77 44 94 44 16 0 43 13 59 29 15 15
59 47 96 69 l68 42 -60 0 c-37 -1 -77 -19 -105 -49z"/>
<path d="M4020 3341 c-20 -13 10 -19 95 -18 69 0 125 7 125 15 0 23 -185 25
-220 3z"/>
<path d="M4520 3337 c0 -8 -16 -19 -35 -24 -19 -6 -3 -6 35 -1 39 6 95 13 125
16 101 10 84 32 -22 28 -56 -3 -103 -11 -103 -19z"/>
<path d="M5171 3340 c43 -71 6 -148 -66 -138 -39 6 -291 -63 -278 -75 4 -5 67
4 139 19 73 15 127 19 122 10 -12 -19 35 -21 80 -4 18 7 27 20 21 30 -6 10 -1
18 11 18 12 0 16 10 8 23 -10 17 6 20 59 11 64 -10 70 -8 45 17 -16 16 -44 23
-63 16 -29 -11 -31 -7 -9 32 17 32 17 42 1 32 -12 -8 -38 -2 -56 12 -28 23
-30 23 -14 -3z"/>
<path d="M5310 3343 c-20 -20 -9 -39 30 -49 22 -6 35 -3 30 6 -6 10 10 20 35
24 36 6 32 10 -20 18 -36 6 -70 7 -75 1z"/>
<path d="M5560 3339 c0 -9 -20 -20 -45 -25 -25 -5 5 -4 65 2 61 6 135 13 165
14 113 7 73 26 -54 26 -72 0 -131 -8 -131 -17z"/>
<path d="M1449 3314 c-6 -14 -34 -27 -63 -30 -57 -4 -79 -17 -61 -35 6 -7 67
6 136 27 86 26 113 42 90 51 -53 20 -91 15 -102 -13z"/>
<path d="M3933 3310 c-7 -16 -30 -30 -52 -30 -23 0 -41 -10 -41 -21 0 -12 17
-16 38 -10 93 30 126 30 114 0 -8 -23 1 -22 43 6 48 31 49 36 14 42 -21 4 -48
15 -58 25 -27 26 -45 22 -58 -12z"/>
<path d="M4921 3305 c-28 -5 -68 -22 -90 -37 -22 -15 -56 -28 -77 -28 -20 0
-31 -8 -25 -18 6 -9 -15 -28 -47 -41 -31 -13 -67 -46 -79 -72 -14 -32 -39 -49
-70 -49 -27 0 -59 -13 -73 -30 -20 -25 -19 -30 8 -30 17 0 32 10 32 21 0 12
17 16 37 10 22 -7 48 1 63 19 14 16 38 30 54 30 50 0 146 67 146 102 0 23 13
30 47 23 28 -5 61 6 83 28 20 20 60 48 88 60 l52 24 -50 -1 c-27 -1 -72 -6
-99 -11z"/>
<path d="M5700 3302 c0 -12 11 -22 25 -23 14 0 -1 -14 -32 -31 -70 -39 -60
-57 13 -23 62 29 66 41 24 75 -21 17 -30 18 -30 2z"/>
<path d="M1177 3291 c-5 -5 -67 -15 -138 -21 -141 -12 -419 -86 -419 -111 0
-23 -59 -79 -83 -79 -10 0 -14 9 -7 20 21 34 -8 22 -118 -48 -58 -37 -125 -73
-150 -81 -24 -8 -70 -40 -102 -71 -32 -32 -73 -66 -92 -76 -18 -10 -30 -29
-25 -42 5 -15 57 7 141 57 151 91 179 100 124 38 -41 -46 26 -41 86 7 34 27
10 76 -31 62 -18 -7 -27 -5 -19 4 28 30 154 29 143 -2 -13 -31 24 -39 43 -9 6
11 36 15 67 9 54 -11 125 37 96 66 -7 7 -3 24 10 39 26 31 9 35 -40 8 -21 -11
-47 -11 -64 0 -22 14 -18 18 18 19 32 0 44 9 37 28 -8 20 23 37 112 61 68 18
148 43 178 54 30 12 111 24 180 27 179 8 184 9 172 21 -16 15 -108 31 -119 20z
m-598 -271 c-13 -8 -16 -19 -6 -24 9 -5 5 -6 -10 -3 -14 4 -50 8 -80 9 l-53 1
59 26 c62 27 137 19 90 -9z"/>
<path d="M5860 3279 c-27 -8 -36 -16 -20 -17 26 -2 26 -5 1 -21 -49 -31 -8
-47 73 -28 50 12 78 31 83 57 6 32 2 34 -21 15 -16 -13 -37 -17 -47 -8 -11 10
-41 10 -69 2z"/>
<path d="M5479 3238 l-69 -37 99 11 c103 11 131 21 131 44 0 28 -94 18 -161
-18z"/>
<path d="M1090 3211 l-60 -28 54 -1 c29 -1 59 6 65 16 6 10 31 14 56 10 42 -8
42 -8 5 10 -52 25 -50 25 -120 -7z"/>
<path d="M4110 3212 c-33 -15 -89 -39 -125 -52 -36 -14 -65 -33 -65 -43 0 -10
27 -4 59 12 68 35 109 40 91 11 -7 -11 -3 -20 8 -20 11 0 25 9 32 20 7 11 2
20 -10 20 -12 0 -17 9 -10 20 7 11 29 20 50 20 21 0 43 9 50 20 17 27 -8 24
-80 -8z"/>
<path d="M4490 3224 c-33 -4 -113 -24 -177 -45 -65 -21 -126 -33 -136 -27 -10
6 -16 1 -12 -12 3 -12 -31 -35 -75 -51 -96 -34 -96 -34 -80 -8 9 14 -6 16 -43
6 -31 -9 -93 -16 -137 -16 -49 -1 -94 -15 -116 -37 -19 -19 -42 -32 -50 -28
-16 8 -92 -70 -99 -103 -7 -34 54 -28 68 7 6 17 24 30 40 30 17 0 23 10 15 23
-10 16 -3 20 20 10 20 -7 50 -13 69 -13 52 -1 -58 -79 -112 -80 -25 0 -45 -8
-45 -18 0 -10 -36 -13 -80 -7 -55 7 -80 3 -80 -14 0 -13 -9 -18 -19 -12 -11 7
-14 25 -8 41 9 23 2 24 -40 4 -27 -13 -46 -29 -42 -36 5 -8 -9 -18 -31 -24
-48 -12 -52 -45 -9 -62 17 -6 26 -4 21 5 -6 9 38 30 98 47 60 17 103 22 97 11
-17 -27 103 1 207 47 46 21 92 38 101 38 10 0 53 17 96 37 44 21 110 43 149
51 38 7 103 35 144 62 84 56 125 67 65 18 -38 -31 -38 -31 1 -17 22 7 69 22
105 32 38 11 65 32 65 50 0 21 -11 27 -35 19 -29 -10 -29 -7 4 18 21 16 53 29
70 29 22 -1 20 -7 -9 -19 -36 -15 -34 -17 14 -19 34 0 62 13 74 36 21 39 21
39 -88 27z"/>
<path d="M2536 3142 c-236 -127 -189 -129 59 -3 69 35 125 67 125 72 0 21 -59
-1 -184 -69z"/>
<path d="M1982 3099 c-118 -63 -165 -99 -128 -99 37 0 192 75 246 118 73 60
10 50 -118 -19z"/>
<path d="M2740 3121 c-38 -8 -159 -61 -268 -118 -109 -56 -210 -103 -224 -103
-14 0 -38 -18 -54 -40 -15 -22 -34 -34 -41 -27 -7 8 -13 5 -13 -6 0 -12 -25
-32 -55 -46 l-55 -26 48 -18 c31 -12 56 -11 69 2 12 12 33 21 48 21 16 0 41
14 58 30 16 17 44 30 62 30 27 0 26 -5 -6 -29 -35 -25 -31 -25 35 -5 40 13 67
28 60 34 -22 16 -27 64 -5 51 10 -7 29 6 41 29 12 23 31 35 42 29 13 -8 7 -29
-16 -54 -36 -40 -36 -40 29 -7 36 18 65 40 65 49 0 9 36 36 80 61 44 25 76 52
70 62 -6 9 12 14 40 11 60 -7 122 34 102 66 -8 13 -21 22 -28 21 -8 -2 -45 -9
-84 -17z"/>
<path d="M5031 3121 c-7 -11 -25 -14 -41 -8 -32 12 -136 -60 -116 -80 27 -27
-22 -12 -53 16 -33 30 -121 22 -121 -11 0 -9 -13 -12 -30 -5 -19 7 -30 -1 -30
-21 0 -18 -10 -32 -21 -32 -12 0 -15 11 -7 25 8 15 7 18 -4 8 -10 -9 -18 -27
-18 -39 0 -13 -17 -27 -37 -31 -21 -4 -32 2 -26 13 7 11 -16 23 -52 27 -78 9
-135 0 -135 -22 0 -21 224 -40 250 -22 11 8 53 15 94 16 87 1 216 41 216 66 0
10 11 13 25 8 14 -5 57 17 95 50 39 33 59 60 46 60 -13 1 -29 -8 -35 -18z"/>
<path d="M5885 3127 c-14 -6 -20 -18 -15 -28 10 -15 -124 -65 -182 -69 -12 0
-43 -15 -70 -33 -55 -37 145 -17 237 23 115 51 145 68 145 85 0 9 -8 12 -19 6
-10 -6 -24 -3 -31 9 -13 21 -25 23 -65 7z"/>
<path d="M2212 3071 c-77 -28 -127 -63 -111 -79 15 -14 163 43 196 77 38 38
18 38 -85 2z"/>
<path d="M3500 3080 c-16 -11 -55 -15 -85 -8 -36 7 -55 3 -55 -13 0 -13 14
-18 30 -12 17 7 30 3 30 -8 0 -20 -3 -21 -70 -29 -22 -2 -70 -33 -108 -68 -73
-68 -46 -67 95 6 31 17 76 25 99 19 35 -9 41 -4 34 31 -6 36 2 42 56 42 35 0
78 10 94 22 25 19 25 20 -4 11 -19 -6 -40 -3 -47 8 -14 24 -31 24 -69 -1z"/>
<path d="M756 3023 c-7 -49 -2 -56 31 -47 29 8 35 3 23 -16 -10 -16 -8 -21 4
-14 11 7 67 15 123 17 56 2 97 11 92 19 -6 9 19 25 55 35 45 13 53 20 24 21
-23 1 -68 -11 -100 -26 -68 -34 -197 -31 -200 4 -6 58 -9 64 -26 64 -9 0 -21
-26 -26 -57z"/>
<path d="M960 3061 c0 -11 -12 -15 -26 -10 -14 5 -41 -2 -61 -17 -34 -24 -33
-26 10 -22 74 5 138 31 126 50 -15 24 -49 23 -49 -1z"/>
<path d="M5970 3000 c-11 -33 -30 -40 -120 -40 -67 0 -110 -9 -117 -25 -5 -14
-11 -15 -11 -3 -1 12 -27 17 -62 12 -33 -5 -55 -15 -50 -24 5 -8 -25 -15 -67
-15 -42 0 -94 -9 -115 -22 -34 -20 -35 -22 -3 -22 19 -1 35 -10 35 -21 0 -12
-19 -12 -53 1 -42 16 -61 13 -93 -15 -23 -20 -35 -26 -28 -13 10 16 -5 18 -55
7 -37 -8 -93 -12 -124 -8 -32 3 -41 2 -22 -4 19 -6 35 -20 35 -30 0 -24 156
-6 370 42 88 20 214 42 280 49 222 23 226 25 226 102 0 78 -8 87 -26 29z"/>
<path d="M4174 2895 l-52 -45 54 -2 c30 -2 41 2 26 7 -21 8 -16 20 20 47 26
21 38 37 26 38 -12 0 -45 -20 -74 -45z"/>
<path d="M724 2880 c-125 -41 -150 -60 -79 -60 29 0 58 9 65 20 7 11 34 20 60
20 42 0 86 32 67 49 -4 3 -55 -10 -113 -29z"/>
<path d="M1943 2880 c-48 -22 -99 -40 -113 -40 -14 0 -36 -13 -50 -30 -14 -16
-48 -30 -76 -30 -40 0 -46 -6 -29 -23 18 -18 36 -18 76 0 29 13 60 18 70 12
10 -6 35 -1 54 11 30 19 27 20 -15 10 -27 -7 -5 12 50 41 160 84 182 116 33
49z"/>
<path d="M5810 2829 c-63 -20 -70 -26 -30 -27 68 -2 140 19 140 40 0 22 -9 21
-110 -13z"/>
<path d="M4790 2779 c-37 -15 -37 -16 7 -18 59 -1 47 -45 -18 -64 -39 -11 -34
-13 25 -11 40 1 68 10 62 20 -6 10 1 26 16 36 23 14 21 17 -5 18 -19 0 -37 8
-40 17 -4 10 -25 10 -47 2z"/>
<path d="M5874 2764 c-19 -4 -34 -16 -34 -27 0 -10 -8 -14 -18 -8 -9 6 -43 2
-75 -8 -108 -34 -203 -44 -157 -16 38 22 37 24 -20 35 -70 14 -357 -34 -367
-62 -12 -35 -63 -18 -63 22 0 30 -13 40 -51 40 -29 0 -46 -9 -39 -20 7 -11 26
-20 43 -20 42 0 23 -45 -22 -52 -20 -3 -43 -16 -51 -28 -9 -15 -40 -18 -87 -9
-48 9 -73 6 -73 -9 0 -12 12 -22 26 -22 15 0 44 -14 65 -30 36 -29 33 -30 -41
-19 -82 12 -63 -20 20 -34 22 -4 52 -18 66 -31 14 -13 38 -19 55 -13 33 13 39
47 8 47 -12 0 -16 9 -9 20 7 11 -4 21 -24 22 -21 1 -26 5 -11 11 14 6 20 19
14 29 -19 30 44 43 90 18 33 -17 56 -15 107 10 35 18 109 36 164 41 67 6 84 3
50 -7 -49 -16 -49 -17 -7 -28 24 -6 53 -2 64 9 14 14 38 10 77 -16 40 -25 49
-27 31 -6 -13 17 -19 37 -11 44 22 22 106 14 106 -10 0 -32 180 -9 202 26 13
20 17 20 18 2 0 -14 10 -25 21 -25 12 0 16 8 10 18 -6 10 3 23 19 29 17 7 30
29 30 50 0 38 -32 45 -126 27z"/>
<path d="M45 2705 c-42 -43 -59 -85 -34 -85 6 0 41 31 79 69 49 48 59 67 34
65 -19 -2 -54 -24 -79 -49z"/>
<path d="M4500 2700 c-16 -11 -21 -20 -10 -20 11 -1 2 -11 -19 -24 -28 -16
-41 -16 -46 0 -4 12 -22 16 -40 9 -21 -8 -27 -4 -17 11 22 37 -189 12 -226
-27 -29 -29 -27 -32 28 -28 107 6 173 -1 162 -17 -12 -20 109 -6 138 16 57 41
122 38 157 -9 29 -38 53 -47 129 -46 61 1 79 6 53 16 -39 13 -39 14 1 24 36 9
35 11 -6 13 -25 1 -70 14 -100 28 -30 15 -82 26 -116 25 -43 -1 -60 7 -53 24
11 30 5 31 -35 5z"/>
<path d="M3700 2682 c0 -9 -20 -23 -44 -29 -24 -6 -40 -16 -34 -22 5 -5 36 -3
68 6 62 16 93 63 42 63 -18 0 -32 -8 -32 -18z"/>
<path d="M4500 2601 c0 -11 11 -21 25 -21 17 -1 16 -7 -4 -19 -18 -12 -38 -12
-52 0 -14 11 -36 9 -58 -8 -35 -26 -35 -27 1 -41 31 -12 32 -17 7 -33 -23 -15
-21 -18 13 -19 108 0 -15 -98 -127 -99 -25 -1 -45 -10 -45 -21 0 -19 58 -29
117 -21 15 2 47 22 70 44 37 36 61 40 178 30 74 -6 135 -3 135 6 0 9 20 22 45
28 33 9 38 18 22 34 -17 17 -34 17 -64 1 -51 -27 -89 -28 -73 -2 20 32 -47 23
-105 -15 -29 -19 -47 -25 -39 -12 8 14 -6 28 -36 35 -28 7 -50 21 -50 31 0 10
28 4 61 -13 34 -16 67 -24 74 -17 7 7 -7 18 -31 24 -24 6 -44 20 -44 30 0 10
19 8 42 -4 51 -27 80 -5 36 28 -18 12 -33 32 -34 43 -3 27 -64 38 -64 11z"/>
<path d="M5285 2606 c19 -5 35 -22 35 -37 0 -16 9 -29 20 -29 11 0 20 18 20
40 0 31 -13 39 -55 38 -34 -2 -42 -6 -20 -12z"/>
<path d="M5652 2577 c4 -7 -10 -17 -32 -23 -22 -6 -40 -3 -40 7 0 9 -31 4 -69
-12 -39 -16 -90 -29 -115 -29 -85 -1 0 -32 99 -37 57 -3 104 -17 118 -35 15
-20 28 -23 36 -9 7 11 39 21 71 21 32 0 63 9 70 20 7 11 -6 20 -29 20 -22 0
-41 11 -42 25 0 14 -9 9 -21 -10 -11 -19 -34 -35 -52 -35 -78 0 79 83 168 89
81 6 89 3 59 -19 -32 -23 -30 -26 16 -23 132 8 41 63 -102 63 -79 0 -140 -6
-135 -13z"/>
<path d="M5900 2486 c0 -20 -13 -25 -40 -16 -22 7 -40 4 -40 -7 0 -11 -20 -23
-43 -27 -24 -3 -48 -19 -53 -36 -7 -24 -4 -25 18 -5 14 14 73 25 130 25 65 0
108 -9 115 -25 5 -14 11 3 11 38 2 51 -7 64 -48 72 -34 6 -50 1 -50 -19z"/>
<path d="M2185 2485 c-80 -4 -145 -15 -145 -26 0 -49 83 -310 105 -331 38 -37
1482 -50 1452 -14 -12 14 -33 26 -47 26 -14 0 -37 14 -51 31 -14 17 -44 30
-67 28 -23 -2 -49 -1 -57 1 -8 3 -23 6 -33 8 -10 1 -38 27 -62 57 -23 30 -54
55 -68 55 -13 0 -62 18 -109 41 -46 22 -91 37 -99 32 -21 -13 -104 23 -104 45
0 11 38 24 85 28 47 5 24 7 -50 4 -73 -3 -129 3 -123 13 10 16 -309 17 -627 2z
m581 -77 c58 -49 77 -55 139 -49 38 4 44 -14 18 -55 -21 -32 -172 -11 -205 28
-13 16 -15 28 -5 29 13 1 -130 58 -148 59 -25 1 9 -54 70 -114 l75 -73 -60 15
c-33 8 -91 35 -130 61 -79 53 -195 107 -240 112 -57 7 -82 -1 -70 -21 7 -12
-13 -20 -49 -20 -33 0 -61 8 -61 18 0 87 564 96 666 10z m306 -140 c17 -39 26
-82 21 -95 -4 -13 -18 4 -31 37 -12 33 -31 76 -42 95 -14 24 -14 35 1 35 12 0
35 -32 51 -72z m-828 8 c-35 -35 -30 -66 6 -36 25 21 30 18 30 -17 0 -33 -8
-39 -39 -27 -21 8 -38 23 -37 34 2 40 21 70 42 70 15 0 14 -8 -2 -24z"/>
<path d="M5280 2484 c0 -9 -34 -13 -75 -10 -68 6 -70 4 -26 -14 70 -31 12 -83
-96 -87 -46 -2 -83 -10 -83 -18 0 -8 -9 -15 -19 -15 -11 0 -15 13 -8 30 7 20
27 26 59 18 29 -8 48 -4 48 10 0 12 -35 22 -80 22 -44 0 -80 -8 -80 -17 0 -10
-35 -23 -77 -30 -43 -7 -90 -27 -104 -44 -27 -33 -145 -26 -190 12 -24 20
-113 2 -99 -21 5 -8 30 -11 56 -6 26 5 57 -4 71 -20 30 -37 -87 -107 -125 -76
-12 10 -44 21 -72 26 -28 4 -48 18 -44 33 3 18 -8 22 -40 12 -25 -8 -71 -14
-101 -13 -30 1 -55 -7 -55 -17 0 -11 -10 -19 -23 -19 -12 0 -64 -20 -115 -44
-51 -25 -94 -46 -97 -47 -2 -1 -7 -23 -11 -50 -8 -50 -94 -85 -94 -38 0 13 14
18 31 11 51 -19 17 17 -128 135 -178 146 -202 144 -56 -4 126 -128 124 -142
-24 -144 -136 -3 5 -39 347 -89 176 -25 347 -52 380 -60 57 -12 58 -11 21 19
-21 17 -54 31 -73 31 -18 0 -59 13 -91 30 -110 57 120 4 263 -61 44 -20 96
-38 117 -40 20 -2 51 -20 70 -39 30 -32 28 -32 -27 1 -34 21 -49 24 -35 9 14
-16 25 -40 25 -55 0 -50 108 -128 123 -88 10 27 17 23 38 -22 27 -59 9 -104
-22 -54 -16 25 -19 25 -21 -1 -1 -16 -4 -42 -5 -58 -2 -15 -19 -37 -38 -50
-79 -49 -162 80 -121 189 13 33 15 54 5 48 -9 -5 -31 17 -49 50 -44 87 -45 81
-16 -114 15 -96 21 -211 14 -255 -13 -80 -13 -80 29 -43 27 25 75 38 145 40
126 4 158 -38 44 -58 -175 -30 -226 -50 -226 -89 0 -21 -10 -44 -22 -51 -16
-10 -14 -20 5 -33 19 -14 12 -16 -23 -8 -27 6 -63 12 -80 14 -16 1 -7 9 20 17
42 12 34 16 -45 23 -94 8 -95 8 -95 -52 l0 -60 -340 0 -340 0 -2 90 c-2 50 -7
74 -12 55 -11 -44 -247 -52 -282 -9 -12 14 -40 110 -63 214 -35 160 -51 199
-111 260 -39 40 -64 80 -55 89 8 9 2 12 -15 7 -16 -6 -75 9 -130 33 -181 79
-580 164 -602 128 -6 -9 19 -17 56 -17 68 -1 350 -68 371 -88 6 -7 2 -12 -10
-12 -65 0 5 -80 72 -82 43 -2 57 -7 33 -12 -71 -18 -110 -69 -110 -144 -1 -54
-5 -64 -20 -42 -11 17 -20 49 -20 73 0 24 -29 64 -69 95 -75 57 -116 67 -99
25 6 -15 -4 -33 -21 -40 -17 -6 -31 -31 -31 -54 0 -62 -74 -33 -160 63 -38 43
-80 78 -93 78 -12 0 -33 13 -47 30 -15 18 -42 25 -70 18 -53 -13 -88 28 -48
55 16 10 82 14 148 9 98 -8 109 -6 60 10 -33 11 -123 23 -199 27 -77 4 -143
17 -147 29 -4 12 -16 17 -26 11 -10 -7 -11 8 -1 35 32 85 -7 135 -104 136 -38
0 -54 9 -47 25 69 175 80 191 124 200 27 5 61 -4 79 -22 19 -20 31 -23 31 -8
0 82 -227 80 -369 -3 -91 -54 -260 -255 -247 -295 5 -13 32 16 60 65 82 139
376 341 376 258 0 -35 -89 -212 -116 -232 -24 -18 -11 -24 65 -33 161 -18 139
-46 -30 -38 -136 6 -158 3 -148 -23 13 -34 71 -53 163 -54 125 0 91 -40 -38
-43 l-126 -3 152 -13 c123 -10 164 -22 214 -64 33 -29 94 -58 135 -66 l73 -14
-42 -45 c-55 -58 -55 -89 1 -40 42 38 42 37 -3 -51 -33 -66 -48 -140 -58 -280
l-12 -191 -53 6 c-83 8 -553 140 -629 176 -52 25 -73 51 -89 113 -24 86 -79
163 -79 110 0 -16 10 -101 22 -189 29 -216 -23 -412 -86 -324 -15 22 -17 20
-8 -8 14 -42 -95 -34 -215 16 -37 16 -91 24 -119 19 -28 -5 -57 0 -64 11 -7
11 -37 20 -66 19 l-54 0 50 -31 50 -31 -50 14 c-27 7 -70 13 -95 13 -25 0 -45
8 -45 18 0 27 -55 21 -65 -7 -7 -19 -18 -18 -47 6 -59 47 -146 87 -161 73 -7
-8 19 -27 59 -43 70 -30 107 -64 88 -83 -5 -6 -22 2 -37 16 -15 14 -41 28 -58
31 -17 3 -87 27 -155 54 l-124 48 0 -66 c0 -76 37 -100 105 -70 l45 20 -45 -9
c-25 -4 -50 0 -56 10 -6 10 9 18 35 18 60 -1 378 -111 363 -127 -7 -6 30 -31
81 -56 50 -25 92 -52 92 -61 0 -9 17 -16 39 -16 21 0 68 -28 105 -61 57 -53
77 -60 146 -51 48 6 65 4 41 -5 -50 -21 10 -49 62 -29 21 8 29 5 20 -9 -15
-25 42 -51 72 -32 12 7 15 4 8 -8 -7 -11 6 -25 29 -31 23 -6 37 -19 31 -29 -6
-10 0 -20 13 -21 79 -11 107 -18 129 -31 14 -9 25 -11 25 -5 0 5 45 -4 100
-20 56 -16 110 -24 121 -17 11 6 18 3 14 -7 -15 -55 148 -159 273 -174 50 -6
136 -34 190 -61 109 -55 131 -60 110 -26 -9 15 -5 18 10 8 18 -11 18 -21 1
-43 -20 -23 -14 -24 41 -5 55 19 68 18 83 -9 31 -56 199 -119 252 -96 48 23
112 9 94 -20 -6 -10 0 -18 15 -18 19 -1 18 -6 -4 -22 -24 -17 -21 -20 15 -12
25 6 40 2 34 -7 -6 -10 14 -24 45 -31 31 -8 66 -22 79 -31 12 -10 152 -16 310
-13 l287 6 -270 93 c-421 146 -1384 496 -1890 689 -253 96 -512 194 -576 217
-64 24 -133 58 -153 76 -21 17 -42 27 -48 22 -5 -6 -26 -1 -46 11 -34 19 -32
21 11 21 27 1 64 -13 83 -30 19 -17 78 -38 131 -47 54 -9 386 -120 738 -247
1136 -409 2352 -812 2445 -811 101 2 106 11 24 39 -34 12 -57 26 -52 31 5 5
52 -9 104 -32 96 -43 179 -54 196 -27 5 8 -19 17 -54 19 -35 3 -81 14 -103 24
-22 11 -101 39 -175 62 -79 25 -130 52 -123 64 8 13 -3 15 -32 6 -30 -9 -41
-7 -32 7 8 13 -19 30 -67 43 -44 12 -78 31 -76 43 3 12 -8 26 -25 31 -27 8
-27 7 0 -12 26 -19 26 -21 -3 -22 -52 0 -98 22 -86 42 15 25 -4 23 -48 -5 -28
-17 -52 -15 -107 11 -39 19 -90 36 -113 37 -24 2 -43 11 -43 20 0 16 72 3 158
-28 26 -10 52 -14 57 -9 10 11 -431 148 -475 148 -16 0 -124 28 -240 62 -115
34 -231 62 -258 62 -81 0 -362 104 -362 134 0 15 -11 25 -25 23 -37 -8 -132
20 -248 73 -57 26 -120 47 -140 46 -64 -3 -331 88 -370 127 -20 20 -47 37 -60
37 -13 0 -19 5 -14 10 20 19 349 -34 557 -90 116 -31 242 -62 280 -70 39 -8
135 -48 214 -90 134 -70 386 -121 526 -105 17 2 63 -6 104 -17 81 -21 390 -23
1236 -10 547 9 606 5 899 -65 50 -11 94 -17 98 -13 5 5 27 -5 50 -21 49 -34
111 -37 153 -7 23 16 15 19 -34 13 -35 -4 -60 -1 -55 7 5 8 -2 19 -16 25 -14
6 8 8 49 5 41 -4 70 1 64 11 -6 9 -26 17 -44 17 -19 0 -47 10 -64 21 -36 26
131 4 182 -23 18 -9 117 -26 220 -37 104 -12 224 -26 267 -32 44 -6 74 -6 68
1 -11 10 -80 23 -323 59 -122 18 -334 75 -334 89 0 7 -18 15 -40 17 -22 1 -40
-5 -40 -14 0 -9 -34 -9 -75 1 -41 9 -138 18 -215 20 -77 1 -161 8 -187 15
l-48 14 54 29 c30 15 63 45 73 64 11 20 41 36 67 36 94 0 155 35 132 77 -17
33 -29 35 -100 16 -44 -11 -71 -27 -59 -34 12 -8 -8 -18 -45 -24 -37 -6 -76
-4 -87 3 -11 7 -299 6 -640 -3 -341 -8 -638 -13 -661 -9 -23 4 -52 -5 -66 -20
-17 -18 -78 -25 -209 -23 -173 3 -178 4 -74 19 74 10 33 12 -123 6 -352 -12
-351 -13 -355 150 -2 74 -11 181 -20 238 -9 57 -8 104 1 104 9 0 17 -13 17
-30 0 -17 19 -31 45 -32 34 -2 36 -5 10 -12 -42 -11 -44 -26 -8 -76 26 -35 29
-35 63 17 54 82 64 64 43 -79 -30 -198 -18 -200 1207 -194 1094 4 1086 2 1051
316 -6 55 -16 159 -23 230 -8 80 -27 148 -51 178 -49 62 -47 82 8 83 43 0 43
1 8 29 -36 27 -35 29 15 41 29 8 60 27 70 44 12 22 32 27 70 17 67 -17 31 -64
-60 -77 -50 -8 -48 -9 17 -12 44 -2 73 -12 70 -26 -3 -12 6 -26 20 -31 14 -5
25 0 25 12 0 28 153 29 170 2 7 -11 -9 -20 -37 -20 -26 0 -79 -13 -116 -29
l-67 -29 80 -1 c44 0 103 11 132 26 29 15 83 25 120 23 37 -3 88 -6 112 -8 24
-1 57 -15 73 -32 23 -22 32 -24 40 -5 8 20 10 20 11 0 1 -14 15 -25 31 -25 16
0 37 -14 47 -32 15 -27 30 -28 101 -9 47 13 126 17 183 9 l100 -13 0 60 c0 65
-3 66 -263 90 -30 3 -60 12 -69 20 -21 22 -68 18 -68 -5 0 -11 16 -20 35 -21
32 0 32 -2 -1 -21 -38 -22 -154 10 -154 42 0 33 147 84 211 74 44 -7 74 -1 90
17 15 18 61 29 121 29 95 0 98 2 98 60 0 73 -71 100 -143 53 -59 -38 -237 -66
-237 -37 0 11 -18 16 -40 10 -22 -6 -40 -19 -40 -28 0 -10 -44 -18 -98 -18
-97 0 -175 -44 -118 -66 14 -6 1 -12 -29 -12 -35 -1 -56 9 -57 28 -2 17 -4 41
-6 55 -2 18 -36 23 -115 18 -67 -4 -118 2 -126 15 -19 32 -91 27 -91 -6 0 -15
-14 -33 -32 -40 -45 -17 -48 -16 -48 19 0 24 -11 28 -45 17 -114 -36 -178 -44
-169 -21 6 17 -22 24 -93 25 -70 0 -101 8 -98 24 4 17 -32 24 -121 22 -70 -2
-146 3 -170 11 -24 7 -44 6 -44 -3 0 -9 -27 -17 -60 -18 -73 -3 -79 26 -10 44
28 7 50 24 50 39 0 36 306 49 354 14 55 -40 168 -32 180 13 5 21 33 44 62 52
28 7 75 29 103 49 34 25 83 35 149 34 115 -4 147 -45 44 -57 -38 -4 -64 0 -58
10 5 9 -15 14 -47 11 -34 -4 -59 -21 -63 -41 -9 -45 79 -54 196 -21 49 14 114
22 144 17 30 -4 86 8 124 27 44 23 77 28 89 16 21 -21 103 14 103 46 0 10 19
19 41 19 23 0 37 -8 31 -17 -6 -10 62 -16 151 -14 133 3 165 10 182 40 18 33
14 35 -37 22 -91 -23 -195 -13 -213 19 -10 17 -31 30 -47 30 -17 0 -25 -9 -18
-21 9 -13 -5 -16 -38 -8 -29 7 -52 5 -52 -4 0 -10 -53 -18 -118 -18 -65 0
-114 7 -109 16 5 8 34 15 63 15 40 1 46 5 26 18 -22 14 -19 20 16 25 43 7 43
7 3 32 -23 14 -41 18 -41 9z m-2288 -736 c151 -72 96 -228 -81 -228 -125 0
-201 163 -107 229 57 39 103 39 188 -1z m-341 -29 c33 -37 34 -43 4 -72 -37
-38 -130 -23 -148 24 -33 86 76 123 144 48z m-364 -41 c17 -24 26 -53 21 -66
-5 -13 5 -63 21 -110 35 -99 41 -293 10 -312 -12 -8 -15 -42 -7 -82 16 -87
-39 -239 -97 -271 -50 -26 -110 32 -129 126 -6 31 -25 60 -43 65 -163 46 -365
75 -473 68 -117 -7 -126 -5 -108 28 20 37 -11 59 -110 79 -26 5 -40 28 -45 73
-4 37 -17 85 -29 107 -34 65 -7 65 59 0 33 -33 89 -66 124 -73 44 -10 56 -19
38 -30 -14 -9 -48 -8 -76 3 -46 17 -82 -2 -83 -44 0 -14 581 -165 592 -154 4
4 -83 38 -193 76 -109 38 -196 78 -191 89 4 11 19 17 34 13 16 -4 45 -10 66
-14 102 -20 172 -54 158 -76 -7 -12 2 -11 20 4 24 20 42 22 59 8 14 -12 59
-30 100 -41 l75 -21 0 74 c0 40 10 127 23 193 12 66 23 139 24 163 2 24 11 38
21 32 11 -6 13 2 7 19 -14 38 36 116 75 116 15 0 41 -19 57 -42z m846 -230
c131 -65 117 -118 -26 -97 -64 9 -216 18 -338 19 -236 3 -269 11 -269 70 0 55
28 60 303 52 196 -5 269 -15 330 -44z m-251 -237 c16 10 14 20 -5 33 -22 15
-21 17 3 10 17 -5 28 -19 25 -31 -7 -30 29 -30 39 0 5 14 25 17 56 7 l47 -15
-52 -28 c-55 -28 -106 -28 -153 2 -19 11 -24 10 -15 -5 9 -14 -8 -21 -47 -20
-45 2 -60 12 -60 40 0 47 58 71 82 34 13 -22 18 -19 19 12 1 36 3 35 20 -6 11
-27 28 -41 41 -33z m548 10 l140 -15 -129 -3 c-84 -2 -158 -17 -215 -45 -65
-31 -106 -39 -160 -29 l-73 14 59 48 c63 52 120 56 378 30z m21 -82 c-10 15 3
19 41 12 99 -18 89 -42 -21 -47 -97 -4 -108 0 -106 35 3 38 6 38 52 8 26 -17
42 -21 34 -8z m669 -269 c26 -27 38 -50 26 -50 -29 0 -512 80 -536 89 -11 5
89 9 222 9 232 2 243 0 288 -48z m-2322 -383 c38 -15 63 -32 58 -38 -6 -6 -59
12 -118 40 -109 51 -66 50 60 -2z"/>
<path d="M2225 1609 c7 -12 15 -110 17 -218 4 -156 10 -189 29 -163 13 17 34
32 46 32 56 0 4 275 -63 334 -22 20 -35 26 -29 15z"/>
<path d="M2140 1141 c0 -134 28 -241 63 -241 9 0 17 80 17 178 0 172 -11 202
-72 202 -4 0 -8 -63 -8 -139z"/>
<path d="M1978 1112 c34 -19 40 -29 20 -36 -16 -5 -4 -14 27 -20 78 -15 72 34
-8 62 -83 29 -98 27 -39 -6z"/>
<path d="M2902 1413 c4 -4 58 -12 118 -19 68 -7 95 -4 70 6 -38 16 -206 28
-188 13z"/>
<path d="M5830 2300 c-5 -9 4 -26 20 -40 31 -26 90 -14 90 17 0 23 -98 43
-110 23z"/>
<path d="M25 2285 c-14 -5 -25 -30 -25 -56 0 -43 5 -46 49 -29 40 15 47 13 38
-11 -6 -16 -28 -29 -49 -29 -28 0 -38 -14 -38 -53 0 -49 4 -52 75 -40 41 7 93
13 115 13 33 1 35 4 10 20 -31 20 -9 23 183 28 41 1 70 7 65 15 -7 12 10 15
142 19 221 8 445 90 254 93 -97 2 -632 26 -714 32 -44 4 -91 3 -105 -2z"/>
<path d="M1991 2209 c-7 -40 -18 -85 -24 -100 -7 -17 1 -29 19 -29 30 0 55 42
53 87 -1 12 -10 5 -20 -17 -13 -28 -15 -15 -7 45 14 103 -2 114 -21 14z"/>
<path d="M5572 2168 c-11 -28 0 -31 78 -19 59 9 90 6 90 -8 0 -11 9 -21 20
-21 38 0 20 34 -31 57 -72 33 -143 29 -157 -9z"/>
<path d="M4875 2116 c-14 -9 14 -13 61 -9 47 4 91 14 99 21 19 19 -130 8 -160
-12z"/>
<path d="M1287 2006 c6 -10 -6 -31 -27 -46 -31 -22 -34 -34 -14 -58 19 -23 19
-27 -1 -15 -13 8 -55 9 -93 2 l-69 -13 -14 -188 c-16 -214 5 -510 33 -466 14
22 17 21 18 -7 0 -19 9 -35 20 -35 11 0 20 25 20 55 0 30 6 90 13 132 12 70 9
76 -26 65 -42 -13 -50 100 -16 222 9 31 16 63 17 72 1 8 15 23 30 33 15 9 22
31 16 49 -7 18 -4 32 6 32 10 0 28 -38 40 -85 39 -152 38 -151 98 -77 66 80
162 77 536 -18 51 -12 74 -8 108 22 24 21 38 38 30 38 -7 0 5 20 27 44 49 52
53 85 10 68 -18 -6 -26 -3 -19 8 7 11 -6 20 -29 20 -22 0 -40 -7 -39 -15 7
-44 -3 -74 -18 -51 -9 14 -147 41 -323 65 -319 42 -351 52 -322 100 16 25 23
25 53 0 22 -18 30 -19 21 -4 -8 14 -34 35 -57 47 -22 12 -36 14 -29 4z"/>
<path d="M3865 1935 c3 -14 -6 -23 -20 -20 -14 3 -25 -2 -25 -11 0 -27 -725
-8 -742 19 -8 14 -29 17 -51 8 -163 -68 352 -130 663 -80 22 3 108 8 190 11
83 2 121 8 85 12 -48 6 -65 19 -65 47 0 22 -9 39 -20 39 -11 0 -18 -11 -15
-25z"/>
<path d="M2554 1926 c-35 -9 85 -124 131 -125 36 -2 11 56 -30 67 -34 9 -38
16 -18 29 21 14 20 20 -7 30 -18 7 -35 12 -37 11 -1 -2 -19 -7 -39 -12z"/>
<path d="M0 1803 c0 -20 23 -47 51 -60 72 -32 76 -29 30 21 -23 24 -41 51 -41
60 0 9 -9 16 -20 16 -11 0 -20 -17 -20 -37z"/>
<path d="M685 1788 c-31 -33 -14 -41 75 -36 115 6 120 7 120 32 0 18 -6 18
-23 1 -17 -17 -38 -17 -85 3 -52 22 -67 22 -87 0z"/>
<path d="M3564 1801 c-285 -13 -339 -28 -316 -91 6 -17 39 -172 64 -304 6 -34
27 -46 94 -56 107 -17 1046 -5 1064 13 19 19 37 305 23 362 -19 76 -336 102
-929 76z m275 -170 c7 -72 6 -131 -3 -131 -9 0 -16 35 -16 78 0 42 -6 107 -13
145 -7 37 -6 61 3 53 8 -8 21 -73 29 -145z m-217 -37 c3 -63 -1 -120 -9 -127
-7 -8 -13 27 -13 77 0 50 -5 121 -11 159 -9 49 -6 59 8 36 12 -17 23 -82 25
-145z m54 -14 c-1 -81 -2 -84 -16 -30 -22 86 -22 238 0 170 9 -27 16 -90 16
-140z m109 26 c4 -79 1 -140 -8 -134 -10 6 -17 74 -17 153 0 179 13 169 25
-19z m110 -36 l0 -80 -16 80 c-9 44 -16 107 -15 140 l1 60 15 -60 c8 -33 15
-96 15 -140z m91 40 c10 -132 10 -135 -11 -50 l-23 90 -13 -70 c-11 -58 -14
-49 -14 50 -1 88 3 107 15 70 16 -50 16 -50 18 8 3 96 16 51 28 -98z m59 -6
c4 -58 2 -98 -6 -90 -8 9 -19 70 -25 136 -7 68 -5 107 5 90 9 -16 21 -78 26
-136z m41 16 c7 -80 5 -115 -6 -90 -16 38 -28 246 -13 228 4 -4 13 -66 19
-138z m53 8 l18 -118 -3 124 c-5 154 20 138 29 -19 6 -99 2 -115 -28 -115 -26
0 -35 17 -35 68 0 37 -6 97 -13 135 -7 37 -7 62 0 55 8 -7 22 -65 32 -130z
m112 22 c-4 76 -1 105 9 80 30 -72 23 -244 -10 -257 -22 -9 -30 3 -30 45 0 31
-4 100 -9 154 l-9 98 28 -120 29 -120 -8 120z m-866 -40 c7 -72 5 -104 -5 -80
-17 39 -28 225 -13 208 4 -4 12 -62 18 -128z m61 -20 c7 -85 5 -120 -5 -90
-17 49 -28 255 -14 238 4 -4 13 -71 19 -148z m58 5 c4 -52 -1 -95 -9 -95 -8 0
-14 56 -13 125 3 135 12 122 22 -30z m220 21 c5 -62 1 -109 -8 -104 -9 6 -16
61 -16 123 0 141 13 131 24 -19z m650 4 l12 -50 15 50 c13 42 15 37 17 -33 1
-51 -9 -92 -28 -107 -25 -21 -30 -17 -30 25 0 27 -4 93 -9 147 -9 93 -7 89 23
-32z m-809 -45 c4 -63 0 -115 -9 -115 -9 0 -15 61 -14 135 1 156 12 147 23
-20z"/>
<path d="M4580 1660 c0 -24 13 -40 33 -40 19 0 28 6 21 13 -8 7 2 25 21 39 32
24 30 27 -20 27 -42 1 -55 -9 -55 -39z"/>
<path d="M4879 1643 c11 -21 15 -43 9 -48 -24 -25 130 -57 170 -36 22 11 80
21 131 21 54 0 91 9 91 22 0 16 8 17 25 2 27 -22 77 -30 155 -26 47 3 48 5 11
26 -58 34 -202 40 -355 17 -125 -20 -139 -18 -176 19 -52 52 -89 53 -61 3z"/>
<path d="M1542 1604 c-2 -69 -60 -78 -112 -16 -18 21 -37 24 -103 15 -12 -2
-27 -25 -32 -52 -10 -53 15 -71 98 -71 27 0 137 -36 245 -80 229 -94 282 -104
112 -21 -149 72 -140 75 40 11 190 -67 188 -67 164 39 -11 49 -27 85 -35 80
-9 -5 -10 -27 -5 -50 10 -37 7 -39 -42 -16 -39 18 -46 29 -28 42 17 11 4 14
-34 7 -99 -17 -237 48 -253 119 l-12 59 -3 -66z"/>
<path d="M0 1591 c0 -28 7 -52 15 -54 8 -1 33 -5 55 -9 134 -24 232 -27 219
-7 -7 12 -18 17 -24 11 -6 -6 -24 4 -40 23 -15 19 -22 24 -15 10 8 -16 -3 -25
-31 -25 -30 0 -40 9 -32 30 9 24 0 29 -37 22 -29 -5 -63 4 -80 21 -27 27 -30
24 -30 -22z"/>
<path d="M5125 1506 c-25 -5 -41 -16 -35 -25 5 -9 -27 -8 -73 2 -79 18 -118
11 -91 -15 6 -7 87 -15 178 -18 208 -6 212 -7 178 -29 -16 -9 -78 -12 -138 -6
-79 8 -106 5 -96 -11 7 -12 51 -23 98 -24 131 -2 154 -5 154 -25 0 -20 172 1
224 27 51 27 97 -1 110 -67 11 -53 15 -57 36 -28 31 42 43 42 55 -3 17 -64 92
-50 91 17 -2 52 -9 59 -64 59 -71 1 -100 16 -117 62 -12 32 -133 57 -320 65
-41 2 -75 10 -75 18 0 16 -37 16 -115 1z"/>
<path d="M5700 1470 c14 -16 39 -30 56 -30 17 0 47 -15 67 -32 38 -35 149 -24
127 13 -7 10 -1 20 14 21 40 4 -167 54 -231 56 -49 2 -54 -2 -33 -28z"/>
<path d="M0 1372 c0 -72 173 -128 224 -72 36 39 36 41 2 52 -20 7 -49 17 -66
22 -123 43 -160 42 -160 -2z"/>
<path d="M5220 1300 c-15 -9 -38 -12 -53 -6 -15 6 -27 -1 -27 -14 0 -15 16
-20 40 -14 22 6 40 2 40 -8 0 -29 55 -21 67 10 13 34 -30 55 -67 32z"/>
<path d="M3754 1261 c16 -60 46 -71 48 -17 2 46 2 45 19 -4 l17 -50 -4 50 c-3
34 -17 52 -47 56 -36 5 -42 -1 -33 -35z"/>
<path d="M4000 1250 c0 -25 13 -43 30 -43 17 0 30 18 30 43 0 25 -13 43 -30
43 -17 0 -30 -18 -30 -43z"/>
<path d="M5490 1280 c-7 -11 -43 -20 -81 -20 -38 0 -69 -9 -69 -20 0 -26 160
-26 200 0 22 14 23 19 4 20 -15 0 -21 9 -14 20 7 11 3 20 -8 20 -11 0 -25 -9
-32 -20z"/>
<path d="M4966 1207 c7 -7 -15 -45 -50 -85 l-64 -72 59 -13 c33 -7 88 -13 124
-15 36 -1 65 -12 65 -24 0 -13 -17 -18 -38 -13 -21 6 -48 3 -61 -5 -25 -15
531 -109 886 -150 113 -13 116 -12 110 33 -5 34 -21 48 -57 51 -27 2 -138 10
-245 17 -153 10 -195 19 -195 42 0 26 -4 26 -29 1 -25 -25 -45 -25 -145 -1
-64 15 -138 22 -164 16 -43 -10 -46 -8 -22 21 23 28 21 34 -16 43 -60 16 -34
47 38 47 74 0 59 32 -22 50 -35 8 -55 22 -47 35 8 13 -6 17 -40 11 -29 -6 -53
-3 -53 7 0 9 -10 17 -23 17 -13 0 -18 -6 -11 -13z"/>
<path d="M5920 1200 c0 -12 -22 -31 -50 -44 -62 -28 -65 -52 -5 -46 25 3 65 6
90 7 61 4 66 103 5 103 -22 0 -40 -9 -40 -20z"/>
<path d="M5324 1162 c-29 -17 55 -63 112 -60 27 1 28 3 4 12 -16 6 -44 23 -60
38 -17 14 -42 19 -56 10z"/>
<path d="M13 1100 c9 -9 35 -20 57 -23 22 -4 45 -13 50 -20 6 -8 37 -19 70
-26 33 -6 49 -6 35 1 -14 6 -20 19 -15 28 6 10 -5 17 -25 17 -19 0 -70 9 -112
20 -43 11 -70 12 -60 3z"/>
<path d="M5425 1066 c-25 -5 -45 -18 -45 -30 0 -12 19 -15 45 -9 25 7 56 13
70 13 14 0 25 9 25 20 0 20 -15 21 -95 6z"/>
<path d="M5725 1046 c19 -5 35 -22 35 -37 0 -33 18 -36 59 -10 31 19 -50 64
-105 59 -13 -2 -8 -7 11 -12z"/>
<path d="M5870 1020 c-7 -12 18 -20 64 -20 56 1 68 6 46 20 -39 25 -94 25
-110 0z"/>
<path d="M490 892 c21 -15 51 -23 67 -16 18 7 24 2 16 -11 -15 -24 -93 -26
-93 -3 0 8 -20 9 -45 3 -43 -12 -42 -13 15 -36 36 -15 76 -18 102 -8 24 9 48
12 54 6 5 -5 16 0 23 11 14 23 -88 82 -142 82 -31 0 -31 -3 3 -28z"/>
<path d="M165 854 c30 -25 84 -61 120 -81 l65 -36 -50 42 c-112 93 -151 120
-170 120 -11 0 5 -21 35 -45z"/>
<path d="M4900 866 c148 -29 648 -111 760 -125 72 -9 177 -23 235 -31 97 -14
105 -12 105 25 0 46 -96 68 -320 74 -226 5 -254 9 -220 31 17 11 21 20 9 20
-12 0 -33 -11 -48 -25 -21 -20 -24 -20 -13 0 8 14 7 26 -2 26 -85 8 -544 12
-506 5z"/>
<path d="M130 800 c7 -11 1 -20 -12 -20 -40 0 -7 -21 50 -31 67 -12 67 18 1
48 -30 13 -46 15 -39 3z"/>
<path d="M163 695 c-17 -17 -7 -29 37 -48 33 -14 60 -35 60 -47 0 -13 -11 -16
-25 -7 -19 11 -18 6 1 -18 15 -17 53 -41 85 -52 l58 -21 -31 49 c-18 27 -40
44 -50 38 -10 -6 -18 -3 -18 7 0 41 -95 121 -117 99z"/>
<path d="M509 649 c21 -16 57 -29 80 -28 37 0 37 3 -9 29 -69 39 -124 39 -71
-1z"/>
<path d="M5797 638 c-13 -8 17 -21 68 -28 126 -19 157 -4 46 22 -50 11 -101
14 -114 6z"/>
<path d="M809 606 c2 -19 17 -37 33 -41 22 -6 21 -3 -2 13 -58 41 16 21 104
-28 68 -38 89 -43 89 -21 0 16 -43 47 -95 70 -116 50 -136 51 -129 7z"/>
<path d="M0 600 c0 -10 27 -34 60 -53 33 -20 60 -41 60 -48 0 -7 14 -12 30
-12 43 0 40 4 -60 71 -50 33 -90 52 -90 42z"/>
<path d="M3570 540 c-9 -15 97 -47 229 -69 112 -19 44 20 -94 54 -69 17 -130
24 -135 15z"/>
<path d="M5349 511 c180 -49 248 -53 139 -9 -32 13 -76 25 -98 27 -22 2 -80
10 -130 17 -49 7 -9 -9 89 -35z"/>
<path d="M484 506 c-18 -7 -1 -33 50 -78 75 -67 78 -87 8 -49 -26 14 -35 11
-35 -9 0 -16 7 -24 15 -19 8 5 77 -23 152 -62 75 -40 118 -59 96 -41 -22 17
-53 42 -69 56 -16 14 -41 27 -57 29 -15 2 -34 11 -41 19 -7 8 2 9 21 2 19 -7
41 -2 48 10 8 12 5 17 -5 10 -28 -17 -155 97 -138 124 14 23 -1 26 -45 8z"/>
<path d="M732 484 c-16 -27 114 -124 167 -124 42 0 20 36 -38 59 -32 14 -63
37 -69 53 -12 31 -44 37 -60 12z"/>
<path d="M4563 451 c50 -14 100 -31 110 -37 11 -6 30 -4 44 4 16 10 -18 25
-89 39 -148 30 -184 27 -65 -6z"/>
<path d="M1090 419 c-15 -23 65 -64 93 -47 12 7 28 2 37 -12 9 -14 20 -16 27
-5 7 11 -24 33 -67 51 -44 17 -85 23 -90 13z"/>
<path d="M325 394 c43 -35 21 -63 -23 -29 -28 22 -29 21 -5 -10 15 -19 35 -30
45 -24 10 6 60 -18 111 -53 51 -35 85 -52 75 -36 -9 15 -18 36 -18 46 0 10
-18 21 -39 24 -22 3 -49 18 -60 34 -12 15 -43 38 -71 52 -44 21 -46 21 -15 -4z"/>
<path d="M170 269 c105 -93 190 -155 190 -139 0 7 15 -2 33 -20 17 -18 44 -28
59 -22 15 6 32 2 39 -9 6 -10 22 -19 35 -18 13 0 -7 26 -45 57 -38 32 -80 53
-93 48 -13 -5 -30 0 -37 12 -7 11 -27 15 -45 8 -20 -8 -28 -5 -19 9 13 21
-136 145 -176 145 -11 0 15 -32 59 -71z"/>
<path d="M1140 290 c0 -5 41 -27 90 -50 50 -23 90 -49 90 -59 0 -19 121 -67
135 -53 4 5 -13 15 -38 22 -26 8 -65 31 -87 50 -62 55 -190 116 -190 90z"/>
<path d="M4644 278 c10 -46 64 -75 132 -70 46 3 64 -4 66 -27 1 -20 5 -23 11
-6 6 14 19 25 30 25 11 0 14 -9 7 -20 -7 -11 6 -20 28 -20 73 0 64 38 -12 53
-42 8 -88 13 -103 10 -17 -4 -21 4 -12 19 11 17 5 21 -19 12 -19 -8 -56 1 -84
19 -40 26 -49 27 -44 5z"/>
<path d="M559 253 c29 -37 181 -123 181 -102 0 6 52 -25 116 -70 107 -75 203
-109 174 -61 -7 12 -20 16 -28 11 -9 -5 -34 7 -56 28 -47 43 -206 128 -206
109 0 -7 -22 2 -50 20 -161 104 -162 104 -131 65z"/>
<path d="M4080 214 c0 -12 238 -94 269 -93 11 0 -14 18 -57 39 -78 40 -212 73
-212 54z"/>
<path d="M1060 181 c0 -8 35 -29 79 -46 57 -22 75 -24 69 -6 -11 28 -148 76
-148 52z"/>
<path d="M0 110 c0 -37 106 -110 159 -110 59 0 37 27 -69 87 -65 36 -90 43
-90 23z"/>
<path d="M5250 124 c-16 -17 370 -124 440 -123 42 1 18 13 -80 41 -240 68
-348 93 -360 82z"/>
<path d="M200 106 c0 -19 137 -115 149 -104 4 4 -28 33 -71 64 -43 31 -78 49
-78 40z"/>
<path d="M597 60 c33 -33 76 -60 95 -60 24 0 10 19 -43 59 -102 77 -129 78
-52 1z"/>
<path d="M1251 101 c-7 -11 13 -34 43 -51 48 -28 49 -31 11 -23 -25 5 -41 3
-36 -5 5 -9 57 -16 115 -17 97 -2 103 0 67 26 -48 36 -78 38 -59 4 8 -14 -9 0
-38 30 -55 58 -84 68 -103 36z"/>
<path d="M1730 102 c13 -22 6 -26 -32 -16 -45 11 -44 9 12 -37 33 -27 74 -49
90 -48 21 0 17 11 -16 39 -25 21 -45 44 -43 51 1 7 -4 18 -13 26 -8 7 -7 0 2
-15z"/>
<path d="M2260 89 c140 -82 347 -133 249 -60 -22 15 -42 20 -45 10 -4 -10 -22
-10 -40 -1 -136 68 -257 106 -164 51z"/>
<path d="M4362 103 c-25 -17 42 -39 238 -77 85 -16 468 -27 453 -12 -7 7 -88
14 -178 16 -93 1 -217 18 -285 39 -168 50 -196 54 -228 34z"/>
<path d="M2520 86 c0 -18 146 -86 185 -86 30 0 -80 69 -141 89 -24 7 -44 6
-44 -3z"/>
</g>
</svg>
