<?xml version="1.0" standalone="no"?>
<!DOCTYPE svg PUBLIC "-//W3C//DTD SVG 20010904//EN"
 "http://www.w3.org/TR/2001/REC-SVG-20010904/DTD/svg10.dtd">
<svg version="1.0" xmlns="http://www.w3.org/2000/svg"
 width="225.000000pt" height="225.000000pt" viewBox="0 0 225.000000 225.000000"
 preserveAspectRatio="xMidYMid meet">
<metadata>
Created by potrace 1.10, written by Peter Selinger 2001-2011
</metadata>
<g transform="translate(0.000000,225.000000) scale(0.100000,-0.100000)"
fill="#000000" stroke="none">
<path d="M648 1763 c6 -2 18 -2 25 0 6 3 1 5 -13 5 -14 0 -19 -2 -12 -5z"/>
<path d="M1128 1763 c6 -2 18 -2 25 0 6 3 1 5 -13 5 -14 0 -19 -2 -12 -5z"/>
<path d="M1258 1763 c7 -3 16 -2 19 1 4 3 -2 6 -13 5 -11 0 -14 -3 -6 -6z"/>
<path d="M965 1730 c-65 -8 -133 -27 -233 -66 -34 -13 -69 -24 -77 -24 -8 0
-15 -4 -15 -9 0 -5 24 -11 53 -15 28 -4 106 -14 172 -23 l121 -16 156 52 c126
42 164 51 194 45 27 -5 35 -4 30 5 -4 6 -12 9 -17 6 -5 -4 -19 1 -31 9 -13 9
-26 12 -32 7 -20 -16 -320 -111 -325 -103 -7 9 -158 32 -208 32 -18 0 -34 4
-37 9 -5 7 18 14 81 23 7 1 10 5 7 10 -3 4 10 5 28 3 24 -4 28 -3 13 3 -16 7
-11 10 29 16 134 20 257 12 240 -16 -4 -7 -3 -8 5 -4 6 4 9 12 6 17 -4 5 2 8
12 7 10 0 47 0 82 0 100 3 77 10 -84 27 -33 3 -71 7 -85 9 -14 1 -52 -1 -85
-4z"/>
<path d="M805 1723 c-75 -9 -215 -51 -215 -64 0 -5 5 -9 10 -9 6 0 10 5 10 10
0 6 10 10 23 10 23 0 229 49 236 56 5 4 -14 3 -64 -3z"/>
<path d="M968 1693 c7 -3 16 -2 19 1 4 3 -2 6 -13 5 -11 0 -14 -3 -6 -6z"/>
<path d="M880 1680 c0 -5 14 -10 32 -10 36 0 35 4 -4 14 -17 4 -28 2 -28 -4z"/>
<path d="M1068 1673 c7 -3 16 -2 19 1 4 3 -2 6 -13 5 -11 0 -14 -3 -6 -6z"/>
<path d="M855 1650 c-19 -8 -19 -9 3 -9 12 -1 22 4 22 9 0 6 -1 10 -2 9 -2 0
-12 -4 -23 -9z"/>
<path d="M1280 1650 c-21 -7 -21 -8 -5 -9 11 0 27 4 35 9 18 11 5 11 -30 0z"/>
<path d="M1336 1653 c-12 -12 -6 -23 12 -23 14 0 15 2 2 10 -13 8 -12 10 4 10
12 0 16 -5 13 -15 -5 -11 0 -13 22 -9 24 5 35 -3 93 -65 36 -39 68 -80 71 -91
3 -11 1 -18 -4 -14 -5 3 -9 0 -9 -6 0 -6 -4 -8 -10 -5 -5 3 -10 11 -10 16 0 6
5 7 10 4 26 -16 4 17 -52 79 -55 60 -68 69 -102 72 -22 1 -55 -4 -75 -12 -19
-8 -42 -12 -52 -9 -10 4 -27 1 -36 -5 -15 -8 -12 -9 12 -4 19 3 6 -6 -35 -27
-36 -17 -74 -39 -84 -48 -11 -9 -16 -10 -12 -3 4 7 2 12 -6 13 -7 0 14 14 47
29 71 34 63 39 -12 8 -56 -23 -67 -44 -36 -69 20 -17 17 -18 45 7 29 26 129
68 211 90 l62 16 38 -42 c20 -24 37 -49 37 -56 0 -8 4 -14 10 -14 5 0 12 -11
16 -25 3 -13 12 -29 19 -35 15 -12 9 -44 -6 -34 -5 3 -9 0 -9 -6 0 -17 -50
-32 -66 -19 -10 8 -12 6 -9 -10 3 -18 0 -20 -23 -15 -21 4 -24 3 -12 -5 13 -9
13 -11 -2 -11 -10 0 -22 9 -28 20 -9 16 -8 18 5 14 8 -4 15 -1 15 5 0 6 7 11
15 11 8 0 15 7 15 16 0 10 6 14 14 11 10 -4 13 -1 9 9 -5 12 -11 10 -32 -10
-27 -26 -51 -34 -51 -17 0 5 5 11 10 13 7 2 5 11 -4 23 -8 11 -18 16 -22 12
-5 -4 -2 -13 6 -18 12 -8 12 -12 2 -16 -10 -4 -10 -8 -1 -19 9 -11 7 -14 -12
-15 l-24 0 24 -10 c37 -15 17 -23 -23 -9 -20 6 -33 16 -30 22 4 6 -2 5 -15 -1
-14 -8 -27 -9 -40 -2 -10 6 -28 8 -40 6 -12 -2 -19 0 -16 5 3 5 1 11 -5 15 -6
4 -8 11 -4 16 3 5 10 6 16 3 7 -4 8 -2 4 5 -4 6 -11 9 -16 6 -5 -3 -12 0 -16
6 -5 8 -3 9 6 4 9 -6 12 -4 8 6 -4 10 1 15 13 15 11 0 18 -5 15 -11 -2 -7 1
-12 7 -13 7 0 22 -4 35 -7 14 -5 22 -3 22 4 0 6 -12 11 -26 11 -14 0 -23 4
-19 10 8 12 65 13 65 1 0 -5 25 -7 56 -5 34 2 53 0 49 -6 -8 -13 11 -13 34 0
14 7 25 4 47 -15 15 -13 31 -22 36 -19 14 9 -16 43 -47 55 -32 12 -358 22
-353 11 27 -60 104 -185 119 -193 26 -13 116 10 223 57 87 39 109 58 100 86
-3 10 -1 18 5 18 17 0 22 -19 11 -42 -9 -19 -7 -18 15 6 23 25 24 30 12 45 -8
9 -16 21 -18 28 -9 25 -141 172 -157 174 -4 0 -21 2 -38 4 -17 3 -34 2 -38 -2z
m-96 -305 c0 -6 10 -8 22 -4 25 6 98 -13 98 -26 0 -10 -3 -10 -36 2 -25 10
-26 9 -13 -7 12 -15 12 -16 -4 -10 -11 4 -31 10 -45 13 -26 5 -26 5 -8 -10 19
-15 19 -16 1 -16 -22 0 -55 28 -55 47 0 8 -4 11 -10 8 -5 -3 -10 -2 -10 3 0 5
14 9 30 10 17 0 30 -4 30 -10z"/>
<path d="M1470 1650 c0 -5 5 -10 11 -10 5 0 7 5 4 10 -3 6 -8 10 -11 10 -2 0
-4 -4 -4 -10z"/>
<path d="M545 1641 c17 -8 14 -10 -17 -10 -20 -1 -48 -6 -62 -13 -28 -12 -108
-122 -150 -207 -15 -29 -39 -63 -53 -75 -16 -14 -26 -33 -27 -53 -1 -19 -11
-41 -24 -53 -22 -20 -31 -70 -13 -70 6 0 9 12 8 28 -2 24 1 27 28 25 17 -1 23
1 14 3 -13 4 -14 10 -5 39 6 19 17 35 24 35 7 0 10 5 7 11 -12 18 33 57 60 51
28 -5 32 7 13 38 -11 17 -10 22 1 29 7 5 11 13 7 19 -3 5 3 21 14 35 11 14 20
30 20 36 0 6 5 11 10 11 6 0 10 4 10 10 0 14 32 50 41 45 4 -3 20 2 35 10 21
11 24 15 11 15 -11 0 -15 5 -11 11 8 14 65 4 77 -14 5 -7 6 -3 2 12 -7 22 -5
23 27 17 22 -5 28 -4 18 2 -8 6 -31 12 -50 16 -26 4 -30 3 -15 -3z m-75 -51
c0 -5 -4 -10 -10 -10 -5 0 -10 5 -10 10 0 6 5 10 10 10 6 0 10 -4 10 -10z
m-120 -220 c0 -5 -7 -10 -15 -10 -8 0 -15 5 -15 10 0 6 7 10 15 10 8 0 15 -4
15 -10z"/>
<path d="M935 1640 c3 -5 10 -10 16 -10 5 0 9 5 9 10 0 6 -7 10 -16 10 -8 0
-12 -4 -9 -10z"/>
<path d="M1275 1620 c-7 -12 2 -12 30 0 19 8 19 9 -2 9 -12 1 -25 -3 -28 -9z"/>
<path d="M600 1600 c0 -6 7 -10 15 -10 8 0 15 2 15 4 0 2 -7 6 -15 10 -8 3
-15 1 -15 -4z"/>
<path d="M542 1573 c-18 -2 -44 -11 -59 -18 -15 -8 -30 -12 -35 -9 -4 3 -8 1
-8 -3 0 -5 -11 -21 -26 -36 -38 -41 -53 -84 -40 -113 12 -26 40 -37 130 -53
96 -17 93 -19 101 54 9 90 2 107 -40 101 -19 -3 -49 -15 -67 -26 -18 -11 -40
-20 -49 -20 -9 0 -24 -9 -34 -20 -10 -11 -13 -20 -7 -20 7 0 29 9 49 20 21 11
51 20 68 20 23 0 27 3 15 10 -11 7 -8 9 15 8 41 -3 45 -13 23 -56 -16 -32 -16
-37 -3 -40 8 -2 15 -8 15 -13 0 -12 -61 -10 -130 4 -49 11 -55 15 -63 44 -9
29 -6 36 27 75 21 24 45 43 54 44 65 4 68 5 47 14 -19 8 -19 9 2 9 12 1 33 -3
47 -9 17 -6 26 -6 26 0 0 6 -10 10 -22 10 -17 0 -19 3 -10 12 9 9 17 9 36 -2
22 -11 25 -18 22 -61 -5 -63 11 -64 17 -1 3 38 0 50 -16 65 -10 9 -27 16 -36
15 -9 0 -31 -3 -49 -5z m45 -185 c-3 -8 -6 -5 -6 6 -1 11 2 17 5 13 3 -3 4
-12 1 -19z"/>
<path d="M778 1573 c7 -3 16 -2 19 1 4 3 -2 6 -13 5 -11 0 -14 -3 -6 -6z"/>
<path d="M1072 1564 c-14 -10 -33 -14 -47 -10 -13 3 -26 2 -30 -4 -3 -5 -12
-7 -20 -4 -8 4 -13 0 -11 -10 2 -18 26 -45 26 -31 0 16 55 -79 109 -187 29
-60 56 -108 60 -109 3 0 14 -2 24 -4 9 -2 24 3 32 11 8 8 31 21 52 29 l38 14
-45 0 c-34 1 -41 -2 -30 -10 12 -8 11 -9 -5 -6 -11 2 -19 8 -18 13 1 6 -5 11
-13 11 -20 0 -18 -13 4 -22 16 -6 16 -7 -2 -21 -18 -12 -21 -11 -43 21 -13 19
-23 41 -23 50 0 10 -5 13 -12 9 -7 -4 -8 -3 -4 4 4 7 -5 29 -19 49 -29 43 -33
69 -6 36 10 -12 22 -19 25 -15 4 3 4 -2 0 -12 -5 -13 -4 -17 4 -12 8 5 10 1 5
-11 -6 -16 -5 -17 13 -3 18 14 18 14 5 -2 -9 -13 -10 -18 -2 -18 7 0 10 -4 7
-9 -7 -11 18 -33 27 -24 4 3 0 14 -8 23 -9 10 -15 22 -13 27 4 11 -59 130 -73
139 -6 3 -13 3 -17 -1 -3 -3 0 -10 8 -15 8 -6 11 -10 6 -10 -5 0 -2 -8 5 -17
10 -11 10 -14 2 -9 -8 4 -13 2 -13 -6 0 -10 -2 -10 -9 1 -5 8 -7 21 -3 29 4
11 1 13 -8 7 -8 -5 -11 -4 -6 3 3 6 2 13 -4 17 -5 3 -10 11 -10 16 0 6 5 7 12
3 7 -5 8 -3 4 5 -5 7 -19 17 -33 22 -36 14 -20 24 17 11 17 -6 28 -7 25 -2 -3
4 7 18 22 29 33 24 28 28 -5 5z m42 -160 c3 -8 2 -12 -4 -9 -6 3 -10 10 -10
16 0 14 7 11 14 -7z"/>
<path d="M668 1553 c6 -2 18 -2 25 0 6 3 1 5 -13 5 -14 0 -19 -2 -12 -5z"/>
<path d="M908 1553 c7 -3 16 -2 19 1 4 3 -2 6 -13 5 -11 0 -14 -3 -6 -6z"/>
<path d="M825 1537 c17 -8 50 -17 75 -20 l45 -6 -32 14 c-17 8 -51 17 -75 20
l-43 6 30 -14z"/>
<path d="M692 1524 c-5 -11 -12 -69 -15 -131 l-6 -112 27 -5 c15 -3 68 -12
117 -21 50 -8 106 -19 125 -25 43 -12 50 -12 50 -1 0 5 -9 11 -20 14 -27 7
-35 32 -20 66 21 53 59 51 78 -3 7 -19 24 -51 38 -72 25 -37 26 -39 24 -228 0
-104 -2 -192 -4 -194 -8 -7 -125 21 -120 29 3 5 -2 6 -10 3 -14 -5 -127 19
-244 53 -44 12 -56 20 -67 46 -19 47 -28 146 -20 229 8 83 3 80 103 59 23 -4
42 -5 42 0 0 8 -35 13 -43 7 -2 -2 -11 3 -20 10 -9 8 -25 10 -41 6 -20 -5 -26
-2 -26 10 0 9 5 16 10 16 6 0 9 37 9 93 l-2 92 -7 -78 c-4 -42 -14 -92 -21
-110 -9 -21 -14 -72 -14 -147 0 -175 13 -225 63 -236 15 -3 46 -12 70 -20 23
-8 50 -14 60 -14 15 0 15 -2 2 -11 -12 -8 -11 -9 5 -5 11 3 52 -1 90 -9 126
-28 185 -39 189 -34 5 5 9 424 5 457 -2 12 -7 22 -12 22 -5 0 -6 7 -3 16 4 10
2 13 -6 8 -7 -5 -9 -2 -5 9 3 9 0 18 -9 21 -8 3 -14 11 -14 18 0 9 3 9 11 -2
9 -13 10 -13 6 0 -2 8 -9 14 -14 13 -5 -1 -21 22 -36 50 -33 64 -51 76 -130
83 -37 4 -67 12 -74 22 -7 8 -34 17 -62 20 -41 4 -51 1 -59 -14z m105 -34 c4
-15 16 -18 81 -16 55 1 76 -3 80 -12 3 -11 0 -12 -16 -3 -14 7 -23 8 -27 1 -6
-9 17 -14 53 -13 10 1 12 -7 8 -30 -4 -18 -7 -40 -7 -50 0 -9 -4 -15 -9 -12
-5 3 -12 -4 -15 -15 -5 -16 -10 -18 -20 -10 -9 8 -14 6 -19 -5 -3 -9 -2 -14 3
-11 8 5 26 -23 19 -29 -22 -17 -46 -21 -72 -14 -17 5 -51 10 -76 10 -42 1 -43
2 -15 9 27 7 26 8 -13 7 -28 -1 -47 4 -53 14 -9 15 -5 163 5 189 9 23 87 14
93 -10z m222 -125 c1 -15 -1 -17 -8 -6 -5 7 -13 11 -19 7 -15 -9 -22 7 -11 24
6 10 9 11 9 3 0 -7 5 -13 10 -13 7 0 7 6 0 19 -15 30 -11 39 5 11 8 -14 14
-34 14 -45z m41 -63 c0 -12 -3 -12 -15 -2 -8 7 -15 13 -15 15 0 1 7 2 15 2 8
0 15 -7 15 -15z"/>
<path d="M856 1455 c-19 -14 -18 -15 15 -14 19 1 26 3 16 6 -9 2 -15 9 -12 14
8 12 3 11 -19 -6z"/>
<path d="M705 1449 c-4 -6 -5 -12 -2 -15 2 -3 7 2 10 11 7 17 1 20 -8 4z"/>
<path d="M920 1355 c7 -9 15 -13 17 -11 7 7 -7 26 -19 26 -6 0 -6 -6 2 -15z"/>
<path d="M808 1293 c6 -2 18 -2 25 0 6 3 1 5 -13 5 -14 0 -19 -2 -12 -5z"/>
<path d="M661 1484 c0 -11 3 -14 6 -6 3 7 2 16 -1 19 -3 4 -6 -2 -5 -13z"/>
<path d="M623 1380 c0 -25 2 -35 4 -22 2 12 2 32 0 45 -2 12 -4 2 -4 -23z"/>
<path d="M1595 1411 c-6 -11 9 -23 19 -14 9 9 7 23 -3 23 -6 0 -12 -4 -16 -9z"/>
<path d="M1460 1385 c-8 -9 -8 -15 -2 -15 12 0 26 19 19 26 -2 2 -10 -2 -17
-11z"/>
<path d="M1623 1385 c-5 -9 -23 -17 -41 -19 -17 -3 -37 -8 -44 -12 -7 -5 -17
-9 -23 -10 -5 0 -17 -2 -25 -3 -12 -1 -11 -4 3 -12 13 -8 22 -7 33 1 7 7 14 9
14 4 0 -4 5 -3 12 4 7 7 26 12 43 12 31 0 64 33 45 45 -5 3 -13 -2 -17 -10z"/>
<path d="M1655 1349 c-4 -6 -5 -13 -2 -16 7 -7 27 6 27 18 0 12 -17 12 -25 -2z"/>
<path d="M1687 1344 c-11 -11 3 -24 25 -24 17 0 18 2 8 15 -13 16 -23 19 -33
9z"/>
<path d="M388 1333 c7 -3 16 -2 19 1 4 3 -2 6 -13 5 -11 0 -14 -3 -6 -6z"/>
<path d="M448 1323 c6 -2 18 -2 25 0 6 3 1 5 -13 5 -14 0 -19 -2 -12 -5z"/>
<path d="M610 1315 c0 -8 2 -15 4 -15 2 0 6 7 10 15 3 8 1 15 -4 15 -6 0 -10
-7 -10 -15z"/>
<path d="M1560 1321 c0 -5 9 -13 20 -16 29 -9 13 -28 -19 -21 -17 5 -21 4 -12
-2 11 -8 11 -11 0 -16 -8 -3 -4 -3 9 0 14 3 30 0 40 -8 9 -8 32 -21 50 -28 20
-8 29 -16 22 -20 -8 -5 -7 -9 5 -14 9 -3 13 -11 9 -17 -5 -8 -1 -8 14 0 33 18
39 13 12 -12 -14 -12 -21 -19 -16 -14 15 11 26 9 24 -4 -2 -6 4 -14 12 -16 9
-3 11 -1 5 4 -15 11 -13 35 4 41 8 3 11 0 7 -6 -3 -5 0 -9 7 -8 6 0 12 -3 12
-9 0 -5 -3 -9 -6 -8 -3 1 -6 -5 -6 -13 0 -12 3 -12 17 1 16 14 19 14 34 0 9
-9 16 -21 16 -26 0 -5 4 -9 10 -9 5 0 9 11 8 24 -1 12 -7 23 -13 22 -5 -1 -10
4 -10 9 0 5 4 9 9 7 5 -2 4 3 -3 12 -10 12 -8 16 11 21 13 5 24 3 26 -4 2 -6
8 -11 14 -11 7 0 7 5 -1 13 -6 8 -9 16 -6 19 3 2 -13 5 -35 6 -22 1 -40 -3
-40 -9 0 -5 -5 -7 -10 -4 -6 4 -17 2 -24 -4 -10 -9 -24 -5 -55 12 l-42 24 26
17 c16 10 34 14 50 10 15 -4 25 -2 25 5 0 6 7 11 15 11 10 0 14 -7 12 -22 -2
-13 -2 -17 0 -10 3 8 14 12 26 9 59 -14 87 -18 87 -14 0 9 -90 47 -110 47 -11
0 -23 7 -26 15 -4 8 -11 15 -16 15 -6 0 -5 -7 2 -15 7 -9 11 -18 8 -20 -9 -10
-152 16 -175 31 -13 8 -23 10 -23 5z m92 -45 c26 -3 30 -12 14 -25 -12 -10
-21 -9 -46 4 -31 16 -32 42 -1 29 9 -3 24 -7 33 -8z m53 -84 c-3 -3 -11 0 -18
7 -9 10 -8 11 6 5 10 -3 15 -9 12 -12z m112 7 c-9 -6 -15 -14 -12 -19 3 -5 1
-11 -5 -15 -12 -7 -53 19 -43 28 11 12 25 8 17 -5 -4 -6 3 -4 17 5 13 9 28 17
34 17 5 0 2 -5 -8 -11z"/>
<path d="M290 1311 c0 -5 7 -12 16 -15 24 -9 27 -7 10 9 -17 17 -26 19 -26 6z"/>
<path d="M503 1313 c9 -2 23 -2 30 0 6 3 -1 5 -18 5 -16 0 -22 -2 -12 -5z"/>
<path d="M985 1310 c-3 -5 -2 -10 3 -10 5 0 9 -7 9 -15 0 -20 -7 -19 -23 3
-15 19 -19 5 -5 -17 8 -12 14 -12 33 -4 13 7 18 12 11 12 -7 1 -10 7 -7 15 6
17 -12 31 -21 16z"/>
<path d="M367 1295 c-5 -11 0 -15 16 -15 12 0 18 4 12 8 -5 4 -13 11 -16 15
-4 4 -9 1 -12 -8z"/>
<path d="M1480 1303 c-52 -8 -110 -26 -110 -34 0 -13 13 -11 46 5 16 8 48 16
71 17 23 2 40 6 37 11 -3 4 -8 7 -12 7 -4 -1 -18 -3 -32 -6z"/>
<path d="M1330 1273 c-24 -12 -24 -13 -3 -13 12 0 25 5 28 11 11 16 2 17 -25
2z"/>
<path d="M188 1252 c-30 -19 -56 -88 -39 -105 8 -8 11 -3 11 17 0 19 12 40 35
63 48 48 45 57 -7 25z"/>
<path d="M480 1259 c0 -5 5 -7 10 -4 6 3 10 8 10 11 0 2 -4 4 -10 4 -5 0 -10
-5 -10 -11z"/>
<path d="M561 1244 c0 -11 3 -14 6 -6 3 7 2 16 -1 19 -3 4 -6 -2 -5 -13z"/>
<path d="M580 1238 c0 -19 2 -20 10 -8 13 19 13 30 0 30 -5 0 -10 -10 -10 -22z"/>
<path d="M1303 1235 c-18 -8 -33 -12 -33 -10 0 5 -15 -8 -62 -52 -10 -9 -21
-31 -24 -50 -5 -25 -12 -33 -28 -34 -24 -2 15 -9 209 -39 172 -27 299 -29 340
-7 l30 16 -27 1 c-16 0 -28 -4 -28 -9 0 -14 -60 -6 -100 13 -35 17 -35 17 -5
12 17 -3 24 -3 17 0 -6 3 -9 10 -6 16 4 6 -2 8 -17 4 l-24 -7 24 14 24 15 -21
6 c-12 4 -27 4 -34 -1 -7 -4 -24 -6 -38 -5 -24 2 -23 1 5 -12 37 -18 23 -20
-30 -5 -32 9 -36 13 -21 18 16 6 14 9 -15 23 -19 9 -45 19 -59 23 -24 7 -24 7
-5 -9 11 -8 28 -16 37 -16 9 0 20 -4 23 -10 10 -16 -15 -11 -108 23 -69 26
-85 35 -75 45 14 14 32 16 23 3 -3 -5 -1 -12 4 -16 6 -3 8 3 6 15 -2 11 2 20
8 20 7 1 26 7 42 15 40 18 9 18 -32 0z m53 -102 c71 -25 144 -47 161 -47 18 0
28 -3 22 -7 -7 -4 4 -12 25 -20 20 -7 36 -17 36 -22 0 -5 -7 -7 -15 -3 -8 3
-37 8 -65 12 -50 7 -78 23 -43 25 10 0 3 5 -15 10 -19 6 -39 8 -45 5 -7 -2 -1
-5 12 -5 34 -1 18 -13 -20 -16 -22 -2 -27 0 -18 6 11 7 11 9 -3 9 -9 0 -20 -5
-23 -10 -5 -8 -11 -7 -21 1 -8 6 -24 9 -35 6 -12 -3 -34 0 -49 8 -15 8 -37 11
-48 8 -16 -4 -22 -1 -22 11 0 16 27 76 34 76 2 0 61 -21 132 -47z m204 -23
c-20 -13 -33 -13 -25 0 3 6 14 10 23 10 15 0 15 -2 2 -10z"/>
<path d="M1222 1147 c-8 -9 -3 -12 24 -11 19 1 41 -4 49 -12 7 -8 22 -14 32
-14 11 0 24 -5 29 -10 6 -6 19 -8 29 -4 12 5 -6 15 -66 36 -99 33 -84 31 -97
15z"/>
<path d="M1550 1239 c-12 -8 -10 -9 7 -4 14 4 32 0 45 -9 12 -9 29 -16 38 -16
8 1 -3 10 -24 20 -46 23 -46 23 -66 9z"/>
<path d="M1704 1241 c7 -11 56 -21 56 -11 0 4 -10 10 -22 14 -32 8 -40 7 -34
-3z"/>
<path d="M1019 1223 c-8 -9 -9 -14 -3 -10 17 10 36 -19 30 -45 l-6 -23 11 23
c10 18 9 25 -4 40 -10 10 -14 22 -10 25 3 4 4 7 1 7 -3 0 -12 -8 -19 -17z"/>
<path d="M808 1223 c7 -3 16 -2 19 1 4 3 -2 6 -13 5 -11 0 -14 -3 -6 -6z"/>
<path d="M488 1213 c6 -2 18 -2 25 0 6 3 1 5 -13 5 -14 0 -19 -2 -12 -5z"/>
<path d="M1891 1211 c-10 -6 -1 -11 28 -16 23 -4 45 -4 48 -1 4 3 -3 6 -15 6
-11 0 -24 5 -27 10 -8 12 -16 12 -34 1z"/>
<path d="M568 1203 c6 -2 18 -2 25 0 6 3 1 5 -13 5 -14 0 -19 -2 -12 -5z"/>
<path d="M1127 1203 c-3 -5 -2 -15 2 -22 5 -7 11 -9 14 -4 3 5 2 15 -2 22 -5
7 -11 9 -14 4z"/>
<path d="M220 1184 c0 -8 5 -12 10 -9 6 4 8 11 5 16 -9 14 -15 11 -15 -7z"/>
<path d="M660 1189 c0 -4 35 -7 79 -6 43 1 74 5 67 10 -14 9 -146 6 -146 -4z"/>
<path d="M298 1183 c7 -3 16 -2 19 1 4 3 -2 6 -13 5 -11 0 -14 -3 -6 -6z"/>
<path d="M1160 1186 c0 -2 7 -6 15 -10 8 -3 15 -1 15 4 0 6 -7 10 -15 10 -8 0
-15 -2 -15 -4z"/>
<path d="M1397 1179 c7 -7 15 -10 18 -7 3 3 -2 9 -12 12 -14 6 -15 5 -6 -5z"/>
<path d="M1318 1173 c7 -3 16 -2 19 1 4 3 -2 6 -13 5 -11 0 -14 -3 -6 -6z"/>
<path d="M1884 1159 c-16 -13 -31 -24 -33 -26 -2 -2 -2 -6 2 -9 3 -4 20 5 37
20 31 26 57 35 45 16 -3 -5 -2 -10 4 -10 5 0 13 5 16 10 3 6 13 10 22 10 11 0
6 -9 -16 -30 -30 -30 -46 -65 -16 -38 35 31 45 38 59 38 8 0 18 5 22 12 5 8 2
9 -9 5 -10 -4 -16 -2 -14 6 1 8 -14 13 -44 15 -34 2 -52 -2 -75 -19z"/>
<path d="M555 1160 c-3 -6 1 -7 9 -4 18 7 21 14 7 14 -6 0 -13 -4 -16 -10z"/>
<path d="M720 1159 c0 -5 11 -9 25 -9 14 0 25 2 25 4 0 2 -11 6 -25 8 -14 3
-25 1 -25 -3z"/>
<path d="M1150 1159 c0 -7 -8 -18 -17 -26 -10 -8 -12 -11 -4 -7 7 3 18 0 23
-7 8 -11 9 -10 4 4 -3 9 -2 17 3 17 4 0 8 7 8 15 0 8 -4 15 -9 15 -4 0 -8 -5
-8 -11z"/>
<path d="M1056 1145 c-3 -8 -1 -15 4 -15 6 0 10 7 10 15 0 8 -2 15 -4 15 -2 0
-6 -7 -10 -15z"/>
<path d="M165 1130 c-4 -6 -13 -9 -21 -6 -16 6 -19 -10 -4 -19 6 -3 10 -17 10
-30 0 -13 4 -26 8 -29 4 -2 7 12 6 32 0 20 4 40 10 44 6 4 8 10 4 13 -3 4 -9
1 -13 -5z"/>
<path d="M215 1114 c-32 -32 -59 -124 -35 -124 5 0 14 -19 20 -42 6 -24 22
-67 35 -96 20 -41 34 -57 63 -69 41 -19 158 -21 175 -4 8 8 -9 11 -55 10 -47
-1 -77 5 -109 20 -24 12 -35 18 -24 14 36 -12 78 -6 93 13 13 18 14 18 7 -4
-6 -22 -5 -23 14 -13 24 13 27 31 9 49 -9 9 -8 12 8 13 10 0 13 3 7 6 -7 2
-13 17 -12 31 l0 27 10 -25 c14 -32 22 -113 11 -106 -4 2 -14 1 -22 -5 -11 -6
-9 -9 11 -9 15 0 32 7 39 15 16 19 81 11 128 -16 18 -11 47 -19 64 -19 17 0
28 -3 25 -6 -14 -14 -74 -13 -117 1 -25 9 -33 14 -17 12 15 -3 30 0 33 4 3 5
2 9 -3 10 -4 0 -27 2 -49 4 -39 4 -41 3 -41 -20 0 -20 5 -25 26 -26 34 -1 50
-4 86 -20 17 -6 35 -13 40 -15 6 -1 36 -12 67 -24 32 -11 66 -22 78 -23 11 -1
20 -4 20 -8 0 -3 19 -10 43 -14 23 -4 47 -9 52 -11 13 -5 73 -19 170 -42 44
-10 73 -21 65 -24 -9 -4 -4 -7 12 -7 15 -1 30 4 33 10 4 6 13 8 21 5 8 -3 11
0 7 9 -3 8 -9 12 -15 9 -17 -11 -56 6 -61 26 -3 11 -11 20 -19 19 -10 0 -10
-2 0 -6 6 -2 12 -12 12 -20 0 -11 -5 -13 -17 -7 -10 4 -28 8 -40 8 -13 1 -23
4 -23 9 0 4 -11 7 -24 7 -14 0 -28 5 -31 10 -3 6 -12 10 -18 10 -7 0 -6 -4 3
-11 12 -9 12 -10 -3 -5 -10 3 -21 6 -23 6 -3 0 -3 4 1 9 3 5 -20 13 -50 16
-37 5 -55 12 -55 21 0 8 -4 14 -10 14 -5 0 -10 -4 -10 -10 0 -5 -4 -10 -10
-10 -5 0 -10 10 -10 22 0 21 -1 21 -13 3 -9 -11 -19 -15 -27 -10 -10 6 -9 9 1
17 10 6 7 8 -11 7 -46 -4 -68 1 -73 16 -5 11 2 14 31 13 20 -1 31 -3 24 -6 -6
-2 -12 -8 -12 -13 0 -6 8 -5 20 1 14 8 29 6 57 -5 20 -9 43 -13 50 -11 7 3 17
-2 22 -12 6 -10 25 -17 53 -19 101 -6 116 -8 111 -15 -2 -5 11 -8 29 -9 37 -1
98 -20 98 -31 0 -19 15 -11 18 10 2 12 -1 22 -7 22 -6 0 -11 5 -11 11 0 5 5 7
10 4 6 -3 10 3 10 14 0 10 6 22 13 25 6 4 3 5 -9 2 -19 -3 -20 0 -14 36 10 52
20 61 14 12 -4 -35 -3 -36 6 -14 6 13 18 33 27 42 10 11 12 18 5 18 -7 0 -12
4 -12 9 0 10 14 12 123 14 62 2 76 -1 72 -12 -5 -11 -3 -12 10 -1 13 11 18 11
28 0 8 -9 8 -11 1 -7 -7 4 -14 0 -17 -8 -4 -10 -1 -12 10 -8 13 5 14 3 4 -15
-7 -12 -16 -22 -22 -22 -6 0 -7 5 -3 12 5 7 2 9 -9 5 -9 -3 -18 -1 -20 6 -2 7
-3 4 -2 -5 4 -26 -21 -29 -49 -7 -14 11 -26 16 -26 11 0 -6 6 -13 13 -15 6 -3
2 -6 -9 -6 -12 -1 -24 6 -28 14 -3 8 -10 15 -16 15 -6 0 -4 -7 5 -17 16 -15
16 -17 0 -26 -12 -6 -20 -5 -27 4 -6 10 -7 7 -3 -10 5 -14 3 -21 -3 -17 -6 3
-9 -15 -8 -47 1 -35 -4 -56 -14 -65 -12 -9 -12 -12 -1 -10 7 2 16 -3 19 -11 2
-8 0 -11 -5 -8 -5 3 -10 -1 -10 -9 0 -8 6 -13 12 -10 7 2 18 -4 25 -14 8 -11
18 -16 23 -13 6 3 7 2 4 -4 -4 -6 5 -15 18 -21 14 -7 25 -16 25 -22 0 -5 5
-10 11 -10 5 0 8 4 5 9 -6 10 12 9 29 -1 6 -3 21 -4 35 -3 18 1 24 7 22 20 -2
12 1 15 10 9 7 -4 10 -3 5 1 -4 5 1 17 10 28 10 10 17 21 16 23 -8 12 -1 34 8
28 7 -4 9 0 5 14 -4 11 -2 23 4 27 5 3 10 11 10 16 0 6 -7 3 -17 -6 -15 -16
-17 -15 -29 14 -7 17 -13 34 -13 37 0 3 -9 14 -20 23 -11 10 -18 21 -15 24 3
3 -5 3 -18 1 -21 -5 -22 -4 -4 7 16 10 22 9 33 -7 8 -10 18 -18 23 -17 4 1 13
-4 20 -12 10 -12 14 -12 26 0 18 18 18 31 0 16 -12 -10 -19 -8 -35 8 -11 11
-16 23 -11 26 4 3 16 -2 24 -11 9 -8 16 -11 16 -5 0 20 15 11 32 -17 10 -16
16 -37 14 -48 -2 -10 -1 -13 1 -7 3 10 7 10 17 0 8 -6 11 -17 9 -23 -2 -7 10
-27 27 -46 18 -18 29 -27 25 -20 -11 21 5 13 29 -15 23 -26 70 -34 98 -16 7 4
21 6 31 5 9 -2 17 1 17 7 0 6 7 7 17 4 11 -4 14 -3 9 5 -5 8 -1 10 10 5 13 -5
15 -3 9 8 -4 8 -5 11 0 7 4 -4 17 -1 29 7 11 8 25 15 31 15 5 0 3 -5 -5 -10
-9 -6 -10 -10 -3 -10 21 0 43 12 37 21 -4 8 34 14 59 10 5 -1 6 3 3 8 -3 5 0
11 8 14 15 6 16 31 1 44 -4 4 -5 2 -1 -4 8 -15 -10 -18 -19 -3 -3 5 7 16 22
24 43 23 123 103 122 123 0 11 -3 13 -6 5 -2 -6 -9 -10 -14 -6 -5 3 -5 13 -1
22 5 9 6 28 2 42 -6 21 -8 22 -14 8 -14 -40 -15 -49 -6 -43 6 3 10 2 10 -4 0
-5 -4 -13 -10 -16 -5 -3 -10 -1 -10 5 0 7 -6 8 -19 0 -27 -14 -30 -13 -28 10
1 13 5 16 11 10 18 -18 26 -11 26 22 0 30 -1 31 -16 12 -8 -10 -12 -12 -8 -4
4 9 -2 6 -13 -5 -11 -11 -17 -21 -12 -23 16 -6 -3 -30 -20 -25 -9 2 -23 -3
-30 -11 -12 -14 -10 -16 15 -12 16 2 22 1 14 -1 -8 -3 -20 -12 -26 -21 -6 -8
-28 -15 -51 -16 -23 -1 -39 -3 -37 -5 2 -2 -1 -10 -7 -18 -8 -9 -8 -13 -1 -13
6 0 14 4 17 10 3 6 12 10 18 10 7 0 1 -9 -13 -20 -21 -16 -26 -17 -33 -4 -7
12 -10 12 -23 0 -19 -19 -18 -23 8 -30 22 -6 22 -7 5 -20 -12 -9 -14 -16 -8
-21 6 -3 11 -2 11 4 0 6 17 18 38 27 20 10 56 31 80 46 23 16 47 26 54 22 7
-4 8 -3 4 4 -6 11 31 38 47 34 4 -1 6 1 5 5 -2 5 1 9 7 11 5 2 11 -1 13 -6 6
-18 -140 -130 -161 -124 -5 1 -6 -2 -2 -7 3 -6 13 -8 23 -5 15 5 15 4 -1 -9
-19 -16 -7 -34 15 -21 6 4 8 3 4 -4 -3 -6 -15 -10 -26 -9 -10 1 -16 5 -13 10
3 5 2 8 -3 5 -146 -69 -198 -87 -251 -88 -21 0 -23 5 -23 49 0 35 -4 51 -15
55 -23 8 -32 -24 -12 -39 9 -7 14 -15 10 -18 -18 -18 -35 0 -67 67 -20 43 -51
90 -75 114 -24 23 -37 43 -31 47 5 3 10 1 10 -4 0 -6 5 -11 11 -11 7 0 18 -8
25 -17 13 -16 13 -16 8 -1 -3 9 -17 24 -30 33 -14 9 -22 21 -18 27 4 6 3 8 -4
4 -5 -3 -12 0 -15 6 -3 10 -7 10 -17 1 -9 -8 -7 -13 9 -18 12 -3 19 -10 16
-15 -3 -5 -29 2 -58 15 -91 43 -160 29 -214 -41 -22 -30 -28 -49 -31 -105 -3
-38 -8 -69 -13 -69 -5 0 -9 4 -9 9 0 5 -35 17 -77 26 -89 20 -235 57 -338 87
-105 30 -197 55 -226 62 -22 5 -29 16 -48 74 -37 117 -99 197 -166 212 -31 7
-39 5 -60 -16z m124 -41 c16 -18 20 -28 11 -31 -9 -3 -9 -7 1 -14 11 -8 11 -9
-1 -5 -8 2 -14 10 -12 17 5 20 -19 40 -47 39 -25 -1 -25 -1 3 -8 38 -8 35 -27
-4 -23 -19 2 -36 -4 -49 -17 -17 -17 -21 -18 -21 -5 0 8 -4 12 -10 9 -5 -3
-10 3 -10 14 0 20 14 29 23 14 2 -5 2 -2 0 6 -5 22 29 42 62 36 17 -3 41 -17
54 -32z m-13 -54 c19 -11 34 -25 34 -30 0 -6 5 -7 10 -4 12 8 40 -12 40 -28 0
-6 -6 -3 -13 8 -22 29 -37 11 -25 -29 14 -45 3 -84 -27 -98 -21 -9 -29 -7 -59
15 -40 31 -61 84 -52 132 6 31 27 54 50 55 5 0 24 -9 42 -21z m64 -10 c0 -6
-4 -7 -10 -4 -5 3 -10 11 -10 16 0 6 5 7 10 4 6 -3 10 -11 10 -16z m906 -140
c-22 -5 -45 -14 -53 -20 -7 -6 -13 -8 -13 -4 0 17 37 34 70 34 l35 -1 -39 -9z
m-889 -31 c-3 -8 -6 -5 -6 6 -1 11 2 17 5 13 3 -3 4 -12 1 -19z m980 16 c-3
-3 -12 -4 -19 -1 -8 3 -5 6 6 6 11 1 17 -2 13 -5z m673 -10 c0 -5 -135 -91
-171 -109 -50 -26 -42 -13 13 20 27 17 68 44 91 61 34 26 67 39 67 28z m-586
-50 c9 -3 14 -10 11 -15 -7 -10 -35 0 -35 12 0 11 3 11 24 3z m-87 -60 c13 -8
21 -20 17 -26 -4 -6 -3 -8 4 -4 13 8 26 -10 17 -24 -4 -7 -13 -7 -26 0 -11 6
-16 16 -13 22 4 7 3 8 -4 4 -7 -4 -12 -2 -12 3 0 6 -5 11 -12 11 -6 0 -5 -7 5
-18 13 -14 14 -21 5 -30 -20 -20 -28 -14 -28 21 0 26 -4 33 -20 33 -24 0 -24
0 -2 -22 16 -17 16 -18 -2 -11 -14 6 -17 4 -12 -9 4 -10 -1 -25 -10 -35 -12
-14 -13 -21 -4 -36 11 -17 11 -17 7 2 -6 30 16 46 53 38 22 -4 35 -2 41 8 8
12 11 12 19 -1 7 -11 10 -11 10 -2 0 20 20 4 31 -24 11 -32 -11 -88 -41 -104
-12 -7 -37 -9 -54 -6 -40 8 -101 68 -92 91 3 9 2 14 -3 11 -5 -3 -12 5 -15 19
-8 30 15 89 41 104 22 13 68 7 100 -15z m-487 -18 c0 -3 -4 -8 -10 -11 -5 -3
-10 -1 -10 4 0 6 5 11 10 11 6 0 10 -2 10 -4z m1090 -41 c0 -2 -9 -3 -19 -2
-11 0 -18 5 -15 9 4 6 34 0 34 -7z"/>
<path d="M287 998 c12 -6 24 -17 27 -25 3 -8 1 -11 -4 -8 -6 3 -10 2 -10 -4 0
-17 22 -24 31 -10 7 11 9 9 10 -6 0 -12 3 -15 6 -7 7 17 -45 72 -66 71 -11 0
-9 -4 6 -11z"/>
<path d="M277 973 c-10 -9 -9 -23 2 -23 5 0 11 7 15 15 5 15 -5 20 -17 8z"/>
<path d="M277 934 c-4 -4 -7 -14 -7 -23 0 -11 3 -12 11 -4 6 6 10 16 7 23 -2
6 -7 8 -11 4z"/>
<path d="M1320 618 c0 -19 2 -20 10 -8 13 19 13 30 0 30 -5 0 -10 -10 -10 -22z"/>
<path d="M1351 614 c0 -11 3 -14 6 -6 3 7 2 16 -1 19 -3 4 -6 -2 -5 -13z"/>
<path d="M1320 577 c45 -24 57 -26 57 -11 0 9 -7 12 -18 9 -9 -3 -20 -1 -24 5
-3 5 -14 10 -23 10 -12 0 -9 -4 8 -13z"/>
<path d="M365 1120 c3 -5 11 -10 16 -10 6 0 7 5 4 10 -3 6 -11 10 -16 10 -6 0
-7 -4 -4 -10z"/>
<path d="M770 1126 c0 -2 7 -6 15 -10 8 -3 15 -1 15 4 0 6 -7 10 -15 10 -8 0
-15 -2 -15 -4z"/>
<path d="M928 1123 c6 -2 18 -2 25 0 6 3 1 5 -13 5 -14 0 -19 -2 -12 -5z"/>
<path d="M2014 1103 c-4 -14 -2 -39 4 -55 5 -15 6 -28 1 -28 -14 0 -28 36 -22
58 3 13 1 22 -6 22 -6 0 -14 0 -18 0 -13 0 -11 -24 4 -48 11 -19 12 -26 2 -38
-7 -8 -18 -13 -26 -10 -8 3 -11 1 -8 -4 3 -6 2 -10 -4 -10 -5 0 -13 5 -16 10
-7 11 -65 -18 -65 -33 0 -4 -5 -5 -10 -2 -6 4 -8 11 -5 16 4 5 2 9 -3 9 -17 0
-21 -13 -7 -27 12 -11 18 -11 37 -1 13 7 25 16 28 20 3 4 19 6 35 4 21 -2 34
3 43 16 11 15 17 16 27 8 8 -7 19 -9 24 -5 7 4 8 -1 4 -11 -4 -11 -2 -15 4
-11 6 4 9 -4 6 -21 l-4 -27 14 25 c14 22 13 27 -4 49 -13 17 -16 28 -9 35 5 5
10 15 10 21 0 5 -5 3 -10 -5 -7 -11 -8 -2 -4 28 7 47 -11 60 -22 15z"/>
<path d="M1067 1113 c-4 -3 -7 -11 -7 -17 0 -6 5 -5 12 2 6 6 9 14 7 17 -3 3
-9 2 -12 -2z"/>
<path d="M1896 1089 c-10 -10 -25 -15 -35 -12 -13 5 -14 3 -4 -7 9 -10 10 -17
2 -27 -20 -24 1 -14 33 16 17 16 29 33 27 38 -2 6 -12 2 -23 -8z"/>
<path d="M387 1093 c-4 -3 -7 -11 -7 -17 0 -6 5 -5 12 2 6 6 9 14 7 17 -3 3
-9 2 -12 -2z"/>
<path d="M880 1091 c0 -6 18 -11 40 -11 22 0 40 -4 40 -10 0 -5 5 -10 10 -10
17 0 11 18 -7 24 -52 14 -83 17 -83 7z"/>
<path d="M1780 1089 c0 -6 -8 -8 -19 -4 -11 3 -22 2 -25 -3 -11 -19 31 -19 55
-1 20 15 21 19 7 19 -10 0 -18 -5 -18 -11z"/>
<path d="M561 1065 c1 -19 18 -51 18 -35 0 8 -4 22 -9 30 -5 8 -9 11 -9 5z"/>
<path d="M1036 1059 c3 -5 12 -9 21 -9 19 0 9 13 -12 16 -8 1 -13 -2 -9 -7z"/>
<path d="M1833 1040 c-3 -11 -10 -20 -15 -20 -6 0 -8 7 -4 15 3 9 0 15 -8 15
-9 0 -12 -9 -10 -27 2 -16 1 -22 -2 -15 -3 6 -10 12 -16 12 -6 0 -5 -6 2 -15
11 -13 9 -19 -9 -34 -22 -20 -22 -20 -2 -31 18 -9 20 -8 15 7 -5 16 -4 16 10
-1 12 -16 13 -22 3 -28 -6 -4 -7 -8 -1 -8 14 0 34 21 34 37 0 8 -7 13 -16 11
-26 -5 -27 16 -1 43 23 24 42 59 31 59 -3 0 -8 -9 -11 -20z"/>
<path d="M1916 1048 c5 -14 0 -18 -17 -19 -20 -1 -19 -2 6 -8 40 -10 70 4 53
23 -11 12 -14 12 -16 -1 -3 -12 -6 -11 -18 4 -13 16 -13 16 -8 1z"/>
<path d="M414 1039 c-3 -6 -2 -15 4 -21 6 -6 11 -2 15 11 5 22 -7 29 -19 10z"/>
<path d="M1190 1020 c8 -5 22 -9 30 -9 10 0 8 3 -5 9 -27 12 -43 12 -25 0z"/>
<path d="M1368 1013 c7 -3 16 -2 19 1 4 3 -2 6 -13 5 -11 0 -14 -3 -6 -6z"/>
<path d="M1415 1010 c-3 -5 1 -10 9 -10 19 0 21 -21 4 -38 -7 -7 -9 -12 -4
-12 13 0 35 27 28 35 -4 3 5 4 21 0 39 -10 33 2 -9 20 -43 18 -41 18 -49 5z"/>
<path d="M1480 1017 c0 -3 34 -11 75 -18 66 -10 75 -14 70 -30 -4 -11 -3 -29
1 -41 7 -20 9 -18 15 17 9 55 4 63 -43 63 -23 1 -59 4 -80 7 -21 4 -38 4 -38
2z"/>
<path d="M1715 1010 c-3 -5 1 -10 9 -10 8 0 18 5 21 10 3 6 -1 10 -9 10 -8 0
-18 -4 -21 -10z"/>
<path d="M1360 980 c0 -5 4 -10 9 -10 6 0 13 5 16 10 3 6 -1 10 -9 10 -9 0
-16 -4 -16 -10z"/>
<path d="M440 970 c0 -5 5 -10 11 -10 5 0 7 5 4 10 -3 6 -8 10 -11 10 -2 0 -4
-4 -4 -10z"/>
<path d="M1477 966 l-29 -13 35 -16 c47 -23 71 -21 28 2 l-34 18 26 5 c18 4
27 0 30 -11 3 -10 5 -8 6 7 1 25 -17 28 -62 8z"/>
<path d="M1702 970 c-40 -17 -57 -105 -27 -146 8 -12 11 -25 7 -29 -4 -4 5 -5
21 -3 15 3 30 2 32 -3 3 -4 17 -1 32 6 19 10 27 23 29 45 1 16 -2 30 -7 30 -6
0 -7 5 -4 11 4 6 12 4 20 -8 14 -19 36 -24 46 -10 3 5 22 10 42 12 55 5 77 15
77 33 0 15 2 15 10 2 6 -9 10 -10 10 -3 0 21 -16 22 -33 2 -17 -20 -53 -27
-41 -8 5 10 -30 -5 -78 -31 -15 -8 -18 -6 -18 10 0 11 3 19 8 18 4 -2 18 5 32
15 34 23 13 22 -27 -3 -18 -11 -33 -17 -33 -14 0 4 -6 2 -13 -4 -7 -6 -12 -26
-11 -45 1 -23 -4 -37 -17 -45 -22 -14 -26 0 -4 18 26 21 0 141 -27 124 -5 -3
-7 -9 -4 -12 4 -3 0 -15 -8 -26 -9 -14 -10 -29 -5 -44 9 -25 19 -28 37 -10 15
15 16 3 2 -23 -13 -23 -36 -25 -48 -3 -5 9 -13 15 -18 15 -5 -1 -10 16 -11 36
l-1 38 8 -35 7 -35 2 40 c1 48 22 82 54 88 19 4 19 4 2 5 -11 0 -30 -3 -43 -8z
m48 -60 c0 -11 -7 -20 -15 -20 -13 0 -13 3 -3 20 7 11 14 20 15 20 2 0 3 -9 3
-20z m-6 -45 c-4 -8 -11 -15 -16 -15 -6 0 -5 6 2 15 7 8 14 15 16 15 2 0 1 -7
-2 -15z"/>
<path d="M1287 956 c3 -5 -10 -7 -30 -4 -20 2 -33 0 -30 -5 3 -4 40 -5 84 -1
56 5 79 3 79 -5 0 -6 7 -11 16 -11 29 0 105 -43 130 -74 14 -15 27 -26 31 -23
17 17 -126 117 -167 117 -6 0 -9 4 -6 8 2 4 -22 8 -54 7 -32 0 -56 -4 -53 -9z"/>
<path d="M1563 963 c9 -2 25 -2 35 0 9 3 1 5 -18 5 -19 0 -27 -2 -17 -5z"/>
<path d="M1905 960 c-4 -6 -10 -8 -15 -5 -5 3 -11 1 -15 -5 -3 -5 3 -10 13
-10 11 0 22 7 26 15 6 17 0 20 -9 5z"/>
<path d="M1930 960 c0 -6 6 -10 13 -10 8 0 7 -3 -3 -10 -13 -8 -13 -11 -1 -22
10 -10 12 -10 7 0 -4 6 -2 12 3 12 17 0 13 27 -4 34 -8 3 -15 1 -15 -4z"/>
<path d="M1973 953 c0 -17 5 -16 23 1 12 13 12 15 -4 13 -10 0 -19 -7 -19 -14z"/>
<path d="M686 945 c-11 -8 -15 -15 -10 -15 6 0 19 7 30 15 10 8 15 14 9 14 -5
0 -19 -6 -29 -14z"/>
<path d="M1565 940 c12 -5 14 -9 6 -9 -22 -1 -5 -13 24 -16 14 -2 25 -2 25 0
0 12 -35 35 -53 34 -21 0 -21 -1 -2 -9z"/>
<path d="M1200 930 c0 -6 7 -10 15 -10 8 0 15 2 15 4 0 2 -7 6 -15 10 -8 3
-15 1 -15 -4z"/>
<path d="M1356 922 c-2 -4 3 -8 12 -8 9 -1 26 -4 37 -8 13 -5 11 -2 -5 8 -29
18 -37 19 -44 8z"/>
<path d="M1548 903 c7 -3 16 -2 19 1 4 3 -2 6 -13 5 -11 0 -14 -3 -6 -6z"/>
<path d="M1595 890 c3 -5 8 -10 11 -10 2 0 4 5 4 10 0 6 -5 10 -11 10 -5 0 -7
-4 -4 -10z"/>
<path d="M1629 858 c2 -24 4 -64 5 -90 0 -27 6 -48 11 -48 7 0 7 30 1 90 -5
50 -12 90 -15 90 -3 0 -4 -19 -2 -42z"/>
<path d="M2120 885 c0 -7 30 -13 34 -7 3 4 -4 9 -15 9 -10 1 -19 0 -19 -2z"/>
<path d="M632 866 c7 -8 15 -12 17 -11 5 6 -10 25 -20 25 -5 0 -4 -6 3 -14z"/>
<path d="M1008 873 c7 -3 16 -2 19 1 4 3 -2 6 -13 5 -11 0 -14 -3 -6 -6z"/>
<path d="M1480 875 c0 -2 10 -10 23 -16 20 -11 21 -11 8 4 -13 16 -31 23 -31
12z"/>
<path d="M1146 855 c-3 -9 -6 -22 -5 -28 0 -7 5 -1 10 12 5 13 8 26 5 28 -2 2
-6 -3 -10 -12z"/>
<path d="M714 839 c-3 -6 -2 -15 3 -20 5 -5 9 -1 9 11 0 23 -2 24 -12 9z"/>
<path d="M1805 831 c-6 -11 13 -26 22 -17 4 3 1 6 -6 6 -7 0 -9 5 -6 10 3 6 4
10 1 10 -3 0 -7 -4 -11 -9z"/>
<path d="M1917 833 c-14 -13 -7 -23 16 -22 17 1 18 2 4 6 -9 2 -15 9 -12 14 7
10 1 12 -8 2z"/>
<path d="M748 823 c7 -3 16 -2 19 1 4 3 -2 6 -13 5 -11 0 -14 -3 -6 -6z"/>
<path d="M1270 820 c-12 -8 -10 -9 7 -7 12 2 26 6 29 10 11 11 -19 8 -36 -3z"/>
<path d="M1346 811 c-17 -6 -17 -8 -4 -14 10 -3 19 0 22 9 3 8 4 14 3 13 -1 0
-11 -4 -21 -8z"/>
<path d="M1570 813 c0 -5 5 -15 10 -23 7 -12 9 -10 7 8 -1 19 -17 33 -17 15z"/>
<path d="M793 795 c0 -8 4 -12 9 -9 5 3 6 10 3 15 -9 13 -12 11 -12 -6z"/>
<path d="M1601 798 c0 -9 -4 -25 -7 -35 -5 -14 -4 -15 5 -7 7 7 11 22 8 35 -2
13 -5 16 -6 7z"/>
<path d="M1048 773 c7 -3 16 -2 19 1 4 3 -2 6 -13 5 -11 0 -14 -3 -6 -6z"/>
<path d="M1691 753 c-11 -23 -10 -29 5 -40 24 -18 27 -17 40 11 12 26 2 56
-20 56 -7 0 -18 -12 -25 -27z m38 3 c9 -10 7 -17 -6 -27 -16 -13 -17 -12 -4 4
15 20 2 23 -18 5 -11 -10 -10 -8 0 10 16 26 14 25 28 8z"/>
<path d="M1206 755 c-3 -8 -1 -15 4 -15 6 0 10 7 10 15 0 8 -2 15 -4 15 -2 0
-6 -7 -10 -15z"/>
<path d="M1068 743 c7 -3 16 -2 19 1 4 3 -2 6 -13 5 -11 0 -14 -3 -6 -6z"/>
<path d="M1790 721 c0 -6 -6 -11 -14 -11 -7 0 -27 -7 -42 -15 -16 -8 -39 -15
-51 -15 -13 0 -23 -4 -23 -10 0 -15 27 -12 91 11 58 21 69 32 49 44 -5 3 -10
1 -10 -4z"/>
<path d="M1605 709 c-4 -6 -5 -12 -2 -15 2 -3 7 2 10 11 7 17 1 20 -8 4z"/>
<path d="M950 680 c8 -5 20 -10 25 -10 6 0 3 5 -5 10 -8 5 -19 10 -25 10 -5 0
-3 -5 5 -10z"/>
<path d="M1782 681 c-11 -7 -10 -9 3 -14 11 -5 14 -3 9 5 -5 8 -2 9 10 5 10
-4 15 -3 11 3 -7 12 -16 12 -33 1z"/>
<path d="M1882 674 c-29 -20 -143 -65 -151 -59 -4 2 -13 0 -21 -6 -12 -7 -10
-9 8 -9 26 0 159 53 188 75 26 20 4 19 -24 -1z"/>
<path d="M2006 665 c-3 -9 0 -15 9 -15 9 0 12 6 9 15 -4 8 -7 15 -9 15 -2 0
-5 -7 -9 -15z"/>
<path d="M1021 656 c2 -2 18 -6 34 -10 22 -5 26 -4 15 4 -14 9 -59 15 -49 6z"/>
<path d="M1206 643 c-6 -14 -5 -15 5 -6 7 7 10 15 7 18 -3 3 -9 -2 -12 -12z"/>
<path d="M1530 641 c0 -7 -6 -11 -14 -8 -12 5 -13 -1 -9 -29 5 -30 4 -34 -13
-28 -15 6 -17 4 -7 -6 15 -16 44 -5 37 14 -3 8 0 24 6 36 6 12 9 24 6 28 -3 3
-6 0 -6 -7z"/>
<path d="M1668 643 c6 -2 18 -2 25 0 6 3 1 5 -13 5 -14 0 -19 -2 -12 -5z"/>
<path d="M1850 598 c0 -10 41 -10 57 0 8 5 -1 8 -22 8 -19 0 -35 -4 -35 -8z"/>
<path d="M1821 578 c-13 -4 -19 -13 -15 -19 4 -7 9 -8 13 -1 3 6 22 12 41 14
32 3 33 4 9 9 -14 3 -36 2 -48 -3z"/>
<path d="M1570 575 c0 -2 7 -8 15 -15 12 -10 15 -10 15 2 0 8 -7 15 -15 15 -8
0 -15 -1 -15 -2z"/>
<path d="M1187 562 c-16 -7 -16 -8 2 -24 22 -18 37 -12 20 9 -6 7 -7 13 -3 13
5 0 15 -9 22 -20 7 -12 8 -20 2 -20 -42 0 33 -42 120 -68 81 -24 105 -23 144
3 47 32 82 41 101 25 19 -16 85 -25 85 -12 0 6 18 13 40 17 23 4 40 12 40 20
0 8 7 15 17 17 15 3 15 4 0 16 -14 12 -17 10 -22 -11 -7 -25 -7 -25 -125 -42
-29 -4 -31 -3 -10 4 23 8 22 9 -12 10 -32 1 -38 4 -38 24 -1 20 -2 20 -11 5
-5 -10 -14 -18 -20 -18 -5 0 -27 -13 -50 -29 -24 -18 -47 -27 -57 -24 -13 6
-13 7 -1 11 37 10 59 26 47 34 -7 4 -17 8 -23 8 -5 0 -4 -4 4 -9 10 -6 4 -12
-23 -21 -40 -13 -80 -5 -70 13 5 8 2 8 -7 0 -17 -17 -31 -16 -55 2 -19 15 -19
15 1 9 15 -4 17 -4 6 4 -8 6 -20 8 -28 5 -7 -3 -13 1 -13 9 0 11 -50 50 -62
47 -1 0 -11 -4 -21 -7z m190 -98 c-3 -3 -12 -4 -19 -1 -8 3 -5 6 6 6 11 1 17
-2 13 -5z"/>
<path d="M1935 561 c-3 -5 -1 -12 5 -16 5 -3 10 1 10 9 0 18 -6 21 -15 7z"/>
<path d="M1495 540 c-3 -5 -13 -7 -23 -4 -14 5 -14 3 2 -10 11 -9 25 -16 30
-15 6 0 5 3 -2 6 -10 4 -9 8 5 19 10 7 13 14 6 14 -6 0 -14 -4 -18 -10z"/>
<path d="M1831 473 c0 -10 3 -13 5 -6 3 7 12 9 20 6 8 -3 14 0 14 6 0 6 -9 11
-20 11 -13 0 -20 -6 -19 -17z"/>
<path d="M1288 423 c7 -3 16 -2 19 1 4 3 -2 6 -13 5 -11 0 -14 -3 -6 -6z"/>
</g>
</svg>
