<?xml version="1.0" standalone="no"?>
<!DOCTYPE svg PUBLIC "-//W3C//DTD SVG 20010904//EN"
 "http://www.w3.org/TR/2001/REC-SVG-20010904/DTD/svg10.dtd">
<svg version="1.0" xmlns="http://www.w3.org/2000/svg"
 width="675.000000pt" height="675.000000pt" viewBox="0 0 675.000000 675.000000"
 preserveAspectRatio="xMidYMid meet">
<metadata>
Created by potrace 1.10, written by Peter Selinger 2001-2011
</metadata>
<g transform="translate(0.000000,675.000000) scale(0.100000,-0.100000)"
fill="#000000" stroke="none">
<path d="M4557 4833 c-4 -3 -7 -14 -7 -24 0 -20 3 -20 145 0 61 8 85 4 85 -15
0 -9 11 -14 36 -14 30 0 35 -3 30 -17 -9 -21 10 -33 54 -33 19 0 54 -9 76 -19
30 -13 51 -17 75 -12 l34 7 -25 14 c-14 7 -28 18 -32 25 -4 7 -39 15 -77 19
-56 6 -70 11 -74 26 -3 13 -18 20 -51 25 -25 4 -46 11 -46 16 0 10 -213 12
-223 2z"/>
<path d="M4203 4812 c-71 -1 -123 -7 -123 -12 0 -13 290 -13 310 0 12 8 9 10
-12 10 -14 0 -32 1 -40 3 -7 1 -68 1 -135 -1z"/>
<path d="M3915 4773 c-38 -2 -74 -8 -79 -14 -6 -5 -61 -9 -123 -9 -100 0 -113
-2 -122 -19 -9 -16 -27 -20 -126 -26 -63 -4 -118 -11 -121 -16 -3 -5 -23 -9
-45 -9 -43 0 -83 -16 -75 -29 8 -13 106 -23 119 -13 7 6 30 12 52 15 58 8 137
25 160 36 25 11 233 45 260 42 54 -5 241 1 249 9 19 19 -3 40 -41 38 -21 -1
-69 -4 -108 -5z"/>
<path d="M4725 4690 c-4 -6 7 -10 24 -10 17 0 31 5 31 10 0 6 -11 10 -24 10
-14 0 -28 -4 -31 -10z"/>
<path d="M5090 4690 c0 -11 48 -25 57 -16 9 8 3 12 -29 20 -17 4 -28 2 -28 -4z"/>
<path d="M3065 4650 c-33 -4 -88 -8 -122 -9 -52 -1 -63 -4 -68 -21 -4 -12 -15
-20 -28 -20 -12 0 -40 -7 -62 -15 -22 -8 -64 -14 -92 -15 -36 0 -53 -4 -53
-12 0 -17 246 -18 274 -1 18 10 18 11 -5 23 -23 13 -23 13 -4 21 11 4 55 8 98
8 79 1 153 23 141 42 -3 5 -8 8 -12 8 -4 -1 -34 -5 -67 -9z"/>
<path d="M3170 4650 c0 -5 7 -10 15 -10 8 0 15 5 15 10 0 6 -7 10 -15 10 -8 0
-15 -4 -15 -10z"/>
<path d="M3480 4570 c0 -5 9 -10 20 -10 11 0 20 5 20 10 0 6 -9 10 -20 10 -11
0 -20 -4 -20 -10z"/>
<path d="M5272 4569 c2 -7 10 -15 17 -17 8 -3 12 1 9 9 -2 7 -10 15 -17 17 -8
3 -12 -1 -9 -9z"/>
<path d="M2996 4560 c22 -5 56 -5 75 0 27 6 19 8 -41 8 -65 0 -70 -1 -34 -8z"/>
<path d="M5348 4535 c-4 -20 1 -28 26 -43 23 -14 36 -16 47 -9 25 16 52 1 44
-23 -6 -18 -4 -20 21 -14 22 6 26 4 22 -8 -3 -8 1 -24 11 -35 12 -16 21 -19
39 -12 12 4 22 12 22 17 0 18 -124 118 -173 140 -41 18 -54 15 -59 -13z"/>
<path d="M3110 4535 c0 -23 34 -84 47 -85 6 0 23 4 37 10 44 16 28 50 -24 50
-10 0 -20 9 -23 20 -6 23 -37 27 -37 5z"/>
<path d="M4905 4534 c-38 -7 -90 -13 -115 -13 -25 0 -90 -7 -145 -15 -55 -8
-188 -22 -295 -31 -107 -8 -240 -22 -295 -30 -99 -14 -223 -29 -380 -45 -44
-5 -96 -14 -115 -19 -19 -6 -66 -11 -104 -11 -85 0 -153 -19 -276 -79 -78 -38
-108 -60 -175 -127 -44 -44 -100 -107 -125 -138 -25 -32 -57 -70 -71 -84 -14
-15 -52 -58 -85 -97 -98 -117 -197 -228 -229 -260 -70 -69 -165 -145 -181
-145 -4 0 -28 -13 -53 -29 -26 -15 -58 -32 -72 -36 -13 -4 -27 -12 -30 -16 -3
-5 -29 -17 -58 -28 -29 -10 -57 -23 -64 -30 -6 -6 -18 -11 -27 -11 -9 0 -25
-7 -36 -15 -10 -8 -26 -15 -35 -15 -9 0 -22 -7 -29 -15 -7 -8 -21 -15 -30 -15
-10 0 -31 -6 -47 -14 -15 -8 -44 -21 -63 -30 -37 -16 -175 -82 -200 -95 -8 -5
-35 -18 -60 -30 -61 -29 -75 -38 -148 -94 -73 -56 -142 -122 -142 -137 0 -6
-6 -13 -13 -16 -25 -9 -127 -228 -135 -288 -2 -23 -10 -52 -17 -66 -13 -25
-23 -443 -16 -655 2 -90 2 -90 39 -124 85 -77 120 -101 146 -101 15 0 48 -5
72 -11 47 -12 47 -12 226 28 37 9 79 13 93 9 55 -14 38 -66 -21 -66 -19 0 -42
-4 -52 -9 -68 -34 -96 -41 -143 -35 -40 5 -53 3 -69 -11 -14 -13 -26 -15 -47
-9 -15 4 -47 6 -70 5 -30 -2 -53 4 -77 19 -29 18 -38 19 -55 8 -11 -7 -24 -9
-28 -4 -4 4 0 12 9 17 15 8 16 13 5 29 -14 24 -42 27 -33 5 8 -21 -20 -31 -39
-15 -24 20 -18 40 11 40 22 0 25 2 14 15 -14 17 -50 20 -50 5 0 -15 -17 -12
-23 4 -4 10 -1 13 9 9 25 -9 15 12 -26 58 -22 24 -40 53 -40 64 0 11 -4 26 -9
34 -7 11 -11 6 -16 -21 -4 -19 -6 -41 -5 -49 8 -54 -11 -51 -72 11 -27 27 -53
50 -58 50 -4 0 -13 14 -19 31 -7 21 -15 29 -26 26 -19 -8 -31 11 -16 26 16 16
14 57 -3 57 -8 0 -17 -7 -20 -16 -12 -30 -25 -3 -20 39 5 33 0 57 -21 107 -23
52 -28 83 -30 154 -2 49 1 103 6 120 13 44 0 108 -22 113 -22 6 -25 43 -6 61
7 8 12 41 13 81 1 74 11 104 26 77 11 -19 49 -21 66 -4 20 20 14 25 -26 24
l-37 -1 -5 67 c-3 36 -8 69 -11 72 -13 13 -49 -107 -49 -164 0 -32 -7 -74 -15
-93 -20 -47 -18 -388 2 -457 7 -25 13 -66 13 -92 0 -25 6 -59 14 -75 8 -15 23
-46 33 -68 19 -41 161 -190 197 -206 37 -16 99 -60 159 -112 18 -15 61 -44 97
-65 59 -33 72 -37 140 -37 164 0 249 7 261 21 8 10 35 14 83 14 39 0 89 5 111
11 22 6 67 14 99 18 49 6 60 4 63 -9 2 -8 20 -26 39 -39 19 -13 47 -38 62 -55
32 -36 75 -66 96 -66 8 0 18 -9 21 -20 3 -11 15 -20 26 -20 27 0 24 18 -6 32
-14 6 -25 16 -25 23 0 6 -18 27 -40 48 -22 20 -40 39 -40 42 0 10 -51 54 -70
60 -10 3 -21 12 -24 20 -3 8 -17 15 -31 15 -28 0 -105 64 -105 87 0 8 -9 28
-20 44 -38 52 -54 126 -53 244 0 160 25 265 92 391 42 79 186 242 228 259 7 2
13 9 13 15 0 5 5 10 11 10 7 0 34 14 61 30 26 17 57 30 67 30 11 0 26 7 35 15
8 8 28 15 44 15 15 0 49 7 75 16 53 18 117 15 212 -9 103 -26 155 -45 188 -69
35 -25 64 -44 87 -54 8 -4 50 -34 92 -66 43 -32 82 -58 87 -58 6 0 17 -12 25
-27 8 -16 33 -46 55 -68 22 -22 41 -47 41 -55 0 -8 7 -24 15 -34 8 -11 15 -28
15 -38 0 -20 16 -24 23 -5 3 6 2 33 -1 60 -4 39 -2 47 12 47 9 0 16 7 16 15 0
20 -17 19 -28 -1 -5 -9 -18 -14 -28 -12 -18 3 -20 13 -12 62 2 10 -3 21 -11
24 -10 3 -12 -2 -7 -22 5 -19 3 -26 -8 -26 -19 0 -28 40 -10 47 8 3 14 12 14
20 0 11 -7 14 -25 11 -16 -4 -25 -1 -25 8 0 24 -82 94 -110 94 -34 0 -43 9
-27 28 10 13 8 14 -16 8 -26 -6 -28 -5 -22 14 5 16 2 20 -14 20 -11 0 -35 15
-53 34 -43 44 -67 55 -101 49 -23 -5 -29 -1 -34 16 -4 18 -13 21 -53 21 -37 0
-55 6 -85 30 -45 35 -51 36 -65 10 -10 -18 -21 -20 -105 -20 -56 0 -95 -4 -95
-10 0 -5 -12 -13 -27 -16 -16 -4 -37 -13 -48 -20 -11 -8 -34 -14 -52 -14 -17
0 -36 -6 -40 -13 -11 -18 -59 -47 -78 -47 -8 0 -15 -7 -15 -15 0 -8 -9 -15
-20 -15 -11 0 -27 -11 -36 -25 -11 -17 -25 -25 -45 -25 -25 0 -30 -5 -36 -31
-4 -19 -14 -34 -29 -39 -14 -6 -26 -21 -30 -37 -3 -15 -12 -33 -20 -39 -7 -6
-18 -22 -24 -35 -5 -13 -14 -31 -20 -39 -5 -8 -16 -33 -26 -55 -9 -22 -21 -51
-28 -64 -6 -13 -10 -45 -9 -72 2 -36 -2 -49 -15 -54 -31 -13 -96 -26 -172 -35
-41 -5 -99 -13 -129 -19 -29 -6 -71 -11 -92 -11 -21 0 -39 -5 -42 -12 -2 -7
-2 -53 1 -103 4 -89 20 -135 45 -135 6 0 23 -13 37 -30 30 -35 65 -38 224 -19
98 12 100 12 118 -11 27 -34 17 -45 -38 -45 -27 0 -59 -6 -71 -13 -44 -25
-233 -10 -233 19 0 5 -10 9 -23 9 -41 0 -60 21 -105 115 -23 50 -35 185 -21
240 31 115 33 134 20 159 -19 35 6 239 30 244 12 2 20 -10 29 -42 20 -72 66
-73 129 -1 33 38 53 40 44 4 -5 -17 -2 -20 13 -17 12 2 18 11 17 23 -1 11 5
24 13 28 9 5 13 16 9 28 -4 13 2 27 21 44 31 29 40 31 48 10 8 -21 23 -19 40
8 24 38 29 67 12 67 -25 0 -18 22 19 62 l35 37 -5 78 c-5 67 -10 81 -31 102
-23 21 -29 22 -49 11 -13 -7 -37 -10 -53 -7 -22 5 -34 1 -47 -13 -23 -25 -47
-25 -69 -1 -14 15 -14 19 -3 24 8 3 19 1 25 -5 16 -16 60 -1 67 22 3 11 15 20
25 20 10 0 35 10 56 22 33 20 35 23 19 34 -25 19 -12 47 17 39 13 -4 31 -14
40 -22 10 -9 24 -13 33 -9 19 7 11 26 -11 26 -8 0 -14 7 -14 15 0 10 10 15 29
15 16 0 31 6 35 15 3 8 14 15 25 15 11 0 23 5 26 10 3 6 15 10 25 10 10 0 32
11 48 25 17 14 35 25 40 25 6 0 18 10 26 22 15 21 55 32 166 46 52 7 55 8 52
34 -2 22 2 27 29 33 24 6 34 3 41 -9 11 -20 48 -21 48 -1 0 7 -8 19 -17 24
-15 8 -11 10 18 11 24 0 45 8 63 25 15 14 34 25 43 25 9 0 39 11 67 24 28 14
60 27 70 31 15 4 17 8 8 17 -17 17 -15 28 6 28 10 0 27 10 39 23 11 12 36 35
56 52 20 16 37 34 37 38 0 15 83 107 97 107 7 0 13 -9 13 -19 0 -11 5 -23 10
-26 6 -4 10 5 10 19 0 14 -4 26 -10 26 -19 0 -10 49 11 60 27 15 32 8 18 -24
-14 -30 -9 -39 15 -30 11 4 15 13 11 25 -5 13 -1 19 10 19 25 0 29 -27 6 -51
-12 -13 -21 -27 -21 -32 0 -14 -78 -128 -106 -155 -31 -30 -30 -59 3 -90 l27
-25 116 11 c63 7 126 13 138 14 16 2 28 14 37 36 8 17 19 32 24 32 6 0 24 14
41 30 35 34 45 37 54 14 18 -46 0 -75 -50 -83 -71 -12 -36 -26 62 -26 68 0 98
4 101 13 6 14 59 16 68 2 4 -6 13 -5 25 2 14 9 22 9 33 -1 10 -8 17 -9 22 -1
3 5 19 10 35 10 16 0 33 7 38 16 7 12 29 16 103 17 52 2 99 5 104 8 17 10 68
21 119 25 27 2 60 11 73 20 14 9 34 14 44 11 32 -8 85 11 98 37 10 17 10 33 2
61 -7 27 -7 42 0 52 7 8 8 31 4 62 -5 37 -2 64 12 103 15 43 18 84 18 223 0
94 -4 191 -8 216 -7 41 -12 47 -39 55 -39 11 -47 30 -16 39 13 4 31 14 40 22
12 11 27 13 50 9 36 -8 39 -8 149 0 62 4 79 2 93 -11 24 -24 20 -35 -11 -29
-22 4 -36 -2 -64 -28 -20 -18 -40 -43 -43 -54 -6 -18 -31 -33 -58 -34 -3 0
-11 14 -17 32 -31 88 -34 17 -38 -912 -3 -833 -2 -921 12 -926 9 -4 17 -5 19
-3 2 2 6 402 8 887 5 911 5 910 42 896 8 -3 10 -91 8 -302 -1 -163 0 -312 4
-329 9 -45 56 -73 123 -73 28 0 51 -4 51 -10 0 -5 -25 -10 -55 -10 -58 0 -74
-15 -27 -26 15 -3 35 -8 44 -10 9 -3 25 4 35 14 10 11 35 22 56 26 21 4 37 13
37 21 0 10 21 14 86 17 47 2 88 0 91 -4 2 -5 -1 -8 -6 -8 -6 0 -11 -4 -11 -10
0 -16 94 1 110 20 20 23 50 29 102 20 36 -7 46 -5 65 12 14 13 30 19 43 15 11
-3 44 1 73 9 28 7 64 14 78 14 26 0 62 14 132 51 29 15 54 20 102 18 35 -1 70
2 77 8 7 6 32 14 55 18 30 5 50 16 68 37 28 33 33 83 10 92 -8 3 -15 17 -15
31 0 14 -7 28 -15 31 -8 4 -15 14 -15 23 0 9 -4 21 -9 27 -17 16 -71 123 -71
139 0 9 -7 18 -15 21 -8 4 -15 18 -15 33 0 15 -8 31 -20 39 -11 7 -20 19 -20
27 0 8 -9 19 -19 25 -15 8 -18 16 -12 37 9 38 3 73 -15 73 -8 0 -14 -4 -14 -9
0 -5 -11 -16 -25 -25 -24 -16 -26 -16 -35 8 -5 15 -20 27 -39 31 -40 9 -48 23
-19 35 19 9 17 10 -16 6 -30 -4 -36 -2 -28 6 27 27 13 38 -47 38 -32 0 -75 7
-94 15 -27 11 -55 13 -111 8 -42 -3 -76 -10 -76 -14 0 -5 -31 -9 -70 -9 -40 0
-70 4 -70 10 0 6 25 10 55 10 30 0 72 7 92 14 52 20 433 42 461 27 11 -6 44
-16 73 -22 58 -13 129 -46 129 -60 0 -5 5 -9 11 -9 5 0 38 -29 72 -64 34 -35
70 -66 80 -69 9 -4 17 -13 17 -21 0 -8 18 -29 41 -47 22 -17 45 -41 50 -53 18
-38 36 -67 60 -94 65 -72 82 -115 57 -140 -12 -12 -1 -17 31 -12 17 2 31 -18
31 -48 0 -12 11 -44 24 -70 23 -46 42 -107 66 -207 7 -27 16 -115 20 -195 8
-158 11 -168 49 -220 24 -33 26 -43 29 -176 4 -137 -5 -193 -28 -179 -5 3 -8
73 -7 155 l2 150 -26 10 c-19 8 -38 8 -68 0 -45 -12 -51 -35 -10 -35 13 0 33
-5 43 -11 18 -11 19 -21 14 -145 -6 -146 -18 -195 -44 -185 -10 4 -22 -1 -29
-10 -9 -13 -21 -15 -63 -9 -46 6 -52 10 -52 31 0 13 -5 24 -10 24 -6 0 -16 12
-22 26 -10 22 -9 27 6 36 17 9 17 11 -3 29 -23 21 -38 24 -43 8 -2 -5 -11 -7
-21 -3 -12 4 -16 13 -11 26 10 31 -21 55 -82 63 -59 7 -63 11 -36 32 15 13 13
14 -19 9 -45 -8 -55 2 -25 25 17 14 41 19 83 19 32 1 69 7 83 15 16 9 54 14
102 15 73 0 106 11 72 24 -29 11 -154 6 -191 -8 -21 -8 -91 -17 -158 -19 -66
-3 -112 -3 -102 0 9 2 17 8 17 13 0 13 -42 20 -62 9 -15 -8 -24 -7 -36 4 -9 8
-31 18 -49 22 -17 3 -37 13 -44 21 -15 18 -53 18 -69 -1 -8 -10 -32 -14 -79
-14 -36 0 -90 -6 -120 -15 -34 -9 -61 -12 -75 -6 -13 5 -29 4 -37 -1 -8 -5
-30 -9 -49 -10 -33 -2 -32 -2 9 -8 46 -6 70 -31 31 -31 -12 0 -48 -15 -79 -34
-31 -18 -66 -37 -78 -41 -13 -3 -23 -13 -23 -21 0 -8 -8 -18 -17 -21 -26 -9
-54 -40 -96 -105 -20 -31 -54 -75 -76 -97 -21 -22 -34 -42 -29 -43 12 -4 1
-108 -11 -108 -5 0 -13 10 -19 23 -10 18 -11 6 -9 -66 1 -61 -2 -90 -10 -95
-10 -6 -10 -15 -1 -39 9 -24 9 -38 0 -57 -10 -23 -18 -26 -61 -26 -26 0 -68
-7 -91 -15 -23 -8 -72 -15 -108 -15 -36 0 -91 -6 -121 -14 -57 -14 -159 -29
-331 -46 -52 -5 -114 -14 -137 -20 -23 -5 -68 -10 -100 -10 -32 -1 -76 -7 -98
-15 -22 -8 -76 -15 -122 -15 l-83 0 0 -34 c0 -18 7 -46 15 -62 9 -18 12 -42 8
-69 -3 -24 0 -51 6 -64 l12 -22 26 21 c16 12 41 20 64 20 21 0 50 5 66 11 28
11 84 19 298 43 66 8 133 19 148 25 16 6 57 11 93 11 36 0 81 7 101 15 19 8
56 15 81 15 25 0 73 7 107 15 75 19 256 17 263 -2 2 -7 -2 -15 -10 -17 -122
-35 -285 -61 -302 -47 -10 8 -21 7 -42 -4 -16 -8 -101 -24 -189 -35 -88 -12
-197 -28 -242 -35 -45 -8 -133 -19 -195 -26 -62 -6 -140 -17 -173 -25 -33 -7
-70 -11 -81 -8 -15 4 -23 -1 -32 -21 -16 -34 5 -43 62 -26 23 7 86 16 141 21
55 6 111 13 125 16 14 4 54 10 90 14 36 5 83 13 105 19 22 6 72 11 111 11 51
0 75 4 84 15 9 11 33 15 87 15 43 0 88 6 106 14 18 8 74 17 125 19 52 3 100
11 108 18 15 12 95 14 147 3 18 -4 27 -12 27 -25 0 -17 -6 -20 -44 -18 -28 2
-53 -4 -69 -14 -17 -11 -36 -15 -56 -11 -34 7 -107 -4 -96 -14 6 -6 -124 -26
-345 -53 -47 -5 -98 -14 -115 -19 -16 -5 -51 -12 -77 -16 -27 -3 -48 -10 -48
-14 0 -4 -51 -11 -112 -15 -62 -4 -118 -12 -125 -17 -7 -5 -29 -7 -50 -4 -28
5 -49 1 -78 -14 -21 -11 -48 -20 -60 -20 -31 0 -65 -11 -65 -21 0 -16 49 -21
102 -9 83 18 236 41 313 47 39 3 75 9 80 13 6 5 57 14 115 20 58 6 114 16 125
20 11 5 45 11 75 13 75 6 224 26 285 38 28 5 59 11 70 14 11 2 73 12 138 21
115 18 118 18 131 -2 34 -48 171 -164 194 -164 5 0 15 -7 22 -15 7 -8 20 -15
30 -15 10 0 20 -7 24 -15 3 -8 13 -15 23 -15 10 0 27 -7 37 -15 11 -8 26 -15
33 -15 19 0 16 20 -4 27 -10 4 -33 22 -52 40 -19 18 -40 33 -48 33 -7 0 -13 9
-13 20 0 13 -7 20 -18 20 -20 0 -57 55 -47 70 3 6 -1 10 -9 10 -8 0 -20 9 -26
20 -6 11 -17 20 -25 20 -19 0 -55 31 -55 47 0 7 -6 13 -14 13 -8 0 -18 9 -21
20 -8 25 -21 25 -35 0 -6 -11 -17 -20 -24 -20 -31 0 -81 110 -97 215 -5 33
-13 85 -18 115 -5 31 -5 60 0 66 5 6 11 37 15 70 3 32 11 73 19 89 18 43 36
96 42 125 3 14 18 42 34 62 16 20 29 40 29 45 0 11 139 151 180 182 18 14 51
33 74 44 23 10 53 25 68 33 14 8 34 14 45 14 10 0 27 7 37 15 28 21 222 21
262 0 16 -8 41 -15 55 -15 15 0 32 -7 39 -15 7 -8 21 -15 30 -15 18 0 127 -53
185 -91 17 -10 37 -22 45 -26 33 -15 147 -129 156 -155 3 -10 10 -18 15 -18 5
0 9 -7 9 -15 0 -8 9 -22 19 -32 11 -10 21 -28 23 -41 1 -12 8 -21 13 -20 10 3
11 20 4 48 -3 12 10 16 69 18 71 3 72 3 72 -22 0 -15 -9 -31 -20 -38 -21 -14
-28 -58 -9 -58 13 0 7 -109 -6 -130 -14 -22 -35 11 -35 54 0 31 -6 48 -23 64
-13 12 -26 22 -30 22 -12 0 -8 -50 9 -101 12 -35 15 -70 11 -115 -5 -71 4 -86
35 -57 65 57 108 167 108 274 0 64 3 79 21 95 11 10 30 37 42 59 18 36 21 62
25 238 2 126 0 197 -6 197 -6 0 -19 16 -31 36 -17 29 -21 52 -21 129 0 57 -6
110 -14 132 -8 21 -17 67 -19 102 -3 35 -10 68 -16 74 -6 6 -11 26 -11 45 0
19 -6 46 -14 60 -16 32 -36 87 -44 122 -3 14 -18 46 -34 71 -15 25 -28 49 -28
52 0 6 -54 90 -72 112 -5 6 -39 51 -76 101 -70 94 -127 156 -176 189 -60 41
-82 55 -103 66 -13 7 -23 16 -23 21 0 4 -8 8 -17 8 -9 0 -24 6 -32 14 -22 18
-108 46 -145 46 -17 0 -56 7 -86 15 -64 17 -81 17 -175 -1z m-507 -146 c-6
-17 -68 -32 -80 -20 -18 18 2 32 43 32 27 0 39 -4 37 -12z m-658 -58 c0 -5 -9
-15 -20 -22 -11 -7 -20 -18 -20 -24 0 -17 -25 -24 -85 -24 -35 0 -57 -5 -65
-15 -10 -12 -31 -15 -91 -13 -44 2 -79 4 -79 6 0 29 63 76 90 67 26 -8 25 -21
-2 -30 -20 -6 -21 -8 -5 -12 10 -3 23 0 30 5 7 5 27 13 45 17 25 5 31 10 22
20 -8 9 -6 14 6 19 29 11 75 6 80 -9 8 -21 27 -19 42 5 12 20 52 28 52 10z
m130 -5 c0 -8 -13 -21 -30 -30 -53 -27 -91 -15 -71 23 12 23 101 30 101 7z
m1044 0 c11 -8 28 -15 38 -15 32 0 99 -42 158 -99 32 -31 81 -77 109 -103 47
-44 63 -68 43 -68 -18 0 -82 -74 -82 -94 0 -12 -7 -34 -15 -50 -8 -15 -15 -38
-15 -50 -1 -11 -7 -32 -15 -46 -8 -14 -14 -34 -15 -44 0 -11 -9 -39 -21 -63
-18 -38 -25 -43 -55 -43 -39 0 -32 1 -104 -16 -30 -7 -83 -13 -117 -14 -34 0
-88 -7 -120 -15 -31 -8 -87 -15 -124 -15 -37 0 -80 -5 -96 -11 -15 -6 -68 -15
-118 -19 -49 -5 -109 -15 -133 -21 -77 -24 -76 -32 -73 363 2 408 -8 378 130
378 47 0 108 7 135 15 27 8 81 15 120 15 39 0 94 7 121 14 69 20 224 20 249 1z
m-1654 -74 c0 -17 -18 -21 -24 -6 -3 9 0 15 9 15 8 0 15 -4 15 -9z m90 -6 c10
-12 10 -15 -4 -15 -9 0 -16 7 -16 15 0 8 2 15 4 15 2 0 9 -7 16 -15z m568
-192 c-3 -166 -4 -178 -23 -188 -33 -17 -65 -49 -65 -65 0 -8 -7 -28 -15 -44
-8 -15 -15 -40 -15 -55 0 -14 -7 -35 -15 -45 -8 -11 -15 -38 -15 -59 0 -38 -1
-39 -30 -34 -16 4 -32 2 -35 -4 -4 -5 -15 -7 -26 -4 -13 5 -19 2 -19 -10 0
-12 6 -15 20 -10 26 8 58 -14 38 -26 -7 -5 -25 -9 -39 -9 -15 0 -32 -7 -39
-15 -16 -19 -130 -18 -137 1 -3 7 12 33 32 57 33 39 41 44 81 45 25 0 51 6 60
12 11 10 18 9 34 -5 11 -10 20 -13 20 -7 0 6 -4 14 -10 17 -5 3 -10 14 -10 24
0 10 -13 37 -30 59 -34 47 -37 64 -15 82 8 7 15 18 15 25 0 8 5 15 11 17 19 6
42 80 46 149 5 77 -14 129 -60 163 -44 33 -177 36 -241 5 -56 -26 -70 -53 -61
-119 5 -40 3 -48 -25 -78 -32 -35 -39 -66 -16 -75 8 -3 16 -31 20 -76 8 -77 6
-76 79 -72 35 3 37 1 37 -27 0 -16 -7 -35 -15 -42 -8 -7 -15 -18 -15 -25 0 -7
-7 -18 -15 -25 -8 -7 -15 -20 -15 -30 0 -10 -7 -23 -15 -30 -8 -7 -15 -22 -15
-35 0 -12 -9 -30 -20 -40 -20 -18 -23 -18 -68 -2 -26 9 -57 14 -68 11 -12 -3
-25 -1 -28 5 -12 19 -26 12 -26 -13 0 -50 -59 -76 -80 -36 -14 26 -3 45 16 29
11 -9 19 -6 39 15 30 32 31 44 6 74 -23 26 -30 27 -46 6 -12 -16 -16 -12 -131
129 -17 21 -28 22 -48 1 -25 -25 -19 -46 24 -84 22 -19 40 -39 40 -44 0 -16
-103 -106 -120 -106 -9 0 -36 27 -60 60 -24 33 -47 60 -52 60 -20 0 -5 46 25
75 17 17 50 53 72 80 84 101 112 135 170 206 77 93 192 209 208 209 7 0 19 6
25 12 19 19 106 39 217 49 55 5 118 12 140 14 47 6 226 21 273 24 l32 1 -2
-177z m-754 112 c-4 -8 -10 -15 -15 -15 -5 0 -9 7 -9 15 0 8 7 15 15 15 9 0
12 -6 9 -15z m-34 -40 c0 -8 -4 -15 -10 -15 -5 0 -10 7 -10 15 0 8 5 15 10 15
6 0 10 -7 10 -15z m-44 -9 c8 -8 14 -19 14 -25 0 -16 -17 -13 -24 4 -3 8 -13
15 -21 15 -9 0 -13 5 -10 10 9 14 24 12 41 -4z m474 -47 c0 -15 5 -19 19 -14
38 12 52 -4 45 -50 -4 -27 -2 -45 5 -49 6 -4 11 -18 11 -32 0 -20 -4 -24 -18
-19 -11 3 -29 -3 -45 -15 -14 -11 -28 -20 -31 -20 -3 0 -6 30 -6 66 0 57 -3
67 -20 71 -28 7 -25 22 6 34 25 9 26 10 10 28 -13 15 -14 20 -4 24 19 6 28 -1
28 -24z m-495 -10 c4 -6 5 -12 2 -15 -7 -7 -37 7 -37 17 0 13 27 11 35 -2z
m-50 -28 c7 -12 -12 -24 -25 -16 -11 7 -4 25 10 25 5 0 11 -4 15 -9z m464 -55
c8 -9 15 -49 17 -90 4 -59 2 -75 -11 -80 -28 -10 -15 -33 28 -50 23 -9 54 -16
68 -16 38 0 42 -10 13 -37 -36 -33 -78 -31 -105 7 -12 16 -35 32 -52 36 -27 6
-29 8 -23 43 4 29 1 40 -15 54 -27 24 -22 63 8 60 27 -3 38 25 18 47 -18 20
-19 32 -3 48 12 12 36 3 57 -22z m-519 14 c0 -5 -7 -10 -15 -10 -8 0 -15 5
-15 10 0 6 7 10 15 10 8 0 15 -4 15 -10z m2335 -19 c3 -5 6 -65 8 -132 l2
-123 -28 -10 c-20 -7 -30 -7 -35 1 -9 14 2 246 12 261 9 14 33 16 41 3z
m-2302 -8 c-7 -2 -13 -11 -13 -19 0 -8 -4 -14 -10 -14 -5 0 -10 6 -10 14 0 14
15 24 35 24 6 0 4 -2 -2 -5z m-77 -28 c-3 -9 -11 -13 -16 -10 -8 5 -7 11 1 21
14 18 24 11 15 -11z m-46 -44 c-14 -27 -13 -31 10 -31 13 0 18 -5 13 -15 -3
-9 -13 -15 -22 -13 -9 1 -22 -1 -29 -6 -8 -5 -18 -3 -25 4 -9 9 -7 16 11 30
12 10 22 25 22 34 0 9 7 16 15 16 12 0 13 -4 5 -19z m-49 -109 c11 -29 4 -41
-13 -24 -7 7 -16 12 -20 12 -13 0 -9 -28 4 -32 15 -5 1 -28 -18 -28 -8 0 -14
7 -14 15 0 7 -7 18 -16 23 -20 11 -10 34 11 25 11 -4 15 2 15 20 0 21 4 24 21
20 11 -3 25 -17 30 -31z m2547 5 c2 -19 -1 -27 -12 -27 -11 0 -16 10 -16 31 0
38 24 35 28 -4z m-1728 -129 c17 -12 30 -25 30 -30 0 -4 -29 -8 -65 -8 -61 0
-65 -1 -92 -35 -29 -36 -43 -44 -43 -23 0 24 45 78 66 78 11 0 29 9 39 20 23
25 29 25 65 -2z m-182 -179 c-39 -25 -50 2 -15 39 l22 24 3 -27 c2 -16 -2 -32
-10 -36z m-738 -22 c0 -19 -37 -50 -49 -42 -7 4 -5 14 5 31 18 26 44 33 44 11z
m-1202 -691 c2 -31 -2 -56 -12 -72 -9 -13 -16 -30 -16 -39 0 -9 -7 -18 -15
-21 -8 -4 -15 -13 -15 -21 0 -8 -49 -64 -109 -125 -91 -92 -112 -109 -131
-103 -15 5 -19 12 -14 23 4 10 11 50 15 90 5 40 14 82 19 92 6 10 10 28 10 40
0 11 7 23 15 26 8 4 15 13 15 20 0 20 88 104 109 104 9 0 26 6 37 14 19 14 60
25 79 21 6 -1 11 -23 13 -49z m-238 29 c0 -8 -7 -15 -15 -15 -16 0 -20 12 -8
23 11 12 23 8 23 -8z m4680 -101 c0 -12 -7 -24 -15 -28 -17 -6 -18 -2 -9 44 7
34 24 23 24 -16z m-4783 -228 c-4 -9 -11 -16 -17 -16 -11 0 -14 53 -3 64 11
10 27 -30 20 -48z m3107 -253 c-22 -16 -56 -14 -62 5 -5 18 39 32 62 20 19
-10 19 -11 0 -25z m-124 -2 c0 -28 24 -43 55 -35 35 9 31 -11 -7 -34 -24 -14
-36 -15 -97 -4 -74 12 -101 9 -101 -14 0 -21 -38 -26 -125 -16 -86 10 -131 10
-142 -1 -3 -4 14 -7 38 -8 24 -1 55 -4 69 -9 l25 -7 -25 -6 c-14 -4 -52 -8
-85 -11 -159 -11 -335 -27 -385 -35 -30 -5 -57 -7 -60 -4 -10 9 43 43 69 44
19 1 16 3 -14 9 -29 6 -44 4 -56 -6 -18 -16 -86 -19 -109 -4 -21 13 -2 29 46
41 51 11 207 12 220 0 15 -15 106 -18 111 -3 3 8 -6 12 -26 12 -16 0 -33 5
-36 10 -3 6 4 10 17 10 13 0 32 6 43 14 23 15 101 16 98 1 -1 -5 -17 -13 -35
-16 -32 -6 -31 -6 10 -8 31 -1 42 3 42 14 0 12 11 14 58 9 61 -7 136 8 158 31
14 13 107 30 151 27 12 -1 25 3 28 8 3 6 19 10 36 10 22 0 29 -5 29 -19z m170
-16 c0 -8 -4 -15 -10 -15 -5 0 -10 7 -10 15 0 8 5 15 10 15 6 0 10 -7 10 -15z
m-1102 -187 c-6 -18 -22 -20 -43 -3 -19 14 -18 14 13 15 22 0 32 -4 30 -12z
m-1683 -28 c-3 -5 -13 -10 -21 -10 -8 0 -14 5 -14 10 0 6 9 10 21 10 11 0 17
-4 14 -10z m-135 -13 c8 0 23 3 33 8 14 6 17 2 17 -19 0 -21 -5 -26 -25 -26
-20 0 -25 -5 -25 -25 0 -14 5 -25 10 -25 6 0 10 4 10 9 0 9 71 61 83 61 4 0 7
-16 7 -35 0 -24 6 -37 20 -45 24 -13 26 -43 4 -61 -13 -10 -17 -10 -25 2 -5 8
-9 21 -9 29 0 30 -19 -6 -22 -44 -4 -47 -28 -67 -57 -49 -15 10 -25 9 -48 -1
-46 -23 -90 -10 -119 35 -15 24 -32 39 -44 39 -29 0 -28 55 0 63 16 4 19 11
15 29 -5 21 0 27 42 45 33 15 59 20 83 16 19 -3 42 -6 50 -6z"/>
<path d="M3582 4298 c7 -19 38 -22 38 -4 0 10 -9 16 -21 16 -12 0 -19 -5 -17
-12z"/>
<path d="M3082 3728 c6 -18 28 -21 28 -4 0 9 -7 16 -16 16 -9 0 -14 -5 -12
-12z"/>
<path d="M3557 3944 c-9 -10 2 -24 19 -24 8 0 14 7 14 15 0 15 -21 21 -33 9z"/>
<path d="M1310 1925 c0 -10 7 -15 18 -13 21 4 19 22 -2 26 -10 2 -16 -3 -16
-13z"/>
<path d="M5040 4415 c0 -9 9 -15 25 -15 13 0 28 -8 34 -17 6 -12 21 -17 46
-16 20 1 39 3 42 6 12 13 -11 27 -43 27 -20 0 -42 7 -50 15 -9 8 -24 15 -35
15 -10 0 -19 -7 -19 -15z"/>
<path d="M5280 4368 c0 -19 2 -20 10 -8 13 19 13 30 0 30 -5 0 -10 -10 -10
-22z"/>
<path d="M5608 4385 c-15 -16 7 -58 38 -71 41 -17 44 -17 44 0 0 8 -16 28 -35
45 -38 33 -39 34 -47 26z"/>
<path d="M4095 4331 c-3 -5 -1 -12 5 -16 14 -9 52 4 45 16 -8 12 -42 12 -50 0z"/>
<path d="M5690 4277 c0 -7 4 -17 9 -22 8 -9 53 -89 89 -158 11 -22 17 -26 28
-16 11 9 14 7 14 -15 0 -14 5 -26 10 -26 6 0 15 -11 20 -25 5 -14 14 -25 19
-25 6 0 18 -27 27 -60 17 -60 37 -77 49 -41 5 17 -26 97 -44 111 -3 3 -16 26
-29 53 -13 26 -27 47 -32 47 -5 0 -23 24 -40 53 -52 87 -91 137 -106 137 -8 0
-14 -6 -14 -13z"/>
<path d="M2900 4200 c0 -5 7 -10 15 -10 8 0 15 5 15 10 0 6 -7 10 -15 10 -8 0
-15 -4 -15 -10z"/>
<path d="M5526 4133 c-8 -19 1 -33 20 -33 18 0 18 36 0 43 -8 3 -17 -1 -20
-10z"/>
<path d="M2777 4093 c-13 -12 -7 -23 13 -23 11 0 20 7 20 15 0 15 -21 21 -33
8z"/>
<path d="M5574 4089 c-8 -13 25 -24 37 -12 7 7 3 12 -10 16 -12 3 -24 1 -27
-4z"/>
<path d="M5392 4059 c2 -6 8 -10 13 -10 5 0 11 4 13 10 2 6 -4 11 -13 11 -9 0
-15 -5 -13 -11z"/>
<path d="M2730 3998 c0 -7 -9 -19 -20 -26 -11 -7 -20 -19 -20 -27 0 -20 26
-19 34 0 3 8 15 15 26 15 16 0 21 5 18 22 -3 24 -38 39 -38 16z"/>
<path d="M5533 3997 c5 -15 37 -22 37 -9 0 5 -9 12 -21 15 -13 3 -19 1 -16 -6z"/>
<path d="M2634 3885 c-9 -23 -21 -35 -34 -35 -25 0 -26 -15 -3 -25 13 -4 29 5
55 34 43 45 47 61 17 61 -13 0 -25 -11 -35 -35z"/>
<path d="M5960 3833 c0 -21 11 -60 25 -88 13 -27 25 -57 25 -65 0 -8 12 -49
25 -90 16 -47 25 -97 25 -137 0 -34 7 -83 16 -109 9 -26 13 -61 10 -78 -4 -22
1 -42 19 -70 18 -29 21 -44 14 -57 -6 -12 -6 -34 0 -61 6 -24 10 -88 10 -143
0 -55 0 -132 1 -171 0 -66 -1 -71 -24 -82 -14 -6 -28 -22 -30 -34 -3 -13 -13
-65 -23 -116 -13 -69 -21 -91 -31 -87 -10 4 -12 -2 -7 -24 5 -23 1 -35 -15
-51 -24 -24 -52 -84 -44 -93 3 -3 3 -15 -1 -26 -5 -16 -12 -20 -28 -16 -29 8
-103 -55 -94 -79 9 -22 39 -20 70 4 14 11 29 20 34 20 28 1 143 209 143 260 0
32 38 158 50 165 6 3 10 17 10 30 0 12 6 25 13 28 8 3 13 34 15 96 1 50 7 102
12 117 14 37 12 97 -6 166 -9 36 -13 76 -9 98 5 27 2 42 -9 53 -12 11 -16 36
-16 92 0 42 -4 84 -10 94 -5 10 -14 49 -20 87 -6 38 -15 73 -21 79 -5 5 -9 27
-9 50 0 22 -6 49 -14 60 -7 11 -16 34 -20 50 -4 17 -14 38 -23 47 -8 9 -17 35
-20 58 -4 25 -13 44 -24 51 -17 9 -19 6 -19 -28z"/>
<path d="M2552 3803 c2 -10 11 -19 21 -21 16 -3 17 -1 7 17 -13 25 -33 28 -28
4z"/>
<path d="M5750 3795 c0 -17 5 -25 13 -22 6 2 12 12 12 22 0 10 -6 20 -12 23
-8 2 -13 -6 -13 -23z"/>
<path d="M2507 3757 c-7 -19 8 -41 22 -33 16 10 14 46 -3 46 -8 0 -16 -6 -19
-13z"/>
<path d="M2474 3694 c3 -8 6 -18 6 -20 0 -2 5 -4 10 -4 16 0 11 27 -6 34 -12
5 -15 2 -10 -10z"/>
<path d="M5769 3674 c-26 -32 -40 -90 -46 -186 -5 -94 -5 -98 18 -117 27 -23
53 -26 98 -10 35 12 37 22 16 72 -8 20 -15 51 -15 69 0 19 -6 43 -14 54 -8 11
-16 45 -18 74 -3 57 -16 71 -39 44z"/>
<path d="M2368 3606 c-38 -36 -68 -67 -68 -70 0 -3 11 -6 24 -6 23 0 32 9 104
93 22 27 28 47 15 47 -5 0 -38 -29 -75 -64z"/>
<path d="M1545 3540 c-3 -5 1 -10 9 -10 8 0 18 5 21 10 3 6 -1 10 -9 10 -8 0
-18 -4 -21 -10z"/>
<path d="M4977 3534 c-9 -10 2 -24 19 -24 8 0 14 7 14 15 0 15 -21 21 -33 9z"/>
<path d="M2182 3473 c2 -11 14 -19 31 -21 29 -4 35 6 15 26 -19 19 -50 15 -46
-5z"/>
<path d="M4415 3450 c3 -5 12 -10 20 -10 8 0 17 5 20 10 4 6 -5 10 -20 10 -15
0 -24 -4 -20 -10z"/>
<path d="M2103 3425 c-12 -8 -44 -26 -72 -40 -50 -26 -72 -45 -51 -45 7 0 33
11 59 24 25 13 59 29 75 37 32 15 46 39 24 39 -7 0 -23 -7 -35 -15z"/>
<path d="M4501 3426 c11 -9 69 -14 69 -6 0 6 -16 10 -37 10 -20 0 -34 -2 -32
-4z"/>
<path d="M1197 3413 c-12 -11 -8 -43 6 -43 7 0 23 7 36 16 18 13 20 18 10 25
-17 10 -43 12 -52 2z"/>
<path d="M4190 3395 c0 -8 7 -15 15 -15 8 0 15 7 15 15 0 8 -7 15 -15 15 -8 0
-15 -7 -15 -15z"/>
<path d="M4312 3401 c-11 -7 -11 -9 2 -14 20 -8 48 2 40 14 -7 11 -25 11 -42
0z"/>
<path d="M1082 3358 c7 -19 50 -21 73 -4 19 14 17 15 -28 16 -35 0 -47 -4 -45
-12z"/>
<path d="M956 3294 c-10 -25 4 -36 37 -28 67 14 71 44 7 44 -25 0 -40 -5 -44
-16z"/>
<path d="M1796 3291 c-10 -11 -13 -22 -8 -25 15 -9 36 1 50 24 10 17 10 20 -6
20 -11 0 -27 -9 -36 -19z"/>
<path d="M2362 3293 c5 -25 28 -28 28 -4 0 12 -6 21 -16 21 -9 0 -14 -7 -12
-17z"/>
<path d="M1716 3245 c-8 -8 -25 -19 -38 -24 l-23 -10 22 0 c26 -1 93 29 93 41
0 14 -38 9 -54 -7z"/>
<path d="M2310 3226 c0 -9 8 -20 18 -23 9 -4 20 -11 23 -16 4 -5 15 -7 25 -5
18 5 18 5 -1 13 -11 4 -30 17 -42 28 -20 18 -23 19 -23 3z"/>
<path d="M1580 3179 c-25 -12 -58 -27 -73 -35 -16 -8 -37 -14 -48 -14 -10 0
-19 -5 -19 -11 0 -18 87 -2 116 20 14 11 41 25 60 31 19 6 34 16 34 21 0 14
-21 11 -70 -12z"/>
<path d="M2137 3163 c-25 -6 -11 -23 19 -23 15 0 24 5 22 12 -5 14 -17 17 -41
11z"/>
<path d="M5270 3119 c0 -24 23 -21 28 4 2 10 -3 17 -12 17 -10 0 -16 -9 -16
-21z"/>
<path d="M722 3119 c2 -6 8 -10 13 -10 5 0 11 4 13 10 2 6 -4 11 -13 11 -9 0
-15 -5 -13 -11z"/>
<path d="M1380 3085 c-7 -8 -18 -15 -25 -15 -13 0 -77 -30 -85 -40 -3 -3 -22
-16 -42 -29 -21 -12 -38 -27 -38 -33 0 -6 -17 -27 -38 -47 -21 -20 -43 -47
-50 -61 -7 -14 -27 -45 -46 -70 -19 -25 -35 -50 -35 -57 -1 -6 -17 -32 -36
-57 -22 -29 -35 -57 -35 -76 0 -37 27 -52 43 -24 6 10 23 30 39 44 25 23 27
28 14 39 -13 11 -11 19 10 62 14 27 31 49 39 49 8 0 26 22 40 49 13 27 33 52
44 56 10 3 31 25 46 48 26 41 113 107 141 107 8 0 14 5 14 10 0 6 11 16 25 22
14 6 25 17 25 25 0 18 -35 17 -50 -2z"/>
<path d="M680 3034 c-6 -14 -10 -29 -10 -33 0 -4 -11 -18 -25 -31 -14 -13 -25
-32 -25 -42 0 -10 -7 -21 -15 -24 -22 -9 -19 -66 4 -81 11 -7 21 -23 23 -35 3
-19 9 -12 33 35 25 50 28 60 17 78 -11 17 -10 26 7 55 22 37 29 104 11 104 -6
0 -15 -12 -20 -26z"/>
<path d="M4610 3020 c0 -20 1 -20 28 -3 15 9 29 18 31 20 2 2 -10 3 -27 3 -25
0 -32 -4 -32 -20z"/>
<path d="M5810 2981 c0 -22 16 -36 24 -22 8 12 -3 41 -15 41 -5 0 -9 -9 -9
-19z"/>
<path d="M4857 2861 c4 -18 41 -36 52 -26 7 7 -31 45 -45 45 -7 0 -10 -8 -7
-19z"/>
<path d="M1610 2855 c0 -8 5 -15 10 -15 6 0 10 7 10 15 0 8 -4 15 -10 15 -5 0
-10 -7 -10 -15z"/>
<path d="M4820 2827 c0 -13 39 -41 47 -34 2 3 -2 14 -9 26 -14 23 -38 28 -38
8z"/>
<path d="M5200 2823 c-203 -71 -335 -184 -419 -362 -12 -24 -21 -49 -21 -55 0
-7 -7 -21 -15 -32 -8 -10 -15 -32 -15 -47 0 -16 -7 -51 -16 -78 -19 -56 -15
-202 5 -222 6 -6 11 -26 11 -44 0 -36 27 -98 66 -150 13 -17 24 -35 24 -40 0
-15 70 -81 124 -117 35 -23 70 -37 105 -42 28 -4 54 -11 57 -15 23 -37 273 37
376 111 88 64 208 198 208 233 0 8 7 20 15 27 8 7 15 20 15 29 0 9 7 26 15 38
8 12 18 43 21 70 4 26 11 54 17 61 16 20 1 241 -18 262 -8 9 -15 30 -15 47 0
40 -55 148 -99 196 -50 54 -118 103 -171 122 -64 23 -213 28 -270 8z m253
-113 c-28 -30 -57 -39 -67 -21 -7 11 52 49 77 50 16 1 14 -4 -10 -29z m98 -20
c25 -14 24 -30 -1 -30 -11 0 -29 -6 -40 -12 -17 -11 -22 -10 -30 2 -14 21 -13
24 13 36 30 15 35 16 58 4z m-426 -10 c9 -15 -14 -40 -36 -40 -21 0 -25 20 -7
38 15 15 35 15 43 2z m307 -82 c73 -45 100 -70 121 -115 10 -21 25 -51 33 -66
16 -32 20 -262 5 -271 -5 -3 -12 -22 -15 -41 -4 -19 -10 -35 -14 -35 -4 0 -16
-16 -26 -35 -27 -50 -155 -162 -206 -181 -8 -3 -28 -12 -43 -20 -16 -7 -55
-14 -88 -14 -168 0 -326 174 -323 356 1 49 7 79 18 95 9 13 16 31 16 40 0 10
6 30 14 46 8 15 22 45 32 66 10 20 22 37 26 37 5 0 8 6 8 13 0 14 61 66 116
99 63 38 125 55 201 57 65 1 78 -2 125 -31z m-441 -21 c-8 -8 -11 -7 -11 4 0
20 13 34 18 19 3 -7 -1 -17 -7 -23z m657 -23 c4 -27 -26 -40 -46 -20 -13 13
-13 18 -2 31 18 21 44 15 48 -11z m52 -43 c0 -5 -7 -14 -15 -21 -13 -10 -15
-9 -15 9 0 12 6 21 15 21 8 0 15 -4 15 -9z m-765 -10 c3 -5 1 -13 -5 -16 -15
-9 -43 3 -35 15 8 13 32 13 40 1z m-85 -105 c0 -16 -18 -31 -27 -22 -8 8 5 36
17 36 5 0 10 -6 10 -14z m890 9 c0 -3 -9 -15 -20 -27 -15 -16 -20 -18 -20 -7
0 8 5 20 12 27 12 12 28 16 28 7z m-926 -173 c2 -4 -7 -17 -20 -29 -25 -23
-31 -15 -14 18 11 20 25 25 34 11z m26 -162 c0 -30 -26 -48 -44 -30 -8 8 -6
14 7 21 9 6 17 19 17 30 0 11 5 17 10 14 6 -3 10 -19 10 -35z m18 -165 c6 -14
18 -25 27 -25 8 0 15 -7 15 -15 0 -8 -6 -15 -14 -15 -7 0 -19 7 -26 15 -7 8
-19 15 -26 15 -8 0 -14 10 -14 25 0 14 6 25 13 25 8 0 19 -11 25 -25z m83
-100 c-1 -15 -24 -12 -29 3 -3 9 2 13 12 10 10 -1 17 -7 17 -13z m79 -2 c-1
-25 -14 -53 -26 -53 -23 0 -27 21 -8 40 20 20 34 25 34 13z m127 -43 c17 -13
20 -20 11 -20 -25 0 -78 21 -78 31 0 16 41 9 67 -11z"/>
<path d="M5352 2547 c-19 -20 -22 -35 -22 -106 l0 -83 43 5 c40 4 98 23 125
40 24 16 13 64 -22 99 -43 43 -77 68 -91 68 -6 0 -21 -10 -33 -23z"/>
<path d="M5149 2542 c-31 -13 -108 -77 -120 -99 -20 -36 -4 -71 39 -83 20 -7
52 -10 70 -8 31 3 35 8 53 58 25 70 22 134 -6 137 -11 1 -27 -1 -36 -5z"/>
<path d="M5220 2345 c-7 -8 -16 -15 -21 -15 -4 0 -19 -10 -32 -22 -27 -25 -46
-111 -27 -123 5 -3 10 -14 10 -24 0 -56 112 -75 156 -27 13 14 24 30 24 36 0
6 7 18 15 26 9 9 15 34 15 59 0 38 -5 47 -37 74 -41 34 -83 40 -103 16z m70
-35 c0 -5 9 -12 20 -15 16 -5 20 -15 20 -51 0 -36 -5 -50 -26 -69 -15 -14 -33
-25 -40 -25 -7 0 -16 -9 -19 -20 -7 -21 -25 -28 -25 -9 0 7 -16 27 -36 45 -33
32 -34 35 -20 56 9 12 16 32 16 45 0 13 8 24 19 28 11 3 21 12 24 19 6 14 67
10 67 -4z"/>
<path d="M5465 2240 c-16 -10 -38 -19 -47 -19 -43 -2 -46 -76 -6 -152 17 -33
25 -40 46 -37 16 2 31 13 39 28 35 74 47 109 47 150 1 41 -1 45 -24 47 -14 1
-38 -6 -55 -17z"/>
<path d="M4945 2240 c-9 -14 -9 -130 0 -168 7 -32 38 -55 63 -48 10 3 37 36
61 72 37 58 41 69 31 89 -19 36 -140 79 -155 55z"/>
<path d="M5163 2013 c-62 -67 -71 -88 -47 -114 26 -29 145 -28 175 2 26 26 21
72 -13 121 -44 63 -49 63 -115 -9z"/>
<path d="M2265 2815 c21 -16 79 -35 108 -35 38 0 9 24 -44 36 -74 18 -89 17
-64 -1z"/>
<path d="M5813 2807 c-10 -22 -19 -27 -48 -27 -19 0 -35 -4 -35 -10 0 -15 62
-11 83 5 11 8 17 23 15 36 -3 23 -3 23 -15 -4z"/>
<path d="M1590 2788 c1 -30 34 -75 44 -59 6 10 -29 81 -40 81 -2 0 -4 -10 -4
-22z"/>
<path d="M2160 2751 c0 -12 5 -21 10 -21 6 0 10 6 10 14 0 8 -4 18 -10 21 -5
3 -10 -3 -10 -14z"/>
<path d="M4314 2739 c-3 -6 -1 -16 5 -22 8 -8 11 -5 11 11 0 24 -5 28 -16 11z"/>
<path d="M4717 2724 c-14 -14 -8 -92 8 -98 19 -7 37 35 33 73 -3 25 -27 39
-41 25z"/>
<path d="M1610 2676 c0 -9 7 -16 16 -16 9 0 14 5 12 12 -6 18 -28 21 -28 4z"/>
<path d="M1824 2626 c-8 -22 3 -33 18 -18 9 9 9 15 0 24 -9 9 -13 7 -18 -6z"/>
<path d="M2810 2616 c0 -9 7 -16 16 -16 9 0 14 5 12 12 -6 18 -28 21 -28 4z"/>
<path d="M1584 2585 c-3 -8 -3 -19 1 -25 11 -18 25 -11 25 15 0 27 -17 34 -26
10z"/>
<path d="M2107 2556 c-4 -9 -15 -16 -26 -16 -11 0 -22 -9 -26 -20 -3 -11 -13
-20 -21 -20 -8 0 -14 -4 -14 -10 0 -16 2 -15 78 23 39 20 59 21 64 6 3 -8 10
-5 21 6 26 25 16 40 -30 43 -29 2 -42 -1 -46 -12z"/>
<path d="M4617 2538 c-4 -14 -9 -33 -13 -41 -6 -17 21 -47 42 -47 18 0 17 25
-5 75 -17 39 -18 39 -24 13z"/>
<path d="M910 2461 c-16 -30 -12 -43 13 -39 16 2 23 11 25 31 4 32 -21 38 -38
8z"/>
<path d="M1582 2471 c2 -7 7 -12 11 -12 12 1 9 15 -3 20 -7 2 -11 -2 -8 -8z"/>
<path d="M1924 2449 c-8 -14 15 -39 36 -39 10 0 23 7 30 15 7 8 11 15 9 15 -2
0 -19 4 -36 9 -21 6 -35 6 -39 0z"/>
<path d="M2445 2441 c-11 -5 -46 -16 -78 -26 -31 -10 -62 -24 -68 -32 -6 -7
-21 -13 -32 -13 -22 0 -28 -5 -138 -115 -76 -76 -94 -104 -176 -267 -7 -14
-13 -37 -13 -51 0 -13 -7 -41 -15 -60 -21 -50 -21 -235 0 -263 8 -10 15 -33
15 -51 0 -17 12 -55 26 -83 25 -50 109 -161 127 -169 5 -2 25 -19 44 -37 19
-19 45 -34 57 -34 12 0 27 -5 34 -12 6 -6 49 -17 94 -23 73 -11 95 -10 182 6
248 48 442 226 532 487 19 54 15 385 -4 404 -7 7 -12 24 -12 39 0 15 -7 32
-15 39 -8 7 -15 17 -15 22 0 30 -110 144 -171 177 -103 57 -157 71 -264 70
-49 0 -99 -4 -110 -8z m-25 -105 c0 -17 -39 -48 -52 -40 -16 10 -8 34 12 34
11 0 20 5 20 10 0 6 5 10 10 10 6 0 10 -6 10 -14z m140 7 c0 -12 -43 -53 -57
-53 -13 0 -18 41 -6 53 8 9 63 9 63 0z m187 -30 c3 -7 -15 -13 -49 -15 -63 -5
-78 0 -52 19 22 16 96 14 101 -4z m73 -33 c14 -11 31 -20 38 -20 6 0 12 -7 12
-15 0 -22 -60 -7 -86 21 -35 37 -7 48 36 14z m-547 -14 c7 -18 -1 -26 -25 -26
-18 0 -25 20 -11 33 11 12 31 8 36 -7z m57 -20 c0 -16 -18 -31 -27 -22 -8 8 5
36 17 36 5 0 10 -6 10 -14z m295 -22 c102 -34 175 -86 202 -144 44 -94 44 -97
41 -201 -4 -101 -25 -209 -40 -209 -5 0 -8 -7 -8 -15 0 -35 -80 -123 -156
-172 -105 -67 -254 -99 -318 -69 -19 9 -39 16 -45 16 -6 0 -11 4 -11 9 0 5 -9
12 -19 16 -10 3 -34 22 -52 41 -19 20 -42 43 -51 52 -10 9 -18 23 -18 32 0 9
-6 24 -14 35 -7 11 -16 34 -18 50 -3 17 -11 52 -19 78 -10 35 -10 52 -2 65 6
10 14 41 18 69 4 29 13 57 21 64 8 6 14 16 14 21 0 6 14 30 30 55 17 24 30 48
30 53 0 4 4 10 9 12 5 2 34 27 65 56 32 28 64 52 72 52 7 0 14 4 14 10 0 5 18
13 40 16 22 4 43 11 46 15 9 15 116 10 169 -7z m245 -59 c0 -8 -7 -15 -15 -15
-8 0 -15 -4 -15 -10 0 -5 -4 -10 -9 -10 -5 0 -4 11 2 25 13 27 37 34 37 10z
m86 -57 c14 -27 14 -37 3 -70 -9 -29 -10 -44 0 -64 11 -25 8 -44 -8 -44 -21 0
-58 161 -45 195 10 25 32 17 50 -17z m-905 -121 c-8 -8 -11 -5 -11 9 0 27 14
41 18 19 2 -9 -1 -22 -7 -28z m7 -75 c2 -7 -3 -12 -12 -12 -9 0 -16 7 -16 16
0 17 22 14 28 -4z m914 -44 c-9 -9 -12 -7 -12 12 0 19 3 21 12 12 9 -9 9 -15
0 -24z m-983 -87 c-15 -5 -22 6 -14 19 6 9 10 9 16 -1 5 -8 4 -15 -2 -18z m39
-44 c2 -16 -5 -34 -17 -46 -25 -25 -41 -27 -41 -6 0 8 7 15 15 15 11 0 15 11
15 36 0 42 23 43 28 1z m22 -102 c0 -28 -15 -34 -24 -9 -10 25 -7 34 9 34 9 0
15 -9 15 -25z m20 -112 c0 -8 -5 -11 -10 -8 -6 4 -17 2 -24 -4 -10 -9 -15 -8
-20 5 -3 9 -4 19 -1 24 8 13 55 -1 55 -17z m80 -80 c0 -7 -7 -13 -15 -13 -15
0 -21 31 -8 43 8 8 23 -12 23 -30z m74 -63 c-7 -7 -19 -7 -35 -1 -23 9 -22 10
11 10 23 1 31 -2 24 -9z m204 -48 c2 -7 -6 -12 -17 -12 -21 0 -27 11 -14 24 9
9 26 2 31 -12z m-128 -2 c0 -5 -9 -10 -20 -10 -11 0 -20 5 -20 10 0 6 9 10 20
10 11 0 20 -4 20 -10z"/>
<path d="M2421 2166 c-6 -7 -25 -16 -41 -20 -34 -6 -71 -57 -63 -87 3 -10 30
-35 60 -55 47 -31 58 -35 79 -25 13 6 24 19 24 30 0 11 4 22 9 25 18 11 51 87
51 116 0 30 -1 30 -54 30 -33 0 -58 -5 -65 -14z"/>
<path d="M2687 2119 c-9 -6 -24 -27 -33 -47 -57 -134 -48 -157 62 -161 87 -3
99 8 91 76 -3 26 -10 49 -16 51 -6 2 -11 11 -11 21 0 15 -26 40 -65 63 -6 4
-18 2 -28 -3z"/>
<path d="M2500 1954 c0 -15 22 -44 34 -44 44 0 54 -99 15 -148 -20 -26 -31
-31 -66 -31 -34 -1 -45 3 -54 22 -7 12 -18 26 -25 30 -19 11 -18 43 1 51 8 3
15 11 15 19 0 16 41 57 58 57 7 0 12 7 12 15 0 22 -36 18 -70 -7 -23 -16 -30
-30 -30 -55 0 -18 -5 -33 -11 -33 -8 0 -9 -14 -5 -42 10 -60 45 -91 105 -92
40 -1 51 4 84 37 20 21 37 44 37 52 0 7 7 21 16 30 13 12 14 19 5 28 -6 6 -11
20 -11 32 -1 11 -9 30 -19 42 -24 28 -91 56 -91 37z"/>
<path d="M2176 1908 c-19 -41 -30 -136 -21 -176 12 -56 55 -49 126 21 69 66
70 78 9 137 -63 60 -92 65 -114 18z"/>
<path d="M2700 1760 c-89 -11 -100 -21 -100 -89 0 -98 27 -144 69 -121 15 8
55 50 89 95 23 30 38 73 31 92 -10 27 -23 30 -89 23z"/>
<path d="M2390 1655 c-7 -8 -20 -15 -30 -15 -22 0 -100 -72 -100 -93 0 -22 35
-57 58 -57 9 0 26 -7 36 -15 28 -21 89 -19 109 3 21 23 21 68 2 102 -8 14 -14
37 -15 51 0 37 -37 52 -60 24z"/>
<path d="M4610 2381 c0 -22 5 -43 11 -46 14 -10 17 -6 21 40 2 31 -1 40 -14
43 -15 3 -18 -4 -18 -37z"/>
<path d="M2000 2374 c0 -9 5 -14 12 -12 18 6 21 28 4 28 -9 0 -16 -7 -16 -16z"/>
<path d="M1917 2374 c-11 -11 -8 -44 3 -44 15 0 24 30 13 41 -5 5 -12 6 -16 3z"/>
<path d="M879 2323 c-12 -30 -23 -415 -13 -446 15 -46 27 11 30 144 2 78 9
170 15 203 17 95 -6 166 -32 99z"/>
<path d="M1307 2332 c-29 -32 -13 -47 17 -16 17 17 21 34 8 34 -5 0 -16 -8
-25 -18z"/>
<path d="M1238 2263 c-27 -7 -22 -23 7 -23 16 0 25 6 25 15 0 15 -2 16 -32 8z"/>
<path d="M1410 2240 c0 -11 5 -20 10 -20 6 0 10 9 10 20 0 11 -4 20 -10 20 -5
0 -10 -9 -10 -20z"/>
<path d="M4608 2068 c-6 -37 0 -68 13 -68 12 0 12 87 0 94 -5 3 -11 -9 -13
-26z"/>
<path d="M1764 1696 c-4 -10 -2 -22 4 -28 8 -8 13 -7 18 6 4 10 2 22 -4 28 -8
8 -13 7 -18 -6z"/>
</g>
</svg>
