<?xml version="1.0" standalone="no"?>
<!DOCTYPE svg PUBLIC "-//W3C//DTD SVG 20010904//EN"
 "http://www.w3.org/TR/2001/REC-SVG-20010904/DTD/svg10.dtd">
<svg version="1.0" xmlns="http://www.w3.org/2000/svg"
 width="300.000000pt" height="168.000000pt" viewBox="0 0 300.000000 168.000000"
 preserveAspectRatio="xMidYMid meet">
<metadata>
Created by potrace 1.10, written by Peter Selinger 2001-2011
</metadata>
<g transform="translate(0.000000,168.000000) scale(0.050000,-0.050000)"
fill="#000000" stroke="none">
<path d="M501 3344 c16 -5 42 -19 58 -32 22 -17 25 -16 14 3 -22 35 17 31 47
-5 16 -19 55 -29 107 -27 l83 4 -85 8 c-47 4 -85 15 -85 25 0 10 38 21 85 25
47 5 9 8 -84 8 -93 0 -156 -4 -140 -9z"/>
<path d="M1600 3328 c0 -27 13 -30 65 -19 151 33 221 37 207 14 -9 -14 -2 -23
17 -23 17 0 31 8 31 17 0 10 36 15 81 11 47 -3 75 2 68 13 -22 37 -469 24
-469 -13z"/>
<path d="M3360 3340 c0 -10 36 -17 80 -15 104 6 104 35 0 35 -44 0 -80 -9 -80
-20z"/>
<path d="M2573 3246 c-28 -27 -10 -46 43 -46 31 0 67 -11 80 -24 19 -19 24
-19 24 0 0 13 14 24 30 24 17 0 30 10 30 22 0 13 -22 16 -59 8 -32 -7 -76 -3
-97 8 -21 11 -44 15 -51 8z"/>
<path d="M5920 3210 c0 -37 11 -50 40 -50 29 0 40 13 40 50 0 37 -11 50 -40
50 -29 0 -40 -13 -40 -50z"/>
<path d="M5370 3220 c-7 -11 -7 -29 0 -40 17 -28 104 -25 122 3 10 16 4 20
-19 11 -21 -8 -33 -3 -33 17 0 33 -51 40 -70 9z"/>
<path d="M3200 2667 c0 -19 -9 -24 -25 -14 -39 25 -81 27 -108 5 -13 -11 -85
-20 -160 -19 -75 0 -204 -2 -287 -4 -82 -3 -166 3 -186 13 -20 9 -34 9 -32 -1
8 -45 -5 -67 -42 -67 -56 0 -221 -80 -234 -113 -6 -15 -18 -22 -28 -16 -10 6
-18 -3 -18 -20 0 -28 -24 -40 -66 -33 -9 1 -6 -16 7 -40 12 -23 18 -59 13 -80
-6 -21 -1 -38 10 -38 11 0 -1 -22 -27 -50 -26 -27 -61 -49 -78 -50 -16 0 -46
-18 -65 -41 -19 -22 -44 -35 -55 -29 -10 7 -19 3 -19 -9 0 -43 -107 -141 -154
-141 -28 0 -43 -9 -36 -20 7 -12 21 -15 31 -9 11 6 19 3 19 -7 0 -22 -115 -43
-233 -44 -45 0 -113 -13 -151 -29 -44 -18 -78 -22 -97 -10 -44 28 -59 23 -59
-21 0 -34 -12 -40 -85 -37 -82 2 -82 3 -19 15 64 12 84 35 51 60 -10 6 -35 47
-57 89 -22 43 -55 87 -73 99 -18 12 -28 33 -23 48 6 15 -3 26 -22 26 -18 0
-32 -13 -32 -30 0 -16 -12 -30 -27 -30 -52 0 -102 -177 -66 -235 10 -16 3 -26
-21 -27 -21 0 -26 -5 -11 -11 41 -17 29 -44 -33 -76 -39 -20 -61 -23 -66 -9
-8 25 -116 -17 -116 -45 0 -9 -9 -17 -20 -17 -11 0 -20 14 -20 31 0 17 -9 26
-20 19 -12 -7 -15 -21 -9 -31 6 -11 -7 -19 -30 -19 -22 0 -41 -12 -41 -28 0
-16 -29 -33 -68 -40 -69 -13 -109 -61 -66 -79 13 -5 1 -11 -26 -11 -47 -2 -51
-10 -50 -89 0 -75 -5 -85 -38 -77 -23 6 -33 2 -26 -10 7 -11 2 -65 -12 -119
-14 -53 -19 -120 -12 -147 28 -101 20 -157 -25 -171 -23 -7 -34 -19 -23 -26
30 -20 43 -94 22 -130 -12 -22 -11 -33 4 -33 12 0 16 -10 8 -23 -8 -13 2 -35
21 -49 21 -15 31 -39 24 -57 -8 -22 1 -31 33 -31 55 -1 104 -31 104 -64 0 -14
18 -28 40 -31 40 -5 40 -5 0 14 -22 10 -29 19 -17 20 13 0 37 6 53 12 37 14
63 -73 28 -95 -17 -11 -15 -15 8 -16 46 0 59 20 38 60 -11 20 -11 58 -1 92 10
32 18 46 19 32 1 -15 11 -21 22 -14 11 7 20 3 20 -9 0 -11 22 -21 49 -21 40 0
52 -13 62 -70 12 -61 21 -70 76 -73 35 -1 81 -4 104 -5 33 -2 169 -126 169
-155 0 -4 -56 -9 -125 -10 -355 -10 -474 -147 -126 -145 215 1 231 3 231 39 0
23 14 39 32 39 23 0 29 -12 22 -40 -11 -44 6 -52 40 -18 15 15 33 14 62 -4 33
-21 63 -20 157 1 64 14 164 26 222 25 58 0 105 8 105 19 0 11 -7 15 -16 10 -9
-6 -26 -4 -39 4 -41 25 796 40 905 16 46 -10 51 -9 20 5 -31 15 -13 20 75 21
66 0 115 -8 115 -19 0 -12 -21 -15 -50 -8 -33 8 -50 4 -50 -12 0 -29 186 -8
197 22 3 10 19 18 34 18 16 0 23 -12 16 -30 -6 -16 -1 -30 11 -30 12 0 22 14
22 31 0 26 24 30 140 25 77 -3 140 -12 140 -18 0 -7 38 -18 84 -24 47 -6 95
-25 108 -43 25 -35 68 -42 68 -11 0 11 20 21 45 22 38 1 36 4 -13 19 -32 9
-64 14 -72 9 -7 -4 -53 5 -101 20 l-89 27 160 3 c470 7 870 2 892 -11 14 -9
19 -7 12 4 -7 12 24 18 82 15 52 -3 253 -6 448 -8 l354 -2 26 -59 c28 -64 65
-77 83 -29 7 17 32 30 57 30 37 1 40 4 16 20 -47 31 -100 25 -87 -10 17 -44
-19 -37 -48 10 -23 36 -20 40 22 40 117 0 173 -24 173 -72 0 -40 10 -48 55
-45 47 2 49 4 10 11 -25 5 -45 18 -45 30 0 11 18 16 40 10 58 -15 49 1 -25 46
-41 25 -102 40 -165 41 -86 1 -95 5 -62 25 101 63 174 140 148 157 -19 12 -17
16 9 17 19 0 35 8 35 18 0 10 63 29 140 42 106 18 140 32 141 57 1 18 33 59
71 91 39 32 68 50 67 40 -8 -43 3 -68 31 -68 17 0 30 -9 30 -20 0 -11 9 -20
20 -20 11 0 20 12 20 27 0 14 14 26 30 26 17 0 30 -12 30 -26 0 -38 53 -34 68
5 7 18 25 27 42 21 26 -10 30 26 30 248 0 233 -3 259 -35 260 -33 0 -33 2 0
27 19 14 35 36 35 49 0 12 -16 17 -35 11 -33 -11 -33 -10 0 18 41 33 46 57 10
43 -42 -15 -145 22 -145 52 0 16 -8 35 -18 42 -33 24 -35 272 -2 284 17 7 30
2 30 -11 0 -12 6 -17 13 -10 7 8 25 4 40 -9 21 -17 27 -13 27 21 0 23 -11 42
-26 42 -14 0 -41 18 -59 40 -19 22 -29 40 -22 40 6 0 1 13 -12 28 -18 23 -16
31 13 38 28 7 26 10 -9 12 -28 1 -45 -10 -45 -28 0 -35 -145 -26 -157 10 -3
11 -25 20 -47 20 -28 0 -37 9 -29 30 8 20 -1 30 -26 30 -21 0 -45 10 -52 21
-7 12 -26 17 -43 10 -19 -7 -34 3 -40 29 -6 22 -21 40 -33 40 -14 0 -13 7 3
17 20 13 13 25 -26 51 -34 23 -49 46 -41 66 10 27 7 28 -19 6 -26 -22 -36 -22
-56 0 -19 20 -19 23 1 12 18 -10 25 5 25 55 0 39 -11 82 -25 97 -39 43 -75
112 -75 146 0 16 -11 30 -25 30 -14 0 -46 33 -72 73 -33 51 -52 65 -63 47 -8
-14 -26 -19 -38 -11 -12 7 -17 22 -11 32 6 11 -3 19 -20 19 -17 0 -31 8 -31
18 0 9 -49 15 -110 13 -60 -3 -110 1 -110 7 0 13 -47 17 -390 31 -121 5 -278
15 -350 21 -71 6 -157 10 -190 9 -284 -9 -336 -7 -343 11 -13 34 -167 31 -167
-3z m1370 -205 c306 -36 469 -111 439 -205 -7 -22 4 -42 30 -56 23 -13 41 -32
41 -43 0 -11 27 -60 60 -108 71 -103 72 -110 19 -100 -22 4 -35 -1 -28 -11 6
-11 19 -15 27 -10 9 5 26 -13 39 -41 29 -63 29 -74 0 -56 -14 9 -18 5 -9 -8 7
-12 26 -17 42 -11 26 10 26 17 0 53 -44 63 -36 92 10 34 22 -29 34 -66 27 -88
-7 -22 -3 -32 9 -25 11 7 25 -1 32 -18 7 -19 22 -25 37 -16 20 12 20 8 0 -17
-22 -26 -9 -43 85 -116 60 -46 105 -93 99 -102 -6 -10 11 -18 39 -18 52 0 96
-42 57 -55 -15 -5 -14 -28 6 -74 15 -37 33 -146 39 -242 12 -183 21 -217 51
-198 11 6 19 2 19 -10 0 -11 13 -21 29 -21 43 0 91 -80 91 -153 0 -62 -4 -65
-105 -82 -150 -25 -155 -12 -105 240 6 31 2 55 -10 55 -11 0 -20 13 -20 29 0
16 -9 34 -20 41 -12 7 -14 -2 -6 -22 9 -24 5 -30 -11 -20 -12 8 -23 5 -23 -7
0 -38 -41 -22 -59 24 -13 30 -19 34 -20 12 0 -17 13 -64 29 -104 17 -39 30
-92 29 -117 0 -25 -39 48 -86 164 -47 116 -97 230 -110 255 -14 25 -19 56 -11
69 9 13 5 17 -9 8 -22 -14 -33 13 -24 58 3 11 -2 14 -10 6 -8 -8 -43 32 -78
90 -153 249 -192 315 -301 509 -63 113 -122 210 -132 216 -22 14 -24 50 -3 47
49 -8 189 4 178 15 -7 8 -623 19 -1368 27 -1287 12 -1425 18 -1425 64 0 68
117 114 370 147 246 33 1735 25 2040 -9z m-2310 -252 c0 -48 -347 -530 -382
-530 -13 0 -18 -18 -12 -40 6 -23 0 -40 -13 -40 -13 0 -10 -10 7 -22 23 -16
16 -18 -27 -9 -132 29 -183 34 -157 16 17 -12 -83 -24 -280 -32 -358 -17 -415
-26 -418 -70 -2 -18 -11 16 -21 75 -9 59 -13 113 -7 118 5 6 10 -10 10 -35 0
-38 8 -43 47 -33 96 24 331 51 533 62 213 11 254 20 188 41 -21 7 -60 22 -88
33 l-50 21 70 26 c95 35 100 35 100 -11 0 -25 13 -40 35 -40 26 1 28 5 9 17
-21 13 -20 22 5 42 23 19 31 20 31 2 0 -13 10 -17 22 -10 16 10 15 18 -3 29
-18 11 1 49 68 133 156 196 190 227 259 230 l64 3 -60 9 c-69 9 -118 45 -63
45 20 0 30 9 23 19 -7 12 13 11 49 -2 34 -11 61 -33 61 -47z m1308 -21 c8 -21
4 -26 -13 -16 -13 8 -55 21 -94 29 l-71 13 83 3 c58 1 86 -7 95 -29z m76 -231
c-5 -190 0 -251 24 -288 29 -44 28 -47 -20 -59 -43 -10 -49 -21 -40 -67 11
-58 20 -281 12 -314 -2 -11 -3 -116 0 -233 4 -221 -27 -355 -62 -267 -13 33
-15 30 -17 -20 -1 -42 -7 -52 -19 -33 -19 31 -142 13 -165 -23 -10 -15 -24
-13 -45 5 -23 18 -140 28 -417 34 -212 4 -431 13 -488 19 l-102 10 9 69 c6 42
1 69 -12 69 -12 0 -22 10 -22 21 0 35 -47 69 -90 67 -77 -3 -170 -33 -172 -55
-6 -58 -34 111 -36 219 l-2 123 115 2 c81 2 106 -3 85 -17 -16 -11 -57 -20
-90 -21 -33 -1 -48 -7 -33 -13 23 -9 23 -14 1 -27 -15 -9 -21 -23 -14 -30 8
-7 34 1 59 19 65 45 107 40 247 -28 74 -36 172 -65 246 -73 68 -7 124 -20 124
-29 0 -8 43 -13 95 -10 52 3 125 -7 162 -21 79 -31 126 -35 83 -7 -24 15 -20
19 20 20 119 0 321 -27 299 -41 -43 -26 1 -60 65 -48 114 20 135 41 122 124
-16 105 -34 113 -21 10 13 -98 0 -104 -81 -35 -33 28 -81 50 -108 50 -26 0
-58 10 -71 23 -12 12 -57 24 -99 27 -633 34 -626 33 -626 83 0 29 -12 47 -31
47 -17 0 -49 17 -72 38 l-41 39 42 22 c24 13 52 17 63 11 31 -20 899 -26 899
-7 0 10 39 28 86 40 102 28 124 86 34 93 -48 4 -55 -2 -46 -36 10 -37 6 -39
-43 -20 -29 11 -103 20 -162 20 -87 0 -109 7 -109 32 0 28 16 31 111 19 75
-10 120 -6 140 10 36 30 19 58 -37 61 -32 2 -35 5 -10 12 20 5 29 21 23 37 -6
16 -2 29 9 29 11 0 25 -13 31 -30 7 -16 23 -30 37 -30 19 1 17 7 -4 22 -23 16
-12 19 44 11 l73 -10 7 173 c3 96 0 218 -8 273 -14 90 3 151 41 151 7 0 10
-109 7 -242z m1006 210 c38 -9 78 -61 160 -206 195 -345 194 -346 -527 -338
-648 7 -607 -10 -619 255 -12 251 6 277 201 285 339 14 738 16 785 4z m-1110
-28 c37 -23 58 -500 22 -500 -15 0 -22 77 -22 225 -1 269 -1 271 -140 280
l-110 8 110 3 c61 2 124 -5 140 -16z m-190 -61 c33 -33 39 -96 34 -334 -3
-114 -10 -145 -34 -145 -16 0 -30 9 -30 20 0 24 -838 25 -990 1 -92 -14 -94
-16 -30 -21 65 -6 66 -7 14 -14 -31 -5 -70 2 -86 16 -23 18 -35 19 -53 1 -13
-13 -39 -23 -59 -23 -20 0 -36 -9 -36 -20 0 -26 373 -27 389 -1 7 11 138 16
321 11 177 -4 314 0 321 11 6 11 23 8 38 -6 47 -44 -4 -50 -336 -42 -244 6
-311 2 -273 -14 29 -13 105 -17 180 -11 72 6 166 3 210 -7 l80 -18 -100 2
c-219 6 -412 -6 -401 -24 6 -10 -7 -24 -29 -31 -22 -7 -40 -21 -40 -31 0 -27
-55 -23 -72 4 -10 16 -4 20 19 11 18 -7 33 -4 33 7 0 28 -148 23 -177 -6 -20
-20 -22 -17 -10 15 12 33 9 36 -14 18 -16 -11 -62 -19 -103 -17 -48 3 -77 -5
-84 -24 -9 -23 -3 -24 31 -5 23 12 48 14 55 5 6 -9 43 -20 81 -23 100 -8 142
-96 44 -93 -23 1 -94 3 -155 5 l-113 4 12 111 c14 125 30 162 94 219 24 22 84
101 132 175 109 166 201 273 256 297 77 32 845 12 881 -23z m-2440 -159 c-8
-26 -4 -40 14 -40 19 -1 18 -6 -4 -20 -20 -13 -22 -19 -5 -20 16 0 24 -27 23
-75 l-2 -75 -21 65 c-11 36 -33 65 -48 65 -15 0 -27 17 -27 39 0 21 -9 44 -20
51 -40 25 -19 50 41 50 53 0 60 -6 49 -40z m2570 -190 c0 -38 -9 -70 -20 -70
-11 0 -20 32 -20 70 0 39 9 70 20 70 11 0 20 -31 20 -70z m1560 -138 c-11 -11
-44 -10 -84 3 -52 17 -57 21 -21 23 25 1 45 12 45 23 0 12 -7 17 -15 12 -8 -5
-15 26 -16 68 l-1 78 55 -94 c33 -57 48 -102 37 -113z m-4131 58 c13 -89 -1
-140 -39 -140 -264 -6 -395 -76 -410 -221 -7 -64 -19 -97 -35 -94 -17 3 -25
-22 -25 -76 0 -51 8 -77 20 -69 12 7 20 6 18 -4 -10 -57 4 -133 20 -108 10 16
14 43 8 60 -8 25 -6 26 10 5 21 -30 9 -103 -16 -103 -9 0 -22 -23 -29 -52 -10
-42 -18 -47 -42 -27 -16 13 -24 31 -18 41 21 33 27 98 10 98 -10 0 -13 18 -7
39 6 23 -8 62 -32 93 -75 96 -29 272 88 336 22 12 45 28 51 36 19 26 147 71
239 85 161 25 161 25 147 112 -7 48 -4 79 8 79 11 0 27 -40 34 -90z m4834 -46
c-13 -4 -23 -29 -23 -56 0 -26 -10 -48 -22 -48 -12 0 -17 14 -11 30 7 17 1 30
-13 30 -15 0 -13 8 6 20 20 13 22 19 5 20 -14 0 -25 10 -25 21 0 12 7 17 16
12 9 -6 29 -2 45 8 19 11 32 9 37 -6 4 -12 -2 -26 -15 -31z m-3762 -65 c-9
-38 -23 -112 -30 -164 -13 -89 -17 -95 -72 -95 -37 0 -59 -10 -59 -28 0 -33
-54 -58 -70 -33 -6 10 -2 24 10 31 11 7 20 29 20 50 0 68 44 137 103 161 31
13 57 32 57 43 0 10 -9 13 -20 6 -11 -7 -20 -4 -20 7 0 10 14 24 32 31 18 7
27 25 21 40 -12 34 8 59 30 37 9 -9 8 -47 -2 -86z m1322 10 c49 -23 53 -28 17
-20 -27 6 -66 11 -85 11 -19 0 -35 9 -35 20 0 28 24 25 103 -11z m1110 -11
c422 0 707 -8 707 -19 0 -11 -38 -20 -85 -22 l-85 -3 90 -14 c53 -8 -63 -14
-280 -15 -236 -1 -352 5 -320 17 30 10 -117 13 -365 6 -389 -11 -414 -9 -402
24 10 23 6 30 -10 20 -12 -8 -23 -4 -23 9 0 13 14 18 33 11 18 -7 351 -13 740
-14z m-2558 -16 c14 -1 25 -10 25 -20 0 -19 -166 -5 -230 19 -33 12 76 13 205
1z m-980 -76 c8 -24 -109 -52 -140 -33 -11 7 5 24 37 38 64 28 92 27 103 -5z
m940 9 c-5 -14 -39 -26 -77 -28 -37 -2 -81 -6 -98 -9 -16 -2 -66 -2 -110 2
-66 5 -53 10 80 30 215 34 214 33 205 5z m-519 -50 c-41 -4 -113 -4 -160 0
-48 5 -14 8 74 8 88 0 126 -3 86 -8z m1872 -25 c9 -10 -62 -15 -160 -11 -98 3
-257 7 -353 8 -96 2 -175 10 -175 18 0 21 666 6 688 -15z m-2268 0 c44 -14 45
-16 8 -18 -23 -1 -86 -7 -140 -13 l-98 -10 70 28 c82 33 94 34 160 13z m853
-8 c-4 -12 -19 -20 -32 -17 -13 4 -18 -4 -11 -15 8 -12 -1 -44 -19 -71 -18
-28 -27 -59 -21 -69 14 -22 -78 -165 -95 -149 -6 7 -18 1 -26 -13 -10 -15 -7
-19 8 -10 13 8 23 4 23 -8 0 -12 8 -17 18 -11 30 18 164 -149 223 -279 l57
-124 154 -13 c184 -15 1221 -13 1838 5 l439 12 66 120 c37 66 71 134 77 150
16 45 202 158 303 183 246 62 542 -55 675 -268 19 -31 56 -61 82 -67 55 -14
62 -38 18 -55 -55 -21 -124 23 -176 112 -209 357 -727 309 -931 -87 -31 -59
-78 -119 -105 -133 -54 -27 -2429 -37 -2470 -10 -12 8 -51 75 -85 149 -161
339 -565 443 -859 222 -69 -52 -183 -216 -184 -264 0 -40 -60 -102 -98 -102
-28 1 -28 3 -2 20 17 11 21 20 11 20 -10 0 -8 11 5 24 28 28 32 109 6 125 -10
6 -16 34 -13 61 3 27 -6 66 -21 85 -62 81 45 94 124 15 39 -39 52 -44 61 -20
10 27 -83 128 -120 129 -10 1 -13 19 -7 41 6 22 2 45 -8 51 -10 6 -18 -8 -18
-31 0 -26 -10 -40 -25 -35 -14 5 -23 23 -20 39 3 16 -13 46 -35 66 -47 43 -53
74 -10 57 19 -7 30 1 30 21 0 27 6 28 40 7 22 -13 40 -36 40 -50 0 -14 9 -25
20 -25 32 0 23 29 -22 78 -67 71 -16 99 52 29 30 -32 49 -46 42 -33 -23 42
287 84 633 85 110 1 175 9 175 22 0 13 17 16 43 8 31 -10 38 -7 26 12 -10 16
-7 20 7 11 12 -7 17 -29 11 -48 -8 -28 -5 -27 21 5 18 21 32 44 32 51 0 8 14
13 31 13 16 0 26 -9 22 -21z m3422 -19 c12 -7 26 -2 31 12 5 14 25 -9 45 -50
45 -93 30 -109 -78 -80 -154 41 -1493 58 -1493 19 0 -28 54 -32 475 -33 291
-1 478 -9 482 -21 3 -11 28 -20 55 -20 26 0 48 -9 48 -20 0 -25 -56 -26 -132
-2 -135 43 -175 47 -142 13 17 -17 45 -31 61 -31 17 0 36 -9 43 -20 7 -11 -10
-20 -39 -20 -28 0 -51 9 -51 20 0 11 -29 20 -65 20 -49 -1 -58 -5 -35 -20 21
-14 -7 -19 -95 -20 -69 0 -125 -7 -125 -16 0 -8 -36 -12 -80 -7 -45 4 -80 -2
-80 -13 0 -11 -72 -26 -160 -34 -88 -8 -160 -22 -160 -32 0 -27 241 -21 480
12 270 37 313 37 328 -1 7 -19 3 -26 -9 -18 -51 31 -123 -11 -110 -64 8 -32 5
-46 -8 -37 -12 7 -21 25 -21 41 0 20 -21 28 -65 27 -60 -2 -61 -3 -15 -16 34
-9 42 -19 24 -29 -13 -9 -19 -24 -13 -34 6 -11 1 -19 -11 -19 -12 0 -17 -9
-10 -20 7 -11 2 -20 -10 -20 -12 0 -17 -9 -10 -19 6 -11 -13 -25 -44 -32 -31
-7 -65 -15 -76 -18 -11 -3 -45 12 -76 34 -31 22 -62 34 -68 27 -7 -7 -2 -12
11 -12 12 0 23 -13 23 -30 0 -24 -28 -28 -147 -25 -106 4 -157 -3 -184 -25
-33 -28 -35 -27 -21 10 8 22 14 175 14 340 l-2 300 747 -2 c410 -1 756 -8 768
-15z m-3274 -148 c2 -30 4 -29 18 5 16 40 17 32 53 -330 l12 -120 -74 0 c-80
0 -91 45 -13 56 51 8 53 23 14 75 -17 22 -30 48 -30 59 0 11 8 7 19 -10 14
-22 19 -2 20 71 0 56 -8 110 -18 120 -30 32 -46 109 -23 109 11 0 22 -16 22
-35z m3859 -7 c0 -35 5 -38 29 -19 22 19 33 16 50 -16 29 -55 27 -64 -12 -49
-23 9 -29 5 -19 -11 8 -13 2 -23 -15 -23 -31 0 -53 41 -53 100 0 20 -11 41
-25 47 -15 6 -11 10 10 11 23 1 35 -13 35 -40z m-4020 -33 c0 -19 -23 -62 -50
-95 l-50 -60 45 94 c51 106 55 111 55 61z m-1418 -80 c13 -91 7 -145 -16 -136
-14 5 -26 0 -26 -11 0 -11 -8 -16 -17 -10 -23 14 -46 130 -32 154 14 22 88 24
91 3z m1078 -187 c90 -24 161 -88 209 -188 40 -82 60 -290 29 -290 -10 0 -19
25 -19 55 -6 196 -130 370 -267 373 -37 1 -64 9 -59 17 14 23 -111 18 -157 -7
-29 -16 -37 -16 -27 0 8 13 1 17 -18 10 -17 -7 -26 -20 -20 -30 6 -10 0 -18
-15 -19 -40 0 -156 -114 -156 -154 -1 -30 -3 -31 -20 -5 -15 22 -19 12 -20
-41 0 -92 -46 -160 -83 -123 -22 21 -22 29 1 43 15 9 22 31 16 49 -7 18 -4 32
7 32 10 0 19 10 19 22 0 41 121 190 184 227 120 71 218 78 396 29z m771 -58
c118 0 87 -55 -36 -65 -126 -10 -152 7 -116 73 23 43 30 46 55 21 16 -16 60
-29 97 -29z m3122 -86 c13 -24 19 -50 14 -59 -5 -8 0 -15 12 -15 11 0 21 -37
21 -81 0 -59 -7 -78 -25 -67 -20 11 -20 8 0 -13 36 -39 31 -59 -15 -59 -22 0
-40 -9 -40 -20 0 -11 11 -20 23 -20 13 0 19 -5 13 -10 -17 -18 -77 13 -65 32
6 10 0 18 -13 18 -14 0 -8 15 14 35 60 55 33 355 -28 318 -8 -5 -30 13 -50 39
l-36 48 76 -51 c42 -29 86 -71 99 -95z m-279 67 c107 -48 154 -135 141 -255
-24 -208 -281 -296 -426 -145 -30 32 -60 54 -67 50 -7 -4 -14 39 -17 96 -12
226 164 347 369 254z m-4588 -41 c50 0 180 -74 157 -88 -13 -8 -32 -9 -43 -2
-11 7 -17 -19 -15 -63 5 -82 -54 -122 -88 -61 -16 28 -118 19 -150 -13 -15
-14 17 -73 34 -63 9 6 22 2 29 -10 7 -11 -9 -20 -38 -20 -61 0 -78 49 -80 230
-2 102 3 120 33 117 19 -1 35 6 35 18 0 11 22 5 49 -13 27 -17 62 -32 77 -32z
m893 -32 c295 -118 127 -540 -187 -469 -43 10 -92 33 -110 52 -26 28 -26 32
-2 21 17 -8 10 1 -14 19 -34 25 -41 47 -35 105 7 62 6 66 -9 24 -18 -49 -18
-49 -20 -4 -5 109 84 231 191 263 83 25 98 24 186 -11z m3214 -58 c-2 -27 -12
-50 -23 -50 -11 0 -9 -7 4 -16 13 -8 22 -28 20 -44 -5 -50 73 -200 111 -212
19 -6 35 -24 35 -39 0 -16 17 -29 39 -29 21 0 45 -11 53 -24 10 -16 20 -11 30
15 13 34 15 35 17 4 1 -35 81 -52 81 -17 0 9 25 22 55 28 30 6 69 15 85 20 17
6 50 16 75 24 25 8 45 23 45 32 0 10 14 18 30 18 17 0 30 -10 30 -21 0 -12 -8
-16 -18 -10 -10 6 -23 -3 -30 -20 -6 -18 -21 -26 -32 -19 -11 7 -30 6 -42 -1
-16 -10 -15 -18 3 -29 17 -11 4 -27 -42 -50 -63 -33 -67 -33 -95 3 -26 32 -28
33 -17 2 10 -29 0 -35 -53 -34 -80 2 -246 68 -239 97 2 11 -7 16 -22 10 -30
-11 -133 126 -133 177 0 18 -8 38 -19 44 -11 7 -11 37 2 76 11 36 24 76 28 90
13 42 25 28 22 -25z m-2343 -10 c57 -14 55 -15 -24 -18 -46 -1 -89 7 -96 18
-14 23 31 23 120 0z m3638 -89 c-15 -38 -108 -54 -108 -18 0 29 78 69 104 54
8 -5 10 -21 4 -36z m-1465 -102 c-14 -52 -25 -59 -85 -56 -113 5 -118 6 -118
27 0 11 20 17 45 15 28 -3 43 5 40 21 -4 15 3 21 14 14 12 -7 41 1 65 18 54
39 59 34 39 -39z m-578 -10 c175 0 295 -8 295 -20 0 -24 153 -19 -1085 -33
-977 -11 -1075 -9 -1075 20 0 42 68 45 900 39 369 -3 803 -6 965 -6z m474
-138 c55 -101 69 -99 -624 -95 -355 2 -892 -4 -1195 -13 -302 -10 -563 -17
-580 -17 -16 1 -96 -8 -177 -19 -174 -24 -181 -20 -108 58 l56 60 1210 14
c672 8 1217 23 1228 33 37 35 168 21 190 -21z m-2843 -63 c-19 -10 -48 -33
-65 -49 -34 -35 -166 -54 -182 -27 -6 10 11 18 39 18 64 0 146 32 186 71 17
17 36 25 43 18 7 -6 -3 -21 -21 -31z"/>
<path d="M4920 2190 c0 -17 80 -150 90 -150 3 0 1 19 -5 43 -8 31 -4 39 14 28
20 -12 20 -7 2 27 -27 51 -44 55 -29 7 8 -25 0 -22 -30 12 -23 26 -42 41 -42
33z"/>
<path d="M4980 2004 c0 -15 25 -69 55 -120 30 -52 52 -107 48 -124 -4 -16 0
-23 8 -15 20 19 72 -83 56 -110 -8 -12 -4 -15 10 -7 13 8 23 5 23 -7 0 -11 14
-21 31 -21 36 0 23 29 -89 196 -40 59 -88 136 -107 171 -19 35 -35 51 -35 37z"/>
<path d="M5300 1540 c24 -16 21 -19 -15 -20 -25 0 -45 -8 -45 -19 0 -32 74
-15 98 23 19 31 16 36 -23 36 -36 -1 -39 -4 -15 -20z"/>
<path d="M5385 1446 c-32 -12 -32 -71 -1 -102 30 -30 116 -32 116 -3 0 12 8
16 18 10 10 -6 23 3 29 19 8 21 -1 30 -31 30 -24 0 -57 12 -74 27 -18 15 -43
24 -57 19z"/>
<path d="M5380 1301 c0 -12 8 -21 19 -21 30 0 48 -83 21 -100 -18 -11 -17 -29
7 -72 30 -55 31 -55 32 -12 1 26 10 41 21 34 39 -24 105 10 79 41 -13 16 -30
24 -38 19 -8 -5 -27 14 -42 42 -30 56 -99 104 -99 69z"/>
<path d="M5685 800 c-15 -24 -17 -40 -5 -40 11 0 20 9 20 20 0 11 18 20 40 20
22 0 40 9 40 20 0 36 -70 21 -95 -20z"/>
<path d="M2750 1239 c-99 -6 -153 -13 -120 -16 212 -15 329 -16 350 -3 40 24
-37 31 -230 19z"/>
<path d="M2115 1127 c-52 -22 -75 -44 -75 -72 0 -37 4 -36 51 14 38 42 65 53
108 47 41 -6 54 -1 47 18 -13 33 -37 32 -131 -7z"/>
<path d="M3952 2142 c-121 -7 -222 -21 -225 -32 -5 -13 61 -15 188 -7 532 35
785 13 785 -71 0 -15 13 -38 29 -51 35 -29 137 -222 124 -235 -5 -5 -15 10
-23 32 -10 34 -50 61 -50 35 0 -19 65 -134 81 -144 80 -49 -50 283 -172 441
-34 45 -296 56 -737 32z"/>
<path d="M4590 2000 c-7 -12 -3 -35 11 -51 16 -19 16 -29 2 -29 -11 0 -30 16
-41 35 -16 27 -21 28 -21 5 0 -63 59 -110 140 -111 68 -1 116 26 59 34 -11 1
-29 3 -39 5 -47 6 -68 50 -40 86 15 20 20 29 10 21 -9 -8 -29 -5 -42 6 -18 15
-30 14 -39 -1z"/>
<path d="M3825 1832 c0 -54 27 -60 269 -61 122 -1 192 7 209 24 14 14 64 25
111 25 61 0 86 8 86 29 0 23 -26 27 -135 18 -234 -18 -433 -20 -487 -5 -45 12
-53 8 -53 -30z"/>
<path d="M1513 1251 c-22 -22 -191 -55 -463 -90 -81 -10 -144 -7 -195 10 -41
13 -75 22 -75 18 0 -3 -5 -20 -12 -37 -7 -18 -2 -32 12 -32 34 0 121 -72 106
-87 -7 -7 11 -11 39 -9 29 3 48 11 43 19 -39 63 359 89 509 34 25 -10 57 -11
70 -2 13 8 29 15 36 15 8 0 21 8 30 18 10 11 6 12 -8 4 -31 -18 -54 35 -36 82
10 26 17 28 29 10 11 -18 22 -11 37 24 25 55 -71 73 -122 23z"/>
<path d="M655 850 c-9 -45 14 -109 31 -89 27 30 31 116 6 125 -18 7 -31 -6
-37 -36z"/>
<path d="M3810 900 c-26 -11 27 -18 155 -19 118 0 195 7 195 19 0 24 -293 24
-350 0z"/>
<path d="M4911 798 c11 -17 3 -21 -28 -13 -24 6 -48 3 -54 -6 -5 -9 -21 -15
-35 -11 -13 3 -17 2 -9 -3 8 -5 -5 -25 -30 -46 -38 -32 -40 -41 -16 -57 30
-20 94 12 70 35 -6 7 -19 0 -28 -15 -10 -16 -21 -19 -28 -6 -7 11 9 34 36 52
58 38 79 41 59 9 -10 -17 9 -20 69 -12 46 6 83 3 83 -7 0 -10 16 -18 35 -18
30 1 31 3 5 20 -25 16 -25 19 -2 20 40 0 22 14 -66 50 -50 21 -71 24 -61 8z"/>
<path d="M4810 512 c0 -35 9 -44 40 -37 33 7 35 5 10 -14 -24 -18 -20 -20 21
-10 28 6 69 14 90 18 22 3 37 17 34 30 -4 13 3 18 15 11 34 -21 23 -47 -35
-79 -30 -16 -45 -30 -32 -30 65 -2 118 74 80 115 -56 62 -223 59 -223 -4z"/>
<path d="M300 700 c-38 -38 -53 -80 -28 -80 6 0 28 20 48 45 32 39 39 40 50
13 8 -21 28 -29 61 -23 40 8 45 16 28 47 -27 50 -108 49 -159 -2z"/>
<path d="M1200 717 c-38 -11 -79 -28 -89 -39 -33 -32 -57 -19 -31 17 14 19 -2
6 -36 -29 -66 -69 -66 -176 1 -176 17 0 51 -25 75 -55 60 -77 144 -75 204 6
24 33 56 56 70 50 48 -18 29 99 -23 148 -27 26 -47 56 -45 67 6 30 -44 34
-126 11z m155 -89 c25 -25 45 -51 45 -56 0 -79 -300 -106 -341 -30 -67 125
187 199 296 86z"/>
<path d="M5920 278 c0 -31 9 -39 32 -30 23 9 29 4 21 -18 -7 -16 -3 -30 8 -30
10 0 19 27 19 60 0 47 -9 60 -40 60 -27 0 -40 -13 -40 -42z"/>
<path d="M4467 67 c0 -27 148 -79 167 -60 6 6 -22 16 -61 24 -44 8 -67 22 -61
38 5 13 -3 24 -18 24 -15 0 -27 -12 -27 -26z"/>
<path d="M5446 87 c7 -7 5 -27 -5 -45 -14 -27 -8 -34 28 -37 43 -4 45 0 24 45
-13 27 -31 50 -41 50 -10 0 -13 -6 -6 -13z"/>
<path d="M2110 60 c7 -11 50 -19 96 -18 79 3 81 4 24 18 -89 23 -134 23 -120
0z"/>
<path d="M3522 56 c-1 -18 -22 -37 -47 -42 -25 -5 2 -10 58 -11 67 -2 107 6
113 22 7 20 14 20 36 0 42 -40 109 -31 113 15 1 25 -10 40 -31 40 -29 -1 -30
-3 -5 -19 25 -16 24 -21 -7 -33 -22 -8 -43 -3 -53 13 -13 21 -27 22 -69 3 -70
-32 -85 -30 -96 11 -8 31 -10 31 -12 1z"/>
</g>
</svg>
