<?xml version="1.0" standalone="no"?>
<!DOCTYPE svg PUBLIC "-//W3C//DTD SVG 20010904//EN"
 "http://www.w3.org/TR/2001/REC-SVG-20010904/DTD/svg10.dtd">
<svg version="1.0" xmlns="http://www.w3.org/2000/svg"
 width="300.000000pt" height="169.000000pt" viewBox="0 0 300.000000 169.000000"
 preserveAspectRatio="xMidYMid meet">
<metadata>
Created by potrace 1.10, written by Peter Selinger 2001-2011
</metadata>
<g transform="translate(0.000000,169.000000) scale(0.100000,-0.100000)"
fill="#000000" stroke="none">
<path d="M936 1669 c-123 -29 -276 -157 -334 -281 -73 -154 -70 -344 8 -531
101 -244 424 -564 795 -791 l96 -58 80 48 c277 169 561 417 697 609 118 166
162 282 170 446 8 181 -34 297 -152 415 -213 213 -494 205 -732 -21 l-64 -60
-70 66 c-74 70 -170 127 -259 153 -59 17 -172 20 -235 5z m218 -34 c76 -20
179 -81 263 -155 37 -33 75 -60 84 -60 9 0 51 31 93 69 87 77 197 136 292 156
136 28 310 -44 419 -175 94 -113 136 -286 104 -428 -25 -114 -34 -141 -65
-205 -19 -38 -59 -105 -91 -150 -60 -85 -228 -261 -323 -338 -30 -24 -61 -50
-68 -56 -8 -7 -35 -27 -60 -45 -26 -17 -49 -34 -52 -38 -7 -8 -201 -136 -227
-149 -27 -14 -33 -11 -153 69 -204 136 -284 198 -423 330 -72 69 -156 164
-215 245 -111 153 -172 383 -143 540 26 142 138 294 259 351 134 64 185 70
306 39z"/>
</g>
</svg>
